<?xml version="1.0" encoding="utf-8" standalone="no"?>
<!DOCTYPE svg PUBLIC "-//W3C//DTD SVG 1.1//EN"
  "http://www.w3.org/Graphics/SVG/1.1/DTD/svg11.dtd">
<svg xmlns:xlink="http://www.w3.org/1999/xlink" width="566.13375pt" height="293.699687pt" viewBox="0 0 566.13375 293.699687" xmlns="http://www.w3.org/2000/svg" version="1.1">
 <metadata>
  <rdf:RDF xmlns:dc="http://purl.org/dc/elements/1.1/" xmlns:cc="http://creativecommons.org/ns#" xmlns:rdf="http://www.w3.org/1999/02/22-rdf-syntax-ns#">
   <cc:Work>
    <dc:type rdf:resource="http://purl.org/dc/dcmitype/StillImage"/>
    <dc:date>2025-12-22T20:16:05.384144</dc:date>
    <dc:format>image/svg+xml</dc:format>
    <dc:creator>
     <cc:Agent>
      <dc:title>Matplotlib v3.9.0, https://matplotlib.org/</dc:title>
     </cc:Agent>
    </dc:creator>
   </cc:Work>
  </rdf:RDF>
 </metadata>
 <defs>
  <style type="text/css">*{stroke-linejoin: round; stroke-linecap: butt}</style>
 </defs>
 <g id="figure_1">
  <g id="patch_1">
   <path d="M 0 293.699687 
L 566.13375 293.699687 
L 566.13375 0 
L 0 0 
z
" style="fill: #ffffff"/>
  </g>
  <g id="axes_1">
   <g id="patch_2">
    <path d="M 43.81125 253.24 
L 529.32125 253.24 
L 529.32125 7.2 
L 43.81125 7.2 
z
" style="fill: #ffffff"/>
   </g>
   <g id="PolyCollection_1">
    <defs>
     <path id="mcf2a6b310d" d="M 57.816346 -76.537132 
L 57.816346 -51.643324 
L 62.484712 -81.367274 
L 67.153077 -133.425471 
L 71.821442 -144.489386 
L 76.489808 -171.86019 
L 81.158173 -162.654022 
L 85.826538 -188.16708 
L 90.494904 -195.143951 
L 95.163269 -199.891527 
L 99.831635 -217.478198 
L 104.5 -216.900232 
L 109.168365 -217.808464 
L 113.836731 -241.133508 
L 118.505096 -242.949972 
L 123.173462 -243.775637 
L 127.841827 -237.665714 
L 132.510192 -248.358079 
L 137.178558 -246.995732 
L 141.846923 -243.569221 
L 146.515288 -237.99598 
L 151.183654 -237.087748 
L 155.852019 -245.633384 
L 160.520385 -249.431444 
L 165.18875 -248.23423 
L 169.857115 -249.844277 
L 174.525481 -249.018612 
L 179.193846 -251.371758 
L 183.862212 -255.334951 
L 188.530577 -258.720179 
L 193.198942 -258.22478 
L 197.867308 -260.866909 
L 202.535673 -260.24766 
L 207.204038 -258.926595 
L 211.872404 -255.211101 
L 216.540769 -257.357831 
L 221.209135 -262.600806 
L 225.8775 -259.256861 
L 230.545865 -256.821149 
L 235.214231 -258.802745 
L 239.882596 -260.454076 
L 244.550962 -261.77514 
L 249.219327 -264.788819 
L 253.887692 -257.935797 
L 258.556058 -264.16957 
L 263.224423 -264.252136 
L 267.892788 -263.302621 
L 272.561154 -258.885312 
L 277.229519 -264.128286 
L 281.897885 -259.710977 
L 286.56625 -260.041243 
L 291.234615 -263.715454 
L 295.902981 -256.243183 
L 300.571346 -267.100681 
L 305.239712 -262.848505 
L 309.908077 -264.953952 
L 314.576442 -265.986033 
L 319.244808 -264.541119 
L 323.913173 -263.054922 
L 328.581538 -264.788819 
L 333.249904 -262.518239 
L 337.918269 -267.265815 
L 342.586635 -266.357583 
L 347.255 -268.339179 
L 351.923365 -263.302621 
L 356.591731 -268.999712 
L 361.260096 -264.29342 
L 365.928462 -265.986033 
L 370.596827 -264.499836 
L 375.265192 -267.96763 
L 379.933558 -267.141965 
L 384.601923 -264.788819 
L 389.270288 -270.981308 
L 393.938654 -269.288695 
L 398.607019 -267.307098 
L 403.275385 -262.807222 
L 407.94375 -267.926347 
L 412.612115 -266.894265 
L 417.280481 -267.513514 
L 421.948846 -269.660244 
L 426.617212 -266.935548 
L 431.285577 -263.963153 
L 435.953942 -270.692326 
L 440.622308 -267.513514 
L 445.290673 -263.963153 
L 449.959038 -262.765939 
L 454.627404 -269.329978 
L 459.295769 -268.09148 
L 463.964135 -264.830102 
L 468.6325 -271.435424 
L 473.300865 -266.976832 
L 477.969231 -266.0686 
L 482.637596 -267.554797 
L 487.305962 -270.692326 
L 491.974327 -267.513514 
L 496.642692 -267.430948 
L 501.311058 -273.582154 
L 505.979423 -266.0686 
L 510.647788 -266.481433 
L 515.316154 -270.898742 
L 519.984519 -260.495359 
L 519.984519 -272.508789 
L 519.984519 -272.508789 
L 515.316154 -275.316051 
L 510.647788 -271.600557 
L 505.979423 -269.453828 
L 501.311058 -273.78857 
L 496.642692 -269.577677 
L 491.974327 -269.206128 
L 487.305962 -270.898742 
L 482.637596 -272.13724 
L 477.969231 -268.669446 
L 473.300865 -272.591356 
L 468.6325 -273.994987 
L 463.964135 -266.522716 
L 459.295769 -271.146441 
L 454.627404 -270.527192 
L 449.959038 -268.752012 
L 445.290673 -269.536394 
L 440.622308 -271.930823 
L 435.953942 -271.517991 
L 431.285577 -267.472231 
L 426.617212 -272.880339 
L 421.948846 -272.673922 
L 417.280481 -268.875862 
L 412.612115 -273.251888 
L 407.94375 -269.618961 
L 403.275385 -274.490386 
L 398.607019 -272.839055 
L 393.938654 -269.86666 
L 389.270288 -271.972107 
L 384.601923 -267.183248 
L 379.933558 -268.669446 
L 375.265192 -269.618961 
L 370.596827 -267.265815 
L 365.928462 -269.247411 
L 361.260096 -267.637364 
L 356.591731 -273.169321 
L 351.923365 -268.463029 
L 347.255 -273.623437 
L 342.586635 -266.357583 
L 337.918269 -274.407819 
L 333.249904 -269.288695 
L 328.581538 -266.316299 
L 323.913173 -269.660244 
L 319.244808 -271.435424 
L 314.576442 -270.609759 
L 309.908077 -268.793295 
L 305.239712 -269.247411 
L 300.571346 -270.774892 
L 295.902981 -268.917145 
L 291.234615 -265.036518 
L 286.56625 -265.94475 
L 281.897885 -260.949475 
L 277.229519 -267.596081 
L 272.561154 -267.348381 
L 267.892788 -264.995235 
L 263.224423 -268.875862 
L 258.556058 -264.747535 
L 253.887692 -261.238458 
L 249.219327 -267.059398 
L 244.550962 -262.765939 
L 239.882596 -264.664969 
L 235.214231 -264.788819 
L 230.545865 -265.201651 
L 225.8775 -260.577926 
L 221.209135 -263.674171 
L 216.540769 -262.476956 
L 211.872404 -264.210853 
L 207.204038 -267.141965 
L 202.535673 -263.178771 
L 197.867308 -262.518239 
L 193.198942 -259.87611 
L 188.530577 -259.75226 
L 183.862212 -255.789067 
L 179.193846 -253.105655 
L 174.525481 -258.637612 
L 169.857115 -257.564247 
L 165.18875 -259.628411 
L 160.520385 -253.435921 
L 155.852019 -257.481681 
L 151.183654 -252.073573 
L 146.515288 -248.688346 
L 141.846923 -246.417766 
L 137.178558 -252.775389 
L 132.510192 -249.018612 
L 127.841827 -252.857955 
L 123.173462 -246.004933 
L 118.505096 -243.775637 
L 113.836731 -242.867405 
L 109.168365 -236.014383 
L 104.5 -226.395383 
L 99.831635 -223.918387 
L 95.163269 -220.28546 
L 90.494904 -207.033532 
L 85.826538 -200.882325 
L 81.158173 -194.11187 
L 76.489808 -184.24517 
L 71.821442 -152.787322 
L 67.153077 -146.718682 
L 62.484712 -119.967127 
L 57.816346 -76.537132 
z
"/>
    </defs>
    <g clip-path="url(#p9c15f95584)">
     <use xlink:href="#mcf2a6b310d" x="0" y="293.699687" style="fill: #e41a1c; fill-opacity: 0.25"/>
    </g>
   </g>
   <g id="PolyCollection_2">
    <defs>
     <path id="m8cb319be0a" d="M 57.816346 -123.476204 
L 57.816346 -123.476204 
L 62.484712 -173.635371 
L 67.153077 -185.359818 
L 71.821442 -206.827115 
L 76.489808 -204.928085 
L 81.158173 -215.826867 
L 85.826538 -222.390906 
L 90.494904 -228.665962 
L 95.163269 -240.596826 
L 99.831635 -239.853727 
L 104.5 -250.504809 
L 109.168365 -243.321521 
L 113.836731 -245.220551 
L 118.505096 -255.211101 
L 123.173462 -253.188221 
L 127.841827 -253.394638 
L 132.510192 -256.738582 
L 137.178558 -255.665217 
L 141.846923 -253.848754 
L 146.515288 -251.867157 
L 151.183654 -258.967878 
L 155.852019 -251.90844 
L 160.520385 -256.160616 
L 165.18875 -257.192698 
L 169.857115 -259.009162 
L 174.525481 -256.944998 
L 179.193846 -258.472479 
L 183.862212 -262.064123 
L 188.530577 -265.614484 
L 193.198942 -261.114608 
L 197.867308 -265.779617 
L 202.535673 -263.880587 
L 207.204038 -262.14669 
L 211.872404 -264.458553 
L 216.540769 -263.054922 
L 221.209135 -262.972355 
L 225.8775 -261.403591 
L 230.545865 -263.261338 
L 235.214231 -267.71993 
L 239.882596 -268.421746 
L 244.550962 -265.201651 
L 249.219327 -261.981557 
L 253.887692 -267.348381 
L 258.556058 -264.912668 
L 263.224423 -268.339179 
L 267.892788 -264.128286 
L 272.561154 -262.311823 
L 277.229519 -261.032042 
L 281.897885 -264.004437 
L 286.56625 -263.756737 
L 291.234615 -262.353106 
L 295.902981 -265.408068 
L 300.571346 -265.408068 
L 305.239712 -264.664969 
L 309.908077 -266.687849 
L 314.576442 -267.71993 
L 319.244808 -265.119085 
L 323.913173 -265.408068 
L 328.581538 -263.302621 
L 333.249904 -264.623686 
L 337.918269 -266.646566 
L 342.586635 -263.302621 
L 347.255 -262.064123 
L 351.923365 -264.623686 
L 356.591731 -264.541119 
L 361.260096 -265.160368 
L 365.928462 -265.655767 
L 370.596827 -265.614484 
L 375.265192 -267.141965 
L 379.933558 -264.375986 
L 384.601923 -260.082527 
L 389.270288 -267.885064 
L 393.938654 -267.761214 
L 398.607019 -265.160368 
L 403.275385 -265.986033 
L 407.94375 -267.472231 
L 412.612115 -267.141965 
L 417.280481 -265.325501 
L 421.948846 -270.485909 
L 426.617212 -269.040995 
L 431.285577 -267.389664 
L 435.953942 -267.100681 
L 440.622308 -261.651291 
L 445.290673 -266.811699 
L 449.959038 -266.151166 
L 454.627404 -264.499836 
L 459.295769 -266.357583 
L 463.964135 -265.160368 
L 468.6325 -263.550321 
L 473.300865 -258.885312 
L 477.969231 -265.903467 
L 482.637596 -267.018115 
L 487.305962 -262.724655 
L 491.974327 -269.99051 
L 496.642692 -267.059398 
L 501.311058 -262.311823 
L 505.979423 -269.825377 
L 510.647788 -267.472231 
L 515.316154 -266.687849 
L 519.984519 -265.986033 
L 519.984519 -265.986033 
L 519.984519 -265.986033 
L 515.316154 -266.687849 
L 510.647788 -267.472231 
L 505.979423 -269.825377 
L 501.311058 -262.311823 
L 496.642692 -267.059398 
L 491.974327 -269.99051 
L 487.305962 -262.724655 
L 482.637596 -267.018115 
L 477.969231 -265.903467 
L 473.300865 -258.885312 
L 468.6325 -263.550321 
L 463.964135 -265.160368 
L 459.295769 -266.357583 
L 454.627404 -264.499836 
L 449.959038 -266.151166 
L 445.290673 -266.811699 
L 440.622308 -261.651291 
L 435.953942 -267.100681 
L 431.285577 -267.389664 
L 426.617212 -269.040995 
L 421.948846 -270.485909 
L 417.280481 -265.325501 
L 412.612115 -267.141965 
L 407.94375 -267.472231 
L 403.275385 -265.986033 
L 398.607019 -265.160368 
L 393.938654 -267.761214 
L 389.270288 -267.885064 
L 384.601923 -260.082527 
L 379.933558 -264.375986 
L 375.265192 -267.141965 
L 370.596827 -265.614484 
L 365.928462 -265.655767 
L 361.260096 -265.160368 
L 356.591731 -264.541119 
L 351.923365 -264.623686 
L 347.255 -262.064123 
L 342.586635 -263.302621 
L 337.918269 -266.646566 
L 333.249904 -264.623686 
L 328.581538 -263.302621 
L 323.913173 -265.408068 
L 319.244808 -265.119085 
L 314.576442 -267.71993 
L 309.908077 -266.687849 
L 305.239712 -264.664969 
L 300.571346 -265.408068 
L 295.902981 -265.408068 
L 291.234615 -262.353106 
L 286.56625 -263.756737 
L 281.897885 -264.004437 
L 277.229519 -261.032042 
L 272.561154 -262.311823 
L 267.892788 -264.128286 
L 263.224423 -268.339179 
L 258.556058 -264.912668 
L 253.887692 -267.348381 
L 249.219327 -261.981557 
L 244.550962 -265.201651 
L 239.882596 -268.421746 
L 235.214231 -267.71993 
L 230.545865 -263.261338 
L 225.8775 -261.403591 
L 221.209135 -262.972355 
L 216.540769 -263.054922 
L 211.872404 -264.458553 
L 207.204038 -262.14669 
L 202.535673 -263.880587 
L 197.867308 -265.779617 
L 193.198942 -261.114608 
L 188.530577 -265.614484 
L 183.862212 -262.064123 
L 179.193846 -258.472479 
L 174.525481 -256.944998 
L 169.857115 -259.009162 
L 165.18875 -257.192698 
L 160.520385 -256.160616 
L 155.852019 -251.90844 
L 151.183654 -258.967878 
L 146.515288 -251.867157 
L 141.846923 -253.848754 
L 137.178558 -255.665217 
L 132.510192 -256.738582 
L 127.841827 -253.394638 
L 123.173462 -253.188221 
L 118.505096 -255.211101 
L 113.836731 -245.220551 
L 109.168365 -243.321521 
L 104.5 -250.504809 
L 99.831635 -239.853727 
L 95.163269 -240.596826 
L 90.494904 -228.665962 
L 85.826538 -222.390906 
L 81.158173 -215.826867 
L 76.489808 -204.928085 
L 71.821442 -206.827115 
L 67.153077 -185.359818 
L 62.484712 -173.635371 
L 57.816346 -123.476204 
z
"/>
    </defs>
    <g clip-path="url(#p9c15f95584)">
     <use xlink:href="#m8cb319be0a" x="0" y="293.699687" style="fill: #228b22; fill-opacity: 0.25"/>
    </g>
   </g>
   <g id="matplotlib.axis_1">
    <g id="xtick_1">
     <g id="line2d_1">
      <path d="M 53.147981 253.24 
L 53.147981 7.2 
" clip-path="url(#p9c15f95584)" style="fill: none; stroke: #b0b0b0; stroke-opacity: 0.25; stroke-width: 0.8; stroke-linecap: square"/>
     </g>
     <g id="line2d_2">
      <defs>
       <path id="m2dcdeb3af0" d="M 0 0 
L 0 3.5 
" style="stroke: #000000; stroke-width: 0.8"/>
      </defs>
      <g>
       <use xlink:href="#m2dcdeb3af0" x="53.147981" y="253.24" style="stroke: #000000; stroke-width: 0.8"/>
      </g>
     </g>
     <g id="text_1">
      <!-- 0 -->
      <g transform="translate(49.648606 268.598281) scale(0.11 -0.11)">
       <defs>
        <path id="DejaVuSans-30" d="M 2034 4250 
Q 1547 4250 1301 3770 
Q 1056 3291 1056 2328 
Q 1056 1369 1301 889 
Q 1547 409 2034 409 
Q 2525 409 2770 889 
Q 3016 1369 3016 2328 
Q 3016 3291 2770 3770 
Q 2525 4250 2034 4250 
z
M 2034 4750 
Q 2819 4750 3233 4129 
Q 3647 3509 3647 2328 
Q 3647 1150 3233 529 
Q 2819 -91 2034 -91 
Q 1250 -91 836 529 
Q 422 1150 422 2328 
Q 422 3509 836 4129 
Q 1250 4750 2034 4750 
z
" transform="scale(0.015625)"/>
       </defs>
       <use xlink:href="#DejaVuSans-30"/>
      </g>
     </g>
    </g>
    <g id="xtick_2">
     <g id="line2d_3">
      <path d="M 146.515288 253.24 
L 146.515288 7.2 
" clip-path="url(#p9c15f95584)" style="fill: none; stroke: #b0b0b0; stroke-opacity: 0.25; stroke-width: 0.8; stroke-linecap: square"/>
     </g>
     <g id="line2d_4">
      <g>
       <use xlink:href="#m2dcdeb3af0" x="146.515288" y="253.24" style="stroke: #000000; stroke-width: 0.8"/>
      </g>
     </g>
     <g id="text_2">
      <!-- 20 -->
      <g transform="translate(139.516538 268.598281) scale(0.11 -0.11)">
       <defs>
        <path id="DejaVuSans-32" d="M 1228 531 
L 3431 531 
L 3431 0 
L 469 0 
L 469 531 
Q 828 903 1448 1529 
Q 2069 2156 2228 2338 
Q 2531 2678 2651 2914 
Q 2772 3150 2772 3378 
Q 2772 3750 2511 3984 
Q 2250 4219 1831 4219 
Q 1534 4219 1204 4116 
Q 875 4013 500 3803 
L 500 4441 
Q 881 4594 1212 4672 
Q 1544 4750 1819 4750 
Q 2544 4750 2975 4387 
Q 3406 4025 3406 3419 
Q 3406 3131 3298 2873 
Q 3191 2616 2906 2266 
Q 2828 2175 2409 1742 
Q 1991 1309 1228 531 
z
" transform="scale(0.015625)"/>
       </defs>
       <use xlink:href="#DejaVuSans-32"/>
       <use xlink:href="#DejaVuSans-30" x="63.623047"/>
      </g>
     </g>
    </g>
    <g id="xtick_3">
     <g id="line2d_5">
      <path d="M 239.882596 253.24 
L 239.882596 7.2 
" clip-path="url(#p9c15f95584)" style="fill: none; stroke: #b0b0b0; stroke-opacity: 0.25; stroke-width: 0.8; stroke-linecap: square"/>
     </g>
     <g id="line2d_6">
      <g>
       <use xlink:href="#m2dcdeb3af0" x="239.882596" y="253.24" style="stroke: #000000; stroke-width: 0.8"/>
      </g>
     </g>
     <g id="text_3">
      <!-- 40 -->
      <g transform="translate(232.883846 268.598281) scale(0.11 -0.11)">
       <defs>
        <path id="DejaVuSans-34" d="M 2419 4116 
L 825 1625 
L 2419 1625 
L 2419 4116 
z
M 2253 4666 
L 3047 4666 
L 3047 1625 
L 3713 1625 
L 3713 1100 
L 3047 1100 
L 3047 0 
L 2419 0 
L 2419 1100 
L 313 1100 
L 313 1709 
L 2253 4666 
z
" transform="scale(0.015625)"/>
       </defs>
       <use xlink:href="#DejaVuSans-34"/>
       <use xlink:href="#DejaVuSans-30" x="63.623047"/>
      </g>
     </g>
    </g>
    <g id="xtick_4">
     <g id="line2d_7">
      <path d="M 333.249904 253.24 
L 333.249904 7.2 
" clip-path="url(#p9c15f95584)" style="fill: none; stroke: #b0b0b0; stroke-opacity: 0.25; stroke-width: 0.8; stroke-linecap: square"/>
     </g>
     <g id="line2d_8">
      <g>
       <use xlink:href="#m2dcdeb3af0" x="333.249904" y="253.24" style="stroke: #000000; stroke-width: 0.8"/>
      </g>
     </g>
     <g id="text_4">
      <!-- 60 -->
      <g transform="translate(326.251154 268.598281) scale(0.11 -0.11)">
       <defs>
        <path id="DejaVuSans-36" d="M 2113 2584 
Q 1688 2584 1439 2293 
Q 1191 2003 1191 1497 
Q 1191 994 1439 701 
Q 1688 409 2113 409 
Q 2538 409 2786 701 
Q 3034 994 3034 1497 
Q 3034 2003 2786 2293 
Q 2538 2584 2113 2584 
z
M 3366 4563 
L 3366 3988 
Q 3128 4100 2886 4159 
Q 2644 4219 2406 4219 
Q 1781 4219 1451 3797 
Q 1122 3375 1075 2522 
Q 1259 2794 1537 2939 
Q 1816 3084 2150 3084 
Q 2853 3084 3261 2657 
Q 3669 2231 3669 1497 
Q 3669 778 3244 343 
Q 2819 -91 2113 -91 
Q 1303 -91 875 529 
Q 447 1150 447 2328 
Q 447 3434 972 4092 
Q 1497 4750 2381 4750 
Q 2619 4750 2861 4703 
Q 3103 4656 3366 4563 
z
" transform="scale(0.015625)"/>
       </defs>
       <use xlink:href="#DejaVuSans-36"/>
       <use xlink:href="#DejaVuSans-30" x="63.623047"/>
      </g>
     </g>
    </g>
    <g id="xtick_5">
     <g id="line2d_9">
      <path d="M 426.617212 253.24 
L 426.617212 7.2 
" clip-path="url(#p9c15f95584)" style="fill: none; stroke: #b0b0b0; stroke-opacity: 0.25; stroke-width: 0.8; stroke-linecap: square"/>
     </g>
     <g id="line2d_10">
      <g>
       <use xlink:href="#m2dcdeb3af0" x="426.617212" y="253.24" style="stroke: #000000; stroke-width: 0.8"/>
      </g>
     </g>
     <g id="text_5">
      <!-- 80 -->
      <g transform="translate(419.618462 268.598281) scale(0.11 -0.11)">
       <defs>
        <path id="DejaVuSans-38" d="M 2034 2216 
Q 1584 2216 1326 1975 
Q 1069 1734 1069 1313 
Q 1069 891 1326 650 
Q 1584 409 2034 409 
Q 2484 409 2743 651 
Q 3003 894 3003 1313 
Q 3003 1734 2745 1975 
Q 2488 2216 2034 2216 
z
M 1403 2484 
Q 997 2584 770 2862 
Q 544 3141 544 3541 
Q 544 4100 942 4425 
Q 1341 4750 2034 4750 
Q 2731 4750 3128 4425 
Q 3525 4100 3525 3541 
Q 3525 3141 3298 2862 
Q 3072 2584 2669 2484 
Q 3125 2378 3379 2068 
Q 3634 1759 3634 1313 
Q 3634 634 3220 271 
Q 2806 -91 2034 -91 
Q 1263 -91 848 271 
Q 434 634 434 1313 
Q 434 1759 690 2068 
Q 947 2378 1403 2484 
z
M 1172 3481 
Q 1172 3119 1398 2916 
Q 1625 2713 2034 2713 
Q 2441 2713 2670 2916 
Q 2900 3119 2900 3481 
Q 2900 3844 2670 4047 
Q 2441 4250 2034 4250 
Q 1625 4250 1398 4047 
Q 1172 3844 1172 3481 
z
" transform="scale(0.015625)"/>
       </defs>
       <use xlink:href="#DejaVuSans-38"/>
       <use xlink:href="#DejaVuSans-30" x="63.623047"/>
      </g>
     </g>
    </g>
    <g id="xtick_6">
     <g id="line2d_11">
      <path d="M 519.984519 253.24 
L 519.984519 7.2 
" clip-path="url(#p9c15f95584)" style="fill: none; stroke: #b0b0b0; stroke-opacity: 0.25; stroke-width: 0.8; stroke-linecap: square"/>
     </g>
     <g id="line2d_12">
      <g>
       <use xlink:href="#m2dcdeb3af0" x="519.984519" y="253.24" style="stroke: #000000; stroke-width: 0.8"/>
      </g>
     </g>
     <g id="text_6">
      <!-- 100 -->
      <g transform="translate(509.486394 268.598281) scale(0.11 -0.11)">
       <defs>
        <path id="DejaVuSans-31" d="M 794 531 
L 1825 531 
L 1825 4091 
L 703 3866 
L 703 4441 
L 1819 4666 
L 2450 4666 
L 2450 531 
L 3481 531 
L 3481 0 
L 794 0 
L 794 531 
z
" transform="scale(0.015625)"/>
       </defs>
       <use xlink:href="#DejaVuSans-31"/>
       <use xlink:href="#DejaVuSans-30" x="63.623047"/>
       <use xlink:href="#DejaVuSans-30" x="127.246094"/>
      </g>
     </g>
    </g>
    <g id="text_7">
     <!-- Epoch -->
     <g transform="translate(268.193125 284.004062) scale(0.12 -0.12)">
      <defs>
       <path id="DejaVuSans-45" d="M 628 4666 
L 3578 4666 
L 3578 4134 
L 1259 4134 
L 1259 2753 
L 3481 2753 
L 3481 2222 
L 1259 2222 
L 1259 531 
L 3634 531 
L 3634 0 
L 628 0 
L 628 4666 
z
" transform="scale(0.015625)"/>
       <path id="DejaVuSans-70" d="M 1159 525 
L 1159 -1331 
L 581 -1331 
L 581 3500 
L 1159 3500 
L 1159 2969 
Q 1341 3281 1617 3432 
Q 1894 3584 2278 3584 
Q 2916 3584 3314 3078 
Q 3713 2572 3713 1747 
Q 3713 922 3314 415 
Q 2916 -91 2278 -91 
Q 1894 -91 1617 61 
Q 1341 213 1159 525 
z
M 3116 1747 
Q 3116 2381 2855 2742 
Q 2594 3103 2138 3103 
Q 1681 3103 1420 2742 
Q 1159 2381 1159 1747 
Q 1159 1113 1420 752 
Q 1681 391 2138 391 
Q 2594 391 2855 752 
Q 3116 1113 3116 1747 
z
" transform="scale(0.015625)"/>
       <path id="DejaVuSans-6f" d="M 1959 3097 
Q 1497 3097 1228 2736 
Q 959 2375 959 1747 
Q 959 1119 1226 758 
Q 1494 397 1959 397 
Q 2419 397 2687 759 
Q 2956 1122 2956 1747 
Q 2956 2369 2687 2733 
Q 2419 3097 1959 3097 
z
M 1959 3584 
Q 2709 3584 3137 3096 
Q 3566 2609 3566 1747 
Q 3566 888 3137 398 
Q 2709 -91 1959 -91 
Q 1206 -91 779 398 
Q 353 888 353 1747 
Q 353 2609 779 3096 
Q 1206 3584 1959 3584 
z
" transform="scale(0.015625)"/>
       <path id="DejaVuSans-63" d="M 3122 3366 
L 3122 2828 
Q 2878 2963 2633 3030 
Q 2388 3097 2138 3097 
Q 1578 3097 1268 2742 
Q 959 2388 959 1747 
Q 959 1106 1268 751 
Q 1578 397 2138 397 
Q 2388 397 2633 464 
Q 2878 531 3122 666 
L 3122 134 
Q 2881 22 2623 -34 
Q 2366 -91 2075 -91 
Q 1284 -91 818 406 
Q 353 903 353 1747 
Q 353 2603 823 3093 
Q 1294 3584 2113 3584 
Q 2378 3584 2631 3529 
Q 2884 3475 3122 3366 
z
" transform="scale(0.015625)"/>
       <path id="DejaVuSans-68" d="M 3513 2113 
L 3513 0 
L 2938 0 
L 2938 2094 
Q 2938 2591 2744 2837 
Q 2550 3084 2163 3084 
Q 1697 3084 1428 2787 
Q 1159 2491 1159 1978 
L 1159 0 
L 581 0 
L 581 4863 
L 1159 4863 
L 1159 2956 
Q 1366 3272 1645 3428 
Q 1925 3584 2291 3584 
Q 2894 3584 3203 3211 
Q 3513 2838 3513 2113 
z
" transform="scale(0.015625)"/>
      </defs>
      <use xlink:href="#DejaVuSans-45"/>
      <use xlink:href="#DejaVuSans-70" x="63.183594"/>
      <use xlink:href="#DejaVuSans-6f" x="126.660156"/>
      <use xlink:href="#DejaVuSans-63" x="187.841797"/>
      <use xlink:href="#DejaVuSans-68" x="242.822266"/>
     </g>
    </g>
   </g>
   <g id="matplotlib.axis_2">
    <g id="ytick_1">
     <g id="line2d_13">
      <path d="M 43.81125 219.433135 
L 529.32125 219.433135 
" clip-path="url(#p9c15f95584)" style="fill: none; stroke: #b0b0b0; stroke-opacity: 0.25; stroke-width: 0.8; stroke-linecap: square"/>
     </g>
     <g id="line2d_14">
      <defs>
       <path id="ma7a24f3f55" d="M 0 0 
L -3.5 0 
" style="stroke: #000000; stroke-width: 0.8"/>
      </defs>
      <g>
       <use xlink:href="#ma7a24f3f55" x="43.81125" y="219.433135" style="stroke: #000000; stroke-width: 0.8"/>
      </g>
     </g>
     <g id="text_8">
      <!-- 20 -->
      <g transform="translate(22.81375 223.612275) scale(0.11 -0.11)">
       <use xlink:href="#DejaVuSans-32"/>
       <use xlink:href="#DejaVuSans-30" x="63.623047"/>
      </g>
     </g>
    </g>
    <g id="ytick_2">
     <g id="line2d_15">
      <path d="M 43.81125 178.14987 
L 529.32125 178.14987 
" clip-path="url(#p9c15f95584)" style="fill: none; stroke: #b0b0b0; stroke-opacity: 0.25; stroke-width: 0.8; stroke-linecap: square"/>
     </g>
     <g id="line2d_16">
      <g>
       <use xlink:href="#ma7a24f3f55" x="43.81125" y="178.14987" style="stroke: #000000; stroke-width: 0.8"/>
      </g>
     </g>
     <g id="text_9">
      <!-- 30 -->
      <g transform="translate(22.81375 182.329011) scale(0.11 -0.11)">
       <defs>
        <path id="DejaVuSans-33" d="M 2597 2516 
Q 3050 2419 3304 2112 
Q 3559 1806 3559 1356 
Q 3559 666 3084 287 
Q 2609 -91 1734 -91 
Q 1441 -91 1130 -33 
Q 819 25 488 141 
L 488 750 
Q 750 597 1062 519 
Q 1375 441 1716 441 
Q 2309 441 2620 675 
Q 2931 909 2931 1356 
Q 2931 1769 2642 2001 
Q 2353 2234 1838 2234 
L 1294 2234 
L 1294 2753 
L 1863 2753 
Q 2328 2753 2575 2939 
Q 2822 3125 2822 3475 
Q 2822 3834 2567 4026 
Q 2313 4219 1838 4219 
Q 1578 4219 1281 4162 
Q 984 4106 628 3988 
L 628 4550 
Q 988 4650 1302 4700 
Q 1616 4750 1894 4750 
Q 2613 4750 3031 4423 
Q 3450 4097 3450 3541 
Q 3450 3153 3228 2886 
Q 3006 2619 2597 2516 
z
" transform="scale(0.015625)"/>
       </defs>
       <use xlink:href="#DejaVuSans-33"/>
       <use xlink:href="#DejaVuSans-30" x="63.623047"/>
      </g>
     </g>
    </g>
    <g id="ytick_3">
     <g id="line2d_17">
      <path d="M 43.81125 136.866606 
L 529.32125 136.866606 
" clip-path="url(#p9c15f95584)" style="fill: none; stroke: #b0b0b0; stroke-opacity: 0.25; stroke-width: 0.8; stroke-linecap: square"/>
     </g>
     <g id="line2d_18">
      <g>
       <use xlink:href="#ma7a24f3f55" x="43.81125" y="136.866606" style="stroke: #000000; stroke-width: 0.8"/>
      </g>
     </g>
     <g id="text_10">
      <!-- 40 -->
      <g transform="translate(22.81375 141.045746) scale(0.11 -0.11)">
       <use xlink:href="#DejaVuSans-34"/>
       <use xlink:href="#DejaVuSans-30" x="63.623047"/>
      </g>
     </g>
    </g>
    <g id="ytick_4">
     <g id="line2d_19">
      <path d="M 43.81125 95.583341 
L 529.32125 95.583341 
" clip-path="url(#p9c15f95584)" style="fill: none; stroke: #b0b0b0; stroke-opacity: 0.25; stroke-width: 0.8; stroke-linecap: square"/>
     </g>
     <g id="line2d_20">
      <g>
       <use xlink:href="#ma7a24f3f55" x="43.81125" y="95.583341" style="stroke: #000000; stroke-width: 0.8"/>
      </g>
     </g>
     <g id="text_11">
      <!-- 50 -->
      <g transform="translate(22.81375 99.762482) scale(0.11 -0.11)">
       <defs>
        <path id="DejaVuSans-35" d="M 691 4666 
L 3169 4666 
L 3169 4134 
L 1269 4134 
L 1269 2991 
Q 1406 3038 1543 3061 
Q 1681 3084 1819 3084 
Q 2600 3084 3056 2656 
Q 3513 2228 3513 1497 
Q 3513 744 3044 326 
Q 2575 -91 1722 -91 
Q 1428 -91 1123 -41 
Q 819 9 494 109 
L 494 744 
Q 775 591 1075 516 
Q 1375 441 1709 441 
Q 2250 441 2565 725 
Q 2881 1009 2881 1497 
Q 2881 1984 2565 2268 
Q 2250 2553 1709 2553 
Q 1456 2553 1204 2497 
Q 953 2441 691 2322 
L 691 4666 
z
" transform="scale(0.015625)"/>
       </defs>
       <use xlink:href="#DejaVuSans-35"/>
       <use xlink:href="#DejaVuSans-30" x="63.623047"/>
      </g>
     </g>
    </g>
    <g id="ytick_5">
     <g id="line2d_21">
      <path d="M 43.81125 54.300077 
L 529.32125 54.300077 
" clip-path="url(#p9c15f95584)" style="fill: none; stroke: #b0b0b0; stroke-opacity: 0.25; stroke-width: 0.8; stroke-linecap: square"/>
     </g>
     <g id="line2d_22">
      <g>
       <use xlink:href="#ma7a24f3f55" x="43.81125" y="54.300077" style="stroke: #000000; stroke-width: 0.8"/>
      </g>
     </g>
     <g id="text_12">
      <!-- 60 -->
      <g transform="translate(22.81375 58.479217) scale(0.11 -0.11)">
       <use xlink:href="#DejaVuSans-36"/>
       <use xlink:href="#DejaVuSans-30" x="63.623047"/>
      </g>
     </g>
    </g>
    <g id="ytick_6">
     <g id="line2d_23">
      <path d="M 43.81125 13.016812 
L 529.32125 13.016812 
" clip-path="url(#p9c15f95584)" style="fill: none; stroke: #b0b0b0; stroke-opacity: 0.25; stroke-width: 0.8; stroke-linecap: square"/>
     </g>
     <g id="line2d_24">
      <g>
       <use xlink:href="#ma7a24f3f55" x="43.81125" y="13.016812" style="stroke: #000000; stroke-width: 0.8"/>
      </g>
     </g>
     <g id="text_13">
      <!-- 70 -->
      <g transform="translate(22.81375 17.195953) scale(0.11 -0.11)">
       <defs>
        <path id="DejaVuSans-37" d="M 525 4666 
L 3525 4666 
L 3525 4397 
L 1831 0 
L 1172 0 
L 2766 4134 
L 525 4134 
L 525 4666 
z
" transform="scale(0.015625)"/>
       </defs>
       <use xlink:href="#DejaVuSans-37"/>
       <use xlink:href="#DejaVuSans-30" x="63.623047"/>
      </g>
     </g>
    </g>
    <g id="text_14">
     <!-- Test Accuracy (%) -->
     <g transform="translate(16.318125 183.624687) rotate(-90) scale(0.12 -0.12)">
      <defs>
       <path id="DejaVuSans-54" d="M -19 4666 
L 3928 4666 
L 3928 4134 
L 2272 4134 
L 2272 0 
L 1638 0 
L 1638 4134 
L -19 4134 
L -19 4666 
z
" transform="scale(0.015625)"/>
       <path id="DejaVuSans-65" d="M 3597 1894 
L 3597 1613 
L 953 1613 
Q 991 1019 1311 708 
Q 1631 397 2203 397 
Q 2534 397 2845 478 
Q 3156 559 3463 722 
L 3463 178 
Q 3153 47 2828 -22 
Q 2503 -91 2169 -91 
Q 1331 -91 842 396 
Q 353 884 353 1716 
Q 353 2575 817 3079 
Q 1281 3584 2069 3584 
Q 2775 3584 3186 3129 
Q 3597 2675 3597 1894 
z
M 3022 2063 
Q 3016 2534 2758 2815 
Q 2500 3097 2075 3097 
Q 1594 3097 1305 2825 
Q 1016 2553 972 2059 
L 3022 2063 
z
" transform="scale(0.015625)"/>
       <path id="DejaVuSans-73" d="M 2834 3397 
L 2834 2853 
Q 2591 2978 2328 3040 
Q 2066 3103 1784 3103 
Q 1356 3103 1142 2972 
Q 928 2841 928 2578 
Q 928 2378 1081 2264 
Q 1234 2150 1697 2047 
L 1894 2003 
Q 2506 1872 2764 1633 
Q 3022 1394 3022 966 
Q 3022 478 2636 193 
Q 2250 -91 1575 -91 
Q 1294 -91 989 -36 
Q 684 19 347 128 
L 347 722 
Q 666 556 975 473 
Q 1284 391 1588 391 
Q 1994 391 2212 530 
Q 2431 669 2431 922 
Q 2431 1156 2273 1281 
Q 2116 1406 1581 1522 
L 1381 1569 
Q 847 1681 609 1914 
Q 372 2147 372 2553 
Q 372 3047 722 3315 
Q 1072 3584 1716 3584 
Q 2034 3584 2315 3537 
Q 2597 3491 2834 3397 
z
" transform="scale(0.015625)"/>
       <path id="DejaVuSans-74" d="M 1172 4494 
L 1172 3500 
L 2356 3500 
L 2356 3053 
L 1172 3053 
L 1172 1153 
Q 1172 725 1289 603 
Q 1406 481 1766 481 
L 2356 481 
L 2356 0 
L 1766 0 
Q 1100 0 847 248 
Q 594 497 594 1153 
L 594 3053 
L 172 3053 
L 172 3500 
L 594 3500 
L 594 4494 
L 1172 4494 
z
" transform="scale(0.015625)"/>
       <path id="DejaVuSans-20" transform="scale(0.015625)"/>
       <path id="DejaVuSans-41" d="M 2188 4044 
L 1331 1722 
L 3047 1722 
L 2188 4044 
z
M 1831 4666 
L 2547 4666 
L 4325 0 
L 3669 0 
L 3244 1197 
L 1141 1197 
L 716 0 
L 50 0 
L 1831 4666 
z
" transform="scale(0.015625)"/>
       <path id="DejaVuSans-75" d="M 544 1381 
L 544 3500 
L 1119 3500 
L 1119 1403 
Q 1119 906 1312 657 
Q 1506 409 1894 409 
Q 2359 409 2629 706 
Q 2900 1003 2900 1516 
L 2900 3500 
L 3475 3500 
L 3475 0 
L 2900 0 
L 2900 538 
Q 2691 219 2414 64 
Q 2138 -91 1772 -91 
Q 1169 -91 856 284 
Q 544 659 544 1381 
z
M 1991 3584 
L 1991 3584 
z
" transform="scale(0.015625)"/>
       <path id="DejaVuSans-72" d="M 2631 2963 
Q 2534 3019 2420 3045 
Q 2306 3072 2169 3072 
Q 1681 3072 1420 2755 
Q 1159 2438 1159 1844 
L 1159 0 
L 581 0 
L 581 3500 
L 1159 3500 
L 1159 2956 
Q 1341 3275 1631 3429 
Q 1922 3584 2338 3584 
Q 2397 3584 2469 3576 
Q 2541 3569 2628 3553 
L 2631 2963 
z
" transform="scale(0.015625)"/>
       <path id="DejaVuSans-61" d="M 2194 1759 
Q 1497 1759 1228 1600 
Q 959 1441 959 1056 
Q 959 750 1161 570 
Q 1363 391 1709 391 
Q 2188 391 2477 730 
Q 2766 1069 2766 1631 
L 2766 1759 
L 2194 1759 
z
M 3341 1997 
L 3341 0 
L 2766 0 
L 2766 531 
Q 2569 213 2275 61 
Q 1981 -91 1556 -91 
Q 1019 -91 701 211 
Q 384 513 384 1019 
Q 384 1609 779 1909 
Q 1175 2209 1959 2209 
L 2766 2209 
L 2766 2266 
Q 2766 2663 2505 2880 
Q 2244 3097 1772 3097 
Q 1472 3097 1187 3025 
Q 903 2953 641 2809 
L 641 3341 
Q 956 3463 1253 3523 
Q 1550 3584 1831 3584 
Q 2591 3584 2966 3190 
Q 3341 2797 3341 1997 
z
" transform="scale(0.015625)"/>
       <path id="DejaVuSans-79" d="M 2059 -325 
Q 1816 -950 1584 -1140 
Q 1353 -1331 966 -1331 
L 506 -1331 
L 506 -850 
L 844 -850 
Q 1081 -850 1212 -737 
Q 1344 -625 1503 -206 
L 1606 56 
L 191 3500 
L 800 3500 
L 1894 763 
L 2988 3500 
L 3597 3500 
L 2059 -325 
z
" transform="scale(0.015625)"/>
       <path id="DejaVuSans-28" d="M 1984 4856 
Q 1566 4138 1362 3434 
Q 1159 2731 1159 2009 
Q 1159 1288 1364 580 
Q 1569 -128 1984 -844 
L 1484 -844 
Q 1016 -109 783 600 
Q 550 1309 550 2009 
Q 550 2706 781 3412 
Q 1013 4119 1484 4856 
L 1984 4856 
z
" transform="scale(0.015625)"/>
       <path id="DejaVuSans-25" d="M 4653 2053 
Q 4381 2053 4226 1822 
Q 4072 1591 4072 1178 
Q 4072 772 4226 539 
Q 4381 306 4653 306 
Q 4919 306 5073 539 
Q 5228 772 5228 1178 
Q 5228 1588 5073 1820 
Q 4919 2053 4653 2053 
z
M 4653 2450 
Q 5147 2450 5437 2106 
Q 5728 1763 5728 1178 
Q 5728 594 5436 251 
Q 5144 -91 4653 -91 
Q 4153 -91 3862 251 
Q 3572 594 3572 1178 
Q 3572 1766 3864 2108 
Q 4156 2450 4653 2450 
z
M 1428 4353 
Q 1159 4353 1004 4120 
Q 850 3888 850 3481 
Q 850 3069 1003 2837 
Q 1156 2606 1428 2606 
Q 1700 2606 1854 2837 
Q 2009 3069 2009 3481 
Q 2009 3884 1853 4118 
Q 1697 4353 1428 4353 
z
M 4250 4750 
L 4750 4750 
L 1831 -91 
L 1331 -91 
L 4250 4750 
z
M 1428 4750 
Q 1922 4750 2215 4408 
Q 2509 4066 2509 3481 
Q 2509 2891 2217 2550 
Q 1925 2209 1428 2209 
Q 931 2209 642 2551 
Q 353 2894 353 3481 
Q 353 4063 643 4406 
Q 934 4750 1428 4750 
z
" transform="scale(0.015625)"/>
       <path id="DejaVuSans-29" d="M 513 4856 
L 1013 4856 
Q 1481 4119 1714 3412 
Q 1947 2706 1947 2009 
Q 1947 1309 1714 600 
Q 1481 -109 1013 -844 
L 513 -844 
Q 928 -128 1133 580 
Q 1338 1288 1338 2009 
Q 1338 2731 1133 3434 
Q 928 4138 513 4856 
z
" transform="scale(0.015625)"/>
      </defs>
      <use xlink:href="#DejaVuSans-54"/>
      <use xlink:href="#DejaVuSans-65" x="44.083984"/>
      <use xlink:href="#DejaVuSans-73" x="105.607422"/>
      <use xlink:href="#DejaVuSans-74" x="157.707031"/>
      <use xlink:href="#DejaVuSans-20" x="196.916016"/>
      <use xlink:href="#DejaVuSans-41" x="228.703125"/>
      <use xlink:href="#DejaVuSans-63" x="295.361328"/>
      <use xlink:href="#DejaVuSans-63" x="350.341797"/>
      <use xlink:href="#DejaVuSans-75" x="405.322266"/>
      <use xlink:href="#DejaVuSans-72" x="468.701172"/>
      <use xlink:href="#DejaVuSans-61" x="509.814453"/>
      <use xlink:href="#DejaVuSans-63" x="571.09375"/>
      <use xlink:href="#DejaVuSans-79" x="626.074219"/>
      <use xlink:href="#DejaVuSans-20" x="685.253906"/>
      <use xlink:href="#DejaVuSans-28" x="717.041016"/>
      <use xlink:href="#DejaVuSans-25" x="756.054688"/>
      <use xlink:href="#DejaVuSans-29" x="851.074219"/>
     </g>
    </g>
   </g>
   <g id="line2d_25">
    <path d="M 57.816346 229.609459 
L 62.484712 193.032487 
L 67.153077 153.627611 
L 71.821442 145.061334 
L 76.489808 115.647008 
L 81.158173 115.316742 
L 85.826538 99.174985 
L 90.494904 92.610946 
L 95.163269 83.611194 
L 99.831635 73.001395 
L 104.5 72.05188 
L 109.168365 66.788264 
L 113.836731 51.699231 
L 118.505096 50.336883 
L 123.173462 48.809402 
L 127.841827 48.437853 
L 132.510192 45.011342 
L 137.178558 43.814127 
L 141.846923 48.706194 
L 146.515288 50.357525 
L 151.183654 49.119027 
L 155.852019 42.142155 
L 160.520385 42.266005 
L 165.18875 39.768367 
L 169.857115 39.995425 
L 174.525481 39.871576 
L 179.193846 41.460981 
L 183.862212 38.137678 
L 188.530577 34.463468 
L 193.198942 34.649243 
L 197.867308 32.007114 
L 202.535673 31.986472 
L 207.204038 30.665408 
L 211.872404 33.98871 
L 216.540769 33.782294 
L 221.209135 30.562199 
L 225.8775 33.782294 
L 230.545865 32.688288 
L 235.214231 31.903906 
L 239.882596 31.140165 
L 244.550962 31.429148 
L 249.219327 27.775579 
L 253.887692 34.11256 
L 258.556058 29.241135 
L 263.224423 27.135688 
L 267.892788 29.550759 
L 272.561154 30.582841 
L 277.229519 27.837504 
L 281.897885 33.369461 
L 286.56625 30.706691 
L 291.234615 29.323701 
L 295.902981 31.119523 
L 300.571346 24.761901 
L 305.239712 27.651729 
L 309.908077 26.826064 
L 314.576442 25.401791 
L 319.244808 25.711416 
L 323.913173 27.342105 
L 328.581538 28.147128 
L 333.249904 27.796221 
L 337.918269 22.862871 
L 342.586635 27.342105 
L 347.255 22.718379 
L 351.923365 27.816862 
L 356.591731 22.615171 
L 361.260096 27.734296 
L 365.928462 26.082965 
L 370.596827 27.816862 
L 375.265192 24.906392 
L 379.933558 25.793982 
L 384.601923 27.713654 
L 389.270288 22.22298 
L 393.938654 24.12201 
L 398.607019 23.626611 
L 403.275385 25.050884 
L 407.94375 24.927034 
L 412.612115 23.626611 
L 417.280481 25.504999 
L 421.948846 22.532604 
L 426.617212 23.791744 
L 431.285577 27.981995 
L 435.953942 22.594529 
L 440.622308 23.977519 
L 445.290673 26.949914 
L 449.959038 27.940712 
L 454.627404 23.771102 
L 459.295769 24.080727 
L 463.964135 28.023279 
L 468.6325 20.984482 
L 473.300865 23.915594 
L 477.969231 26.330665 
L 482.637596 23.853669 
L 487.305962 22.904154 
L 491.974327 25.339866 
L 496.642692 25.195375 
L 501.311058 20.014325 
L 505.979423 25.938474 
L 510.647788 24.658693 
L 515.316154 20.592291 
L 519.984519 27.197613 
" clip-path="url(#p9c15f95584)" style="fill: none; stroke: #e41a1c; stroke-width: 2; stroke-linecap: square"/>
   </g>
   <g id="line2d_26">
    <path d="M 57.816346 170.223483 
L 62.484712 120.064317 
L 67.153077 108.33987 
L 71.821442 86.872572 
L 76.489808 88.771602 
L 81.158173 77.872821 
L 85.826538 71.308782 
L 90.494904 65.033725 
L 95.163269 53.102862 
L 99.831635 53.845961 
L 104.5 43.194878 
L 109.168365 50.378166 
L 113.836731 48.479136 
L 118.505096 38.488586 
L 123.173462 40.511466 
L 127.841827 40.30505 
L 132.510192 36.961105 
L 137.178558 38.03447 
L 141.846923 39.850934 
L 146.515288 41.832531 
L 151.183654 34.731809 
L 155.852019 41.791247 
L 160.520385 37.539071 
L 165.18875 36.506989 
L 169.857115 34.690526 
L 174.525481 36.754689 
L 179.193846 35.227208 
L 183.862212 31.635564 
L 188.530577 28.085204 
L 193.198942 32.585079 
L 197.867308 27.92007 
L 202.535673 29.819101 
L 207.204038 31.552998 
L 211.872404 29.241135 
L 216.540769 30.644766 
L 221.209135 30.727332 
L 225.8775 32.296097 
L 230.545865 30.43835 
L 235.214231 25.979757 
L 239.882596 25.277942 
L 244.550962 28.498036 
L 249.219327 31.718131 
L 253.887692 26.351306 
L 258.556058 28.787019 
L 263.224423 25.360508 
L 267.892788 29.571401 
L 272.561154 31.387865 
L 277.229519 32.667646 
L 281.897885 29.695251 
L 286.56625 29.94295 
L 291.234615 31.346581 
L 295.902981 28.29162 
L 300.571346 28.29162 
L 305.239712 29.034719 
L 309.908077 27.011839 
L 314.576442 25.979757 
L 319.244808 28.580603 
L 323.913173 28.29162 
L 328.581538 30.397066 
L 333.249904 29.076002 
L 337.918269 27.053122 
L 342.586635 30.397066 
L 347.255 31.635564 
L 351.923365 29.076002 
L 356.591731 29.158568 
L 361.260096 28.539319 
L 365.928462 28.04392 
L 370.596827 28.085204 
L 375.265192 26.557723 
L 379.933558 29.323701 
L 384.601923 33.617161 
L 389.270288 25.814624 
L 393.938654 25.938474 
L 398.607019 28.539319 
L 403.275385 27.713654 
L 407.94375 26.227457 
L 412.612115 26.557723 
L 417.280481 28.374186 
L 421.948846 23.213778 
L 426.617212 24.658693 
L 431.285577 26.310023 
L 435.953942 26.599006 
L 440.622308 32.048397 
L 445.290673 26.887989 
L 449.959038 27.548521 
L 454.627404 29.199852 
L 459.295769 27.342105 
L 463.964135 28.539319 
L 468.6325 30.149367 
L 473.300865 34.814376 
L 477.969231 27.796221 
L 482.637596 26.681573 
L 487.305962 30.975032 
L 491.974327 23.709177 
L 496.642692 26.640289 
L 501.311058 31.387865 
L 505.979423 23.874311 
L 510.647788 26.227457 
L 515.316154 27.011839 
L 519.984519 27.713654 
" clip-path="url(#p9c15f95584)" style="fill: none; stroke: #228b22; stroke-width: 2; stroke-linecap: square"/>
   </g>
   <g id="patch_3">
    <path d="M 43.81125 253.24 
L 43.81125 7.2 
" style="fill: none; stroke: #000000; stroke-width: 0.8; stroke-linejoin: miter; stroke-linecap: square"/>
   </g>
   <g id="patch_4">
    <path d="M 529.32125 253.24 
L 529.32125 7.2 
" style="fill: none; stroke: #000000; stroke-width: 0.8; stroke-linejoin: miter; stroke-linecap: square"/>
   </g>
   <g id="patch_5">
    <path d="M 43.81125 253.24 
L 529.32125 253.24 
" style="fill: none; stroke: #000000; stroke-width: 0.8; stroke-linejoin: miter; stroke-linecap: square"/>
   </g>
   <g id="patch_6">
    <path d="M 43.81125 7.2 
L 529.32125 7.2 
" style="fill: none; stroke: #000000; stroke-width: 0.8; stroke-linejoin: miter; stroke-linecap: square"/>
   </g>
   <g id="legend_1">
    <g id="patch_7">
     <path d="M 126.081875 248.24 
L 447.050625 248.24 
Q 449.050625 248.24 449.050625 246.24 
L 449.050625 217.88375 
Q 449.050625 215.88375 447.050625 215.88375 
L 126.081875 215.88375 
Q 124.081875 215.88375 124.081875 217.88375 
L 124.081875 246.24 
Q 124.081875 248.24 126.081875 248.24 
z
" style="fill: #ffffff; opacity: 0.8; stroke: #cccccc; stroke-linejoin: miter"/>
    </g>
    <g id="line2d_27">
     <path d="M 128.081875 223.982187 
L 138.081875 223.982187 
L 148.081875 223.982187 
" style="fill: none; stroke: #e41a1c; stroke-width: 2; stroke-linecap: square"/>
    </g>
    <g id="text_15">
     <!-- Accuracy - Baseline -->
     <g transform="translate(156.081875 227.482187) scale(0.1 -0.1)">
      <defs>
       <path id="DejaVuSans-2d" d="M 313 2009 
L 1997 2009 
L 1997 1497 
L 313 1497 
L 313 2009 
z
" transform="scale(0.015625)"/>
       <path id="DejaVuSans-42" d="M 1259 2228 
L 1259 519 
L 2272 519 
Q 2781 519 3026 730 
Q 3272 941 3272 1375 
Q 3272 1813 3026 2020 
Q 2781 2228 2272 2228 
L 1259 2228 
z
M 1259 4147 
L 1259 2741 
L 2194 2741 
Q 2656 2741 2882 2914 
Q 3109 3088 3109 3444 
Q 3109 3797 2882 3972 
Q 2656 4147 2194 4147 
L 1259 4147 
z
M 628 4666 
L 2241 4666 
Q 2963 4666 3353 4366 
Q 3744 4066 3744 3513 
Q 3744 3084 3544 2831 
Q 3344 2578 2956 2516 
Q 3422 2416 3680 2098 
Q 3938 1781 3938 1306 
Q 3938 681 3513 340 
Q 3088 0 2303 0 
L 628 0 
L 628 4666 
z
" transform="scale(0.015625)"/>
       <path id="DejaVuSans-6c" d="M 603 4863 
L 1178 4863 
L 1178 0 
L 603 0 
L 603 4863 
z
" transform="scale(0.015625)"/>
       <path id="DejaVuSans-69" d="M 603 3500 
L 1178 3500 
L 1178 0 
L 603 0 
L 603 3500 
z
M 603 4863 
L 1178 4863 
L 1178 4134 
L 603 4134 
L 603 4863 
z
" transform="scale(0.015625)"/>
       <path id="DejaVuSans-6e" d="M 3513 2113 
L 3513 0 
L 2938 0 
L 2938 2094 
Q 2938 2591 2744 2837 
Q 2550 3084 2163 3084 
Q 1697 3084 1428 2787 
Q 1159 2491 1159 1978 
L 1159 0 
L 581 0 
L 581 3500 
L 1159 3500 
L 1159 2956 
Q 1366 3272 1645 3428 
Q 1925 3584 2291 3584 
Q 2894 3584 3203 3211 
Q 3513 2838 3513 2113 
z
" transform="scale(0.015625)"/>
      </defs>
      <use xlink:href="#DejaVuSans-41"/>
      <use xlink:href="#DejaVuSans-63" x="66.658203"/>
      <use xlink:href="#DejaVuSans-63" x="121.638672"/>
      <use xlink:href="#DejaVuSans-75" x="176.619141"/>
      <use xlink:href="#DejaVuSans-72" x="239.998047"/>
      <use xlink:href="#DejaVuSans-61" x="281.111328"/>
      <use xlink:href="#DejaVuSans-63" x="342.390625"/>
      <use xlink:href="#DejaVuSans-79" x="397.371094"/>
      <use xlink:href="#DejaVuSans-20" x="456.550781"/>
      <use xlink:href="#DejaVuSans-2d" x="488.337891"/>
      <use xlink:href="#DejaVuSans-20" x="524.421875"/>
      <use xlink:href="#DejaVuSans-42" x="556.208984"/>
      <use xlink:href="#DejaVuSans-61" x="624.8125"/>
      <use xlink:href="#DejaVuSans-73" x="686.091797"/>
      <use xlink:href="#DejaVuSans-65" x="738.191406"/>
      <use xlink:href="#DejaVuSans-6c" x="799.714844"/>
      <use xlink:href="#DejaVuSans-69" x="827.498047"/>
      <use xlink:href="#DejaVuSans-6e" x="855.28125"/>
      <use xlink:href="#DejaVuSans-65" x="918.660156"/>
     </g>
    </g>
    <g id="line2d_28">
     <path d="M 128.081875 238.660312 
L 138.081875 238.660312 
L 148.081875 238.660312 
" style="fill: none; stroke: #228b22; stroke-width: 2; stroke-linecap: square"/>
    </g>
    <g id="text_16">
     <!-- Accuracy - SSL Pre-trained -->
     <g transform="translate(156.081875 242.160312) scale(0.1 -0.1)">
      <defs>
       <path id="DejaVuSans-53" d="M 3425 4513 
L 3425 3897 
Q 3066 4069 2747 4153 
Q 2428 4238 2131 4238 
Q 1616 4238 1336 4038 
Q 1056 3838 1056 3469 
Q 1056 3159 1242 3001 
Q 1428 2844 1947 2747 
L 2328 2669 
Q 3034 2534 3370 2195 
Q 3706 1856 3706 1288 
Q 3706 609 3251 259 
Q 2797 -91 1919 -91 
Q 1588 -91 1214 -16 
Q 841 59 441 206 
L 441 856 
Q 825 641 1194 531 
Q 1563 422 1919 422 
Q 2459 422 2753 634 
Q 3047 847 3047 1241 
Q 3047 1584 2836 1778 
Q 2625 1972 2144 2069 
L 1759 2144 
Q 1053 2284 737 2584 
Q 422 2884 422 3419 
Q 422 4038 858 4394 
Q 1294 4750 2059 4750 
Q 2388 4750 2728 4690 
Q 3069 4631 3425 4513 
z
" transform="scale(0.015625)"/>
       <path id="DejaVuSans-4c" d="M 628 4666 
L 1259 4666 
L 1259 531 
L 3531 531 
L 3531 0 
L 628 0 
L 628 4666 
z
" transform="scale(0.015625)"/>
       <path id="DejaVuSans-50" d="M 1259 4147 
L 1259 2394 
L 2053 2394 
Q 2494 2394 2734 2622 
Q 2975 2850 2975 3272 
Q 2975 3691 2734 3919 
Q 2494 4147 2053 4147 
L 1259 4147 
z
M 628 4666 
L 2053 4666 
Q 2838 4666 3239 4311 
Q 3641 3956 3641 3272 
Q 3641 2581 3239 2228 
Q 2838 1875 2053 1875 
L 1259 1875 
L 1259 0 
L 628 0 
L 628 4666 
z
" transform="scale(0.015625)"/>
       <path id="DejaVuSans-64" d="M 2906 2969 
L 2906 4863 
L 3481 4863 
L 3481 0 
L 2906 0 
L 2906 525 
Q 2725 213 2448 61 
Q 2172 -91 1784 -91 
Q 1150 -91 751 415 
Q 353 922 353 1747 
Q 353 2572 751 3078 
Q 1150 3584 1784 3584 
Q 2172 3584 2448 3432 
Q 2725 3281 2906 2969 
z
M 947 1747 
Q 947 1113 1208 752 
Q 1469 391 1925 391 
Q 2381 391 2643 752 
Q 2906 1113 2906 1747 
Q 2906 2381 2643 2742 
Q 2381 3103 1925 3103 
Q 1469 3103 1208 2742 
Q 947 2381 947 1747 
z
" transform="scale(0.015625)"/>
      </defs>
      <use xlink:href="#DejaVuSans-41"/>
      <use xlink:href="#DejaVuSans-63" x="66.658203"/>
      <use xlink:href="#DejaVuSans-63" x="121.638672"/>
      <use xlink:href="#DejaVuSans-75" x="176.619141"/>
      <use xlink:href="#DejaVuSans-72" x="239.998047"/>
      <use xlink:href="#DejaVuSans-61" x="281.111328"/>
      <use xlink:href="#DejaVuSans-63" x="342.390625"/>
      <use xlink:href="#DejaVuSans-79" x="397.371094"/>
      <use xlink:href="#DejaVuSans-20" x="456.550781"/>
      <use xlink:href="#DejaVuSans-2d" x="488.337891"/>
      <use xlink:href="#DejaVuSans-20" x="524.421875"/>
      <use xlink:href="#DejaVuSans-53" x="556.208984"/>
      <use xlink:href="#DejaVuSans-53" x="619.685547"/>
      <use xlink:href="#DejaVuSans-4c" x="683.162109"/>
      <use xlink:href="#DejaVuSans-20" x="738.875"/>
      <use xlink:href="#DejaVuSans-50" x="770.662109"/>
      <use xlink:href="#DejaVuSans-72" x="829.214844"/>
      <use xlink:href="#DejaVuSans-65" x="868.078125"/>
      <use xlink:href="#DejaVuSans-2d" x="929.601562"/>
      <use xlink:href="#DejaVuSans-74" x="965.685547"/>
      <use xlink:href="#DejaVuSans-72" x="1004.894531"/>
      <use xlink:href="#DejaVuSans-61" x="1046.007812"/>
      <use xlink:href="#DejaVuSans-69" x="1107.287109"/>
      <use xlink:href="#DejaVuSans-6e" x="1135.070312"/>
      <use xlink:href="#DejaVuSans-65" x="1198.449219"/>
      <use xlink:href="#DejaVuSans-64" x="1259.972656"/>
     </g>
    </g>
    <g id="line2d_29">
     <path d="M 308.427187 223.982187 
L 318.427187 223.982187 
L 328.427187 223.982187 
" style="fill: none; stroke-dasharray: 7.4,3.2; stroke-dashoffset: 0; stroke: #f26b70; stroke-width: 2"/>
    </g>
    <g id="text_17">
     <!-- Loss - Baseline -->
     <g transform="translate(336.427187 227.482187) scale(0.1 -0.1)">
      <use xlink:href="#DejaVuSans-4c"/>
      <use xlink:href="#DejaVuSans-6f" x="53.962891"/>
      <use xlink:href="#DejaVuSans-73" x="115.144531"/>
      <use xlink:href="#DejaVuSans-73" x="167.244141"/>
      <use xlink:href="#DejaVuSans-20" x="219.34375"/>
      <use xlink:href="#DejaVuSans-2d" x="251.130859"/>
      <use xlink:href="#DejaVuSans-20" x="287.214844"/>
      <use xlink:href="#DejaVuSans-42" x="319.001953"/>
      <use xlink:href="#DejaVuSans-61" x="387.605469"/>
      <use xlink:href="#DejaVuSans-73" x="448.884766"/>
      <use xlink:href="#DejaVuSans-65" x="500.984375"/>
      <use xlink:href="#DejaVuSans-6c" x="562.507812"/>
      <use xlink:href="#DejaVuSans-69" x="590.291016"/>
      <use xlink:href="#DejaVuSans-6e" x="618.074219"/>
      <use xlink:href="#DejaVuSans-65" x="681.453125"/>
     </g>
    </g>
    <g id="line2d_30">
     <path d="M 308.427187 238.660312 
L 318.427187 238.660312 
L 328.427187 238.660312 
" style="fill: none; stroke-dasharray: 7.4,3.2; stroke-dashoffset: 0; stroke: #7dc27d; stroke-width: 2"/>
    </g>
    <g id="text_18">
     <!-- Loss - SSL Pre-trained -->
     <g transform="translate(336.427187 242.160312) scale(0.1 -0.1)">
      <use xlink:href="#DejaVuSans-4c"/>
      <use xlink:href="#DejaVuSans-6f" x="53.962891"/>
      <use xlink:href="#DejaVuSans-73" x="115.144531"/>
      <use xlink:href="#DejaVuSans-73" x="167.244141"/>
      <use xlink:href="#DejaVuSans-20" x="219.34375"/>
      <use xlink:href="#DejaVuSans-2d" x="251.130859"/>
      <use xlink:href="#DejaVuSans-20" x="287.214844"/>
      <use xlink:href="#DejaVuSans-53" x="319.001953"/>
      <use xlink:href="#DejaVuSans-53" x="382.478516"/>
      <use xlink:href="#DejaVuSans-4c" x="445.955078"/>
      <use xlink:href="#DejaVuSans-20" x="501.667969"/>
      <use xlink:href="#DejaVuSans-50" x="533.455078"/>
      <use xlink:href="#DejaVuSans-72" x="592.007812"/>
      <use xlink:href="#DejaVuSans-65" x="630.871094"/>
      <use xlink:href="#DejaVuSans-2d" x="692.394531"/>
      <use xlink:href="#DejaVuSans-74" x="728.478516"/>
      <use xlink:href="#DejaVuSans-72" x="767.6875"/>
      <use xlink:href="#DejaVuSans-61" x="808.800781"/>
      <use xlink:href="#DejaVuSans-69" x="870.080078"/>
      <use xlink:href="#DejaVuSans-6e" x="897.863281"/>
      <use xlink:href="#DejaVuSans-65" x="961.242188"/>
      <use xlink:href="#DejaVuSans-64" x="1022.765625"/>
     </g>
    </g>
   </g>
  </g>
  <g id="axes_2">
   <g id="PolyCollection_3">
    <defs>
     <path id="m77dcc44455" d="M 57.816346 -146.894583 
L 57.816346 -126.528496 
L 62.484712 -99.946134 
L 67.153077 -88.412381 
L 71.821442 -85.16867 
L 76.489808 -64.842754 
L 81.158173 -61.468491 
L 85.826538 -55.975271 
L 90.494904 -52.480499 
L 95.163269 -48.463519 
L 99.831635 -44.712665 
L 104.5 -44.888407 
L 109.168365 -38.732386 
L 113.836731 -37.005085 
L 118.505096 -36.191647 
L 123.173462 -36.261944 
L 127.841827 -33.450058 
L 132.510192 -37.035212 
L 137.178558 -34.866043 
L 141.846923 -37.898863 
L 146.515288 -37.346528 
L 151.183654 -35.297869 
L 155.852019 -35.307911 
L 160.520385 -39.515697 
L 165.18875 -34.574812 
L 169.857115 -36.191647 
L 174.525481 -37.979203 
L 179.193846 -40.841301 
L 183.862212 -38.436134 
L 188.530577 -40.073053 
L 193.198942 -39.987692 
L 197.867308 -40.434581 
L 202.535673 -37.251125 
L 207.204038 -37.35155 
L 211.872404 -39.490591 
L 216.540769 -40.369305 
L 221.209135 -43.311743 
L 225.8775 -42.759408 
L 230.545865 -41.363508 
L 235.214231 -41.443848 
L 239.882596 -40.806152 
L 244.550962 -41.614569 
L 249.219327 -40.414496 
L 253.887692 -45.721931 
L 258.556058 -45.656655 
L 263.224423 -41.684866 
L 267.892788 -41.222914 
L 272.561154 -43.929354 
L 277.229519 -42.653963 
L 281.897885 -45.275042 
L 286.56625 -42.076522 
L 291.234615 -42.945194 
L 295.902981 -42.307498 
L 300.571346 -41.509123 
L 305.239712 -43.105873 
L 309.908077 -41.017043 
L 314.576442 -38.471283 
L 319.244808 -42.955236 
L 323.913173 -41.850567 
L 328.581538 -47.454253 
L 333.249904 -43.281616 
L 337.918269 -39.957565 
L 342.586635 -44.32603 
L 347.255 -38.139882 
L 351.923365 -45.621506 
L 356.591731 -40.283945 
L 361.260096 -45.782185 
L 365.928462 -44.476667 
L 370.596827 -46.856728 
L 375.265192 -44.40637 
L 379.933558 -45.84244 
L 384.601923 -45.767122 
L 389.270288 -41.850567 
L 393.938654 -42.417965 
L 398.607019 -41.037128 
L 403.275385 -40.002756 
L 407.94375 -45.405594 
L 412.612115 -41.830482 
L 417.280481 -45.315212 
L 421.948846 -40.956789 
L 426.617212 -41.519166 
L 431.285577 -49.266915 
L 435.953942 -43.100852 
L 440.622308 -43.201276 
L 445.290673 -46.409839 
L 449.959038 -48.227522 
L 454.627404 -43.100852 
L 459.295769 -47.097746 
L 463.964135 -45.109341 
L 468.6325 -43.999651 
L 473.300865 -46.424902 
L 477.969231 -45.897674 
L 482.637596 -41.41372 
L 487.305962 -44.496752 
L 491.974327 -45.646612 
L 496.642692 -43.467401 
L 501.311058 -40.394412 
L 505.979423 -45.912737 
L 510.647788 -42.19201 
L 515.316154 -40.730834 
L 519.984519 -43.25651 
L 519.984519 -54.268055 
L 519.984519 -54.268055 
L 515.316154 -48.222501 
L 510.647788 -48.985727 
L 505.979423 -48.071864 
L 501.311058 -42.212095 
L 496.642692 -44.998874 
L 491.974327 -48.709559 
L 487.305962 -45.330275 
L 482.637596 -48.112034 
L 477.969231 -46.143714 
L 473.300865 -47.584805 
L 468.6325 -45.832398 
L 463.964135 -48.50871 
L 459.295769 -47.35885 
L 454.627404 -48.031694 
L 449.959038 -50.989195 
L 445.290673 -49.342234 
L 440.622308 -46.439966 
L 435.953942 -46.58056 
L 431.285577 -49.342234 
L 426.617212 -49.216703 
L 421.948846 -45.129426 
L 417.280481 -47.127874 
L 412.612115 -44.396327 
L 407.94375 -48.443434 
L 403.275385 -49.528019 
L 398.607019 -46.861749 
L 393.938654 -44.295903 
L 389.270288 -43.924332 
L 384.601923 -49.412531 
L 379.933558 -48.26267 
L 375.265192 -48.107012 
L 370.596827 -51.918122 
L 365.928462 -47.15298 
L 361.260096 -50.738134 
L 356.591731 -43.648165 
L 351.923365 -47.881057 
L 347.255 -44.501773 
L 342.586635 -44.833174 
L 337.918269 -44.828153 
L 333.249904 -51.310554 
L 328.581538 -48.478583 
L 323.913173 -46.575539 
L 319.244808 -47.414083 
L 314.576442 -45.852483 
L 309.908077 -46.736218 
L 305.239712 -44.632325 
L 300.571346 -44.205521 
L 295.902981 -51.275405 
L 291.234615 -43.321785 
L 286.56625 -47.629996 
L 281.897885 -48.468541 
L 277.229519 -44.40637 
L 272.561154 -49.171512 
L 267.892788 -45.4307 
L 263.224423 -44.411391 
L 258.556058 -45.67674 
L 253.887692 -46.901919 
L 249.219327 -44.958705 
L 244.550962 -44.587134 
L 239.882596 -46.901919 
L 235.214231 -48.880281 
L 230.545865 -50.507158 
L 225.8775 -45.862525 
L 221.209135 -43.387061 
L 216.540769 -45.606443 
L 211.872404 -44.295903 
L 207.204038 -40.605303 
L 202.535673 -41.147595 
L 197.867308 -41.473975 
L 193.198942 -43.301701 
L 188.530577 -43.452337 
L 183.862212 -41.614569 
L 179.193846 -43.407146 
L 174.525481 -46.811536 
L 169.857115 -42.60375 
L 165.18875 -40.022841 
L 160.520385 -42.513368 
L 155.852019 -44.893429 
L 151.183654 -47.966418 
L 146.515288 -46.680985 
L 141.846923 -42.096607 
L 137.178558 -38.596813 
L 132.510192 -37.165764 
L 127.841827 -42.578644 
L 123.173462 -40.369305 
L 118.505096 -37.622696 
L 113.836731 -39.023617 
L 109.168365 -57.03475 
L 104.5 -51.662039 
L 99.831635 -49.071088 
L 95.163269 -61.473512 
L 90.494904 -64.461141 
L 85.826538 -67.674724 
L 81.158173 -82.09066 
L 76.489808 -74.70946 
L 71.821442 -93.318118 
L 67.153077 -94.156662 
L 62.484712 -126.754452 
L 57.816346 -146.894583 
z
"/>
    </defs>
    <g clip-path="url(#p9c15f95584)">
     <use xlink:href="#m77dcc44455" x="0" y="293.699687" style="fill: #f26b70; fill-opacity: 0.25"/>
    </g>
   </g>
   <g id="PolyCollection_4">
    <defs>
     <path id="m0359b1d04a" d="M 57.816346 -93.684667 
L 57.816346 -93.684667 
L 62.484712 -69.005349 
L 67.153077 -61.83504 
L 71.821442 -52.616072 
L 76.489808 -54.0421 
L 81.158173 -50.833537 
L 85.826538 -44.12016 
L 90.494904 -47.03247 
L 95.163269 -37.532314 
L 99.831635 -38.185073 
L 104.5 -34.574812 
L 109.168365 -41.242999 
L 113.836731 -38.024394 
L 118.505096 -34.609961 
L 123.173462 -35.569015 
L 127.841827 -36.854448 
L 132.510192 -36.171562 
L 137.178558 -37.175807 
L 141.846923 -39.194339 
L 146.515288 -41.704951 
L 151.183654 -38.220221 
L 155.852019 -42.608772 
L 160.520385 -42.68409 
L 165.18875 -42.217116 
L 169.857115 -41.152616 
L 174.525481 -45.169596 
L 179.193846 -43.030554 
L 183.862212 -41.222914 
L 188.530577 -41.368529 
L 193.198942 -42.523411 
L 197.867308 -40.901555 
L 202.535673 -43.246467 
L 207.204038 -45.752058 
L 211.872404 -42.543496 
L 216.540769 -44.893429 
L 221.209135 -46.269244 
L 225.8775 -47.865994 
L 230.545865 -48.112034 
L 235.214231 -45.244914 
L 239.882596 -45.631549 
L 244.550962 -48.117055 
L 249.219327 -50.878728 
L 253.887692 -48.076885 
L 258.556058 -48.368116 
L 263.224423 -47.273489 
L 267.892788 -50.185799 
L 272.561154 -51.00928 
L 277.229519 -55.217066 
L 281.897885 -50.030141 
L 286.56625 -51.893016 
L 291.234615 -52.339905 
L 295.902981 -50.246054 
L 300.571346 -51.737358 
L 305.239712 -55.578594 
L 309.908077 -51.752421 
L 314.576442 -51.260341 
L 319.244808 -50.647752 
L 323.913173 -53.052919 
L 328.581538 -55.207024 
L 333.249904 -51.82774 
L 337.918269 -52.415223 
L 342.586635 -55.181918 
L 347.255 -56.54267 
L 351.923365 -52.982621 
L 356.591731 -52.229438 
L 361.260096 -55.88991 
L 365.928462 -54.599456 
L 370.596827 -55.207024 
L 375.265192 -53.454616 
L 379.933558 -54.258012 
L 384.601923 -58.109292 
L 389.270288 -51.46119 
L 393.938654 -54.955963 
L 398.607019 -55.894932 
L 403.275385 -53.093088 
L 407.94375 -50.431839 
L 412.612115 -54.222864 
L 417.280481 -54.252991 
L 421.948846 -49.437637 
L 426.617212 -52.07378 
L 431.285577 -56.54267 
L 435.953942 -53.319043 
L 440.622308 -61.307812 
L 445.290673 -53.801081 
L 449.959038 -53.399383 
L 454.627404 -54.65971 
L 459.295769 -55.668976 
L 463.964135 -58.164525 
L 468.6325 -57.235599 
L 473.300865 -65.053645 
L 477.969231 -54.795283 
L 482.637596 -55.011196 
L 487.305962 -54.639625 
L 491.974327 -48.538838 
L 496.642692 -55.237151 
L 501.311058 -60.624925 
L 505.979423 -50.446903 
L 510.647788 -54.293161 
L 515.316154 -56.723434 
L 519.984519 -58.069122 
L 519.984519 -58.069122 
L 519.984519 -58.069122 
L 515.316154 -56.723434 
L 510.647788 -54.293161 
L 505.979423 -50.446903 
L 501.311058 -60.624925 
L 496.642692 -55.237151 
L 491.974327 -48.538838 
L 487.305962 -54.639625 
L 482.637596 -55.011196 
L 477.969231 -54.795283 
L 473.300865 -65.053645 
L 468.6325 -57.235599 
L 463.964135 -58.164525 
L 459.295769 -55.668976 
L 454.627404 -54.65971 
L 449.959038 -53.399383 
L 445.290673 -53.801081 
L 440.622308 -61.307812 
L 435.953942 -53.319043 
L 431.285577 -56.54267 
L 426.617212 -52.07378 
L 421.948846 -49.437637 
L 417.280481 -54.252991 
L 412.612115 -54.222864 
L 407.94375 -50.431839 
L 403.275385 -53.093088 
L 398.607019 -55.894932 
L 393.938654 -54.955963 
L 389.270288 -51.46119 
L 384.601923 -58.109292 
L 379.933558 -54.258012 
L 375.265192 -53.454616 
L 370.596827 -55.207024 
L 365.928462 -54.599456 
L 361.260096 -55.88991 
L 356.591731 -52.229438 
L 351.923365 -52.982621 
L 347.255 -56.54267 
L 342.586635 -55.181918 
L 337.918269 -52.415223 
L 333.249904 -51.82774 
L 328.581538 -55.207024 
L 323.913173 -53.052919 
L 319.244808 -50.647752 
L 314.576442 -51.260341 
L 309.908077 -51.752421 
L 305.239712 -55.578594 
L 300.571346 -51.737358 
L 295.902981 -50.246054 
L 291.234615 -52.339905 
L 286.56625 -51.893016 
L 281.897885 -50.030141 
L 277.229519 -55.217066 
L 272.561154 -51.00928 
L 267.892788 -50.185799 
L 263.224423 -47.273489 
L 258.556058 -48.368116 
L 253.887692 -48.076885 
L 249.219327 -50.878728 
L 244.550962 -48.117055 
L 239.882596 -45.631549 
L 235.214231 -45.244914 
L 230.545865 -48.112034 
L 225.8775 -47.865994 
L 221.209135 -46.269244 
L 216.540769 -44.893429 
L 211.872404 -42.543496 
L 207.204038 -45.752058 
L 202.535673 -43.246467 
L 197.867308 -40.901555 
L 193.198942 -42.523411 
L 188.530577 -41.368529 
L 183.862212 -41.222914 
L 179.193846 -43.030554 
L 174.525481 -45.169596 
L 169.857115 -41.152616 
L 165.18875 -42.217116 
L 160.520385 -42.68409 
L 155.852019 -42.608772 
L 151.183654 -38.220221 
L 146.515288 -41.704951 
L 141.846923 -39.194339 
L 137.178558 -37.175807 
L 132.510192 -36.171562 
L 127.841827 -36.854448 
L 123.173462 -35.569015 
L 118.505096 -34.609961 
L 113.836731 -38.024394 
L 109.168365 -41.242999 
L 104.5 -34.574812 
L 99.831635 -38.185073 
L 95.163269 -37.532314 
L 90.494904 -47.03247 
L 85.826538 -44.12016 
L 81.158173 -50.833537 
L 76.489808 -54.0421 
L 71.821442 -52.616072 
L 67.153077 -61.83504 
L 62.484712 -69.005349 
L 57.816346 -93.684667 
z
"/>
    </defs>
    <g clip-path="url(#p9c15f95584)">
     <use xlink:href="#m0359b1d04a" x="0" y="293.699687" style="fill: #7dc27d; fill-opacity: 0.25"/>
    </g>
   </g>
   <g id="matplotlib.axis_3">
    <g id="ytick_7">
     <g id="line2d_31">
      <defs>
       <path id="m7ffcc14978" d="M 0 0 
L 3.5 0 
" style="stroke: #000000; stroke-width: 0.8"/>
      </defs>
      <g>
       <use xlink:href="#m7ffcc14978" x="529.32125" y="228.133878" style="stroke: #000000; stroke-width: 0.8"/>
      </g>
     </g>
     <g id="text_19">
      <!-- 2 -->
      <g transform="translate(536.32125 232.313018) scale(0.11 -0.11)">
       <use xlink:href="#DejaVuSans-32"/>
      </g>
     </g>
    </g>
    <g id="ytick_8">
     <g id="line2d_32">
      <g>
       <use xlink:href="#m7ffcc14978" x="529.32125" y="177.921633" style="stroke: #000000; stroke-width: 0.8"/>
      </g>
     </g>
     <g id="text_20">
      <!-- 3 -->
      <g transform="translate(536.32125 182.100773) scale(0.11 -0.11)">
       <use xlink:href="#DejaVuSans-33"/>
      </g>
     </g>
    </g>
    <g id="ytick_9">
     <g id="line2d_33">
      <g>
       <use xlink:href="#m7ffcc14978" x="529.32125" y="127.709388" style="stroke: #000000; stroke-width: 0.8"/>
      </g>
     </g>
     <g id="text_21">
      <!-- 4 -->
      <g transform="translate(536.32125 131.888528) scale(0.11 -0.11)">
       <use xlink:href="#DejaVuSans-34"/>
      </g>
     </g>
    </g>
    <g id="ytick_10">
     <g id="line2d_34">
      <g>
       <use xlink:href="#m7ffcc14978" x="529.32125" y="77.497143" style="stroke: #000000; stroke-width: 0.8"/>
      </g>
     </g>
     <g id="text_22">
      <!-- 5 -->
      <g transform="translate(536.32125 81.676283) scale(0.11 -0.11)">
       <use xlink:href="#DejaVuSans-35"/>
      </g>
     </g>
    </g>
    <g id="ytick_11">
     <g id="line2d_35">
      <g>
       <use xlink:href="#m7ffcc14978" x="529.32125" y="27.284898" style="stroke: #000000; stroke-width: 0.8"/>
      </g>
     </g>
     <g id="text_23">
      <!-- 6 -->
      <g transform="translate(536.32125 31.464039) scale(0.11 -0.11)">
       <use xlink:href="#DejaVuSans-36"/>
      </g>
     </g>
    </g>
    <g id="text_24">
     <!-- Test Loss -->
     <g transform="translate(556.438125 157.101875) rotate(-90) scale(0.12 -0.12)">
      <use xlink:href="#DejaVuSans-54"/>
      <use xlink:href="#DejaVuSans-65" x="44.083984"/>
      <use xlink:href="#DejaVuSans-73" x="105.607422"/>
      <use xlink:href="#DejaVuSans-74" x="157.707031"/>
      <use xlink:href="#DejaVuSans-20" x="196.916016"/>
      <use xlink:href="#DejaVuSans-4c" x="228.703125"/>
      <use xlink:href="#DejaVuSans-6f" x="282.666016"/>
      <use xlink:href="#DejaVuSans-73" x="343.847656"/>
      <use xlink:href="#DejaVuSans-73" x="395.947266"/>
     </g>
    </g>
   </g>
   <g id="line2d_36">
    <path d="M 57.816346 156.988148 
L 62.484712 180.349395 
L 67.153077 202.415166 
L 71.821442 204.456293 
L 76.489808 223.923581 
L 81.158173 221.920112 
L 85.826538 231.87469 
L 90.494904 235.228868 
L 95.163269 238.731172 
L 99.831635 246.807811 
L 104.5 245.424464 
L 109.168365 245.81612 
L 113.836731 255.685336 
L 118.505096 256.792516 
L 123.173462 255.384063 
L 127.841827 255.685336 
L 132.510192 256.599199 
L 137.178558 256.968259 
L 141.846923 253.701953 
L 146.515288 251.685931 
L 151.183654 252.067544 
L 155.852019 253.599018 
L 160.520385 252.685155 
L 165.18875 256.400861 
L 169.857115 254.301989 
L 174.525481 251.304318 
L 179.193846 251.575464 
L 183.862212 253.674336 
L 188.530577 251.936992 
L 193.198942 252.054991 
L 197.867308 252.745409 
L 202.535673 254.500327 
L 207.204038 254.721261 
L 211.872404 251.80644 
L 216.540769 250.711813 
L 221.209135 250.350285 
L 225.8775 249.388721 
L 230.545865 247.764355 
L 235.214231 248.537623 
L 239.882596 249.845652 
L 244.550962 250.598836 
L 249.219327 251.013087 
L 253.887692 247.387763 
L 258.556058 248.03299 
L 263.224423 250.651559 
L 267.892788 250.372881 
L 272.561154 247.149255 
L 277.229519 250.169521 
L 281.897885 246.827896 
L 286.56625 248.846429 
L 291.234615 250.566198 
L 295.902981 246.908236 
L 300.571346 250.842365 
L 305.239712 249.830589 
L 309.908077 249.823057 
L 314.576442 251.537805 
L 319.244808 248.515028 
L 323.913173 249.486635 
L 328.581538 245.733269 
L 333.249904 246.403603 
L 337.918269 251.306829 
L 342.586635 249.120085 
L 347.255 252.37886 
L 351.923365 246.948406 
L 356.591731 251.733633 
L 361.260096 245.439528 
L 365.928462 247.884864 
L 370.596827 244.312263 
L 375.265192 247.442996 
L 379.933558 246.647132 
L 384.601923 246.109861 
L 389.270288 250.812238 
L 393.938654 250.342753 
L 398.607019 249.750249 
L 403.275385 248.9343 
L 407.94375 246.775173 
L 412.612115 250.586283 
L 417.280481 247.478145 
L 421.948846 250.65658 
L 426.617212 248.331753 
L 431.285577 244.395113 
L 435.953942 248.858982 
L 440.622308 248.879067 
L 445.290673 245.823651 
L 449.959038 244.091329 
L 454.627404 248.133415 
L 459.295769 246.471389 
L 463.964135 246.890662 
L 468.6325 248.783663 
L 473.300865 246.694834 
L 477.969231 247.678994 
L 482.637596 248.936811 
L 487.305962 248.786174 
L 491.974327 246.521602 
L 496.642692 249.46655 
L 501.311058 252.396434 
L 505.979423 246.707387 
L 510.647788 248.110819 
L 515.316154 249.22302 
L 519.984519 244.937405 
" clip-path="url(#p9c15f95584)" style="fill: none; stroke-dasharray: 7.4,3.2; stroke-dashoffset: 0; stroke: #f26b70; stroke-width: 2"/>
   </g>
   <g id="line2d_37">
    <path d="M 57.816346 200.01502 
L 62.484712 224.694339 
L 67.153077 231.864647 
L 71.821442 241.083616 
L 76.489808 239.657588 
L 81.158173 242.86615 
L 85.826538 249.579527 
L 90.494904 246.667217 
L 95.163269 256.167374 
L 99.831635 255.514615 
L 104.5 259.124875 
L 109.168365 252.456689 
L 113.836731 255.675294 
L 118.505096 259.089727 
L 123.173462 258.130673 
L 127.841827 256.845239 
L 132.510192 257.528126 
L 137.178558 256.523881 
L 141.846923 254.505349 
L 146.515288 251.994736 
L 151.183654 255.479466 
L 155.852019 251.090916 
L 160.520385 251.015598 
L 165.18875 251.482571 
L 169.857115 252.547071 
L 174.525481 248.530091 
L 179.193846 250.669133 
L 183.862212 252.476774 
L 188.530577 252.331158 
L 193.198942 251.176277 
L 197.867308 252.798132 
L 202.535673 250.45322 
L 207.204038 247.947629 
L 211.872404 251.156192 
L 216.540769 248.806259 
L 221.209135 247.430443 
L 225.8775 245.833694 
L 230.545865 245.587654 
L 235.214231 248.454773 
L 239.882596 248.068139 
L 244.550962 245.582633 
L 249.219327 242.820959 
L 253.887692 245.622802 
L 258.556058 245.331571 
L 263.224423 246.426198 
L 267.892788 243.513888 
L 272.561154 242.690407 
L 277.229519 238.482621 
L 281.897885 243.669546 
L 286.56625 241.806672 
L 291.234615 241.359783 
L 295.902981 243.453633 
L 300.571346 241.96233 
L 305.239712 238.121093 
L 309.908077 241.947266 
L 314.576442 242.439346 
L 319.244808 243.051936 
L 323.913173 240.646769 
L 328.581538 238.492664 
L 333.249904 241.871948 
L 337.918269 241.284464 
L 342.586635 238.51777 
L 347.255 237.157018 
L 351.923365 240.717066 
L 356.591731 241.47025 
L 361.260096 237.809777 
L 365.928462 239.100232 
L 370.596827 238.492664 
L 375.265192 240.245071 
L 379.933558 239.441675 
L 384.601923 235.590396 
L 389.270288 242.238497 
L 393.938654 238.743725 
L 398.607019 237.804756 
L 403.275385 240.606599 
L 407.94375 243.267848 
L 412.612115 239.476824 
L 417.280481 239.446696 
L 421.948846 244.262051 
L 426.617212 241.625908 
L 431.285577 237.157018 
L 435.953942 240.380644 
L 440.622308 232.391876 
L 445.290673 239.898607 
L 449.959038 240.300304 
L 454.627404 239.039977 
L 459.295769 238.030711 
L 463.964135 235.535162 
L 468.6325 236.464089 
L 473.300865 228.646042 
L 477.969231 238.904404 
L 482.637596 238.688491 
L 487.305962 239.060062 
L 491.974327 245.16085 
L 496.642692 238.462536 
L 501.311058 233.074762 
L 505.979423 243.252784 
L 510.647788 239.406527 
L 515.316154 236.976254 
L 519.984519 235.630566 
" clip-path="url(#p9c15f95584)" style="fill: none; stroke-dasharray: 7.4,3.2; stroke-dashoffset: 0; stroke: #7dc27d; stroke-width: 2"/>
   </g>
   <g id="patch_8">
    <path d="M 43.81125 253.24 
L 43.81125 7.2 
" style="fill: none; stroke: #000000; stroke-width: 0.8; stroke-linejoin: miter; stroke-linecap: square"/>
   </g>
   <g id="patch_9">
    <path d="M 529.32125 253.24 
L 529.32125 7.2 
" style="fill: none; stroke: #000000; stroke-width: 0.8; stroke-linejoin: miter; stroke-linecap: square"/>
   </g>
   <g id="patch_10">
    <path d="M 43.81125 253.24 
L 529.32125 253.24 
" style="fill: none; stroke: #000000; stroke-width: 0.8; stroke-linejoin: miter; stroke-linecap: square"/>
   </g>
   <g id="patch_11">
    <path d="M 43.81125 7.2 
L 529.32125 7.2 
" style="fill: none; stroke: #000000; stroke-width: 0.8; stroke-linejoin: miter; stroke-linecap: square"/>
   </g>
  </g>
 </g>
 <defs>
  <clipPath id="p9c15f95584">
   <rect x="43.81125" y="7.2" width="485.51" height="246.04"/>
  </clipPath>
 </defs>
</svg>
