<?xml version="1.0" encoding="utf-8" standalone="no"?>
<!DOCTYPE svg PUBLIC "-//W3C//DTD SVG 1.1//EN"
  "http://www.w3.org/Graphics/SVG/1.1/DTD/svg11.dtd">
<svg xmlns:xlink="http://www.w3.org/1999/xlink" width="566.13375pt" height="243.299688pt" viewBox="0 0 566.13375 243.299688" xmlns="http://www.w3.org/2000/svg" version="1.1">
 <metadata>
  <rdf:RDF xmlns:dc="http://purl.org/dc/elements/1.1/" xmlns:cc="http://creativecommons.org/ns#" xmlns:rdf="http://www.w3.org/1999/02/22-rdf-syntax-ns#">
   <cc:Work>
    <dc:type rdf:resource="http://purl.org/dc/dcmitype/StillImage"/>
    <dc:date>2025-11-25T15:25:15.330294</dc:date>
    <dc:format>image/svg+xml</dc:format>
    <dc:creator>
     <cc:Agent>
      <dc:title>Matplotlib v3.9.0, https://matplotlib.org/</dc:title>
     </cc:Agent>
    </dc:creator>
   </cc:Work>
  </rdf:RDF>
 </metadata>
 <defs>
  <style type="text/css">*{stroke-linejoin: round; stroke-linecap: butt}</style>
 </defs>
 <g id="figure_1">
  <g id="patch_1">
   <path d="M 0 243.299688 
L 566.13375 243.299688 
L 566.13375 0 
L 0 0 
z
" style="fill: #ffffff"/>
  </g>
  <g id="axes_1">
   <g id="patch_2">
    <path d="M 43.81125 202.84 
L 529.32125 202.84 
L 529.32125 7.2 
L 43.81125 7.2 
z
" style="fill: #ffffff"/>
   </g>
   <g id="matplotlib.axis_1">
    <g id="xtick_1">
     <g id="line2d_1">
      <path d="M 61.421576 202.84 
L 61.421576 7.2 
" clip-path="url(#p08f20c106f)" style="fill: none; stroke: #b0b0b0; stroke-opacity: 0.25; stroke-width: 0.8; stroke-linecap: square"/>
     </g>
     <g id="line2d_2">
      <defs>
       <path id="m5d0fce2656" d="M 0 0 
L 0 3.5 
" style="stroke: #000000; stroke-width: 0.8"/>
      </defs>
      <g>
       <use xlink:href="#m5d0fce2656" x="61.421576" y="202.84" style="stroke: #000000; stroke-width: 0.8"/>
      </g>
     </g>
     <g id="text_1">
      <!-- 0 -->
      <g transform="translate(57.922201 218.198281) scale(0.11 -0.11)">
       <defs>
        <path id="DejaVuSans-30" d="M 2034 4250 
Q 1547 4250 1301 3770 
Q 1056 3291 1056 2328 
Q 1056 1369 1301 889 
Q 1547 409 2034 409 
Q 2525 409 2770 889 
Q 3016 1369 3016 2328 
Q 3016 3291 2770 3770 
Q 2525 4250 2034 4250 
z
M 2034 4750 
Q 2819 4750 3233 4129 
Q 3647 3509 3647 2328 
Q 3647 1150 3233 529 
Q 2819 -91 2034 -91 
Q 1250 -91 836 529 
Q 422 1150 422 2328 
Q 422 3509 836 4129 
Q 1250 4750 2034 4750 
z
" transform="scale(0.015625)"/>
       </defs>
       <use xlink:href="#DejaVuSans-30"/>
      </g>
     </g>
    </g>
    <g id="xtick_2">
     <g id="line2d_3">
      <path d="M 150.587784 202.84 
L 150.587784 7.2 
" clip-path="url(#p08f20c106f)" style="fill: none; stroke: #b0b0b0; stroke-opacity: 0.25; stroke-width: 0.8; stroke-linecap: square"/>
     </g>
     <g id="line2d_4">
      <g>
       <use xlink:href="#m5d0fce2656" x="150.587784" y="202.84" style="stroke: #000000; stroke-width: 0.8"/>
      </g>
     </g>
     <g id="text_2">
      <!-- 20 -->
      <g transform="translate(143.589034 218.198281) scale(0.11 -0.11)">
       <defs>
        <path id="DejaVuSans-32" d="M 1228 531 
L 3431 531 
L 3431 0 
L 469 0 
L 469 531 
Q 828 903 1448 1529 
Q 2069 2156 2228 2338 
Q 2531 2678 2651 2914 
Q 2772 3150 2772 3378 
Q 2772 3750 2511 3984 
Q 2250 4219 1831 4219 
Q 1534 4219 1204 4116 
Q 875 4013 500 3803 
L 500 4441 
Q 881 4594 1212 4672 
Q 1544 4750 1819 4750 
Q 2544 4750 2975 4387 
Q 3406 4025 3406 3419 
Q 3406 3131 3298 2873 
Q 3191 2616 2906 2266 
Q 2828 2175 2409 1742 
Q 1991 1309 1228 531 
z
" transform="scale(0.015625)"/>
       </defs>
       <use xlink:href="#DejaVuSans-32"/>
       <use xlink:href="#DejaVuSans-30" x="63.623047"/>
      </g>
     </g>
    </g>
    <g id="xtick_3">
     <g id="line2d_5">
      <path d="M 239.753991 202.84 
L 239.753991 7.2 
" clip-path="url(#p08f20c106f)" style="fill: none; stroke: #b0b0b0; stroke-opacity: 0.25; stroke-width: 0.8; stroke-linecap: square"/>
     </g>
     <g id="line2d_6">
      <g>
       <use xlink:href="#m5d0fce2656" x="239.753991" y="202.84" style="stroke: #000000; stroke-width: 0.8"/>
      </g>
     </g>
     <g id="text_3">
      <!-- 40 -->
      <g transform="translate(232.755241 218.198281) scale(0.11 -0.11)">
       <defs>
        <path id="DejaVuSans-34" d="M 2419 4116 
L 825 1625 
L 2419 1625 
L 2419 4116 
z
M 2253 4666 
L 3047 4666 
L 3047 1625 
L 3713 1625 
L 3713 1100 
L 3047 1100 
L 3047 0 
L 2419 0 
L 2419 1100 
L 313 1100 
L 313 1709 
L 2253 4666 
z
" transform="scale(0.015625)"/>
       </defs>
       <use xlink:href="#DejaVuSans-34"/>
       <use xlink:href="#DejaVuSans-30" x="63.623047"/>
      </g>
     </g>
    </g>
    <g id="xtick_4">
     <g id="line2d_7">
      <path d="M 328.920199 202.84 
L 328.920199 7.2 
" clip-path="url(#p08f20c106f)" style="fill: none; stroke: #b0b0b0; stroke-opacity: 0.25; stroke-width: 0.8; stroke-linecap: square"/>
     </g>
     <g id="line2d_8">
      <g>
       <use xlink:href="#m5d0fce2656" x="328.920199" y="202.84" style="stroke: #000000; stroke-width: 0.8"/>
      </g>
     </g>
     <g id="text_4">
      <!-- 60 -->
      <g transform="translate(321.921449 218.198281) scale(0.11 -0.11)">
       <defs>
        <path id="DejaVuSans-36" d="M 2113 2584 
Q 1688 2584 1439 2293 
Q 1191 2003 1191 1497 
Q 1191 994 1439 701 
Q 1688 409 2113 409 
Q 2538 409 2786 701 
Q 3034 994 3034 1497 
Q 3034 2003 2786 2293 
Q 2538 2584 2113 2584 
z
M 3366 4563 
L 3366 3988 
Q 3128 4100 2886 4159 
Q 2644 4219 2406 4219 
Q 1781 4219 1451 3797 
Q 1122 3375 1075 2522 
Q 1259 2794 1537 2939 
Q 1816 3084 2150 3084 
Q 2853 3084 3261 2657 
Q 3669 2231 3669 1497 
Q 3669 778 3244 343 
Q 2819 -91 2113 -91 
Q 1303 -91 875 529 
Q 447 1150 447 2328 
Q 447 3434 972 4092 
Q 1497 4750 2381 4750 
Q 2619 4750 2861 4703 
Q 3103 4656 3366 4563 
z
" transform="scale(0.015625)"/>
       </defs>
       <use xlink:href="#DejaVuSans-36"/>
       <use xlink:href="#DejaVuSans-30" x="63.623047"/>
      </g>
     </g>
    </g>
    <g id="xtick_5">
     <g id="line2d_9">
      <path d="M 418.086406 202.84 
L 418.086406 7.2 
" clip-path="url(#p08f20c106f)" style="fill: none; stroke: #b0b0b0; stroke-opacity: 0.25; stroke-width: 0.8; stroke-linecap: square"/>
     </g>
     <g id="line2d_10">
      <g>
       <use xlink:href="#m5d0fce2656" x="418.086406" y="202.84" style="stroke: #000000; stroke-width: 0.8"/>
      </g>
     </g>
     <g id="text_5">
      <!-- 80 -->
      <g transform="translate(411.087656 218.198281) scale(0.11 -0.11)">
       <defs>
        <path id="DejaVuSans-38" d="M 2034 2216 
Q 1584 2216 1326 1975 
Q 1069 1734 1069 1313 
Q 1069 891 1326 650 
Q 1584 409 2034 409 
Q 2484 409 2743 651 
Q 3003 894 3003 1313 
Q 3003 1734 2745 1975 
Q 2488 2216 2034 2216 
z
M 1403 2484 
Q 997 2584 770 2862 
Q 544 3141 544 3541 
Q 544 4100 942 4425 
Q 1341 4750 2034 4750 
Q 2731 4750 3128 4425 
Q 3525 4100 3525 3541 
Q 3525 3141 3298 2862 
Q 3072 2584 2669 2484 
Q 3125 2378 3379 2068 
Q 3634 1759 3634 1313 
Q 3634 634 3220 271 
Q 2806 -91 2034 -91 
Q 1263 -91 848 271 
Q 434 634 434 1313 
Q 434 1759 690 2068 
Q 947 2378 1403 2484 
z
M 1172 3481 
Q 1172 3119 1398 2916 
Q 1625 2713 2034 2713 
Q 2441 2713 2670 2916 
Q 2900 3119 2900 3481 
Q 2900 3844 2670 4047 
Q 2441 4250 2034 4250 
Q 1625 4250 1398 4047 
Q 1172 3844 1172 3481 
z
" transform="scale(0.015625)"/>
       </defs>
       <use xlink:href="#DejaVuSans-38"/>
       <use xlink:href="#DejaVuSans-30" x="63.623047"/>
      </g>
     </g>
    </g>
    <g id="xtick_6">
     <g id="line2d_11">
      <path d="M 507.252614 202.84 
L 507.252614 7.2 
" clip-path="url(#p08f20c106f)" style="fill: none; stroke: #b0b0b0; stroke-opacity: 0.25; stroke-width: 0.8; stroke-linecap: square"/>
     </g>
     <g id="line2d_12">
      <g>
       <use xlink:href="#m5d0fce2656" x="507.252614" y="202.84" style="stroke: #000000; stroke-width: 0.8"/>
      </g>
     </g>
     <g id="text_6">
      <!-- 100 -->
      <g transform="translate(496.754489 218.198281) scale(0.11 -0.11)">
       <defs>
        <path id="DejaVuSans-31" d="M 794 531 
L 1825 531 
L 1825 4091 
L 703 3866 
L 703 4441 
L 1819 4666 
L 2450 4666 
L 2450 531 
L 3481 531 
L 3481 0 
L 794 0 
L 794 531 
z
" transform="scale(0.015625)"/>
       </defs>
       <use xlink:href="#DejaVuSans-31"/>
       <use xlink:href="#DejaVuSans-30" x="63.623047"/>
       <use xlink:href="#DejaVuSans-30" x="127.246094"/>
      </g>
     </g>
    </g>
    <g id="text_7">
     <!-- Epoch -->
     <g transform="translate(268.193125 233.604062) scale(0.12 -0.12)">
      <defs>
       <path id="DejaVuSans-45" d="M 628 4666 
L 3578 4666 
L 3578 4134 
L 1259 4134 
L 1259 2753 
L 3481 2753 
L 3481 2222 
L 1259 2222 
L 1259 531 
L 3634 531 
L 3634 0 
L 628 0 
L 628 4666 
z
" transform="scale(0.015625)"/>
       <path id="DejaVuSans-70" d="M 1159 525 
L 1159 -1331 
L 581 -1331 
L 581 3500 
L 1159 3500 
L 1159 2969 
Q 1341 3281 1617 3432 
Q 1894 3584 2278 3584 
Q 2916 3584 3314 3078 
Q 3713 2572 3713 1747 
Q 3713 922 3314 415 
Q 2916 -91 2278 -91 
Q 1894 -91 1617 61 
Q 1341 213 1159 525 
z
M 3116 1747 
Q 3116 2381 2855 2742 
Q 2594 3103 2138 3103 
Q 1681 3103 1420 2742 
Q 1159 2381 1159 1747 
Q 1159 1113 1420 752 
Q 1681 391 2138 391 
Q 2594 391 2855 752 
Q 3116 1113 3116 1747 
z
" transform="scale(0.015625)"/>
       <path id="DejaVuSans-6f" d="M 1959 3097 
Q 1497 3097 1228 2736 
Q 959 2375 959 1747 
Q 959 1119 1226 758 
Q 1494 397 1959 397 
Q 2419 397 2687 759 
Q 2956 1122 2956 1747 
Q 2956 2369 2687 2733 
Q 2419 3097 1959 3097 
z
M 1959 3584 
Q 2709 3584 3137 3096 
Q 3566 2609 3566 1747 
Q 3566 888 3137 398 
Q 2709 -91 1959 -91 
Q 1206 -91 779 398 
Q 353 888 353 1747 
Q 353 2609 779 3096 
Q 1206 3584 1959 3584 
z
" transform="scale(0.015625)"/>
       <path id="DejaVuSans-63" d="M 3122 3366 
L 3122 2828 
Q 2878 2963 2633 3030 
Q 2388 3097 2138 3097 
Q 1578 3097 1268 2742 
Q 959 2388 959 1747 
Q 959 1106 1268 751 
Q 1578 397 2138 397 
Q 2388 397 2633 464 
Q 2878 531 3122 666 
L 3122 134 
Q 2881 22 2623 -34 
Q 2366 -91 2075 -91 
Q 1284 -91 818 406 
Q 353 903 353 1747 
Q 353 2603 823 3093 
Q 1294 3584 2113 3584 
Q 2378 3584 2631 3529 
Q 2884 3475 3122 3366 
z
" transform="scale(0.015625)"/>
       <path id="DejaVuSans-68" d="M 3513 2113 
L 3513 0 
L 2938 0 
L 2938 2094 
Q 2938 2591 2744 2837 
Q 2550 3084 2163 3084 
Q 1697 3084 1428 2787 
Q 1159 2491 1159 1978 
L 1159 0 
L 581 0 
L 581 4863 
L 1159 4863 
L 1159 2956 
Q 1366 3272 1645 3428 
Q 1925 3584 2291 3584 
Q 2894 3584 3203 3211 
Q 3513 2838 3513 2113 
z
" transform="scale(0.015625)"/>
      </defs>
      <use xlink:href="#DejaVuSans-45"/>
      <use xlink:href="#DejaVuSans-70" x="63.183594"/>
      <use xlink:href="#DejaVuSans-6f" x="126.660156"/>
      <use xlink:href="#DejaVuSans-63" x="187.841797"/>
      <use xlink:href="#DejaVuSans-68" x="242.822266"/>
     </g>
    </g>
   </g>
   <g id="matplotlib.axis_2">
    <g id="ytick_1">
     <g id="line2d_13">
      <path d="M 43.81125 184.270298 
L 529.32125 184.270298 
" clip-path="url(#p08f20c106f)" style="fill: none; stroke: #b0b0b0; stroke-opacity: 0.25; stroke-width: 0.8; stroke-linecap: square"/>
     </g>
     <g id="line2d_14">
      <defs>
       <path id="m7e225652f8" d="M 0 0 
L -3.5 0 
" style="stroke: #000000; stroke-width: 0.8"/>
      </defs>
      <g>
       <use xlink:href="#m7e225652f8" x="43.81125" y="184.270298" style="stroke: #000000; stroke-width: 0.8"/>
      </g>
     </g>
     <g id="text_8">
      <!-- 10 -->
      <g transform="translate(22.81375 188.449438) scale(0.11 -0.11)">
       <use xlink:href="#DejaVuSans-31"/>
       <use xlink:href="#DejaVuSans-30" x="63.623047"/>
      </g>
     </g>
    </g>
    <g id="ytick_2">
     <g id="line2d_15">
      <path d="M 43.81125 138.407857 
L 529.32125 138.407857 
" clip-path="url(#p08f20c106f)" style="fill: none; stroke: #b0b0b0; stroke-opacity: 0.25; stroke-width: 0.8; stroke-linecap: square"/>
     </g>
     <g id="line2d_16">
      <g>
       <use xlink:href="#m7e225652f8" x="43.81125" y="138.407857" style="stroke: #000000; stroke-width: 0.8"/>
      </g>
     </g>
     <g id="text_9">
      <!-- 20 -->
      <g transform="translate(22.81375 142.586998) scale(0.11 -0.11)">
       <use xlink:href="#DejaVuSans-32"/>
       <use xlink:href="#DejaVuSans-30" x="63.623047"/>
      </g>
     </g>
    </g>
    <g id="ytick_3">
     <g id="line2d_17">
      <path d="M 43.81125 92.545416 
L 529.32125 92.545416 
" clip-path="url(#p08f20c106f)" style="fill: none; stroke: #b0b0b0; stroke-opacity: 0.25; stroke-width: 0.8; stroke-linecap: square"/>
     </g>
     <g id="line2d_18">
      <g>
       <use xlink:href="#m7e225652f8" x="43.81125" y="92.545416" style="stroke: #000000; stroke-width: 0.8"/>
      </g>
     </g>
     <g id="text_10">
      <!-- 30 -->
      <g transform="translate(22.81375 96.724557) scale(0.11 -0.11)">
       <defs>
        <path id="DejaVuSans-33" d="M 2597 2516 
Q 3050 2419 3304 2112 
Q 3559 1806 3559 1356 
Q 3559 666 3084 287 
Q 2609 -91 1734 -91 
Q 1441 -91 1130 -33 
Q 819 25 488 141 
L 488 750 
Q 750 597 1062 519 
Q 1375 441 1716 441 
Q 2309 441 2620 675 
Q 2931 909 2931 1356 
Q 2931 1769 2642 2001 
Q 2353 2234 1838 2234 
L 1294 2234 
L 1294 2753 
L 1863 2753 
Q 2328 2753 2575 2939 
Q 2822 3125 2822 3475 
Q 2822 3834 2567 4026 
Q 2313 4219 1838 4219 
Q 1578 4219 1281 4162 
Q 984 4106 628 3988 
L 628 4550 
Q 988 4650 1302 4700 
Q 1616 4750 1894 4750 
Q 2613 4750 3031 4423 
Q 3450 4097 3450 3541 
Q 3450 3153 3228 2886 
Q 3006 2619 2597 2516 
z
" transform="scale(0.015625)"/>
       </defs>
       <use xlink:href="#DejaVuSans-33"/>
       <use xlink:href="#DejaVuSans-30" x="63.623047"/>
      </g>
     </g>
    </g>
    <g id="ytick_4">
     <g id="line2d_19">
      <path d="M 43.81125 46.682975 
L 529.32125 46.682975 
" clip-path="url(#p08f20c106f)" style="fill: none; stroke: #b0b0b0; stroke-opacity: 0.25; stroke-width: 0.8; stroke-linecap: square"/>
     </g>
     <g id="line2d_20">
      <g>
       <use xlink:href="#m7e225652f8" x="43.81125" y="46.682975" style="stroke: #000000; stroke-width: 0.8"/>
      </g>
     </g>
     <g id="text_11">
      <!-- 40 -->
      <g transform="translate(22.81375 50.862116) scale(0.11 -0.11)">
       <use xlink:href="#DejaVuSans-34"/>
       <use xlink:href="#DejaVuSans-30" x="63.623047"/>
      </g>
     </g>
    </g>
    <g id="text_12">
     <!-- Test Accuracy (%) -->
     <g transform="translate(16.318125 158.424687) rotate(-90) scale(0.12 -0.12)">
      <defs>
       <path id="DejaVuSans-54" d="M -19 4666 
L 3928 4666 
L 3928 4134 
L 2272 4134 
L 2272 0 
L 1638 0 
L 1638 4134 
L -19 4134 
L -19 4666 
z
" transform="scale(0.015625)"/>
       <path id="DejaVuSans-65" d="M 3597 1894 
L 3597 1613 
L 953 1613 
Q 991 1019 1311 708 
Q 1631 397 2203 397 
Q 2534 397 2845 478 
Q 3156 559 3463 722 
L 3463 178 
Q 3153 47 2828 -22 
Q 2503 -91 2169 -91 
Q 1331 -91 842 396 
Q 353 884 353 1716 
Q 353 2575 817 3079 
Q 1281 3584 2069 3584 
Q 2775 3584 3186 3129 
Q 3597 2675 3597 1894 
z
M 3022 2063 
Q 3016 2534 2758 2815 
Q 2500 3097 2075 3097 
Q 1594 3097 1305 2825 
Q 1016 2553 972 2059 
L 3022 2063 
z
" transform="scale(0.015625)"/>
       <path id="DejaVuSans-73" d="M 2834 3397 
L 2834 2853 
Q 2591 2978 2328 3040 
Q 2066 3103 1784 3103 
Q 1356 3103 1142 2972 
Q 928 2841 928 2578 
Q 928 2378 1081 2264 
Q 1234 2150 1697 2047 
L 1894 2003 
Q 2506 1872 2764 1633 
Q 3022 1394 3022 966 
Q 3022 478 2636 193 
Q 2250 -91 1575 -91 
Q 1294 -91 989 -36 
Q 684 19 347 128 
L 347 722 
Q 666 556 975 473 
Q 1284 391 1588 391 
Q 1994 391 2212 530 
Q 2431 669 2431 922 
Q 2431 1156 2273 1281 
Q 2116 1406 1581 1522 
L 1381 1569 
Q 847 1681 609 1914 
Q 372 2147 372 2553 
Q 372 3047 722 3315 
Q 1072 3584 1716 3584 
Q 2034 3584 2315 3537 
Q 2597 3491 2834 3397 
z
" transform="scale(0.015625)"/>
       <path id="DejaVuSans-74" d="M 1172 4494 
L 1172 3500 
L 2356 3500 
L 2356 3053 
L 1172 3053 
L 1172 1153 
Q 1172 725 1289 603 
Q 1406 481 1766 481 
L 2356 481 
L 2356 0 
L 1766 0 
Q 1100 0 847 248 
Q 594 497 594 1153 
L 594 3053 
L 172 3053 
L 172 3500 
L 594 3500 
L 594 4494 
L 1172 4494 
z
" transform="scale(0.015625)"/>
       <path id="DejaVuSans-20" transform="scale(0.015625)"/>
       <path id="DejaVuSans-41" d="M 2188 4044 
L 1331 1722 
L 3047 1722 
L 2188 4044 
z
M 1831 4666 
L 2547 4666 
L 4325 0 
L 3669 0 
L 3244 1197 
L 1141 1197 
L 716 0 
L 50 0 
L 1831 4666 
z
" transform="scale(0.015625)"/>
       <path id="DejaVuSans-75" d="M 544 1381 
L 544 3500 
L 1119 3500 
L 1119 1403 
Q 1119 906 1312 657 
Q 1506 409 1894 409 
Q 2359 409 2629 706 
Q 2900 1003 2900 1516 
L 2900 3500 
L 3475 3500 
L 3475 0 
L 2900 0 
L 2900 538 
Q 2691 219 2414 64 
Q 2138 -91 1772 -91 
Q 1169 -91 856 284 
Q 544 659 544 1381 
z
M 1991 3584 
L 1991 3584 
z
" transform="scale(0.015625)"/>
       <path id="DejaVuSans-72" d="M 2631 2963 
Q 2534 3019 2420 3045 
Q 2306 3072 2169 3072 
Q 1681 3072 1420 2755 
Q 1159 2438 1159 1844 
L 1159 0 
L 581 0 
L 581 3500 
L 1159 3500 
L 1159 2956 
Q 1341 3275 1631 3429 
Q 1922 3584 2338 3584 
Q 2397 3584 2469 3576 
Q 2541 3569 2628 3553 
L 2631 2963 
z
" transform="scale(0.015625)"/>
       <path id="DejaVuSans-61" d="M 2194 1759 
Q 1497 1759 1228 1600 
Q 959 1441 959 1056 
Q 959 750 1161 570 
Q 1363 391 1709 391 
Q 2188 391 2477 730 
Q 2766 1069 2766 1631 
L 2766 1759 
L 2194 1759 
z
M 3341 1997 
L 3341 0 
L 2766 0 
L 2766 531 
Q 2569 213 2275 61 
Q 1981 -91 1556 -91 
Q 1019 -91 701 211 
Q 384 513 384 1019 
Q 384 1609 779 1909 
Q 1175 2209 1959 2209 
L 2766 2209 
L 2766 2266 
Q 2766 2663 2505 2880 
Q 2244 3097 1772 3097 
Q 1472 3097 1187 3025 
Q 903 2953 641 2809 
L 641 3341 
Q 956 3463 1253 3523 
Q 1550 3584 1831 3584 
Q 2591 3584 2966 3190 
Q 3341 2797 3341 1997 
z
" transform="scale(0.015625)"/>
       <path id="DejaVuSans-79" d="M 2059 -325 
Q 1816 -950 1584 -1140 
Q 1353 -1331 966 -1331 
L 506 -1331 
L 506 -850 
L 844 -850 
Q 1081 -850 1212 -737 
Q 1344 -625 1503 -206 
L 1606 56 
L 191 3500 
L 800 3500 
L 1894 763 
L 2988 3500 
L 3597 3500 
L 2059 -325 
z
" transform="scale(0.015625)"/>
       <path id="DejaVuSans-28" d="M 1984 4856 
Q 1566 4138 1362 3434 
Q 1159 2731 1159 2009 
Q 1159 1288 1364 580 
Q 1569 -128 1984 -844 
L 1484 -844 
Q 1016 -109 783 600 
Q 550 1309 550 2009 
Q 550 2706 781 3412 
Q 1013 4119 1484 4856 
L 1984 4856 
z
" transform="scale(0.015625)"/>
       <path id="DejaVuSans-25" d="M 4653 2053 
Q 4381 2053 4226 1822 
Q 4072 1591 4072 1178 
Q 4072 772 4226 539 
Q 4381 306 4653 306 
Q 4919 306 5073 539 
Q 5228 772 5228 1178 
Q 5228 1588 5073 1820 
Q 4919 2053 4653 2053 
z
M 4653 2450 
Q 5147 2450 5437 2106 
Q 5728 1763 5728 1178 
Q 5728 594 5436 251 
Q 5144 -91 4653 -91 
Q 4153 -91 3862 251 
Q 3572 594 3572 1178 
Q 3572 1766 3864 2108 
Q 4156 2450 4653 2450 
z
M 1428 4353 
Q 1159 4353 1004 4120 
Q 850 3888 850 3481 
Q 850 3069 1003 2837 
Q 1156 2606 1428 2606 
Q 1700 2606 1854 2837 
Q 2009 3069 2009 3481 
Q 2009 3884 1853 4118 
Q 1697 4353 1428 4353 
z
M 4250 4750 
L 4750 4750 
L 1831 -91 
L 1331 -91 
L 4250 4750 
z
M 1428 4750 
Q 1922 4750 2215 4408 
Q 2509 4066 2509 3481 
Q 2509 2891 2217 2550 
Q 1925 2209 1428 2209 
Q 931 2209 642 2551 
Q 353 2894 353 3481 
Q 353 4063 643 4406 
Q 934 4750 1428 4750 
z
" transform="scale(0.015625)"/>
       <path id="DejaVuSans-29" d="M 513 4856 
L 1013 4856 
Q 1481 4119 1714 3412 
Q 1947 2706 1947 2009 
Q 1947 1309 1714 600 
Q 1481 -109 1013 -844 
L 513 -844 
Q 928 -128 1133 580 
Q 1338 1288 1338 2009 
Q 1338 2731 1133 3434 
Q 928 4138 513 4856 
z
" transform="scale(0.015625)"/>
      </defs>
      <use xlink:href="#DejaVuSans-54"/>
      <use xlink:href="#DejaVuSans-65" x="44.083984"/>
      <use xlink:href="#DejaVuSans-73" x="105.607422"/>
      <use xlink:href="#DejaVuSans-74" x="157.707031"/>
      <use xlink:href="#DejaVuSans-20" x="196.916016"/>
      <use xlink:href="#DejaVuSans-41" x="228.703125"/>
      <use xlink:href="#DejaVuSans-63" x="295.361328"/>
      <use xlink:href="#DejaVuSans-63" x="350.341797"/>
      <use xlink:href="#DejaVuSans-75" x="405.322266"/>
      <use xlink:href="#DejaVuSans-72" x="468.701172"/>
      <use xlink:href="#DejaVuSans-61" x="509.814453"/>
      <use xlink:href="#DejaVuSans-63" x="571.09375"/>
      <use xlink:href="#DejaVuSans-79" x="626.074219"/>
      <use xlink:href="#DejaVuSans-20" x="685.253906"/>
      <use xlink:href="#DejaVuSans-28" x="717.041016"/>
      <use xlink:href="#DejaVuSans-25" x="756.054688"/>
      <use xlink:href="#DejaVuSans-29" x="851.074219"/>
     </g>
    </g>
   </g>
   <g id="line2d_21">
    <path d="M 65.879886 193.947273 
L 70.338197 182.25235 
L 74.796507 164.320136 
L 79.254817 163.586337 
L 83.713128 142.260302 
L 88.171438 135.472661 
L 92.629749 134.555412 
L 97.088059 116.760785 
L 101.546369 121.484616 
L 106.00468 99.241332 
L 110.46299 90.986093 
L 114.921301 84.198452 
L 119.379611 75.89735 
L 123.837921 78.282197 
L 128.296232 70.393857 
L 132.754542 56.038913 
L 137.212852 58.102723 
L 141.671163 61.129644 
L 146.129473 50.581283 
L 150.587784 46.95815 
L 155.046094 44.343991 
L 159.504404 42.968118 
L 163.962715 34.254254 
L 168.421025 37.510487 
L 172.879335 37.693937 
L 177.337646 36.226339 
L 181.795956 28.475586 
L 186.254267 44.848478 
L 190.712577 33.42873 
L 195.170887 38.060836 
L 199.629198 43.610192 
L 204.087508 40.445683 
L 208.545818 53.241304 
L 213.004129 51.269219 
L 217.462439 53.883378 
L 221.92075 49.480584 
L 226.37906 58.698935 
L 230.83737 67.687973 
L 235.295681 67.091761 
L 239.753991 69.201434 
L 244.212301 77.77771 
L 248.670612 77.548398 
L 253.128922 87.408823 
L 257.587233 87.959172 
L 262.045543 91.031956 
L 266.503853 93.967152 
L 270.962164 98.736846 
L 275.420474 103.552402 
L 279.878784 101.717904 
L 284.337095 105.065862 
L 288.795405 110.019006 
L 293.253716 108.643133 
L 297.712026 107.037947 
L 302.170336 107.404847 
L 306.628647 115.201462 
L 311.086957 117.540446 
L 315.545267 113.963176 
L 320.003578 117.861483 
L 324.461888 121.576341 
L 328.920199 121.713928 
L 333.378509 120.61323 
L 337.836819 122.539452 
L 342.29513 124.282225 
L 346.75344 123.364976 
L 351.21175 124.786712 
L 355.670061 126.346035 
L 360.128371 128.593295 
L 364.586682 124.282225 
L 369.044992 125.245336 
L 373.503302 124.236363 
L 377.961613 132.399877 
L 382.419923 126.346035 
L 386.878233 128.31812 
L 391.336544 126.346035 
L 395.794854 125.933273 
L 400.253165 130.19848 
L 404.711475 128.776744 
L 409.169785 133.041951 
L 413.628096 132.904364 
L 418.086406 131.482628 
L 422.544716 130.427792 
L 427.003027 129.327094 
L 431.461337 128.868469 
L 435.919648 132.399877 
L 440.377958 128.914332 
L 444.836268 133.9592 
L 449.294579 132.26229 
L 453.752889 131.069866 
L 458.211199 133.913338 
L 462.66951 134.280237 
L 467.12782 132.812639 
L 471.586131 133.408851 
L 476.044441 134.968174 
L 480.502751 135.931285 
L 484.961062 132.399877 
L 489.419372 134.188512 
L 493.877683 132.766777 
L 498.335993 135.243348 
L 502.794303 131.207454 
L 507.252614 135.518523 
" clip-path="url(#p08f20c106f)" style="fill: none; stroke: #e41a1c; stroke-width: 2; stroke-linecap: square"/>
   </g>
   <g id="line2d_22">
    <path d="M 65.879886 164.549448 
L 70.338197 138.774756 
L 74.796507 108.734858 
L 79.254817 115.063875 
L 83.713128 85.29915 
L 88.171438 74.842514 
L 92.629749 65.257264 
L 97.088059 51.636119 
L 101.546369 47.325049 
L 106.00468 42.234319 
L 110.46299 40.812583 
L 114.921301 34.850466 
L 119.379611 29.48456 
L 123.837921 38.014974 
L 128.296232 26.870401 
L 132.754542 29.392835 
L 137.212852 25.35694 
L 141.671163 22.834506 
L 146.129473 16.367902 
L 150.587784 19.303098 
L 155.046094 20.541384 
L 159.504404 19.119648 
L 163.962715 16.092727 
L 168.421025 19.945172 
L 172.879335 18.339987 
L 177.337646 27.833512 
L 181.795956 21.000008 
L 186.254267 18.798611 
L 190.712577 29.438698 
L 195.170887 20.954146 
L 199.629198 26.320052 
L 204.087508 28.154549 
L 208.545818 30.218359 
L 213.004129 32.373894 
L 217.462439 35.079778 
L 221.92075 33.703905 
L 226.37906 39.757747 
L 230.83737 44.573303 
L 235.295681 35.079778 
L 239.753991 42.509493 
L 244.212301 44.206403 
L 248.670612 43.839504 
L 253.128922 48.334023 
L 257.587233 60.12067 
L 262.045543 60.258258 
L 266.503853 63.973115 
L 270.962164 63.376904 
L 275.420474 65.899338 
L 279.878784 62.413792 
L 284.337095 58.194448 
L 288.795405 71.356968 
L 293.253716 76.26425 
L 297.712026 70.118683 
L 302.170336 66.862449 
L 306.628647 92.178517 
L 311.086957 84.794664 
L 315.545267 74.842514 
L 320.003578 78.511509 
L 324.461888 89.151595 
L 328.920199 85.8495 
L 333.378509 81.90533 
L 337.836819 92.453691 
L 342.29513 90.298157 
L 346.75344 90.389881 
L 351.21175 89.197458 
L 355.670061 86.262262 
L 360.128371 86.950198 
L 364.586682 85.574325 
L 369.044992 89.151595 
L 373.503302 90.940231 
L 377.961613 99.883407 
L 382.419923 99.929269 
L 386.878233 96.030962 
L 391.336544 95.847512 
L 395.794854 96.673036 
L 400.253165 95.021988 
L 404.711475 96.94821 
L 409.169785 101.25928 
L 413.628096 105.616212 
L 418.086406 104.240339 
L 422.544716 106.854498 
L 427.003027 104.423788 
L 431.461337 103.965164 
L 435.919648 106.487598 
L 440.377958 114.60525 
L 444.836268 109.010032 
L 449.294579 109.422794 
L 453.752889 110.569355 
L 458.211199 110.340043 
L 462.66951 108.413821 
L 467.12782 104.928275 
L 471.586131 104.83655 
L 476.044441 106.395873 
L 480.502751 111.807641 
L 484.961062 110.47763 
L 489.419372 112.90834 
L 493.877683 110.064868 
L 498.335993 114.238351 
L 502.794303 114.4218 
L 507.252614 118.228383 
" clip-path="url(#p08f20c106f)" style="fill: none; stroke: #228b22; stroke-width: 2; stroke-linecap: square"/>
   </g>
   <g id="patch_3">
    <path d="M 43.81125 202.84 
L 43.81125 7.2 
" style="fill: none; stroke: #000000; stroke-width: 0.8; stroke-linejoin: miter; stroke-linecap: square"/>
   </g>
   <g id="patch_4">
    <path d="M 529.32125 202.84 
L 529.32125 7.2 
" style="fill: none; stroke: #000000; stroke-width: 0.8; stroke-linejoin: miter; stroke-linecap: square"/>
   </g>
   <g id="patch_5">
    <path d="M 43.81125 202.84 
L 529.32125 202.84 
" style="fill: none; stroke: #000000; stroke-width: 0.8; stroke-linejoin: miter; stroke-linecap: square"/>
   </g>
   <g id="patch_6">
    <path d="M 43.81125 7.2 
L 529.32125 7.2 
" style="fill: none; stroke: #000000; stroke-width: 0.8; stroke-linejoin: miter; stroke-linecap: square"/>
   </g>
   <g id="legend_1">
    <g id="patch_7">
     <path d="M 196.874375 197.84 
L 522.32125 197.84 
Q 524.32125 197.84 524.32125 195.84 
L 524.32125 167.48375 
Q 524.32125 165.48375 522.32125 165.48375 
L 196.874375 165.48375 
Q 194.874375 165.48375 194.874375 167.48375 
L 194.874375 195.84 
Q 194.874375 197.84 196.874375 197.84 
z
" style="fill: #ffffff; opacity: 0.8; stroke: #cccccc; stroke-linejoin: miter"/>
    </g>
    <g id="line2d_23">
     <path d="M 198.874375 173.582188 
L 208.874375 173.582188 
L 218.874375 173.582188 
" style="fill: none; stroke: #e41a1c; stroke-width: 2; stroke-linecap: square"/>
    </g>
    <g id="text_13">
     <!-- Baseline – Acc -->
     <g transform="translate(226.874375 177.082188) scale(0.1 -0.1)">
      <defs>
       <path id="DejaVuSans-42" d="M 1259 2228 
L 1259 519 
L 2272 519 
Q 2781 519 3026 730 
Q 3272 941 3272 1375 
Q 3272 1813 3026 2020 
Q 2781 2228 2272 2228 
L 1259 2228 
z
M 1259 4147 
L 1259 2741 
L 2194 2741 
Q 2656 2741 2882 2914 
Q 3109 3088 3109 3444 
Q 3109 3797 2882 3972 
Q 2656 4147 2194 4147 
L 1259 4147 
z
M 628 4666 
L 2241 4666 
Q 2963 4666 3353 4366 
Q 3744 4066 3744 3513 
Q 3744 3084 3544 2831 
Q 3344 2578 2956 2516 
Q 3422 2416 3680 2098 
Q 3938 1781 3938 1306 
Q 3938 681 3513 340 
Q 3088 0 2303 0 
L 628 0 
L 628 4666 
z
" transform="scale(0.015625)"/>
       <path id="DejaVuSans-6c" d="M 603 4863 
L 1178 4863 
L 1178 0 
L 603 0 
L 603 4863 
z
" transform="scale(0.015625)"/>
       <path id="DejaVuSans-69" d="M 603 3500 
L 1178 3500 
L 1178 0 
L 603 0 
L 603 3500 
z
M 603 4863 
L 1178 4863 
L 1178 4134 
L 603 4134 
L 603 4863 
z
" transform="scale(0.015625)"/>
       <path id="DejaVuSans-6e" d="M 3513 2113 
L 3513 0 
L 2938 0 
L 2938 2094 
Q 2938 2591 2744 2837 
Q 2550 3084 2163 3084 
Q 1697 3084 1428 2787 
Q 1159 2491 1159 1978 
L 1159 0 
L 581 0 
L 581 3500 
L 1159 3500 
L 1159 2956 
Q 1366 3272 1645 3428 
Q 1925 3584 2291 3584 
Q 2894 3584 3203 3211 
Q 3513 2838 3513 2113 
z
" transform="scale(0.015625)"/>
       <path id="DejaVuSans-2013" d="M 313 1978 
L 2888 1978 
L 2888 1528 
L 313 1528 
L 313 1978 
z
" transform="scale(0.015625)"/>
      </defs>
      <use xlink:href="#DejaVuSans-42"/>
      <use xlink:href="#DejaVuSans-61" x="68.603516"/>
      <use xlink:href="#DejaVuSans-73" x="129.882812"/>
      <use xlink:href="#DejaVuSans-65" x="181.982422"/>
      <use xlink:href="#DejaVuSans-6c" x="243.505859"/>
      <use xlink:href="#DejaVuSans-69" x="271.289062"/>
      <use xlink:href="#DejaVuSans-6e" x="299.072266"/>
      <use xlink:href="#DejaVuSans-65" x="362.451172"/>
      <use xlink:href="#DejaVuSans-20" x="423.974609"/>
      <use xlink:href="#DejaVuSans-2013" x="455.761719"/>
      <use xlink:href="#DejaVuSans-20" x="505.761719"/>
      <use xlink:href="#DejaVuSans-41" x="537.548828"/>
      <use xlink:href="#DejaVuSans-63" x="604.207031"/>
      <use xlink:href="#DejaVuSans-63" x="659.1875"/>
     </g>
    </g>
    <g id="line2d_24">
     <path d="M 198.874375 188.260312 
L 208.874375 188.260312 
L 218.874375 188.260312 
" style="fill: none; stroke: #228b22; stroke-width: 2; stroke-linecap: square"/>
    </g>
    <g id="text_14">
     <!-- SimCLR (25 pre-E) – Acc -->
     <g transform="translate(226.874375 191.760312) scale(0.1 -0.1)">
      <defs>
       <path id="DejaVuSans-53" d="M 3425 4513 
L 3425 3897 
Q 3066 4069 2747 4153 
Q 2428 4238 2131 4238 
Q 1616 4238 1336 4038 
Q 1056 3838 1056 3469 
Q 1056 3159 1242 3001 
Q 1428 2844 1947 2747 
L 2328 2669 
Q 3034 2534 3370 2195 
Q 3706 1856 3706 1288 
Q 3706 609 3251 259 
Q 2797 -91 1919 -91 
Q 1588 -91 1214 -16 
Q 841 59 441 206 
L 441 856 
Q 825 641 1194 531 
Q 1563 422 1919 422 
Q 2459 422 2753 634 
Q 3047 847 3047 1241 
Q 3047 1584 2836 1778 
Q 2625 1972 2144 2069 
L 1759 2144 
Q 1053 2284 737 2584 
Q 422 2884 422 3419 
Q 422 4038 858 4394 
Q 1294 4750 2059 4750 
Q 2388 4750 2728 4690 
Q 3069 4631 3425 4513 
z
" transform="scale(0.015625)"/>
       <path id="DejaVuSans-6d" d="M 3328 2828 
Q 3544 3216 3844 3400 
Q 4144 3584 4550 3584 
Q 5097 3584 5394 3201 
Q 5691 2819 5691 2113 
L 5691 0 
L 5113 0 
L 5113 2094 
Q 5113 2597 4934 2840 
Q 4756 3084 4391 3084 
Q 3944 3084 3684 2787 
Q 3425 2491 3425 1978 
L 3425 0 
L 2847 0 
L 2847 2094 
Q 2847 2600 2669 2842 
Q 2491 3084 2119 3084 
Q 1678 3084 1418 2786 
Q 1159 2488 1159 1978 
L 1159 0 
L 581 0 
L 581 3500 
L 1159 3500 
L 1159 2956 
Q 1356 3278 1631 3431 
Q 1906 3584 2284 3584 
Q 2666 3584 2933 3390 
Q 3200 3197 3328 2828 
z
" transform="scale(0.015625)"/>
       <path id="DejaVuSans-43" d="M 4122 4306 
L 4122 3641 
Q 3803 3938 3442 4084 
Q 3081 4231 2675 4231 
Q 1875 4231 1450 3742 
Q 1025 3253 1025 2328 
Q 1025 1406 1450 917 
Q 1875 428 2675 428 
Q 3081 428 3442 575 
Q 3803 722 4122 1019 
L 4122 359 
Q 3791 134 3420 21 
Q 3050 -91 2638 -91 
Q 1578 -91 968 557 
Q 359 1206 359 2328 
Q 359 3453 968 4101 
Q 1578 4750 2638 4750 
Q 3056 4750 3426 4639 
Q 3797 4528 4122 4306 
z
" transform="scale(0.015625)"/>
       <path id="DejaVuSans-4c" d="M 628 4666 
L 1259 4666 
L 1259 531 
L 3531 531 
L 3531 0 
L 628 0 
L 628 4666 
z
" transform="scale(0.015625)"/>
       <path id="DejaVuSans-52" d="M 2841 2188 
Q 3044 2119 3236 1894 
Q 3428 1669 3622 1275 
L 4263 0 
L 3584 0 
L 2988 1197 
Q 2756 1666 2539 1819 
Q 2322 1972 1947 1972 
L 1259 1972 
L 1259 0 
L 628 0 
L 628 4666 
L 2053 4666 
Q 2853 4666 3247 4331 
Q 3641 3997 3641 3322 
Q 3641 2881 3436 2590 
Q 3231 2300 2841 2188 
z
M 1259 4147 
L 1259 2491 
L 2053 2491 
Q 2509 2491 2742 2702 
Q 2975 2913 2975 3322 
Q 2975 3731 2742 3939 
Q 2509 4147 2053 4147 
L 1259 4147 
z
" transform="scale(0.015625)"/>
       <path id="DejaVuSans-35" d="M 691 4666 
L 3169 4666 
L 3169 4134 
L 1269 4134 
L 1269 2991 
Q 1406 3038 1543 3061 
Q 1681 3084 1819 3084 
Q 2600 3084 3056 2656 
Q 3513 2228 3513 1497 
Q 3513 744 3044 326 
Q 2575 -91 1722 -91 
Q 1428 -91 1123 -41 
Q 819 9 494 109 
L 494 744 
Q 775 591 1075 516 
Q 1375 441 1709 441 
Q 2250 441 2565 725 
Q 2881 1009 2881 1497 
Q 2881 1984 2565 2268 
Q 2250 2553 1709 2553 
Q 1456 2553 1204 2497 
Q 953 2441 691 2322 
L 691 4666 
z
" transform="scale(0.015625)"/>
       <path id="DejaVuSans-2d" d="M 313 2009 
L 1997 2009 
L 1997 1497 
L 313 1497 
L 313 2009 
z
" transform="scale(0.015625)"/>
      </defs>
      <use xlink:href="#DejaVuSans-53"/>
      <use xlink:href="#DejaVuSans-69" x="63.476562"/>
      <use xlink:href="#DejaVuSans-6d" x="91.259766"/>
      <use xlink:href="#DejaVuSans-43" x="188.671875"/>
      <use xlink:href="#DejaVuSans-4c" x="258.496094"/>
      <use xlink:href="#DejaVuSans-52" x="314.208984"/>
      <use xlink:href="#DejaVuSans-20" x="383.691406"/>
      <use xlink:href="#DejaVuSans-28" x="415.478516"/>
      <use xlink:href="#DejaVuSans-32" x="454.492188"/>
      <use xlink:href="#DejaVuSans-35" x="518.115234"/>
      <use xlink:href="#DejaVuSans-20" x="581.738281"/>
      <use xlink:href="#DejaVuSans-70" x="613.525391"/>
      <use xlink:href="#DejaVuSans-72" x="677.001953"/>
      <use xlink:href="#DejaVuSans-65" x="715.865234"/>
      <use xlink:href="#DejaVuSans-2d" x="777.388672"/>
      <use xlink:href="#DejaVuSans-45" x="813.472656"/>
      <use xlink:href="#DejaVuSans-29" x="876.65625"/>
      <use xlink:href="#DejaVuSans-20" x="915.669922"/>
      <use xlink:href="#DejaVuSans-2013" x="947.457031"/>
      <use xlink:href="#DejaVuSans-20" x="997.457031"/>
      <use xlink:href="#DejaVuSans-41" x="1029.244141"/>
      <use xlink:href="#DejaVuSans-63" x="1095.902344"/>
      <use xlink:href="#DejaVuSans-63" x="1150.882812"/>
     </g>
    </g>
    <g id="line2d_25">
     <path d="M 367.461875 173.582188 
L 377.461875 173.582188 
L 387.461875 173.582188 
" style="fill: none; stroke-dasharray: 7.4,3.2; stroke-dashoffset: 0; stroke: #f26b70; stroke-width: 2"/>
    </g>
    <g id="text_15">
     <!-- Baseline – Loss -->
     <g transform="translate(395.461875 177.082188) scale(0.1 -0.1)">
      <use xlink:href="#DejaVuSans-42"/>
      <use xlink:href="#DejaVuSans-61" x="68.603516"/>
      <use xlink:href="#DejaVuSans-73" x="129.882812"/>
      <use xlink:href="#DejaVuSans-65" x="181.982422"/>
      <use xlink:href="#DejaVuSans-6c" x="243.505859"/>
      <use xlink:href="#DejaVuSans-69" x="271.289062"/>
      <use xlink:href="#DejaVuSans-6e" x="299.072266"/>
      <use xlink:href="#DejaVuSans-65" x="362.451172"/>
      <use xlink:href="#DejaVuSans-20" x="423.974609"/>
      <use xlink:href="#DejaVuSans-2013" x="455.761719"/>
      <use xlink:href="#DejaVuSans-20" x="505.761719"/>
      <use xlink:href="#DejaVuSans-4c" x="537.548828"/>
      <use xlink:href="#DejaVuSans-6f" x="591.511719"/>
      <use xlink:href="#DejaVuSans-73" x="652.693359"/>
      <use xlink:href="#DejaVuSans-73" x="704.792969"/>
     </g>
    </g>
    <g id="line2d_26">
     <path d="M 367.461875 188.260312 
L 377.461875 188.260312 
L 387.461875 188.260312 
" style="fill: none; stroke-dasharray: 7.4,3.2; stroke-dashoffset: 0; stroke: #7dc27d; stroke-width: 2"/>
    </g>
    <g id="text_16">
     <!-- SimCLR (25 pre-E) – Loss -->
     <g transform="translate(395.461875 191.760312) scale(0.1 -0.1)">
      <use xlink:href="#DejaVuSans-53"/>
      <use xlink:href="#DejaVuSans-69" x="63.476562"/>
      <use xlink:href="#DejaVuSans-6d" x="91.259766"/>
      <use xlink:href="#DejaVuSans-43" x="188.671875"/>
      <use xlink:href="#DejaVuSans-4c" x="258.496094"/>
      <use xlink:href="#DejaVuSans-52" x="314.208984"/>
      <use xlink:href="#DejaVuSans-20" x="383.691406"/>
      <use xlink:href="#DejaVuSans-28" x="415.478516"/>
      <use xlink:href="#DejaVuSans-32" x="454.492188"/>
      <use xlink:href="#DejaVuSans-35" x="518.115234"/>
      <use xlink:href="#DejaVuSans-20" x="581.738281"/>
      <use xlink:href="#DejaVuSans-70" x="613.525391"/>
      <use xlink:href="#DejaVuSans-72" x="677.001953"/>
      <use xlink:href="#DejaVuSans-65" x="715.865234"/>
      <use xlink:href="#DejaVuSans-2d" x="777.388672"/>
      <use xlink:href="#DejaVuSans-45" x="813.472656"/>
      <use xlink:href="#DejaVuSans-29" x="876.65625"/>
      <use xlink:href="#DejaVuSans-20" x="915.669922"/>
      <use xlink:href="#DejaVuSans-2013" x="947.457031"/>
      <use xlink:href="#DejaVuSans-20" x="997.457031"/>
      <use xlink:href="#DejaVuSans-4c" x="1029.244141"/>
      <use xlink:href="#DejaVuSans-6f" x="1083.207031"/>
      <use xlink:href="#DejaVuSans-73" x="1144.388672"/>
      <use xlink:href="#DejaVuSans-73" x="1196.488281"/>
     </g>
    </g>
   </g>
  </g>
  <g id="axes_2">
   <g id="matplotlib.axis_3">
    <g id="ytick_5">
     <g id="line2d_27">
      <defs>
       <path id="md55f7e3bad" d="M 0 0 
L 3.5 0 
" style="stroke: #000000; stroke-width: 0.8"/>
      </defs>
      <g>
       <use xlink:href="#md55f7e3bad" x="529.32125" y="182.876735" style="stroke: #000000; stroke-width: 0.8"/>
      </g>
     </g>
     <g id="text_17">
      <!-- 2 -->
      <g transform="translate(536.32125 187.055875) scale(0.11 -0.11)">
       <use xlink:href="#DejaVuSans-32"/>
      </g>
     </g>
    </g>
    <g id="ytick_6">
     <g id="line2d_28">
      <g>
       <use xlink:href="#md55f7e3bad" x="529.32125" y="142.950204" style="stroke: #000000; stroke-width: 0.8"/>
      </g>
     </g>
     <g id="text_18">
      <!-- 3 -->
      <g transform="translate(536.32125 147.129345) scale(0.11 -0.11)">
       <use xlink:href="#DejaVuSans-33"/>
      </g>
     </g>
    </g>
    <g id="ytick_7">
     <g id="line2d_29">
      <g>
       <use xlink:href="#md55f7e3bad" x="529.32125" y="103.023673" style="stroke: #000000; stroke-width: 0.8"/>
      </g>
     </g>
     <g id="text_19">
      <!-- 4 -->
      <g transform="translate(536.32125 107.202814) scale(0.11 -0.11)">
       <use xlink:href="#DejaVuSans-34"/>
      </g>
     </g>
    </g>
    <g id="ytick_8">
     <g id="line2d_30">
      <g>
       <use xlink:href="#md55f7e3bad" x="529.32125" y="63.097143" style="stroke: #000000; stroke-width: 0.8"/>
      </g>
     </g>
     <g id="text_20">
      <!-- 5 -->
      <g transform="translate(536.32125 67.276283) scale(0.11 -0.11)">
       <use xlink:href="#DejaVuSans-35"/>
      </g>
     </g>
    </g>
    <g id="ytick_9">
     <g id="line2d_31">
      <g>
       <use xlink:href="#md55f7e3bad" x="529.32125" y="23.170612" style="stroke: #000000; stroke-width: 0.8"/>
      </g>
     </g>
     <g id="text_21">
      <!-- 6 -->
      <g transform="translate(536.32125 27.349753) scale(0.11 -0.11)">
       <use xlink:href="#DejaVuSans-36"/>
      </g>
     </g>
    </g>
    <g id="text_22">
     <!-- Test Loss -->
     <g transform="translate(556.438125 131.901875) rotate(-90) scale(0.12 -0.12)">
      <use xlink:href="#DejaVuSans-54"/>
      <use xlink:href="#DejaVuSans-65" x="44.083984"/>
      <use xlink:href="#DejaVuSans-73" x="105.607422"/>
      <use xlink:href="#DejaVuSans-74" x="157.707031"/>
      <use xlink:href="#DejaVuSans-20" x="196.916016"/>
      <use xlink:href="#DejaVuSans-4c" x="228.703125"/>
      <use xlink:href="#DejaVuSans-6f" x="282.666016"/>
      <use xlink:href="#DejaVuSans-73" x="343.847656"/>
      <use xlink:href="#DejaVuSans-73" x="395.947266"/>
     </g>
    </g>
   </g>
   <g id="line2d_32">
    <path d="M 65.879886 97.362091 
L 70.338197 100.97145 
L 74.796507 106.960429 
L 79.254817 107.607239 
L 83.713128 117.61682 
L 88.171438 118.922418 
L 92.629749 122.212364 
L 97.088059 125.358575 
L 101.546369 125.897583 
L 106.00468 131.559165 
L 110.46299 135.771414 
L 114.921301 136.565952 
L 119.379611 139.764067 
L 123.837921 140.818127 
L 128.296232 142.487056 
L 132.754542 147.665527 
L 137.212852 145.625282 
L 141.671163 143.325513 
L 146.129473 147.505821 
L 150.587784 148.00091 
L 155.046094 151.969607 
L 159.504404 151.993563 
L 163.962715 153.319124 
L 168.421025 153.319124 
L 172.879335 152.384843 
L 177.337646 153.59861 
L 181.795956 154.173552 
L 186.254267 152.09338 
L 190.712577 154.760472 
L 195.170887 152.153269 
L 199.629198 151.222981 
L 204.087508 153.838169 
L 208.545818 147.893109 
L 213.004129 148.655705 
L 217.462439 148.999073 
L 221.92075 149.382368 
L 226.37906 145.281913 
L 230.83737 142.818447 
L 235.295681 142.367277 
L 239.753991 141.568746 
L 244.212301 136.893349 
L 248.670612 135.448009 
L 253.128922 129.063757 
L 257.587233 128.836176 
L 262.045543 124.172757 
L 266.503853 120.503509 
L 270.962164 117.085798 
L 275.420474 113.967536 
L 279.878784 112.222746 
L 284.337095 106.141936 
L 288.795405 103.434917 
L 293.253716 103.071585 
L 297.712026 101.354744 
L 302.170336 96.839054 
L 306.628647 93.133872 
L 311.086957 90.003632 
L 315.545267 85.511897 
L 320.003578 82.449532 
L 324.461888 76.504472 
L 328.920199 74.659866 
L 333.378509 72.715444 
L 337.836819 70.874831 
L 342.29513 70.930728 
L 346.75344 69.058174 
L 351.21175 65.360977 
L 355.670061 62.306598 
L 360.128371 58.465665 
L 364.586682 59.407931 
L 369.044992 58.357864 
L 373.503302 53.047635 
L 377.961613 51.131162 
L 382.419923 52.312987 
L 386.878233 44.695005 
L 391.336544 45.357785 
L 395.794854 45.281925 
L 400.253165 41.209419 
L 404.711475 39.895836 
L 409.169785 29.702593 
L 413.628096 35.060733 
L 418.086406 37.053067 
L 422.544716 35.264358 
L 427.003027 34.737328 
L 431.461337 32.24192 
L 435.919648 32.756972 
L 440.377958 32.417597 
L 444.836268 25.901587 
L 449.294579 28.696444 
L 453.752889 30.22563 
L 458.211199 22.368089 
L 462.66951 27.550553 
L 467.12782 22.092596 
L 471.586131 27.658354 
L 476.044441 26.767993 
L 480.502751 20.064328 
L 484.961062 26.863816 
L 489.419372 24.088922 
L 493.877683 20.23202 
L 498.335993 18.806642 
L 502.794303 24.344452 
L 507.252614 19.85671 
" clip-path="url(#p08f20c106f)" style="fill: none; stroke-dasharray: 7.4,3.2; stroke-dashoffset: 0; stroke: #f26b70; stroke-width: 2"/>
   </g>
   <g id="line2d_33">
    <path d="M 65.879886 110.565795 
L 70.338197 119.026227 
L 74.796507 130.517082 
L 79.254817 129.506941 
L 83.713128 139.488574 
L 88.171438 141.444974 
L 92.629749 144.842722 
L 97.088059 146.204216 
L 101.546369 152.376858 
L 106.00468 152.149277 
L 110.46299 152.987734 
L 114.921301 154.992046 
L 119.379611 156.8646 
L 123.837921 153.898059 
L 128.296232 156.301636 
L 132.754542 156.149915 
L 137.212852 157.870749 
L 141.671163 158.226095 
L 146.129473 158.94078 
L 150.587784 158.932794 
L 155.046094 160.485936 
L 159.504404 163.472441 
L 163.962715 160.941099 
L 168.421025 160.030774 
L 172.879335 161.911313 
L 177.337646 156.285665 
L 181.795956 159.196309 
L 186.254267 160.569782 
L 190.712577 158.733162 
L 195.170887 159.120449 
L 199.629198 158.317926 
L 204.087508 158.673272 
L 208.545818 157.339726 
L 213.004129 154.948127 
L 217.462439 155.491127 
L 221.92075 155.742664 
L 226.37906 153.414948 
L 230.83737 150.596135 
L 235.295681 154.820362 
L 239.753991 152.867954 
L 244.212301 151.290856 
L 248.670612 151.773967 
L 253.128922 150.101046 
L 257.587233 144.499353 
L 262.045543 143.672874 
L 266.503853 141.972004 
L 270.962164 141.784349 
L 275.420474 139.664251 
L 279.878784 141.421018 
L 284.337095 142.051857 
L 288.795405 136.378297 
L 293.253716 132.489453 
L 297.712026 137.009136 
L 302.170336 135.491928 
L 306.628647 122.6276 
L 311.086957 129.734522 
L 315.545267 131.870592 
L 320.003578 129.818368 
L 324.461888 123.52994 
L 328.920199 125.130993 
L 333.378509 125.909561 
L 337.836819 121.565554 
L 342.29513 121.397863 
L 346.75344 119.848713 
L 351.21175 120.651237 
L 355.670061 122.951005 
L 360.128371 118.782675 
L 364.586682 118.866521 
L 369.044992 121.022553 
L 373.503302 115.624487 
L 377.961613 110.066713 
L 382.419923 108.844962 
L 386.878233 110.002831 
L 391.336544 109.651478 
L 395.794854 110.637663 
L 400.253165 111.032936 
L 404.711475 106.369517 
L 409.169785 107.064238 
L 413.628096 100.687971 
L 418.086406 101.099215 
L 422.544716 99.1508 
L 427.003027 101.023354 
L 431.461337 98.783476 
L 435.919648 102.412798 
L 440.377958 93.133872 
L 444.836268 95.972648 
L 449.294579 96.663377 
L 453.752889 90.362971 
L 458.211199 94.659065 
L 462.66951 94.898624 
L 467.12782 94.631117 
L 471.586131 91.928091 
L 476.044441 92.219554 
L 480.502751 92.019922 
L 484.961062 87.643974 
L 489.419372 85.016808 
L 493.877683 88.374629 
L 498.335993 81.714884 
L 502.794303 81.127964 
L 507.252614 82.13012 
" clip-path="url(#p08f20c106f)" style="fill: none; stroke-dasharray: 7.4,3.2; stroke-dashoffset: 0; stroke: #7dc27d; stroke-width: 2"/>
   </g>
   <g id="patch_8">
    <path d="M 43.81125 202.84 
L 43.81125 7.2 
" style="fill: none; stroke: #000000; stroke-width: 0.8; stroke-linejoin: miter; stroke-linecap: square"/>
   </g>
   <g id="patch_9">
    <path d="M 529.32125 202.84 
L 529.32125 7.2 
" style="fill: none; stroke: #000000; stroke-width: 0.8; stroke-linejoin: miter; stroke-linecap: square"/>
   </g>
   <g id="patch_10">
    <path d="M 43.81125 202.84 
L 529.32125 202.84 
" style="fill: none; stroke: #000000; stroke-width: 0.8; stroke-linejoin: miter; stroke-linecap: square"/>
   </g>
   <g id="patch_11">
    <path d="M 43.81125 7.2 
L 529.32125 7.2 
" style="fill: none; stroke: #000000; stroke-width: 0.8; stroke-linejoin: miter; stroke-linecap: square"/>
   </g>
  </g>
 </g>
 <defs>
  <clipPath id="p08f20c106f">
   <rect x="43.81125" y="7.2" width="485.51" height="195.64"/>
  </clipPath>
 </defs>
</svg>
