<?xml version="1.0" encoding="utf-8" standalone="no"?>
<!DOCTYPE svg PUBLIC "-//W3C//DTD SVG 1.1//EN"
  "http://www.w3.org/Graphics/SVG/1.1/DTD/svg11.dtd">
<svg xmlns:xlink="http://www.w3.org/1999/xlink" width="566.13375pt" height="293.699687pt" viewBox="0 0 566.13375 293.699687" xmlns="http://www.w3.org/2000/svg" version="1.1">
 <metadata>
  <rdf:RDF xmlns:dc="http://purl.org/dc/elements/1.1/" xmlns:cc="http://creativecommons.org/ns#" xmlns:rdf="http://www.w3.org/1999/02/22-rdf-syntax-ns#">
   <cc:Work>
    <dc:type rdf:resource="http://purl.org/dc/dcmitype/StillImage"/>
    <dc:date>2025-12-21T13:07:10.011721</dc:date>
    <dc:format>image/svg+xml</dc:format>
    <dc:creator>
     <cc:Agent>
      <dc:title>Matplotlib v3.9.0, https://matplotlib.org/</dc:title>
     </cc:Agent>
    </dc:creator>
   </cc:Work>
  </rdf:RDF>
 </metadata>
 <defs>
  <style type="text/css">*{stroke-linejoin: round; stroke-linecap: butt}</style>
 </defs>
 <g id="figure_1">
  <g id="patch_1">
   <path d="M 0 293.699687 
L 566.13375 293.699687 
L 566.13375 0 
L 0 0 
z
" style="fill: #ffffff"/>
  </g>
  <g id="axes_1">
   <g id="patch_2">
    <path d="M 43.81125 253.24 
L 529.32125 253.24 
L 529.32125 7.2 
L 43.81125 7.2 
z
" style="fill: #ffffff"/>
   </g>
   <g id="PolyCollection_1">
    <defs>
     <path id="m35e4cdcb41" d="M 57.816346 -59.078091 
L 57.816346 -51.643324 
L 62.484712 -70.783978 
L 67.153077 -83.93191 
L 71.821442 -93.901564 
L 76.489808 -104.837633 
L 81.158173 -115.940197 
L 85.826538 -128.667511 
L 90.494904 -142.005682 
L 95.163269 -145.093113 
L 99.831635 -163.063467 
L 104.5 -166.213984 
L 109.168365 -178.572506 
L 113.836731 -182.661157 
L 118.505096 -190.07192 
L 123.173462 -200.837756 
L 127.841827 -195.777993 
L 132.510192 -217.793822 
L 137.178558 -207.541594 
L 141.846923 -227.323624 
L 146.515288 -224.420739 
L 151.183654 -236.168577 
L 155.852019 -235.105861 
L 160.520385 -235.436533 
L 165.18875 -241.249149 
L 169.857115 -241.655324 
L 174.525481 -247.752761 
L 179.193846 -241.705706 
L 183.862212 -243.38717 
L 188.530577 -243.66589 
L 193.198942 -247.831868 
L 197.867308 -241.782934 
L 202.535673 -244.659607 
L 207.204038 -235.462048 
L 211.872404 -233.691322 
L 216.540769 -230.114027 
L 221.209135 -232.674601 
L 225.8775 -224.836236 
L 230.545865 -215.813484 
L 235.214231 -212.237083 
L 239.882596 -210.044865 
L 244.550962 -201.410706 
L 249.219327 -200.627366 
L 253.887692 -189.867826 
L 258.556058 -185.261705 
L 263.224423 -183.461236 
L 267.892788 -179.273646 
L 272.561154 -175.907957 
L 277.229519 -168.575947 
L 281.897885 -167.355953 
L 286.56625 -163.095493 
L 291.234615 -158.820333 
L 295.902981 -161.537625 
L 300.571346 -155.606563 
L 305.239712 -154.302458 
L 309.908077 -152.746119 
L 314.576442 -148.990682 
L 319.244808 -145.40946 
L 323.913173 -145.768136 
L 328.581538 -145.107974 
L 333.249904 -142.163999 
L 337.918269 -141.901036 
L 342.586635 -142.852694 
L 347.255 -140.141896 
L 351.923365 -140.966984 
L 356.591731 -137.542845 
L 361.260096 -139.085041 
L 365.928462 -135.002279 
L 370.596827 -137.003266 
L 375.265192 -137.375876 
L 379.933558 -139.476326 
L 384.601923 -133.315869 
L 389.270288 -134.763712 
L 393.938654 -133.221395 
L 398.607019 -136.428168 
L 403.275385 -132.467918 
L 407.94375 -131.549107 
L 412.612115 -134.41854 
L 417.280481 -127.812413 
L 421.948846 -131.045207 
L 426.617212 -131.572607 
L 431.285577 -131.476074 
L 435.953942 -130.619972 
L 440.622308 -133.067805 
L 445.290673 -127.677487 
L 449.959038 -133.053195 
L 454.627404 -127.912811 
L 459.295769 -130.482455 
L 463.964135 -131.105078 
L 468.6325 -129.43264 
L 473.300865 -128.43347 
L 477.969231 -129.325274 
L 482.637596 -127.44135 
L 487.305962 -129.10093 
L 491.974327 -126.79059 
L 496.642692 -129.73603 
L 501.311058 -126.184366 
L 505.979423 -131.107569 
L 510.647788 -127.806268 
L 515.316154 -130.029028 
L 519.984519 -127.6326 
L 519.984519 -135.153655 
L 519.984519 -135.153655 
L 515.316154 -135.712352 
L 510.647788 -135.025104 
L 505.979423 -135.445905 
L 501.311058 -133.466299 
L 496.642692 -136.433955 
L 491.974327 -132.724726 
L 487.305962 -136.166727 
L 482.637596 -134.036529 
L 477.969231 -130.84423 
L 473.300865 -133.518131 
L 468.6325 -134.639433 
L 463.964135 -138.087707 
L 459.295769 -134.424271 
L 454.627404 -136.429959 
L 449.959038 -136.793777 
L 445.290673 -136.372028 
L 440.622308 -134.839162 
L 435.953942 -140.98654 
L 431.285577 -137.175313 
L 426.617212 -138.026225 
L 421.948846 -137.876879 
L 417.280481 -136.801057 
L 412.612115 -136.849599 
L 407.94375 -138.478331 
L 403.275385 -142.251626 
L 398.607019 -140.411847 
L 393.938654 -138.655815 
L 389.270288 -141.241649 
L 384.601923 -140.59158 
L 379.933558 -142.890448 
L 375.265192 -145.148805 
L 370.596827 -139.7014 
L 365.928462 -142.897972 
L 361.260096 -145.244297 
L 356.591731 -143.492996 
L 351.923365 -144.422589 
L 347.255 -146.150005 
L 342.586635 -150.702948 
L 337.918269 -144.95482 
L 333.249904 -152.045831 
L 328.581538 -150.996745 
L 323.913173 -153.02101 
L 319.244808 -152.003635 
L 314.576442 -156.656157 
L 309.908077 -160.209578 
L 305.239712 -162.488133 
L 300.571346 -163.484964 
L 295.902981 -168.968353 
L 291.234615 -170.87355 
L 286.56625 -170.681424 
L 281.897885 -174.654708 
L 277.229519 -179.277288 
L 272.561154 -186.608109 
L 267.892788 -188.453365 
L 263.224423 -191.23626 
L 258.556058 -196.158134 
L 253.887692 -201.297157 
L 249.219327 -208.381155 
L 244.550962 -215.042021 
L 239.882596 -219.311153 
L 235.214231 -219.397314 
L 230.545865 -230.100255 
L 225.8775 -234.883123 
L 221.209135 -236.925251 
L 216.540769 -240.027221 
L 211.872404 -246.916932 
L 207.204038 -252.770878 
L 202.535673 -252.957531 
L 197.867308 -253.533267 
L 193.198942 -258.379945 
L 188.530577 -252.281942 
L 183.862212 -259.283005 
L 179.193846 -256.475387 
L 174.525481 -254.443692 
L 169.857115 -247.976211 
L 165.18875 -254.540774 
L 160.520385 -251.149644 
L 155.852019 -243.923319 
L 151.183654 -241.935717 
L 146.515288 -236.020482 
L 141.846923 -230.388054 
L 137.178558 -231.221195 
L 132.510192 -225.796422 
L 127.841827 -217.922634 
L 123.173462 -212.186124 
L 118.505096 -200.822365 
L 113.836731 -200.067058 
L 109.168365 -187.936361 
L 104.5 -182.676928 
L 99.831635 -173.330201 
L 95.163269 -152.658355 
L 90.494904 -152.497405 
L 85.826538 -139.487596 
L 81.158173 -127.716702 
L 76.489808 -117.704789 
L 71.821442 -102.225204 
L 67.153077 -93.065503 
L 62.484712 -79.79778 
L 57.816346 -59.078091 
z
"/>
    </defs>
    <g clip-path="url(#p01987a4e2a)">
     <use xlink:href="#m35e4cdcb41" x="0" y="293.699687" style="fill: #e41a1c; fill-opacity: 0.25"/>
    </g>
   </g>
   <g id="PolyCollection_2">
    <defs>
     <path id="mfc9f176b5d" d="M 57.816346 -93.884993 
L 57.816346 -82.992109 
L 62.484712 -106.867454 
L 67.153077 -154.60777 
L 71.821442 -159.698094 
L 76.489808 -180.800672 
L 81.158173 -198.545768 
L 85.826538 -207.955947 
L 90.494904 -219.987409 
L 95.163269 -218.802645 
L 99.831635 -231.198783 
L 104.5 -227.407793 
L 109.168365 -239.426575 
L 113.836731 -250.435755 
L 118.505096 -249.212808 
L 123.173462 -252.87243 
L 127.841827 -253.949296 
L 132.510192 -263.304558 
L 137.178558 -256.867416 
L 141.846923 -269.200642 
L 146.515288 -267.856461 
L 151.183654 -267.744876 
L 155.852019 -265.215008 
L 160.520385 -269.260379 
L 165.18875 -263.88558 
L 169.857115 -270.289244 
L 174.525481 -263.108874 
L 179.193846 -267.431917 
L 183.862212 -258.346971 
L 188.530577 -257.633829 
L 193.198942 -259.256565 
L 197.867308 -261.357617 
L 202.535673 -255.124228 
L 207.204038 -254.998426 
L 211.872404 -250.169676 
L 216.540769 -246.20827 
L 221.209135 -246.242526 
L 225.8775 -242.146133 
L 230.545865 -238.726086 
L 235.214231 -236.214958 
L 239.882596 -236.584514 
L 244.550962 -234.458545 
L 249.219327 -228.894618 
L 253.887692 -228.939666 
L 258.556058 -219.739552 
L 263.224423 -219.052107 
L 267.892788 -213.758857 
L 272.561154 -214.17911 
L 277.229519 -212.981793 
L 281.897885 -210.58136 
L 286.56625 -203.982358 
L 291.234615 -202.3131 
L 295.902981 -202.701945 
L 300.571346 -196.112609 
L 305.239712 -201.180797 
L 309.908077 -186.142997 
L 314.576442 -187.589545 
L 319.244808 -190.876372 
L 323.913173 -186.820649 
L 328.581538 -184.038232 
L 333.249904 -184.899027 
L 337.918269 -183.788284 
L 342.586635 -179.125617 
L 347.255 -178.78275 
L 351.923365 -178.041618 
L 356.591731 -180.786573 
L 361.260096 -181.000902 
L 365.928462 -175.328046 
L 370.596827 -172.297242 
L 375.265192 -170.697746 
L 379.933558 -168.746146 
L 384.601923 -168.271931 
L 389.270288 -168.477408 
L 393.938654 -167.491945 
L 398.607019 -168.385616 
L 403.275385 -167.241346 
L 407.94375 -170.227851 
L 412.612115 -165.371794 
L 417.280481 -165.859873 
L 421.948846 -159.430737 
L 426.617212 -159.876794 
L 431.285577 -162.343854 
L 435.953942 -155.930266 
L 440.622308 -160.26726 
L 445.290673 -157.176564 
L 449.959038 -153.890746 
L 454.627404 -160.105319 
L 459.295769 -153.847868 
L 463.964135 -154.801899 
L 468.6325 -155.916061 
L 473.300865 -150.997771 
L 477.969231 -159.742988 
L 482.637596 -153.885896 
L 487.305962 -161.110827 
L 491.974327 -151.85277 
L 496.642692 -154.349519 
L 501.311058 -152.248748 
L 505.979423 -155.947809 
L 510.647788 -148.78421 
L 515.316154 -152.458612 
L 519.984519 -148.848048 
L 519.984519 -154.289191 
L 519.984519 -154.289191 
L 515.316154 -155.613234 
L 510.647788 -157.567572 
L 505.979423 -158.383938 
L 501.311058 -159.827179 
L 496.642692 -158.06478 
L 491.974327 -156.698437 
L 487.305962 -163.00554 
L 482.637596 -161.460969 
L 477.969231 -163.414655 
L 473.300865 -161.472923 
L 468.6325 -163.12471 
L 463.964135 -162.941775 
L 459.295769 -160.145506 
L 454.627404 -164.490409 
L 449.959038 -163.768335 
L 445.290673 -164.120028 
L 440.622308 -164.610446 
L 435.953942 -162.715737 
L 431.285577 -167.130085 
L 426.617212 -167.143941 
L 421.948846 -166.631275 
L 417.280481 -167.730938 
L 412.612115 -171.743737 
L 407.94375 -174.557469 
L 403.275385 -172.383784 
L 398.607019 -173.890103 
L 393.938654 -173.909644 
L 389.270288 -171.288711 
L 384.601923 -173.327042 
L 379.933558 -177.674643 
L 375.265192 -181.78556 
L 370.596827 -184.979681 
L 365.928462 -185.473596 
L 361.260096 -185.355698 
L 356.591731 -183.793569 
L 351.923365 -188.681553 
L 347.255 -185.346227 
L 342.586635 -189.345814 
L 337.918269 -193.903813 
L 333.249904 -191.185798 
L 328.581538 -192.046592 
L 323.913173 -198.851411 
L 319.244808 -202.465477 
L 314.576442 -201.127873 
L 309.908077 -208.834322 
L 305.239712 -209.50267 
L 300.571346 -203.872631 
L 295.902981 -213.570317 
L 291.234615 -212.695903 
L 286.56625 -219.10248 
L 281.897885 -215.593953 
L 277.229519 -223.074011 
L 272.561154 -219.914131 
L 267.892788 -222.161598 
L 263.224423 -226.88419 
L 258.556058 -224.098833 
L 253.887692 -233.215978 
L 249.219327 -236.870339 
L 244.550962 -240.171785 
L 239.882596 -241.587454 
L 235.214231 -247.461211 
L 230.545865 -243.032636 
L 225.8775 -250.5082 
L 221.209135 -256.337416 
L 216.540769 -257.048419 
L 211.872404 -258.297957 
L 207.204038 -258.973409 
L 202.535673 -262.705059 
L 197.867308 -264.299366 
L 193.198942 -266.422976 
L 188.530577 -266.376406 
L 183.862212 -266.700941 
L 179.193846 -270.789984 
L 174.525481 -275.316051 
L 169.857115 -273.617324 
L 165.18875 -273.185854 
L 160.520385 -275.255261 
L 155.852019 -271.17968 
L 151.183654 -275.259365 
L 146.515288 -274.448475 
L 141.846923 -271.547779 
L 137.178558 -263.623739 
L 132.510192 -270.247796 
L 127.841827 -259.954864 
L 123.173462 -265.272672 
L 118.505096 -260.044363 
L 113.836731 -254.467682 
L 109.168365 -250.723798 
L 104.5 -247.31277 
L 99.831635 -246.093415 
L 95.163269 -235.344838 
L 90.494904 -229.355176 
L 85.826538 -219.03522 
L 81.158173 -203.932153 
L 76.489808 -201.168083 
L 71.821442 -176.49631 
L 67.153077 -162.581349 
L 62.484712 -131.931913 
L 57.816346 -93.884993 
z
"/>
    </defs>
    <g clip-path="url(#p01987a4e2a)">
     <use xlink:href="#mfc9f176b5d" x="0" y="293.699687" style="fill: #228b22; fill-opacity: 0.25"/>
    </g>
   </g>
   <g id="matplotlib.axis_1">
    <g id="xtick_1">
     <g id="line2d_1">
      <path d="M 53.147981 253.24 
L 53.147981 7.2 
" clip-path="url(#p01987a4e2a)" style="fill: none; stroke: #b0b0b0; stroke-opacity: 0.25; stroke-width: 0.8; stroke-linecap: square"/>
     </g>
     <g id="line2d_2">
      <defs>
       <path id="m40c83eeead" d="M 0 0 
L 0 3.5 
" style="stroke: #000000; stroke-width: 0.8"/>
      </defs>
      <g>
       <use xlink:href="#m40c83eeead" x="53.147981" y="253.24" style="stroke: #000000; stroke-width: 0.8"/>
      </g>
     </g>
     <g id="text_1">
      <!-- 0 -->
      <g transform="translate(49.648606 268.598281) scale(0.11 -0.11)">
       <defs>
        <path id="DejaVuSans-30" d="M 2034 4250 
Q 1547 4250 1301 3770 
Q 1056 3291 1056 2328 
Q 1056 1369 1301 889 
Q 1547 409 2034 409 
Q 2525 409 2770 889 
Q 3016 1369 3016 2328 
Q 3016 3291 2770 3770 
Q 2525 4250 2034 4250 
z
M 2034 4750 
Q 2819 4750 3233 4129 
Q 3647 3509 3647 2328 
Q 3647 1150 3233 529 
Q 2819 -91 2034 -91 
Q 1250 -91 836 529 
Q 422 1150 422 2328 
Q 422 3509 836 4129 
Q 1250 4750 2034 4750 
z
" transform="scale(0.015625)"/>
       </defs>
       <use xlink:href="#DejaVuSans-30"/>
      </g>
     </g>
    </g>
    <g id="xtick_2">
     <g id="line2d_3">
      <path d="M 146.515288 253.24 
L 146.515288 7.2 
" clip-path="url(#p01987a4e2a)" style="fill: none; stroke: #b0b0b0; stroke-opacity: 0.25; stroke-width: 0.8; stroke-linecap: square"/>
     </g>
     <g id="line2d_4">
      <g>
       <use xlink:href="#m40c83eeead" x="146.515288" y="253.24" style="stroke: #000000; stroke-width: 0.8"/>
      </g>
     </g>
     <g id="text_2">
      <!-- 20 -->
      <g transform="translate(139.516538 268.598281) scale(0.11 -0.11)">
       <defs>
        <path id="DejaVuSans-32" d="M 1228 531 
L 3431 531 
L 3431 0 
L 469 0 
L 469 531 
Q 828 903 1448 1529 
Q 2069 2156 2228 2338 
Q 2531 2678 2651 2914 
Q 2772 3150 2772 3378 
Q 2772 3750 2511 3984 
Q 2250 4219 1831 4219 
Q 1534 4219 1204 4116 
Q 875 4013 500 3803 
L 500 4441 
Q 881 4594 1212 4672 
Q 1544 4750 1819 4750 
Q 2544 4750 2975 4387 
Q 3406 4025 3406 3419 
Q 3406 3131 3298 2873 
Q 3191 2616 2906 2266 
Q 2828 2175 2409 1742 
Q 1991 1309 1228 531 
z
" transform="scale(0.015625)"/>
       </defs>
       <use xlink:href="#DejaVuSans-32"/>
       <use xlink:href="#DejaVuSans-30" x="63.623047"/>
      </g>
     </g>
    </g>
    <g id="xtick_3">
     <g id="line2d_5">
      <path d="M 239.882596 253.24 
L 239.882596 7.2 
" clip-path="url(#p01987a4e2a)" style="fill: none; stroke: #b0b0b0; stroke-opacity: 0.25; stroke-width: 0.8; stroke-linecap: square"/>
     </g>
     <g id="line2d_6">
      <g>
       <use xlink:href="#m40c83eeead" x="239.882596" y="253.24" style="stroke: #000000; stroke-width: 0.8"/>
      </g>
     </g>
     <g id="text_3">
      <!-- 40 -->
      <g transform="translate(232.883846 268.598281) scale(0.11 -0.11)">
       <defs>
        <path id="DejaVuSans-34" d="M 2419 4116 
L 825 1625 
L 2419 1625 
L 2419 4116 
z
M 2253 4666 
L 3047 4666 
L 3047 1625 
L 3713 1625 
L 3713 1100 
L 3047 1100 
L 3047 0 
L 2419 0 
L 2419 1100 
L 313 1100 
L 313 1709 
L 2253 4666 
z
" transform="scale(0.015625)"/>
       </defs>
       <use xlink:href="#DejaVuSans-34"/>
       <use xlink:href="#DejaVuSans-30" x="63.623047"/>
      </g>
     </g>
    </g>
    <g id="xtick_4">
     <g id="line2d_7">
      <path d="M 333.249904 253.24 
L 333.249904 7.2 
" clip-path="url(#p01987a4e2a)" style="fill: none; stroke: #b0b0b0; stroke-opacity: 0.25; stroke-width: 0.8; stroke-linecap: square"/>
     </g>
     <g id="line2d_8">
      <g>
       <use xlink:href="#m40c83eeead" x="333.249904" y="253.24" style="stroke: #000000; stroke-width: 0.8"/>
      </g>
     </g>
     <g id="text_4">
      <!-- 60 -->
      <g transform="translate(326.251154 268.598281) scale(0.11 -0.11)">
       <defs>
        <path id="DejaVuSans-36" d="M 2113 2584 
Q 1688 2584 1439 2293 
Q 1191 2003 1191 1497 
Q 1191 994 1439 701 
Q 1688 409 2113 409 
Q 2538 409 2786 701 
Q 3034 994 3034 1497 
Q 3034 2003 2786 2293 
Q 2538 2584 2113 2584 
z
M 3366 4563 
L 3366 3988 
Q 3128 4100 2886 4159 
Q 2644 4219 2406 4219 
Q 1781 4219 1451 3797 
Q 1122 3375 1075 2522 
Q 1259 2794 1537 2939 
Q 1816 3084 2150 3084 
Q 2853 3084 3261 2657 
Q 3669 2231 3669 1497 
Q 3669 778 3244 343 
Q 2819 -91 2113 -91 
Q 1303 -91 875 529 
Q 447 1150 447 2328 
Q 447 3434 972 4092 
Q 1497 4750 2381 4750 
Q 2619 4750 2861 4703 
Q 3103 4656 3366 4563 
z
" transform="scale(0.015625)"/>
       </defs>
       <use xlink:href="#DejaVuSans-36"/>
       <use xlink:href="#DejaVuSans-30" x="63.623047"/>
      </g>
     </g>
    </g>
    <g id="xtick_5">
     <g id="line2d_9">
      <path d="M 426.617212 253.24 
L 426.617212 7.2 
" clip-path="url(#p01987a4e2a)" style="fill: none; stroke: #b0b0b0; stroke-opacity: 0.25; stroke-width: 0.8; stroke-linecap: square"/>
     </g>
     <g id="line2d_10">
      <g>
       <use xlink:href="#m40c83eeead" x="426.617212" y="253.24" style="stroke: #000000; stroke-width: 0.8"/>
      </g>
     </g>
     <g id="text_5">
      <!-- 80 -->
      <g transform="translate(419.618462 268.598281) scale(0.11 -0.11)">
       <defs>
        <path id="DejaVuSans-38" d="M 2034 2216 
Q 1584 2216 1326 1975 
Q 1069 1734 1069 1313 
Q 1069 891 1326 650 
Q 1584 409 2034 409 
Q 2484 409 2743 651 
Q 3003 894 3003 1313 
Q 3003 1734 2745 1975 
Q 2488 2216 2034 2216 
z
M 1403 2484 
Q 997 2584 770 2862 
Q 544 3141 544 3541 
Q 544 4100 942 4425 
Q 1341 4750 2034 4750 
Q 2731 4750 3128 4425 
Q 3525 4100 3525 3541 
Q 3525 3141 3298 2862 
Q 3072 2584 2669 2484 
Q 3125 2378 3379 2068 
Q 3634 1759 3634 1313 
Q 3634 634 3220 271 
Q 2806 -91 2034 -91 
Q 1263 -91 848 271 
Q 434 634 434 1313 
Q 434 1759 690 2068 
Q 947 2378 1403 2484 
z
M 1172 3481 
Q 1172 3119 1398 2916 
Q 1625 2713 2034 2713 
Q 2441 2713 2670 2916 
Q 2900 3119 2900 3481 
Q 2900 3844 2670 4047 
Q 2441 4250 2034 4250 
Q 1625 4250 1398 4047 
Q 1172 3844 1172 3481 
z
" transform="scale(0.015625)"/>
       </defs>
       <use xlink:href="#DejaVuSans-38"/>
       <use xlink:href="#DejaVuSans-30" x="63.623047"/>
      </g>
     </g>
    </g>
    <g id="xtick_6">
     <g id="line2d_11">
      <path d="M 519.984519 253.24 
L 519.984519 7.2 
" clip-path="url(#p01987a4e2a)" style="fill: none; stroke: #b0b0b0; stroke-opacity: 0.25; stroke-width: 0.8; stroke-linecap: square"/>
     </g>
     <g id="line2d_12">
      <g>
       <use xlink:href="#m40c83eeead" x="519.984519" y="253.24" style="stroke: #000000; stroke-width: 0.8"/>
      </g>
     </g>
     <g id="text_6">
      <!-- 100 -->
      <g transform="translate(509.486394 268.598281) scale(0.11 -0.11)">
       <defs>
        <path id="DejaVuSans-31" d="M 794 531 
L 1825 531 
L 1825 4091 
L 703 3866 
L 703 4441 
L 1819 4666 
L 2450 4666 
L 2450 531 
L 3481 531 
L 3481 0 
L 794 0 
L 794 531 
z
" transform="scale(0.015625)"/>
       </defs>
       <use xlink:href="#DejaVuSans-31"/>
       <use xlink:href="#DejaVuSans-30" x="63.623047"/>
       <use xlink:href="#DejaVuSans-30" x="127.246094"/>
      </g>
     </g>
    </g>
    <g id="text_7">
     <!-- Epoch -->
     <g transform="translate(268.193125 284.004062) scale(0.12 -0.12)">
      <defs>
       <path id="DejaVuSans-45" d="M 628 4666 
L 3578 4666 
L 3578 4134 
L 1259 4134 
L 1259 2753 
L 3481 2753 
L 3481 2222 
L 1259 2222 
L 1259 531 
L 3634 531 
L 3634 0 
L 628 0 
L 628 4666 
z
" transform="scale(0.015625)"/>
       <path id="DejaVuSans-70" d="M 1159 525 
L 1159 -1331 
L 581 -1331 
L 581 3500 
L 1159 3500 
L 1159 2969 
Q 1341 3281 1617 3432 
Q 1894 3584 2278 3584 
Q 2916 3584 3314 3078 
Q 3713 2572 3713 1747 
Q 3713 922 3314 415 
Q 2916 -91 2278 -91 
Q 1894 -91 1617 61 
Q 1341 213 1159 525 
z
M 3116 1747 
Q 3116 2381 2855 2742 
Q 2594 3103 2138 3103 
Q 1681 3103 1420 2742 
Q 1159 2381 1159 1747 
Q 1159 1113 1420 752 
Q 1681 391 2138 391 
Q 2594 391 2855 752 
Q 3116 1113 3116 1747 
z
" transform="scale(0.015625)"/>
       <path id="DejaVuSans-6f" d="M 1959 3097 
Q 1497 3097 1228 2736 
Q 959 2375 959 1747 
Q 959 1119 1226 758 
Q 1494 397 1959 397 
Q 2419 397 2687 759 
Q 2956 1122 2956 1747 
Q 2956 2369 2687 2733 
Q 2419 3097 1959 3097 
z
M 1959 3584 
Q 2709 3584 3137 3096 
Q 3566 2609 3566 1747 
Q 3566 888 3137 398 
Q 2709 -91 1959 -91 
Q 1206 -91 779 398 
Q 353 888 353 1747 
Q 353 2609 779 3096 
Q 1206 3584 1959 3584 
z
" transform="scale(0.015625)"/>
       <path id="DejaVuSans-63" d="M 3122 3366 
L 3122 2828 
Q 2878 2963 2633 3030 
Q 2388 3097 2138 3097 
Q 1578 3097 1268 2742 
Q 959 2388 959 1747 
Q 959 1106 1268 751 
Q 1578 397 2138 397 
Q 2388 397 2633 464 
Q 2878 531 3122 666 
L 3122 134 
Q 2881 22 2623 -34 
Q 2366 -91 2075 -91 
Q 1284 -91 818 406 
Q 353 903 353 1747 
Q 353 2603 823 3093 
Q 1294 3584 2113 3584 
Q 2378 3584 2631 3529 
Q 2884 3475 3122 3366 
z
" transform="scale(0.015625)"/>
       <path id="DejaVuSans-68" d="M 3513 2113 
L 3513 0 
L 2938 0 
L 2938 2094 
Q 2938 2591 2744 2837 
Q 2550 3084 2163 3084 
Q 1697 3084 1428 2787 
Q 1159 2491 1159 1978 
L 1159 0 
L 581 0 
L 581 4863 
L 1159 4863 
L 1159 2956 
Q 1366 3272 1645 3428 
Q 1925 3584 2291 3584 
Q 2894 3584 3203 3211 
Q 3513 2838 3513 2113 
z
" transform="scale(0.015625)"/>
      </defs>
      <use xlink:href="#DejaVuSans-45"/>
      <use xlink:href="#DejaVuSans-70" x="63.183594"/>
      <use xlink:href="#DejaVuSans-6f" x="126.660156"/>
      <use xlink:href="#DejaVuSans-63" x="187.841797"/>
      <use xlink:href="#DejaVuSans-68" x="242.822266"/>
     </g>
    </g>
   </g>
   <g id="matplotlib.axis_2">
    <g id="ytick_1">
     <g id="line2d_13">
      <path d="M 43.81125 227.725346 
L 529.32125 227.725346 
" clip-path="url(#p01987a4e2a)" style="fill: none; stroke: #b0b0b0; stroke-opacity: 0.25; stroke-width: 0.8; stroke-linecap: square"/>
     </g>
     <g id="line2d_14">
      <defs>
       <path id="m90ec9c6f66" d="M 0 0 
L -3.5 0 
" style="stroke: #000000; stroke-width: 0.8"/>
      </defs>
      <g>
       <use xlink:href="#m90ec9c6f66" x="43.81125" y="227.725346" style="stroke: #000000; stroke-width: 0.8"/>
      </g>
     </g>
     <g id="text_8">
      <!-- 10 -->
      <g transform="translate(22.81375 231.904487) scale(0.11 -0.11)">
       <use xlink:href="#DejaVuSans-31"/>
       <use xlink:href="#DejaVuSans-30" x="63.623047"/>
      </g>
     </g>
    </g>
    <g id="ytick_2">
     <g id="line2d_15">
      <path d="M 43.81125 199.527593 
L 529.32125 199.527593 
" clip-path="url(#p01987a4e2a)" style="fill: none; stroke: #b0b0b0; stroke-opacity: 0.25; stroke-width: 0.8; stroke-linecap: square"/>
     </g>
     <g id="line2d_16">
      <g>
       <use xlink:href="#m90ec9c6f66" x="43.81125" y="199.527593" style="stroke: #000000; stroke-width: 0.8"/>
      </g>
     </g>
     <g id="text_9">
      <!-- 15 -->
      <g transform="translate(22.81375 203.706734) scale(0.11 -0.11)">
       <defs>
        <path id="DejaVuSans-35" d="M 691 4666 
L 3169 4666 
L 3169 4134 
L 1269 4134 
L 1269 2991 
Q 1406 3038 1543 3061 
Q 1681 3084 1819 3084 
Q 2600 3084 3056 2656 
Q 3513 2228 3513 1497 
Q 3513 744 3044 326 
Q 2575 -91 1722 -91 
Q 1428 -91 1123 -41 
Q 819 9 494 109 
L 494 744 
Q 775 591 1075 516 
Q 1375 441 1709 441 
Q 2250 441 2565 725 
Q 2881 1009 2881 1497 
Q 2881 1984 2565 2268 
Q 2250 2553 1709 2553 
Q 1456 2553 1204 2497 
Q 953 2441 691 2322 
L 691 4666 
z
" transform="scale(0.015625)"/>
       </defs>
       <use xlink:href="#DejaVuSans-31"/>
       <use xlink:href="#DejaVuSans-35" x="63.623047"/>
      </g>
     </g>
    </g>
    <g id="ytick_3">
     <g id="line2d_17">
      <path d="M 43.81125 171.329841 
L 529.32125 171.329841 
" clip-path="url(#p01987a4e2a)" style="fill: none; stroke: #b0b0b0; stroke-opacity: 0.25; stroke-width: 0.8; stroke-linecap: square"/>
     </g>
     <g id="line2d_18">
      <g>
       <use xlink:href="#m90ec9c6f66" x="43.81125" y="171.329841" style="stroke: #000000; stroke-width: 0.8"/>
      </g>
     </g>
     <g id="text_10">
      <!-- 20 -->
      <g transform="translate(22.81375 175.508981) scale(0.11 -0.11)">
       <use xlink:href="#DejaVuSans-32"/>
       <use xlink:href="#DejaVuSans-30" x="63.623047"/>
      </g>
     </g>
    </g>
    <g id="ytick_4">
     <g id="line2d_19">
      <path d="M 43.81125 143.132088 
L 529.32125 143.132088 
" clip-path="url(#p01987a4e2a)" style="fill: none; stroke: #b0b0b0; stroke-opacity: 0.25; stroke-width: 0.8; stroke-linecap: square"/>
     </g>
     <g id="line2d_20">
      <g>
       <use xlink:href="#m90ec9c6f66" x="43.81125" y="143.132088" style="stroke: #000000; stroke-width: 0.8"/>
      </g>
     </g>
     <g id="text_11">
      <!-- 25 -->
      <g transform="translate(22.81375 147.311229) scale(0.11 -0.11)">
       <use xlink:href="#DejaVuSans-32"/>
       <use xlink:href="#DejaVuSans-35" x="63.623047"/>
      </g>
     </g>
    </g>
    <g id="ytick_5">
     <g id="line2d_21">
      <path d="M 43.81125 114.934336 
L 529.32125 114.934336 
" clip-path="url(#p01987a4e2a)" style="fill: none; stroke: #b0b0b0; stroke-opacity: 0.25; stroke-width: 0.8; stroke-linecap: square"/>
     </g>
     <g id="line2d_22">
      <g>
       <use xlink:href="#m90ec9c6f66" x="43.81125" y="114.934336" style="stroke: #000000; stroke-width: 0.8"/>
      </g>
     </g>
     <g id="text_12">
      <!-- 30 -->
      <g transform="translate(22.81375 119.113476) scale(0.11 -0.11)">
       <defs>
        <path id="DejaVuSans-33" d="M 2597 2516 
Q 3050 2419 3304 2112 
Q 3559 1806 3559 1356 
Q 3559 666 3084 287 
Q 2609 -91 1734 -91 
Q 1441 -91 1130 -33 
Q 819 25 488 141 
L 488 750 
Q 750 597 1062 519 
Q 1375 441 1716 441 
Q 2309 441 2620 675 
Q 2931 909 2931 1356 
Q 2931 1769 2642 2001 
Q 2353 2234 1838 2234 
L 1294 2234 
L 1294 2753 
L 1863 2753 
Q 2328 2753 2575 2939 
Q 2822 3125 2822 3475 
Q 2822 3834 2567 4026 
Q 2313 4219 1838 4219 
Q 1578 4219 1281 4162 
Q 984 4106 628 3988 
L 628 4550 
Q 988 4650 1302 4700 
Q 1616 4750 1894 4750 
Q 2613 4750 3031 4423 
Q 3450 4097 3450 3541 
Q 3450 3153 3228 2886 
Q 3006 2619 2597 2516 
z
" transform="scale(0.015625)"/>
       </defs>
       <use xlink:href="#DejaVuSans-33"/>
       <use xlink:href="#DejaVuSans-30" x="63.623047"/>
      </g>
     </g>
    </g>
    <g id="ytick_6">
     <g id="line2d_23">
      <path d="M 43.81125 86.736583 
L 529.32125 86.736583 
" clip-path="url(#p01987a4e2a)" style="fill: none; stroke: #b0b0b0; stroke-opacity: 0.25; stroke-width: 0.8; stroke-linecap: square"/>
     </g>
     <g id="line2d_24">
      <g>
       <use xlink:href="#m90ec9c6f66" x="43.81125" y="86.736583" style="stroke: #000000; stroke-width: 0.8"/>
      </g>
     </g>
     <g id="text_13">
      <!-- 35 -->
      <g transform="translate(22.81375 90.915724) scale(0.11 -0.11)">
       <use xlink:href="#DejaVuSans-33"/>
       <use xlink:href="#DejaVuSans-35" x="63.623047"/>
      </g>
     </g>
    </g>
    <g id="ytick_7">
     <g id="line2d_25">
      <path d="M 43.81125 58.538831 
L 529.32125 58.538831 
" clip-path="url(#p01987a4e2a)" style="fill: none; stroke: #b0b0b0; stroke-opacity: 0.25; stroke-width: 0.8; stroke-linecap: square"/>
     </g>
     <g id="line2d_26">
      <g>
       <use xlink:href="#m90ec9c6f66" x="43.81125" y="58.538831" style="stroke: #000000; stroke-width: 0.8"/>
      </g>
     </g>
     <g id="text_14">
      <!-- 40 -->
      <g transform="translate(22.81375 62.717971) scale(0.11 -0.11)">
       <use xlink:href="#DejaVuSans-34"/>
       <use xlink:href="#DejaVuSans-30" x="63.623047"/>
      </g>
     </g>
    </g>
    <g id="ytick_8">
     <g id="line2d_27">
      <path d="M 43.81125 30.341078 
L 529.32125 30.341078 
" clip-path="url(#p01987a4e2a)" style="fill: none; stroke: #b0b0b0; stroke-opacity: 0.25; stroke-width: 0.8; stroke-linecap: square"/>
     </g>
     <g id="line2d_28">
      <g>
       <use xlink:href="#m90ec9c6f66" x="43.81125" y="30.341078" style="stroke: #000000; stroke-width: 0.8"/>
      </g>
     </g>
     <g id="text_15">
      <!-- 45 -->
      <g transform="translate(22.81375 34.520219) scale(0.11 -0.11)">
       <use xlink:href="#DejaVuSans-34"/>
       <use xlink:href="#DejaVuSans-35" x="63.623047"/>
      </g>
     </g>
    </g>
    <g id="text_16">
     <!-- Test Accuracy (%) -->
     <g transform="translate(16.318125 183.624687) rotate(-90) scale(0.12 -0.12)">
      <defs>
       <path id="DejaVuSans-54" d="M -19 4666 
L 3928 4666 
L 3928 4134 
L 2272 4134 
L 2272 0 
L 1638 0 
L 1638 4134 
L -19 4134 
L -19 4666 
z
" transform="scale(0.015625)"/>
       <path id="DejaVuSans-65" d="M 3597 1894 
L 3597 1613 
L 953 1613 
Q 991 1019 1311 708 
Q 1631 397 2203 397 
Q 2534 397 2845 478 
Q 3156 559 3463 722 
L 3463 178 
Q 3153 47 2828 -22 
Q 2503 -91 2169 -91 
Q 1331 -91 842 396 
Q 353 884 353 1716 
Q 353 2575 817 3079 
Q 1281 3584 2069 3584 
Q 2775 3584 3186 3129 
Q 3597 2675 3597 1894 
z
M 3022 2063 
Q 3016 2534 2758 2815 
Q 2500 3097 2075 3097 
Q 1594 3097 1305 2825 
Q 1016 2553 972 2059 
L 3022 2063 
z
" transform="scale(0.015625)"/>
       <path id="DejaVuSans-73" d="M 2834 3397 
L 2834 2853 
Q 2591 2978 2328 3040 
Q 2066 3103 1784 3103 
Q 1356 3103 1142 2972 
Q 928 2841 928 2578 
Q 928 2378 1081 2264 
Q 1234 2150 1697 2047 
L 1894 2003 
Q 2506 1872 2764 1633 
Q 3022 1394 3022 966 
Q 3022 478 2636 193 
Q 2250 -91 1575 -91 
Q 1294 -91 989 -36 
Q 684 19 347 128 
L 347 722 
Q 666 556 975 473 
Q 1284 391 1588 391 
Q 1994 391 2212 530 
Q 2431 669 2431 922 
Q 2431 1156 2273 1281 
Q 2116 1406 1581 1522 
L 1381 1569 
Q 847 1681 609 1914 
Q 372 2147 372 2553 
Q 372 3047 722 3315 
Q 1072 3584 1716 3584 
Q 2034 3584 2315 3537 
Q 2597 3491 2834 3397 
z
" transform="scale(0.015625)"/>
       <path id="DejaVuSans-74" d="M 1172 4494 
L 1172 3500 
L 2356 3500 
L 2356 3053 
L 1172 3053 
L 1172 1153 
Q 1172 725 1289 603 
Q 1406 481 1766 481 
L 2356 481 
L 2356 0 
L 1766 0 
Q 1100 0 847 248 
Q 594 497 594 1153 
L 594 3053 
L 172 3053 
L 172 3500 
L 594 3500 
L 594 4494 
L 1172 4494 
z
" transform="scale(0.015625)"/>
       <path id="DejaVuSans-20" transform="scale(0.015625)"/>
       <path id="DejaVuSans-41" d="M 2188 4044 
L 1331 1722 
L 3047 1722 
L 2188 4044 
z
M 1831 4666 
L 2547 4666 
L 4325 0 
L 3669 0 
L 3244 1197 
L 1141 1197 
L 716 0 
L 50 0 
L 1831 4666 
z
" transform="scale(0.015625)"/>
       <path id="DejaVuSans-75" d="M 544 1381 
L 544 3500 
L 1119 3500 
L 1119 1403 
Q 1119 906 1312 657 
Q 1506 409 1894 409 
Q 2359 409 2629 706 
Q 2900 1003 2900 1516 
L 2900 3500 
L 3475 3500 
L 3475 0 
L 2900 0 
L 2900 538 
Q 2691 219 2414 64 
Q 2138 -91 1772 -91 
Q 1169 -91 856 284 
Q 544 659 544 1381 
z
M 1991 3584 
L 1991 3584 
z
" transform="scale(0.015625)"/>
       <path id="DejaVuSans-72" d="M 2631 2963 
Q 2534 3019 2420 3045 
Q 2306 3072 2169 3072 
Q 1681 3072 1420 2755 
Q 1159 2438 1159 1844 
L 1159 0 
L 581 0 
L 581 3500 
L 1159 3500 
L 1159 2956 
Q 1341 3275 1631 3429 
Q 1922 3584 2338 3584 
Q 2397 3584 2469 3576 
Q 2541 3569 2628 3553 
L 2631 2963 
z
" transform="scale(0.015625)"/>
       <path id="DejaVuSans-61" d="M 2194 1759 
Q 1497 1759 1228 1600 
Q 959 1441 959 1056 
Q 959 750 1161 570 
Q 1363 391 1709 391 
Q 2188 391 2477 730 
Q 2766 1069 2766 1631 
L 2766 1759 
L 2194 1759 
z
M 3341 1997 
L 3341 0 
L 2766 0 
L 2766 531 
Q 2569 213 2275 61 
Q 1981 -91 1556 -91 
Q 1019 -91 701 211 
Q 384 513 384 1019 
Q 384 1609 779 1909 
Q 1175 2209 1959 2209 
L 2766 2209 
L 2766 2266 
Q 2766 2663 2505 2880 
Q 2244 3097 1772 3097 
Q 1472 3097 1187 3025 
Q 903 2953 641 2809 
L 641 3341 
Q 956 3463 1253 3523 
Q 1550 3584 1831 3584 
Q 2591 3584 2966 3190 
Q 3341 2797 3341 1997 
z
" transform="scale(0.015625)"/>
       <path id="DejaVuSans-79" d="M 2059 -325 
Q 1816 -950 1584 -1140 
Q 1353 -1331 966 -1331 
L 506 -1331 
L 506 -850 
L 844 -850 
Q 1081 -850 1212 -737 
Q 1344 -625 1503 -206 
L 1606 56 
L 191 3500 
L 800 3500 
L 1894 763 
L 2988 3500 
L 3597 3500 
L 2059 -325 
z
" transform="scale(0.015625)"/>
       <path id="DejaVuSans-28" d="M 1984 4856 
Q 1566 4138 1362 3434 
Q 1159 2731 1159 2009 
Q 1159 1288 1364 580 
Q 1569 -128 1984 -844 
L 1484 -844 
Q 1016 -109 783 600 
Q 550 1309 550 2009 
Q 550 2706 781 3412 
Q 1013 4119 1484 4856 
L 1984 4856 
z
" transform="scale(0.015625)"/>
       <path id="DejaVuSans-25" d="M 4653 2053 
Q 4381 2053 4226 1822 
Q 4072 1591 4072 1178 
Q 4072 772 4226 539 
Q 4381 306 4653 306 
Q 4919 306 5073 539 
Q 5228 772 5228 1178 
Q 5228 1588 5073 1820 
Q 4919 2053 4653 2053 
z
M 4653 2450 
Q 5147 2450 5437 2106 
Q 5728 1763 5728 1178 
Q 5728 594 5436 251 
Q 5144 -91 4653 -91 
Q 4153 -91 3862 251 
Q 3572 594 3572 1178 
Q 3572 1766 3864 2108 
Q 4156 2450 4653 2450 
z
M 1428 4353 
Q 1159 4353 1004 4120 
Q 850 3888 850 3481 
Q 850 3069 1003 2837 
Q 1156 2606 1428 2606 
Q 1700 2606 1854 2837 
Q 2009 3069 2009 3481 
Q 2009 3884 1853 4118 
Q 1697 4353 1428 4353 
z
M 4250 4750 
L 4750 4750 
L 1831 -91 
L 1331 -91 
L 4250 4750 
z
M 1428 4750 
Q 1922 4750 2215 4408 
Q 2509 4066 2509 3481 
Q 2509 2891 2217 2550 
Q 1925 2209 1428 2209 
Q 931 2209 642 2551 
Q 353 2894 353 3481 
Q 353 4063 643 4406 
Q 934 4750 1428 4750 
z
" transform="scale(0.015625)"/>
       <path id="DejaVuSans-29" d="M 513 4856 
L 1013 4856 
Q 1481 4119 1714 3412 
Q 1947 2706 1947 2009 
Q 1947 1309 1714 600 
Q 1481 -109 1013 -844 
L 513 -844 
Q 928 -128 1133 580 
Q 1338 1288 1338 2009 
Q 1338 2731 1133 3434 
Q 928 4138 513 4856 
z
" transform="scale(0.015625)"/>
      </defs>
      <use xlink:href="#DejaVuSans-54"/>
      <use xlink:href="#DejaVuSans-65" x="44.083984"/>
      <use xlink:href="#DejaVuSans-73" x="105.607422"/>
      <use xlink:href="#DejaVuSans-74" x="157.707031"/>
      <use xlink:href="#DejaVuSans-20" x="196.916016"/>
      <use xlink:href="#DejaVuSans-41" x="228.703125"/>
      <use xlink:href="#DejaVuSans-63" x="295.361328"/>
      <use xlink:href="#DejaVuSans-63" x="350.341797"/>
      <use xlink:href="#DejaVuSans-75" x="405.322266"/>
      <use xlink:href="#DejaVuSans-72" x="468.701172"/>
      <use xlink:href="#DejaVuSans-61" x="509.814453"/>
      <use xlink:href="#DejaVuSans-63" x="571.09375"/>
      <use xlink:href="#DejaVuSans-79" x="626.074219"/>
      <use xlink:href="#DejaVuSans-20" x="685.253906"/>
      <use xlink:href="#DejaVuSans-28" x="717.041016"/>
      <use xlink:href="#DejaVuSans-25" x="756.054688"/>
      <use xlink:href="#DejaVuSans-29" x="851.074219"/>
     </g>
    </g>
   </g>
   <g id="line2d_29">
    <path d="M 57.816346 238.33898 
L 62.484712 218.408809 
L 67.153077 205.200981 
L 71.821442 195.636304 
L 76.489808 182.428476 
L 81.158173 171.871238 
L 85.826538 159.622134 
L 90.494904 146.448144 
L 95.163269 144.823953 
L 99.831635 125.502853 
L 104.5 119.254231 
L 109.168365 110.445254 
L 113.836731 102.33558 
L 118.505096 98.252545 
L 123.173462 87.187747 
L 127.841827 86.849374 
L 132.510192 71.904565 
L 137.178558 74.318293 
L 141.846923 64.843848 
L 146.515288 63.479077 
L 151.183654 54.647541 
L 155.852019 54.185098 
L 160.520385 50.406599 
L 165.18875 45.804726 
L 169.857115 48.88392 
L 174.525481 42.601461 
L 179.193846 44.609141 
L 183.862212 42.3646 
L 188.530577 45.725772 
L 193.198942 40.593781 
L 197.867308 46.041587 
L 202.535673 44.891118 
L 207.204038 49.583224 
L 211.872404 53.395561 
L 216.540769 58.629064 
L 221.209135 58.899762 
L 225.8775 63.840008 
L 230.545865 70.742818 
L 235.214231 77.882489 
L 239.882596 79.021678 
L 244.550962 85.473324 
L 249.219327 89.195427 
L 253.887692 98.117196 
L 258.556058 102.989768 
L 263.224423 106.35094 
L 267.892788 109.836182 
L 272.561154 112.441654 
L 277.229519 119.77307 
L 281.897885 122.694357 
L 286.56625 126.811229 
L 291.234615 128.852746 
L 295.902981 128.446699 
L 300.571346 134.153924 
L 305.239712 135.304392 
L 309.908077 137.221839 
L 314.576442 140.876268 
L 319.244808 144.99314 
L 323.913173 144.305115 
L 328.581538 145.647328 
L 333.249904 146.594772 
L 337.918269 150.271759 
L 342.586635 146.921866 
L 347.255 150.553737 
L 351.923365 151.004901 
L 356.591731 153.181767 
L 361.260096 151.535019 
L 365.928462 154.749562 
L 370.596827 155.347355 
L 375.265192 152.437347 
L 379.933558 152.5163 
L 384.601923 156.745963 
L 389.270288 155.697007 
L 393.938654 157.761082 
L 398.607019 155.27968 
L 403.275385 156.339916 
L 407.94375 158.685969 
L 412.612115 158.065618 
L 417.280481 161.392953 
L 421.948846 159.238645 
L 426.617212 158.900272 
L 431.285577 159.373994 
L 435.953942 157.896432 
L 440.622308 159.746204 
L 445.290673 161.67493 
L 449.959038 158.776201 
L 454.627404 161.528302 
L 459.295769 161.246325 
L 463.964135 159.103295 
L 468.6325 161.663651 
L 473.300865 162.723887 
L 477.969231 163.614936 
L 482.637596 162.960748 
L 487.305962 161.065859 
L 491.974327 163.94203 
L 496.642692 160.614695 
L 501.311058 163.874355 
L 505.979423 160.42295 
L 510.647788 162.284002 
L 515.316154 160.828998 
L 519.984519 162.30656 
" clip-path="url(#p01987a4e2a)" style="fill: none; stroke: #e41a1c; stroke-width: 2; stroke-linecap: square"/>
   </g>
   <g id="line2d_30">
    <path d="M 57.816346 205.261136 
L 62.484712 174.300004 
L 67.153077 135.105128 
L 71.821442 125.602485 
L 76.489808 102.71531 
L 81.158173 92.460727 
L 85.826538 80.204104 
L 90.494904 69.028395 
L 95.163269 66.625946 
L 99.831635 55.053588 
L 104.5 56.339406 
L 109.168365 48.624501 
L 113.836731 41.247969 
L 118.505096 39.071102 
L 123.173462 34.627137 
L 127.841827 36.747608 
L 132.510192 26.923511 
L 137.178558 33.45411 
L 141.846923 23.325477 
L 146.515288 22.547219 
L 151.183654 22.197567 
L 155.852019 25.502344 
L 160.520385 21.441867 
L 165.18875 25.163971 
L 169.857115 21.746403 
L 174.525481 24.487225 
L 179.193846 24.588737 
L 183.862212 31.175732 
L 188.530577 31.69457 
L 193.198942 30.859917 
L 197.867308 30.871196 
L 202.535673 34.785044 
L 207.204038 36.71377 
L 211.872404 39.465871 
L 216.540769 42.071343 
L 221.209135 42.409716 
L 225.8775 47.372521 
L 230.545865 52.820326 
L 235.214231 51.861603 
L 239.882596 54.613704 
L 244.550962 56.384522 
L 249.219327 60.817209 
L 253.887692 62.621865 
L 258.556058 71.780495 
L 263.224423 70.731539 
L 267.892788 75.73946 
L 272.561154 76.653067 
L 277.229519 75.671785 
L 281.897885 80.612031 
L 286.56625 82.157268 
L 291.234615 86.195186 
L 295.902981 85.563557 
L 300.571346 93.707068 
L 305.239712 88.357954 
L 309.908077 96.211028 
L 314.576442 99.340979 
L 319.244808 97.028763 
L 323.913173 100.863657 
L 328.581538 105.657275 
L 333.249904 105.657275 
L 337.918269 104.853639 
L 342.586635 109.463972 
L 347.255 111.635199 
L 351.923365 110.338102 
L 356.591731 111.409617 
L 361.260096 110.521388 
L 365.928462 113.298866 
L 370.596827 115.061226 
L 375.265192 117.458035 
L 379.933558 120.489293 
L 384.601923 122.900201 
L 389.270288 123.816628 
L 393.938654 122.998893 
L 398.607019 122.561828 
L 403.275385 123.887122 
L 407.94375 121.307028 
L 412.612115 125.141922 
L 417.280481 126.904282 
L 421.948846 130.668682 
L 426.617212 130.18932 
L 431.285577 128.962718 
L 435.953942 134.376686 
L 440.622308 131.260835 
L 445.290673 133.051392 
L 449.959038 134.870147 
L 454.627404 131.401823 
L 459.295769 136.703001 
L 463.964135 134.82785 
L 468.6325 134.179302 
L 473.300865 137.46434 
L 477.969231 132.120866 
L 482.637596 136.026255 
L 487.305962 131.641504 
L 491.974327 139.424084 
L 496.642692 137.492538 
L 501.311058 137.661724 
L 505.979423 136.533814 
L 510.647788 140.523796 
L 515.316154 139.663765 
L 519.984519 142.131068 
" clip-path="url(#p01987a4e2a)" style="fill: none; stroke: #228b22; stroke-width: 2; stroke-linecap: square"/>
   </g>
   <g id="patch_3">
    <path d="M 43.81125 253.24 
L 43.81125 7.2 
" style="fill: none; stroke: #000000; stroke-width: 0.8; stroke-linejoin: miter; stroke-linecap: square"/>
   </g>
   <g id="patch_4">
    <path d="M 529.32125 253.24 
L 529.32125 7.2 
" style="fill: none; stroke: #000000; stroke-width: 0.8; stroke-linejoin: miter; stroke-linecap: square"/>
   </g>
   <g id="patch_5">
    <path d="M 43.81125 253.24 
L 529.32125 253.24 
" style="fill: none; stroke: #000000; stroke-width: 0.8; stroke-linejoin: miter; stroke-linecap: square"/>
   </g>
   <g id="patch_6">
    <path d="M 43.81125 7.2 
L 529.32125 7.2 
" style="fill: none; stroke: #000000; stroke-width: 0.8; stroke-linejoin: miter; stroke-linecap: square"/>
   </g>
   <g id="legend_1">
    <g id="patch_7">
     <path d="M 126.081875 248.24 
L 447.050625 248.24 
Q 449.050625 248.24 449.050625 246.24 
L 449.050625 217.88375 
Q 449.050625 215.88375 447.050625 215.88375 
L 126.081875 215.88375 
Q 124.081875 215.88375 124.081875 217.88375 
L 124.081875 246.24 
Q 124.081875 248.24 126.081875 248.24 
z
" style="fill: #ffffff; opacity: 0.8; stroke: #cccccc; stroke-linejoin: miter"/>
    </g>
    <g id="line2d_31">
     <path d="M 128.081875 223.982187 
L 138.081875 223.982187 
L 148.081875 223.982187 
" style="fill: none; stroke: #e41a1c; stroke-width: 2; stroke-linecap: square"/>
    </g>
    <g id="text_17">
     <!-- Accuracy - Baseline -->
     <g transform="translate(156.081875 227.482187) scale(0.1 -0.1)">
      <defs>
       <path id="DejaVuSans-2d" d="M 313 2009 
L 1997 2009 
L 1997 1497 
L 313 1497 
L 313 2009 
z
" transform="scale(0.015625)"/>
       <path id="DejaVuSans-42" d="M 1259 2228 
L 1259 519 
L 2272 519 
Q 2781 519 3026 730 
Q 3272 941 3272 1375 
Q 3272 1813 3026 2020 
Q 2781 2228 2272 2228 
L 1259 2228 
z
M 1259 4147 
L 1259 2741 
L 2194 2741 
Q 2656 2741 2882 2914 
Q 3109 3088 3109 3444 
Q 3109 3797 2882 3972 
Q 2656 4147 2194 4147 
L 1259 4147 
z
M 628 4666 
L 2241 4666 
Q 2963 4666 3353 4366 
Q 3744 4066 3744 3513 
Q 3744 3084 3544 2831 
Q 3344 2578 2956 2516 
Q 3422 2416 3680 2098 
Q 3938 1781 3938 1306 
Q 3938 681 3513 340 
Q 3088 0 2303 0 
L 628 0 
L 628 4666 
z
" transform="scale(0.015625)"/>
       <path id="DejaVuSans-6c" d="M 603 4863 
L 1178 4863 
L 1178 0 
L 603 0 
L 603 4863 
z
" transform="scale(0.015625)"/>
       <path id="DejaVuSans-69" d="M 603 3500 
L 1178 3500 
L 1178 0 
L 603 0 
L 603 3500 
z
M 603 4863 
L 1178 4863 
L 1178 4134 
L 603 4134 
L 603 4863 
z
" transform="scale(0.015625)"/>
       <path id="DejaVuSans-6e" d="M 3513 2113 
L 3513 0 
L 2938 0 
L 2938 2094 
Q 2938 2591 2744 2837 
Q 2550 3084 2163 3084 
Q 1697 3084 1428 2787 
Q 1159 2491 1159 1978 
L 1159 0 
L 581 0 
L 581 3500 
L 1159 3500 
L 1159 2956 
Q 1366 3272 1645 3428 
Q 1925 3584 2291 3584 
Q 2894 3584 3203 3211 
Q 3513 2838 3513 2113 
z
" transform="scale(0.015625)"/>
      </defs>
      <use xlink:href="#DejaVuSans-41"/>
      <use xlink:href="#DejaVuSans-63" x="66.658203"/>
      <use xlink:href="#DejaVuSans-63" x="121.638672"/>
      <use xlink:href="#DejaVuSans-75" x="176.619141"/>
      <use xlink:href="#DejaVuSans-72" x="239.998047"/>
      <use xlink:href="#DejaVuSans-61" x="281.111328"/>
      <use xlink:href="#DejaVuSans-63" x="342.390625"/>
      <use xlink:href="#DejaVuSans-79" x="397.371094"/>
      <use xlink:href="#DejaVuSans-20" x="456.550781"/>
      <use xlink:href="#DejaVuSans-2d" x="488.337891"/>
      <use xlink:href="#DejaVuSans-20" x="524.421875"/>
      <use xlink:href="#DejaVuSans-42" x="556.208984"/>
      <use xlink:href="#DejaVuSans-61" x="624.8125"/>
      <use xlink:href="#DejaVuSans-73" x="686.091797"/>
      <use xlink:href="#DejaVuSans-65" x="738.191406"/>
      <use xlink:href="#DejaVuSans-6c" x="799.714844"/>
      <use xlink:href="#DejaVuSans-69" x="827.498047"/>
      <use xlink:href="#DejaVuSans-6e" x="855.28125"/>
      <use xlink:href="#DejaVuSans-65" x="918.660156"/>
     </g>
    </g>
    <g id="line2d_32">
     <path d="M 128.081875 238.660312 
L 138.081875 238.660312 
L 148.081875 238.660312 
" style="fill: none; stroke: #228b22; stroke-width: 2; stroke-linecap: square"/>
    </g>
    <g id="text_18">
     <!-- Accuracy - SSL Pre-trained -->
     <g transform="translate(156.081875 242.160312) scale(0.1 -0.1)">
      <defs>
       <path id="DejaVuSans-53" d="M 3425 4513 
L 3425 3897 
Q 3066 4069 2747 4153 
Q 2428 4238 2131 4238 
Q 1616 4238 1336 4038 
Q 1056 3838 1056 3469 
Q 1056 3159 1242 3001 
Q 1428 2844 1947 2747 
L 2328 2669 
Q 3034 2534 3370 2195 
Q 3706 1856 3706 1288 
Q 3706 609 3251 259 
Q 2797 -91 1919 -91 
Q 1588 -91 1214 -16 
Q 841 59 441 206 
L 441 856 
Q 825 641 1194 531 
Q 1563 422 1919 422 
Q 2459 422 2753 634 
Q 3047 847 3047 1241 
Q 3047 1584 2836 1778 
Q 2625 1972 2144 2069 
L 1759 2144 
Q 1053 2284 737 2584 
Q 422 2884 422 3419 
Q 422 4038 858 4394 
Q 1294 4750 2059 4750 
Q 2388 4750 2728 4690 
Q 3069 4631 3425 4513 
z
" transform="scale(0.015625)"/>
       <path id="DejaVuSans-4c" d="M 628 4666 
L 1259 4666 
L 1259 531 
L 3531 531 
L 3531 0 
L 628 0 
L 628 4666 
z
" transform="scale(0.015625)"/>
       <path id="DejaVuSans-50" d="M 1259 4147 
L 1259 2394 
L 2053 2394 
Q 2494 2394 2734 2622 
Q 2975 2850 2975 3272 
Q 2975 3691 2734 3919 
Q 2494 4147 2053 4147 
L 1259 4147 
z
M 628 4666 
L 2053 4666 
Q 2838 4666 3239 4311 
Q 3641 3956 3641 3272 
Q 3641 2581 3239 2228 
Q 2838 1875 2053 1875 
L 1259 1875 
L 1259 0 
L 628 0 
L 628 4666 
z
" transform="scale(0.015625)"/>
       <path id="DejaVuSans-64" d="M 2906 2969 
L 2906 4863 
L 3481 4863 
L 3481 0 
L 2906 0 
L 2906 525 
Q 2725 213 2448 61 
Q 2172 -91 1784 -91 
Q 1150 -91 751 415 
Q 353 922 353 1747 
Q 353 2572 751 3078 
Q 1150 3584 1784 3584 
Q 2172 3584 2448 3432 
Q 2725 3281 2906 2969 
z
M 947 1747 
Q 947 1113 1208 752 
Q 1469 391 1925 391 
Q 2381 391 2643 752 
Q 2906 1113 2906 1747 
Q 2906 2381 2643 2742 
Q 2381 3103 1925 3103 
Q 1469 3103 1208 2742 
Q 947 2381 947 1747 
z
" transform="scale(0.015625)"/>
      </defs>
      <use xlink:href="#DejaVuSans-41"/>
      <use xlink:href="#DejaVuSans-63" x="66.658203"/>
      <use xlink:href="#DejaVuSans-63" x="121.638672"/>
      <use xlink:href="#DejaVuSans-75" x="176.619141"/>
      <use xlink:href="#DejaVuSans-72" x="239.998047"/>
      <use xlink:href="#DejaVuSans-61" x="281.111328"/>
      <use xlink:href="#DejaVuSans-63" x="342.390625"/>
      <use xlink:href="#DejaVuSans-79" x="397.371094"/>
      <use xlink:href="#DejaVuSans-20" x="456.550781"/>
      <use xlink:href="#DejaVuSans-2d" x="488.337891"/>
      <use xlink:href="#DejaVuSans-20" x="524.421875"/>
      <use xlink:href="#DejaVuSans-53" x="556.208984"/>
      <use xlink:href="#DejaVuSans-53" x="619.685547"/>
      <use xlink:href="#DejaVuSans-4c" x="683.162109"/>
      <use xlink:href="#DejaVuSans-20" x="738.875"/>
      <use xlink:href="#DejaVuSans-50" x="770.662109"/>
      <use xlink:href="#DejaVuSans-72" x="829.214844"/>
      <use xlink:href="#DejaVuSans-65" x="868.078125"/>
      <use xlink:href="#DejaVuSans-2d" x="929.601562"/>
      <use xlink:href="#DejaVuSans-74" x="965.685547"/>
      <use xlink:href="#DejaVuSans-72" x="1004.894531"/>
      <use xlink:href="#DejaVuSans-61" x="1046.007812"/>
      <use xlink:href="#DejaVuSans-69" x="1107.287109"/>
      <use xlink:href="#DejaVuSans-6e" x="1135.070312"/>
      <use xlink:href="#DejaVuSans-65" x="1198.449219"/>
      <use xlink:href="#DejaVuSans-64" x="1259.972656"/>
     </g>
    </g>
    <g id="line2d_33">
     <path d="M 308.427187 223.982187 
L 318.427187 223.982187 
L 328.427187 223.982187 
" style="fill: none; stroke-dasharray: 7.4,3.2; stroke-dashoffset: 0; stroke: #f26b70; stroke-width: 2"/>
    </g>
    <g id="text_19">
     <!-- Loss - Baseline -->
     <g transform="translate(336.427187 227.482187) scale(0.1 -0.1)">
      <use xlink:href="#DejaVuSans-4c"/>
      <use xlink:href="#DejaVuSans-6f" x="53.962891"/>
      <use xlink:href="#DejaVuSans-73" x="115.144531"/>
      <use xlink:href="#DejaVuSans-73" x="167.244141"/>
      <use xlink:href="#DejaVuSans-20" x="219.34375"/>
      <use xlink:href="#DejaVuSans-2d" x="251.130859"/>
      <use xlink:href="#DejaVuSans-20" x="287.214844"/>
      <use xlink:href="#DejaVuSans-42" x="319.001953"/>
      <use xlink:href="#DejaVuSans-61" x="387.605469"/>
      <use xlink:href="#DejaVuSans-73" x="448.884766"/>
      <use xlink:href="#DejaVuSans-65" x="500.984375"/>
      <use xlink:href="#DejaVuSans-6c" x="562.507812"/>
      <use xlink:href="#DejaVuSans-69" x="590.291016"/>
      <use xlink:href="#DejaVuSans-6e" x="618.074219"/>
      <use xlink:href="#DejaVuSans-65" x="681.453125"/>
     </g>
    </g>
    <g id="line2d_34">
     <path d="M 308.427187 238.660312 
L 318.427187 238.660312 
L 328.427187 238.660312 
" style="fill: none; stroke-dasharray: 7.4,3.2; stroke-dashoffset: 0; stroke: #7dc27d; stroke-width: 2"/>
    </g>
    <g id="text_20">
     <!-- Loss - SSL Pre-trained -->
     <g transform="translate(336.427187 242.160312) scale(0.1 -0.1)">
      <use xlink:href="#DejaVuSans-4c"/>
      <use xlink:href="#DejaVuSans-6f" x="53.962891"/>
      <use xlink:href="#DejaVuSans-73" x="115.144531"/>
      <use xlink:href="#DejaVuSans-73" x="167.244141"/>
      <use xlink:href="#DejaVuSans-20" x="219.34375"/>
      <use xlink:href="#DejaVuSans-2d" x="251.130859"/>
      <use xlink:href="#DejaVuSans-20" x="287.214844"/>
      <use xlink:href="#DejaVuSans-53" x="319.001953"/>
      <use xlink:href="#DejaVuSans-53" x="382.478516"/>
      <use xlink:href="#DejaVuSans-4c" x="445.955078"/>
      <use xlink:href="#DejaVuSans-20" x="501.667969"/>
      <use xlink:href="#DejaVuSans-50" x="533.455078"/>
      <use xlink:href="#DejaVuSans-72" x="592.007812"/>
      <use xlink:href="#DejaVuSans-65" x="630.871094"/>
      <use xlink:href="#DejaVuSans-2d" x="692.394531"/>
      <use xlink:href="#DejaVuSans-74" x="728.478516"/>
      <use xlink:href="#DejaVuSans-72" x="767.6875"/>
      <use xlink:href="#DejaVuSans-61" x="808.800781"/>
      <use xlink:href="#DejaVuSans-69" x="870.080078"/>
      <use xlink:href="#DejaVuSans-6e" x="897.863281"/>
      <use xlink:href="#DejaVuSans-65" x="961.242188"/>
      <use xlink:href="#DejaVuSans-64" x="1022.765625"/>
     </g>
    </g>
   </g>
  </g>
  <g id="axes_2">
   <g id="PolyCollection_3">
    <defs>
     <path id="m4cdb6fcc6c" d="M 57.816346 -175.178441 
L 57.816346 -171.086538 
L 62.484712 -164.418747 
L 67.153077 -159.821583 
L 71.821442 -154.571965 
L 76.489808 -149.165874 
L 81.158173 -145.083126 
L 85.826538 -142.029364 
L 90.494904 -135.0182 
L 95.163269 -134.457303 
L 99.831635 -127.804046 
L 104.5 -123.917 
L 109.168365 -122.555349 
L 113.836731 -118.029302 
L 118.505096 -117.094866 
L 123.173462 -115.205047 
L 127.841827 -111.403279 
L 132.510192 -110.215547 
L 137.178558 -109.652522 
L 141.846923 -106.668931 
L 146.515288 -106.706663 
L 151.183654 -105.004633 
L 155.852019 -103.44719 
L 160.520385 -102.080695 
L 165.18875 -99.98966 
L 169.857115 -101.525526 
L 174.525481 -99.307477 
L 179.193846 -100.15527 
L 183.862212 -98.767458 
L 188.530577 -101.12363 
L 193.198942 -96.788493 
L 197.867308 -99.398281 
L 202.535673 -99.739525 
L 207.204038 -100.340171 
L 211.872404 -101.020087 
L 216.540769 -103.537575 
L 221.209135 -105.251054 
L 225.8775 -105.171224 
L 230.545865 -108.148285 
L 235.214231 -112.789839 
L 239.882596 -112.290002 
L 244.550962 -115.6523 
L 249.219327 -118.867869 
L 253.887692 -121.556295 
L 258.556058 -126.749178 
L 263.224423 -128.730716 
L 267.892788 -131.79244 
L 272.561154 -135.973879 
L 277.229519 -139.750331 
L 281.897885 -144.880296 
L 286.56625 -147.589234 
L 291.234615 -153.815416 
L 295.902981 -156.184263 
L 300.571346 -161.732244 
L 305.239712 -165.540095 
L 309.908077 -169.50956 
L 314.576442 -173.898153 
L 319.244808 -180.386515 
L 323.913173 -184.640778 
L 328.581538 -186.024186 
L 333.249904 -189.052699 
L 337.918269 -194.701625 
L 342.586635 -193.339688 
L 347.255 -200.482158 
L 351.923365 -203.912561 
L 356.591731 -206.001326 
L 361.260096 -208.29151 
L 365.928462 -212.552552 
L 370.596827 -216.332268 
L 375.265192 -215.593401 
L 379.933558 -217.736517 
L 384.601923 -221.828592 
L 389.270288 -224.766773 
L 393.938654 -227.600045 
L 398.607019 -228.610255 
L 403.275385 -229.372392 
L 407.94375 -233.508955 
L 412.612115 -235.140879 
L 417.280481 -239.547886 
L 421.948846 -238.784329 
L 426.617212 -243.179341 
L 431.285577 -238.806957 
L 435.953942 -240.936298 
L 440.622308 -246.734285 
L 445.290673 -246.135657 
L 449.959038 -246.287563 
L 454.627404 -245.570063 
L 459.295769 -249.712565 
L 463.964135 -249.05605 
L 468.6325 -248.014933 
L 473.300865 -250.876435 
L 477.969231 -254.299332 
L 482.637596 -255.977505 
L 487.305962 -253.101536 
L 491.974327 -259.998861 
L 496.642692 -255.143785 
L 501.311058 -260.657547 
L 505.979423 -255.845988 
L 510.647788 -259.586998 
L 515.316154 -258.943189 
L 519.984519 -258.454264 
L 519.984519 -268.042546 
L 519.984519 -268.042546 
L 515.316154 -268.214415 
L 510.647788 -269.097059 
L 505.979423 -265.575369 
L 501.311058 -266.494032 
L 496.642692 -261.770521 
L 491.974327 -267.516254 
L 487.305962 -261.400574 
L 482.637596 -259.964692 
L 477.969231 -264.378428 
L 473.300865 -257.714689 
L 468.6325 -262.705191 
L 463.964135 -255.65668 
L 459.295769 -256.492473 
L 454.627404 -257.927531 
L 449.959038 -253.036389 
L 445.290673 -252.885013 
L 440.622308 -253.240418 
L 435.953942 -252.147276 
L 431.285577 -248.721134 
L 426.617212 -247.91382 
L 421.948846 -249.464811 
L 417.280481 -252.756394 
L 412.612115 -243.8913 
L 407.94375 -241.922002 
L 403.275385 -238.878215 
L 398.607019 -235.689653 
L 393.938654 -236.033044 
L 389.270288 -229.133174 
L 384.601923 -228.741279 
L 379.933558 -225.397924 
L 375.265192 -224.00409 
L 370.596827 -222.720923 
L 365.928462 -218.968802 
L 361.260096 -216.131841 
L 356.591731 -212.219808 
L 351.923365 -207.897474 
L 347.255 -208.001818 
L 342.586635 -204.929108 
L 337.918269 -201.2554 
L 333.249904 -198.131242 
L 328.581538 -195.385347 
L 323.913173 -190.297402 
L 319.244808 -187.433577 
L 314.576442 -181.503446 
L 309.908077 -176.739351 
L 305.239712 -171.67262 
L 300.571346 -170.852911 
L 295.902981 -163.185029 
L 291.234615 -162.509006 
L 286.56625 -158.419584 
L 281.897885 -151.899511 
L 277.229519 -149.224485 
L 272.561154 -144.264006 
L 267.892788 -140.453665 
L 263.224423 -135.987569 
L 258.556058 -133.289326 
L 253.887692 -129.462081 
L 249.219327 -123.287042 
L 244.550962 -121.139943 
L 239.882596 -116.813741 
L 235.214231 -116.141175 
L 230.545865 -113.670666 
L 225.8775 -110.385255 
L 221.209135 -107.049664 
L 216.540769 -107.39737 
L 211.872404 -106.643028 
L 207.204038 -106.565743 
L 202.535673 -102.438405 
L 197.867308 -103.972691 
L 193.198942 -102.491186 
L 188.530577 -103.599056 
L 183.862212 -103.414489 
L 179.193846 -104.318363 
L 174.525481 -102.761994 
L 169.857115 -105.053005 
L 165.18875 -106.183156 
L 160.520385 -106.243213 
L 155.852019 -107.776977 
L 151.183654 -106.593114 
L 146.515288 -109.185235 
L 141.846923 -110.00427 
L 137.178558 -116.376224 
L 132.510192 -114.196365 
L 127.841827 -120.000186 
L 123.173462 -118.964108 
L 118.505096 -121.723942 
L 113.836731 -125.652061 
L 109.168365 -124.922059 
L 104.5 -130.310943 
L 99.831635 -131.276407 
L 95.163269 -137.521672 
L 90.494904 -139.296649 
L 85.826538 -144.802393 
L 81.158173 -148.579505 
L 76.489808 -153.189501 
L 71.821442 -158.82207 
L 67.153077 -162.164772 
L 62.484712 -167.702447 
L 57.816346 -175.178441 
z
"/>
    </defs>
    <g clip-path="url(#p01987a4e2a)">
     <use xlink:href="#m4cdb6fcc6c" x="0" y="293.699687" style="fill: #f26b70; fill-opacity: 0.25"/>
    </g>
   </g>
   <g id="PolyCollection_4">
    <defs>
     <path id="m8c8e7895c4" d="M 57.816346 -159.982748 
L 57.816346 -154.89054 
L 62.484712 -140.990395 
L 67.153077 -129.864953 
L 71.821442 -125.544488 
L 76.489808 -120.339227 
L 81.158173 -115.161493 
L 85.826538 -111.580855 
L 90.494904 -108.239487 
L 95.163269 -104.712002 
L 99.831635 -102.61431 
L 104.5 -102.220045 
L 109.168365 -100.077628 
L 113.836731 -98.205824 
L 118.505096 -96.450112 
L 123.173462 -95.912141 
L 127.841827 -96.885813 
L 132.510192 -94.96791 
L 137.178558 -97.557009 
L 141.846923 -94.995904 
L 146.515288 -91.350986 
L 151.183654 -91.478361 
L 155.852019 -91.719621 
L 160.520385 -92.294028 
L 165.18875 -93.479268 
L 169.857115 -91.099288 
L 174.525481 -91.274998 
L 179.193846 -92.32764 
L 183.862212 -94.290623 
L 188.530577 -94.368448 
L 193.198942 -93.979767 
L 197.867308 -94.6699 
L 202.535673 -94.922934 
L 207.204038 -97.20056 
L 211.872404 -97.458392 
L 216.540769 -97.100402 
L 221.209135 -98.280164 
L 225.8775 -99.64509 
L 230.545865 -102.87908 
L 235.214231 -101.636575 
L 239.882596 -103.831355 
L 244.550962 -104.438233 
L 249.219327 -105.965024 
L 253.887692 -108.052679 
L 258.556058 -111.768398 
L 263.224423 -110.689188 
L 267.892788 -112.474775 
L 272.561154 -115.060832 
L 277.229519 -113.488471 
L 281.897885 -117.20942 
L 286.56625 -117.513967 
L 291.234615 -119.134242 
L 295.902981 -119.872071 
L 300.571346 -124.288597 
L 305.239712 -124.556195 
L 309.908077 -121.616066 
L 314.576442 -127.048642 
L 319.244808 -127.546274 
L 323.913173 -131.345636 
L 328.581538 -133.277559 
L 333.249904 -134.59833 
L 337.918269 -135.186411 
L 342.586635 -136.671085 
L 347.255 -139.139719 
L 351.923365 -137.301873 
L 356.591731 -142.418951 
L 361.260096 -141.046175 
L 365.928462 -144.356956 
L 370.596827 -146.586533 
L 375.265192 -144.438596 
L 379.933558 -151.327024 
L 384.601923 -152.32329 
L 389.270288 -154.411869 
L 393.938654 -154.502262 
L 398.607019 -157.744104 
L 403.275385 -157.689889 
L 407.94375 -156.41124 
L 412.612115 -159.076808 
L 417.280481 -161.142865 
L 421.948846 -165.607815 
L 426.617212 -164.336326 
L 431.285577 -162.774007 
L 435.953942 -167.00188 
L 440.622308 -168.785542 
L 445.290673 -168.169709 
L 449.959038 -170.701026 
L 454.627404 -171.33559 
L 459.295769 -172.550569 
L 463.964135 -169.137295 
L 468.6325 -173.969569 
L 473.300865 -174.771873 
L 477.969231 -173.660227 
L 482.637596 -179.44845 
L 487.305962 -176.926419 
L 491.974327 -179.343869 
L 496.642692 -183.288546 
L 501.311058 -179.416125 
L 505.979423 -183.716298 
L 510.647788 -187.000943 
L 515.316154 -186.202055 
L 519.984519 -188.495678 
L 519.984519 -195.489743 
L 519.984519 -195.489743 
L 515.316154 -192.651675 
L 510.647788 -192.796778 
L 505.979423 -185.880805 
L 501.311058 -193.208776 
L 496.642692 -186.250813 
L 491.974327 -189.146054 
L 487.305962 -181.842413 
L 482.637596 -184.366713 
L 477.969231 -180.441377 
L 473.300865 -183.735856 
L 468.6325 -177.375383 
L 463.964135 -179.400792 
L 459.295769 -175.62348 
L 454.627404 -175.289411 
L 449.959038 -179.546788 
L 445.290673 -173.067518 
L 440.622308 -173.91035 
L 435.953942 -172.043582 
L 431.285577 -169.470206 
L 426.617212 -170.297991 
L 421.948846 -169.865046 
L 417.280481 -167.056753 
L 412.612115 -163.963501 
L 407.94375 -160.269688 
L 403.275385 -162.402962 
L 398.607019 -160.475829 
L 393.938654 -160.825447 
L 389.270288 -157.609364 
L 384.601923 -155.949598 
L 379.933558 -155.361668 
L 375.265192 -153.789332 
L 370.596827 -153.376229 
L 365.928462 -149.452295 
L 361.260096 -144.478056 
L 356.591731 -145.681167 
L 351.923365 -145.618853 
L 347.255 -145.525882 
L 342.586635 -141.582412 
L 337.918269 -140.488688 
L 333.249904 -138.571178 
L 328.581538 -139.068468 
L 323.913173 -135.424321 
L 319.244808 -133.665188 
L 314.576442 -131.692377 
L 309.908077 -136.700659 
L 305.239712 -125.425298 
L 300.571346 -129.250433 
L 295.902981 -126.247599 
L 291.234615 -124.163499 
L 286.56625 -123.313331 
L 281.897885 -120.19742 
L 277.229519 -118.539633 
L 272.561154 -116.870866 
L 267.892788 -117.098956 
L 263.224423 -114.391551 
L 258.556058 -113.487079 
L 253.887692 -111.074896 
L 249.219327 -110.344639 
L 244.550962 -107.788171 
L 239.882596 -106.137506 
L 235.214231 -105.530443 
L 230.545865 -105.796314 
L 225.8775 -104.161725 
L 221.209135 -102.33516 
L 216.540769 -101.132854 
L 211.872404 -100.312911 
L 207.204038 -98.817331 
L 202.535673 -97.576083 
L 197.867308 -96.658167 
L 193.198942 -96.522812 
L 188.530577 -96.43942 
L 183.862212 -97.407007 
L 179.193846 -94.668115 
L 174.525481 -96.540221 
L 169.857115 -93.701188 
L 165.18875 -96.039151 
L 160.520385 -93.727609 
L 155.852019 -96.798569 
L 151.183654 -94.547294 
L 146.515288 -94.945815 
L 141.846923 -95.866194 
L 137.178558 -100.620008 
L 132.510192 -97.450767 
L 127.841827 -100.078077 
L 123.173462 -101.312853 
L 118.505096 -101.351318 
L 113.836731 -101.85114 
L 109.168365 -104.809754 
L 104.5 -108.443754 
L 99.831635 -108.591781 
L 95.163269 -112.360888 
L 90.494904 -112.934739 
L 85.826538 -114.517184 
L 81.158173 -118.855017 
L 76.489808 -124.096323 
L 71.821442 -130.038181 
L 67.153077 -133.852099 
L 62.484712 -148.224435 
L 57.816346 -159.982748 
z
"/>
    </defs>
    <g clip-path="url(#p01987a4e2a)">
     <use xlink:href="#m8c8e7895c4" x="0" y="293.699687" style="fill: #7dc27d; fill-opacity: 0.25"/>
    </g>
   </g>
   <g id="matplotlib.axis_3">
    <g id="ytick_9">
     <g id="line2d_35">
      <defs>
       <path id="mdf914e23e8" d="M 0 0 
L 3.5 0 
" style="stroke: #000000; stroke-width: 0.8"/>
      </defs>
      <g>
       <use xlink:href="#mdf914e23e8" x="529.32125" y="228.133878" style="stroke: #000000; stroke-width: 0.8"/>
      </g>
     </g>
     <g id="text_21">
      <!-- 2 -->
      <g transform="translate(536.32125 232.313018) scale(0.11 -0.11)">
       <use xlink:href="#DejaVuSans-32"/>
      </g>
     </g>
    </g>
    <g id="ytick_10">
     <g id="line2d_36">
      <g>
       <use xlink:href="#mdf914e23e8" x="529.32125" y="177.921633" style="stroke: #000000; stroke-width: 0.8"/>
      </g>
     </g>
     <g id="text_22">
      <!-- 3 -->
      <g transform="translate(536.32125 182.100773) scale(0.11 -0.11)">
       <use xlink:href="#DejaVuSans-33"/>
      </g>
     </g>
    </g>
    <g id="ytick_11">
     <g id="line2d_37">
      <g>
       <use xlink:href="#mdf914e23e8" x="529.32125" y="127.709388" style="stroke: #000000; stroke-width: 0.8"/>
      </g>
     </g>
     <g id="text_23">
      <!-- 4 -->
      <g transform="translate(536.32125 131.888528) scale(0.11 -0.11)">
       <use xlink:href="#DejaVuSans-34"/>
      </g>
     </g>
    </g>
    <g id="ytick_12">
     <g id="line2d_38">
      <g>
       <use xlink:href="#mdf914e23e8" x="529.32125" y="77.497143" style="stroke: #000000; stroke-width: 0.8"/>
      </g>
     </g>
     <g id="text_24">
      <!-- 5 -->
      <g transform="translate(536.32125 81.676283) scale(0.11 -0.11)">
       <use xlink:href="#DejaVuSans-35"/>
      </g>
     </g>
    </g>
    <g id="ytick_13">
     <g id="line2d_39">
      <g>
       <use xlink:href="#mdf914e23e8" x="529.32125" y="27.284898" style="stroke: #000000; stroke-width: 0.8"/>
      </g>
     </g>
     <g id="text_25">
      <!-- 6 -->
      <g transform="translate(536.32125 31.464039) scale(0.11 -0.11)">
       <use xlink:href="#DejaVuSans-36"/>
      </g>
     </g>
    </g>
    <g id="text_26">
     <!-- Test Loss -->
     <g transform="translate(556.438125 157.101875) rotate(-90) scale(0.12 -0.12)">
      <use xlink:href="#DejaVuSans-54"/>
      <use xlink:href="#DejaVuSans-65" x="44.083984"/>
      <use xlink:href="#DejaVuSans-73" x="105.607422"/>
      <use xlink:href="#DejaVuSans-74" x="157.707031"/>
      <use xlink:href="#DejaVuSans-20" x="196.916016"/>
      <use xlink:href="#DejaVuSans-4c" x="228.703125"/>
      <use xlink:href="#DejaVuSans-6f" x="282.666016"/>
      <use xlink:href="#DejaVuSans-73" x="343.847656"/>
      <use xlink:href="#DejaVuSans-73" x="395.947266"/>
     </g>
    </g>
   </g>
   <g id="line2d_40">
    <path d="M 57.816346 120.567198 
L 62.484712 127.639091 
L 67.153077 132.70651 
L 71.821442 137.00267 
L 76.489808 142.522 
L 81.158173 146.868372 
L 85.826538 150.283809 
L 90.494904 156.542263 
L 95.163269 157.7102 
L 99.831635 164.159461 
L 104.5 166.585716 
L 109.168365 169.960983 
L 113.836731 171.859006 
L 118.505096 174.290283 
L 123.173462 176.61511 
L 127.841827 177.997955 
L 132.510192 181.493732 
L 137.178558 180.685315 
L 141.846923 185.363087 
L 146.515288 185.753739 
L 151.183654 187.900814 
L 155.852019 188.087604 
L 160.520385 189.537733 
L 165.18875 190.61328 
L 169.857115 190.410422 
L 174.525481 192.664952 
L 179.193846 191.462871 
L 183.862212 192.608714 
L 188.530577 191.338344 
L 193.198942 194.059848 
L 197.867308 192.014201 
L 202.535673 192.610723 
L 207.204038 190.24673 
L 211.872404 189.86813 
L 216.540769 188.232215 
L 221.209135 187.549328 
L 225.8775 185.921448 
L 230.545865 182.790212 
L 235.214231 179.234181 
L 239.882596 179.147816 
L 244.550962 175.303566 
L 249.219327 172.622232 
L 253.887692 168.1905 
L 258.556058 163.680436 
L 263.224423 161.340545 
L 267.892788 157.576635 
L 272.561154 153.580745 
L 277.229519 149.21228 
L 281.897885 145.309784 
L 286.56625 140.695279 
L 291.234615 135.537477 
L 295.902981 134.015041 
L 300.571346 127.40711 
L 305.239712 125.09333 
L 309.908077 120.575232 
L 314.576442 115.998888 
L 319.244808 109.789642 
L 323.913173 106.230598 
L 328.581538 102.994921 
L 333.249904 100.107717 
L 337.918269 95.721175 
L 342.586635 94.565289 
L 347.255 89.4577 
L 351.923365 87.79467 
L 356.591731 84.58912 
L 361.260096 81.488012 
L 365.928462 77.939011 
L 370.596827 74.173092 
L 375.265192 73.900942 
L 379.933558 72.132467 
L 384.601923 68.414752 
L 389.270288 66.749714 
L 393.938654 61.883143 
L 398.607019 61.549734 
L 403.275385 59.574384 
L 407.94375 55.984209 
L 412.612115 54.183598 
L 417.280481 47.547547 
L 421.948846 49.575118 
L 426.617212 48.153107 
L 431.285577 49.935642 
L 435.953942 47.1579 
L 440.622308 43.712336 
L 445.290673 44.189352 
L 449.959038 44.037711 
L 454.627404 41.95089 
L 459.295769 40.597168 
L 463.964135 41.343322 
L 468.6325 38.339626 
L 473.300865 39.404125 
L 477.969231 34.360808 
L 482.637596 35.728589 
L 487.305962 36.448633 
L 491.974327 29.94213 
L 496.642692 35.242535 
L 501.311058 30.123898 
L 505.979423 32.989009 
L 510.647788 29.357659 
L 515.316154 30.120886 
L 519.984519 30.451282 
" clip-path="url(#p01987a4e2a)" style="fill: none; stroke-dasharray: 7.4,3.2; stroke-dashoffset: 0; stroke: #f26b70; stroke-width: 2"/>
   </g>
   <g id="line2d_41">
    <path d="M 57.816346 136.263044 
L 62.484712 149.092272 
L 67.153077 161.841161 
L 71.821442 165.908353 
L 76.489808 171.481912 
L 81.158173 176.691433 
L 85.826538 180.650668 
L 90.494904 183.112575 
L 95.163269 185.163243 
L 99.831635 188.096642 
L 104.5 188.367788 
L 109.168365 191.255996 
L 113.836731 193.671205 
L 118.505096 194.798972 
L 123.173462 195.087191 
L 127.841827 195.217743 
L 132.510192 197.490349 
L 137.178558 194.611179 
L 141.846923 198.268639 
L 146.515288 200.551287 
L 151.183654 200.68686 
L 155.852019 199.440592 
L 160.520385 200.688869 
L 165.18875 198.940478 
L 169.857115 201.29945 
L 174.525481 199.792078 
L 179.193846 200.20181 
L 183.862212 197.850873 
L 188.530577 198.295753 
L 193.198942 198.448398 
L 197.867308 198.035654 
L 202.535673 197.450179 
L 207.204038 195.690742 
L 211.872404 194.814036 
L 216.540769 194.58306 
L 221.209135 193.392025 
L 225.8775 191.79628 
L 230.545865 189.361991 
L 235.214231 190.116178 
L 239.882596 188.715257 
L 244.550962 187.586486 
L 249.219327 185.544856 
L 253.887692 184.1359 
L 258.556058 181.071949 
L 263.224423 181.159318 
L 267.892788 178.912822 
L 272.561154 177.733839 
L 277.229519 177.685635 
L 281.897885 174.996267 
L 286.56625 173.286038 
L 291.234615 172.050817 
L 295.902981 170.639853 
L 300.571346 166.930172 
L 305.239712 168.708941 
L 309.908077 164.541325 
L 314.576442 164.329178 
L 319.244808 163.093957 
L 323.913173 160.314709 
L 328.581538 157.526674 
L 333.249904 157.114934 
L 337.918269 155.862138 
L 342.586635 154.572939 
L 347.255 151.366887 
L 351.923365 152.239325 
L 356.591731 149.649628 
L 361.260096 150.937572 
L 365.928462 146.795062 
L 370.596827 143.718307 
L 375.265192 144.585723 
L 379.933558 140.355342 
L 384.601923 139.563243 
L 389.270288 137.689071 
L 393.938654 136.035833 
L 398.607019 134.589721 
L 403.275385 133.653262 
L 407.94375 135.359223 
L 412.612115 132.179533 
L 417.280481 129.599879 
L 421.948846 125.963257 
L 426.617212 126.382529 
L 431.285577 127.577581 
L 435.953942 124.176956 
L 440.622308 122.351741 
L 445.290673 123.081074 
L 449.959038 118.57578 
L 454.627404 120.387187 
L 459.295769 119.612663 
L 463.964135 119.430644 
L 468.6325 118.027212 
L 473.300865 114.445823 
L 477.969231 116.648886 
L 482.637596 111.792106 
L 487.305962 114.315271 
L 491.974327 109.454726 
L 496.642692 108.930008 
L 501.311058 107.387237 
L 505.979423 108.901136 
L 510.647788 103.800827 
L 515.316154 104.272822 
L 519.984519 101.706977 
" clip-path="url(#p01987a4e2a)" style="fill: none; stroke-dasharray: 7.4,3.2; stroke-dashoffset: 0; stroke: #7dc27d; stroke-width: 2"/>
   </g>
   <g id="patch_8">
    <path d="M 43.81125 253.24 
L 43.81125 7.2 
" style="fill: none; stroke: #000000; stroke-width: 0.8; stroke-linejoin: miter; stroke-linecap: square"/>
   </g>
   <g id="patch_9">
    <path d="M 529.32125 253.24 
L 529.32125 7.2 
" style="fill: none; stroke: #000000; stroke-width: 0.8; stroke-linejoin: miter; stroke-linecap: square"/>
   </g>
   <g id="patch_10">
    <path d="M 43.81125 253.24 
L 529.32125 253.24 
" style="fill: none; stroke: #000000; stroke-width: 0.8; stroke-linejoin: miter; stroke-linecap: square"/>
   </g>
   <g id="patch_11">
    <path d="M 43.81125 7.2 
L 529.32125 7.2 
" style="fill: none; stroke: #000000; stroke-width: 0.8; stroke-linejoin: miter; stroke-linecap: square"/>
   </g>
  </g>
 </g>
 <defs>
  <clipPath id="p01987a4e2a">
   <rect x="43.81125" y="7.2" width="485.51" height="246.04"/>
  </clipPath>
 </defs>
</svg>
