<?xml version="1.0" encoding="utf-8" standalone="no"?>
<!DOCTYPE svg PUBLIC "-//W3C//DTD SVG 1.1//EN"
  "http://www.w3.org/Graphics/SVG/1.1/DTD/svg11.dtd">
<svg xmlns:xlink="http://www.w3.org/1999/xlink" width="495.487188pt" height="243.299688pt" viewBox="0 0 495.487188 243.299688" xmlns="http://www.w3.org/2000/svg" version="1.1">
 <metadata>
  <rdf:RDF xmlns:dc="http://purl.org/dc/elements/1.1/" xmlns:cc="http://creativecommons.org/ns#" xmlns:rdf="http://www.w3.org/1999/02/22-rdf-syntax-ns#">
   <cc:Work>
    <dc:type rdf:resource="http://purl.org/dc/dcmitype/StillImage"/>
    <dc:date>2025-12-22T20:32:28.794476</dc:date>
    <dc:format>image/svg+xml</dc:format>
    <dc:creator>
     <cc:Agent>
      <dc:title>Matplotlib v3.9.0, https://matplotlib.org/</dc:title>
     </cc:Agent>
    </dc:creator>
   </cc:Work>
  </rdf:RDF>
 </metadata>
 <defs>
  <style type="text/css">*{stroke-linejoin: round; stroke-linecap: butt}</style>
 </defs>
 <g id="figure_1">
  <g id="patch_1">
   <path d="M 0 243.299688 
L 495.487188 243.299688 
L 495.487188 0 
L 0 0 
z
" style="fill: #ffffff"/>
  </g>
  <g id="axes_1">
   <g id="patch_2">
    <path d="M 47.307187 202.84 
L 488.287187 202.84 
L 488.287187 7.2 
L 47.307187 7.2 
z
" style="fill: #ffffff"/>
   </g>
   <g id="PolyCollection_1">
    <defs>
     <path id="mda8feff92f" d="M 67.351733 -227.20696 
L 67.351733 -195.525887 
L 71.401136 -154.1749 
L 75.450539 -136.233228 
L 79.499942 -131.187376 
L 83.549345 -99.56879 
L 87.598749 -94.319855 
L 91.648152 -85.774714 
L 95.697555 -80.338316 
L 99.746958 -74.089584 
L 103.796361 -68.25483 
L 107.845764 -68.528212 
L 111.895167 -58.95203 
L 115.94457 -56.265075 
L 119.993974 -54.999707 
L 124.043377 -55.109059 
L 128.09278 -50.734947 
L 132.142183 -56.31194 
L 136.191586 -52.937625 
L 140.240989 -57.655418 
L 144.290392 -56.796217 
L 148.339795 -53.609364 
L 152.389199 -53.624986 
L 156.438602 -60.170533 
L 160.488005 -52.484592 
L 164.537408 -54.999707 
L 168.586811 -57.780393 
L 172.636214 -62.232614 
L 176.685617 -58.491186 
L 180.73502 -61.037544 
L 184.784423 -60.904759 
L 188.833827 -61.59993 
L 192.88323 -56.64781 
L 196.932633 -56.804028 
L 200.982036 -60.131478 
L 205.031439 -61.498388 
L 209.080842 -66.075585 
L 213.130245 -65.216384 
L 217.179648 -63.04495 
L 221.229052 -63.169924 
L 225.278455 -62.177938 
L 229.327858 -63.435495 
L 233.377261 -61.568687 
L 237.426664 -69.824824 
L 241.476067 -69.723282 
L 245.52547 -63.544848 
L 249.574873 -62.826244 
L 253.624277 -67.036327 
L 257.67368 -65.052355 
L 261.723083 -69.129653 
L 265.772486 -64.1541 
L 269.821889 -65.505388 
L 273.871292 -64.513402 
L 277.920695 -63.271466 
L 281.970098 -65.755337 
L 286.019502 -62.505996 
L 290.068905 -58.545862 
L 294.118308 -65.52101 
L 298.167711 -63.802608 
L 302.217114 -72.51959 
L 306.266517 -66.028719 
L 310.31592 -60.857893 
L 314.365323 -67.65339 
L 318.414727 -58.030342 
L 322.46413 -69.668606 
L 326.513533 -61.365603 
L 330.562936 -69.918555 
L 334.612339 -67.887717 
L 338.661742 -71.590091 
L 342.711145 -67.778364 
L 346.760548 -70.012286 
L 350.809952 -69.895122 
L 354.859355 -63.802608 
L 358.908758 -64.685242 
L 362.958161 -62.53724 
L 367.007564 -60.928192 
L 371.056967 -69.332737 
L 375.10637 -63.771365 
L 379.155773 -69.19214 
L 383.205176 -62.412265 
L 387.25458 -63.287088 
L 391.303983 -75.339331 
L 395.353386 -65.747526 
L 399.402789 -65.903745 
L 403.452192 -70.89492 
L 407.501595 -73.722471 
L 411.550998 -65.747526 
L 415.600401 -71.965015 
L 419.649805 -68.871893 
L 423.699208 -67.14568 
L 427.748611 -70.918352 
L 431.798014 -70.098206 
L 435.847417 -63.123059 
L 439.89682 -67.918961 
L 443.946223 -69.707661 
L 447.995626 -66.317723 
L 452.04503 -61.537443 
L 456.094433 -70.121639 
L 460.143836 -64.333751 
L 464.193239 -62.060774 
L 468.242642 -65.989665 
L 468.242642 -83.119002 
L 468.242642 -83.119002 
L 464.193239 -73.71466 
L 460.143836 -74.901919 
L 456.094433 -73.480333 
L 452.04503 -64.364994 
L 447.995626 -68.700052 
L 443.946223 -74.472319 
L 439.89682 -69.215573 
L 435.847417 -73.54282 
L 431.798014 -70.480941 
L 427.748611 -72.722674 
L 423.699208 -69.996664 
L 419.649805 -74.159882 
L 415.600401 -72.371183 
L 411.550998 -73.417845 
L 407.501595 -78.018475 
L 403.452192 -75.456494 
L 399.402789 -70.941785 
L 395.353386 -71.160491 
L 391.303983 -75.456494 
L 387.25458 -75.261221 
L 383.205176 -68.903136 
L 379.155773 -72.011881 
L 375.10637 -67.762743 
L 371.056967 -74.05834 
L 367.007564 -75.745498 
L 362.958161 -71.597902 
L 358.908758 -67.606524 
L 354.859355 -67.028517 
L 350.809952 -75.565847 
L 346.760548 -73.777147 
L 342.711145 -73.535009 
L 338.661742 -79.463494 
L 334.612339 -72.050935 
L 330.562936 -77.627929 
L 326.513533 -66.598916 
L 322.46413 -73.183518 
L 318.414727 -67.926772 
L 314.365323 -68.442292 
L 310.31592 -68.434481 
L 306.266517 -78.518373 
L 302.217114 -74.113017 
L 298.167711 -71.15268 
L 294.118308 -72.457103 
L 290.068905 -70.027908 
L 286.019502 -71.402629 
L 281.970098 -68.129856 
L 277.920695 -67.465928 
L 273.871292 -78.463697 
L 269.821889 -66.091207 
L 265.772486 -72.792972 
L 261.723083 -74.097395 
L 257.67368 -67.778364 
L 253.624277 -75.190923 
L 249.574873 -69.371791 
L 245.52547 -67.786175 
L 241.476067 -69.754526 
L 237.426664 -71.660389 
L 233.377261 -68.637565 
L 229.327858 -68.059557 
L 225.278455 -71.660389 
L 221.229052 -74.73789 
L 217.179648 -77.268627 
L 213.130245 -70.04353 
L 209.080842 -66.192749 
L 205.031439 -69.645173 
L 200.982036 -67.606524 
L 196.932633 -61.865501 
L 192.88323 -62.70908 
L 188.833827 -63.21679 
L 184.784423 -66.059963 
L 180.73502 -66.29429 
L 176.685617 -63.435495 
L 172.636214 -66.223992 
L 168.586811 -71.519793 
L 164.537408 -64.974246 
L 160.488005 -60.959435 
L 156.438602 -64.833649 
L 152.389199 -68.536023 
L 148.339795 -73.316303 
L 144.290392 -71.316709 
L 140.240989 -64.185343 
L 136.191586 -58.741135 
L 132.142183 -56.515024 
L 128.09278 -64.935191 
L 124.043377 -61.498388 
L 119.993974 -57.225818 
L 115.94457 -59.405063 
L 111.895167 -87.422817 
L 107.845764 -79.065137 
L 103.796361 -75.034705 
L 99.746958 -94.327666 
L 95.697555 -98.975161 
L 91.648152 -103.974147 
L 87.598749 -126.399285 
L 83.549345 -114.917239 
L 79.499942 -143.864492 
L 75.450539 -145.168915 
L 71.401136 -195.877378 
L 67.351733 -227.20696 
z
"/>
    </defs>
    <g clip-path="url(#pa39357f163)">
     <use xlink:href="#mda8feff92f" x="0" y="243.299688" style="fill: #e41a1c; fill-opacity: 0.25"/>
    </g>
   </g>
   <g id="PolyCollection_2">
    <defs>
     <path id="mcab147f03f" d="M 67.351733 -131.148322 
L 67.351733 -131.148322 
L 71.401136 -109.184027 
L 75.450539 -88.383559 
L 79.499942 -77.04211 
L 83.549345 -73.925555 
L 87.598749 -70.902731 
L 91.648152 -71.012083 
L 95.697555 -72.08999 
L 99.746958 -59.537849 
L 103.796361 -57.9288 
L 107.845764 -60.975057 
L 111.895167 -59.944016 
L 115.94457 -49.352415 
L 119.993974 -54.17175 
L 124.043377 -61.014112 
L 128.09278 -52.828272 
L 132.142183 -58.584917 
L 136.191586 -58.381833 
L 140.240989 -58.077207 
L 144.290392 -57.460145 
L 148.339795 -55.812042 
L 152.389199 -55.015328 
L 156.438602 -54.382644 
L 160.488005 -58.748946 
L 164.537408 -55.944827 
L 168.586811 -56.811839 
L 172.636214 -56.452537 
L 176.685617 -56.444726 
L 180.73502 -52.875138 
L 184.784423 -57.444523 
L 188.833827 -55.187169 
L 192.88323 -54.304535 
L 196.932633 -55.319954 
L 200.982036 -65.18514 
L 205.031439 -57.467956 
L 209.080842 -59.46755 
L 213.130245 -57.569498 
L 217.179648 -59.584714 
L 221.229052 -64.544645 
L 225.278455 -65.872501 
L 229.327858 -65.060166 
L 233.377261 -65.208573 
L 237.426664 -65.411657 
L 241.476067 -62.771568 
L 245.52547 -65.934988 
L 249.574873 -62.951219 
L 253.624277 -62.185749 
L 257.67368 -67.465928 
L 261.723083 -65.677228 
L 265.772486 -64.950813 
L 269.821889 -65.372602 
L 273.871292 -69.074976 
L 277.920695 -67.544037 
L 281.970098 -68.371994 
L 286.019502 -70.316912 
L 290.068905 -71.402629 
L 294.118308 -71.449495 
L 298.167711 -71.488549 
L 302.217114 -68.614132 
L 306.266517 -70.707458 
L 310.31592 -68.832838 
L 314.365323 -74.542617 
L 318.414727 -71.84004 
L 322.46413 -74.386399 
L 326.513533 -71.957204 
L 330.562936 -67.520604 
L 334.612339 -80.635131 
L 338.661742 -72.707052 
L 342.711145 -81.22095 
L 346.760548 -80.939757 
L 350.809952 -76.44067 
L 354.859355 -71.91815 
L 358.908758 -77.963798 
L 362.958161 -75.362763 
L 367.007564 -74.597294 
L 371.056967 -69.301493 
L 375.10637 -76.167288 
L 379.155773 -75.409629 
L 383.205176 -77.995042 
L 387.25458 -73.519387 
L 391.303983 -73.238194 
L 395.353386 -72.847649 
L 399.402789 -82.525373 
L 403.452192 -73.37098 
L 407.501595 -75.706444 
L 411.550998 -73.566253 
L 415.600401 -73.878689 
L 419.649805 -84.196909 
L 423.699208 -78.416831 
L 427.748611 -81.408412 
L 431.798014 -86.42302 
L 435.847417 -81.955176 
L 439.89682 -78.987028 
L 443.946223 -76.120422 
L 447.995626 -80.033691 
L 452.04503 -83.595468 
L 456.094433 -77.065543 
L 460.143836 -76.081368 
L 464.193239 -75.354952 
L 468.242642 -82.064529 
L 468.242642 -82.064529 
L 468.242642 -82.064529 
L 464.193239 -75.354952 
L 460.143836 -76.081368 
L 456.094433 -77.065543 
L 452.04503 -83.595468 
L 447.995626 -80.033691 
L 443.946223 -76.120422 
L 439.89682 -78.987028 
L 435.847417 -81.955176 
L 431.798014 -86.42302 
L 427.748611 -81.408412 
L 423.699208 -78.416831 
L 419.649805 -84.196909 
L 415.600401 -73.878689 
L 411.550998 -73.566253 
L 407.501595 -75.706444 
L 403.452192 -73.37098 
L 399.402789 -82.525373 
L 395.353386 -72.847649 
L 391.303983 -73.238194 
L 387.25458 -73.519387 
L 383.205176 -77.995042 
L 379.155773 -75.409629 
L 375.10637 -76.167288 
L 371.056967 -69.301493 
L 367.007564 -74.597294 
L 362.958161 -75.362763 
L 358.908758 -77.963798 
L 354.859355 -71.91815 
L 350.809952 -76.44067 
L 346.760548 -80.939757 
L 342.711145 -81.22095 
L 338.661742 -72.707052 
L 334.612339 -80.635131 
L 330.562936 -67.520604 
L 326.513533 -71.957204 
L 322.46413 -74.386399 
L 318.414727 -71.84004 
L 314.365323 -74.542617 
L 310.31592 -68.832838 
L 306.266517 -70.707458 
L 302.217114 -68.614132 
L 298.167711 -71.488549 
L 294.118308 -71.449495 
L 290.068905 -71.402629 
L 286.019502 -70.316912 
L 281.970098 -68.371994 
L 277.920695 -67.544037 
L 273.871292 -69.074976 
L 269.821889 -65.372602 
L 265.772486 -64.950813 
L 261.723083 -65.677228 
L 257.67368 -67.465928 
L 253.624277 -62.185749 
L 249.574873 -62.951219 
L 245.52547 -65.934988 
L 241.476067 -62.771568 
L 237.426664 -65.411657 
L 233.377261 -65.208573 
L 229.327858 -65.060166 
L 225.278455 -65.872501 
L 221.229052 -64.544645 
L 217.179648 -59.584714 
L 213.130245 -57.569498 
L 209.080842 -59.46755 
L 205.031439 -57.467956 
L 200.982036 -65.18514 
L 196.932633 -55.319954 
L 192.88323 -54.304535 
L 188.833827 -55.187169 
L 184.784423 -57.444523 
L 180.73502 -52.875138 
L 176.685617 -56.444726 
L 172.636214 -56.452537 
L 168.586811 -56.811839 
L 164.537408 -55.944827 
L 160.488005 -58.748946 
L 156.438602 -54.382644 
L 152.389199 -55.015328 
L 148.339795 -55.812042 
L 144.290392 -57.460145 
L 140.240989 -58.077207 
L 136.191586 -58.381833 
L 132.142183 -58.584917 
L 128.09278 -52.828272 
L 124.043377 -61.014112 
L 119.993974 -54.17175 
L 115.94457 -49.352415 
L 111.895167 -59.944016 
L 107.845764 -60.975057 
L 103.796361 -57.9288 
L 99.746958 -59.537849 
L 95.697555 -72.08999 
L 91.648152 -71.012083 
L 87.598749 -70.902731 
L 83.549345 -73.925555 
L 79.499942 -77.04211 
L 75.450539 -88.383559 
L 71.401136 -109.184027 
L 67.351733 -131.148322 
z
"/>
    </defs>
    <g clip-path="url(#pa39357f163)">
     <use xlink:href="#mcab147f03f" x="0" y="243.299688" style="fill: #228b22; fill-opacity: 0.25"/>
    </g>
   </g>
   <g id="matplotlib.axis_1">
    <g id="xtick_1">
     <g id="line2d_1">
      <path d="M 63.30233 202.84 
L 63.30233 7.2 
" clip-path="url(#pa39357f163)" style="fill: none; stroke: #b0b0b0; stroke-opacity: 0.25; stroke-width: 0.8; stroke-linecap: square"/>
     </g>
     <g id="line2d_2">
      <defs>
       <path id="m86b33cad6c" d="M 0 0 
L 0 3.5 
" style="stroke: #000000; stroke-width: 0.8"/>
      </defs>
      <g>
       <use xlink:href="#m86b33cad6c" x="63.30233" y="202.84" style="stroke: #000000; stroke-width: 0.8"/>
      </g>
     </g>
     <g id="text_1">
      <!-- 0 -->
      <g transform="translate(59.802955 218.198281) scale(0.11 -0.11)">
       <defs>
        <path id="DejaVuSans-30" d="M 2034 4250 
Q 1547 4250 1301 3770 
Q 1056 3291 1056 2328 
Q 1056 1369 1301 889 
Q 1547 409 2034 409 
Q 2525 409 2770 889 
Q 3016 1369 3016 2328 
Q 3016 3291 2770 3770 
Q 2525 4250 2034 4250 
z
M 2034 4750 
Q 2819 4750 3233 4129 
Q 3647 3509 3647 2328 
Q 3647 1150 3233 529 
Q 2819 -91 2034 -91 
Q 1250 -91 836 529 
Q 422 1150 422 2328 
Q 422 3509 836 4129 
Q 1250 4750 2034 4750 
z
" transform="scale(0.015625)"/>
       </defs>
       <use xlink:href="#DejaVuSans-30"/>
      </g>
     </g>
    </g>
    <g id="xtick_2">
     <g id="line2d_3">
      <path d="M 144.290392 202.84 
L 144.290392 7.2 
" clip-path="url(#pa39357f163)" style="fill: none; stroke: #b0b0b0; stroke-opacity: 0.25; stroke-width: 0.8; stroke-linecap: square"/>
     </g>
     <g id="line2d_4">
      <g>
       <use xlink:href="#m86b33cad6c" x="144.290392" y="202.84" style="stroke: #000000; stroke-width: 0.8"/>
      </g>
     </g>
     <g id="text_2">
      <!-- 20 -->
      <g transform="translate(137.291642 218.198281) scale(0.11 -0.11)">
       <defs>
        <path id="DejaVuSans-32" d="M 1228 531 
L 3431 531 
L 3431 0 
L 469 0 
L 469 531 
Q 828 903 1448 1529 
Q 2069 2156 2228 2338 
Q 2531 2678 2651 2914 
Q 2772 3150 2772 3378 
Q 2772 3750 2511 3984 
Q 2250 4219 1831 4219 
Q 1534 4219 1204 4116 
Q 875 4013 500 3803 
L 500 4441 
Q 881 4594 1212 4672 
Q 1544 4750 1819 4750 
Q 2544 4750 2975 4387 
Q 3406 4025 3406 3419 
Q 3406 3131 3298 2873 
Q 3191 2616 2906 2266 
Q 2828 2175 2409 1742 
Q 1991 1309 1228 531 
z
" transform="scale(0.015625)"/>
       </defs>
       <use xlink:href="#DejaVuSans-32"/>
       <use xlink:href="#DejaVuSans-30" x="63.623047"/>
      </g>
     </g>
    </g>
    <g id="xtick_3">
     <g id="line2d_5">
      <path d="M 225.278455 202.84 
L 225.278455 7.2 
" clip-path="url(#pa39357f163)" style="fill: none; stroke: #b0b0b0; stroke-opacity: 0.25; stroke-width: 0.8; stroke-linecap: square"/>
     </g>
     <g id="line2d_6">
      <g>
       <use xlink:href="#m86b33cad6c" x="225.278455" y="202.84" style="stroke: #000000; stroke-width: 0.8"/>
      </g>
     </g>
     <g id="text_3">
      <!-- 40 -->
      <g transform="translate(218.279705 218.198281) scale(0.11 -0.11)">
       <defs>
        <path id="DejaVuSans-34" d="M 2419 4116 
L 825 1625 
L 2419 1625 
L 2419 4116 
z
M 2253 4666 
L 3047 4666 
L 3047 1625 
L 3713 1625 
L 3713 1100 
L 3047 1100 
L 3047 0 
L 2419 0 
L 2419 1100 
L 313 1100 
L 313 1709 
L 2253 4666 
z
" transform="scale(0.015625)"/>
       </defs>
       <use xlink:href="#DejaVuSans-34"/>
       <use xlink:href="#DejaVuSans-30" x="63.623047"/>
      </g>
     </g>
    </g>
    <g id="xtick_4">
     <g id="line2d_7">
      <path d="M 306.266517 202.84 
L 306.266517 7.2 
" clip-path="url(#pa39357f163)" style="fill: none; stroke: #b0b0b0; stroke-opacity: 0.25; stroke-width: 0.8; stroke-linecap: square"/>
     </g>
     <g id="line2d_8">
      <g>
       <use xlink:href="#m86b33cad6c" x="306.266517" y="202.84" style="stroke: #000000; stroke-width: 0.8"/>
      </g>
     </g>
     <g id="text_4">
      <!-- 60 -->
      <g transform="translate(299.267767 218.198281) scale(0.11 -0.11)">
       <defs>
        <path id="DejaVuSans-36" d="M 2113 2584 
Q 1688 2584 1439 2293 
Q 1191 2003 1191 1497 
Q 1191 994 1439 701 
Q 1688 409 2113 409 
Q 2538 409 2786 701 
Q 3034 994 3034 1497 
Q 3034 2003 2786 2293 
Q 2538 2584 2113 2584 
z
M 3366 4563 
L 3366 3988 
Q 3128 4100 2886 4159 
Q 2644 4219 2406 4219 
Q 1781 4219 1451 3797 
Q 1122 3375 1075 2522 
Q 1259 2794 1537 2939 
Q 1816 3084 2150 3084 
Q 2853 3084 3261 2657 
Q 3669 2231 3669 1497 
Q 3669 778 3244 343 
Q 2819 -91 2113 -91 
Q 1303 -91 875 529 
Q 447 1150 447 2328 
Q 447 3434 972 4092 
Q 1497 4750 2381 4750 
Q 2619 4750 2861 4703 
Q 3103 4656 3366 4563 
z
" transform="scale(0.015625)"/>
       </defs>
       <use xlink:href="#DejaVuSans-36"/>
       <use xlink:href="#DejaVuSans-30" x="63.623047"/>
      </g>
     </g>
    </g>
    <g id="xtick_5">
     <g id="line2d_9">
      <path d="M 387.25458 202.84 
L 387.25458 7.2 
" clip-path="url(#pa39357f163)" style="fill: none; stroke: #b0b0b0; stroke-opacity: 0.25; stroke-width: 0.8; stroke-linecap: square"/>
     </g>
     <g id="line2d_10">
      <g>
       <use xlink:href="#m86b33cad6c" x="387.25458" y="202.84" style="stroke: #000000; stroke-width: 0.8"/>
      </g>
     </g>
     <g id="text_5">
      <!-- 80 -->
      <g transform="translate(380.25583 218.198281) scale(0.11 -0.11)">
       <defs>
        <path id="DejaVuSans-38" d="M 2034 2216 
Q 1584 2216 1326 1975 
Q 1069 1734 1069 1313 
Q 1069 891 1326 650 
Q 1584 409 2034 409 
Q 2484 409 2743 651 
Q 3003 894 3003 1313 
Q 3003 1734 2745 1975 
Q 2488 2216 2034 2216 
z
M 1403 2484 
Q 997 2584 770 2862 
Q 544 3141 544 3541 
Q 544 4100 942 4425 
Q 1341 4750 2034 4750 
Q 2731 4750 3128 4425 
Q 3525 4100 3525 3541 
Q 3525 3141 3298 2862 
Q 3072 2584 2669 2484 
Q 3125 2378 3379 2068 
Q 3634 1759 3634 1313 
Q 3634 634 3220 271 
Q 2806 -91 2034 -91 
Q 1263 -91 848 271 
Q 434 634 434 1313 
Q 434 1759 690 2068 
Q 947 2378 1403 2484 
z
M 1172 3481 
Q 1172 3119 1398 2916 
Q 1625 2713 2034 2713 
Q 2441 2713 2670 2916 
Q 2900 3119 2900 3481 
Q 2900 3844 2670 4047 
Q 2441 4250 2034 4250 
Q 1625 4250 1398 4047 
Q 1172 3844 1172 3481 
z
" transform="scale(0.015625)"/>
       </defs>
       <use xlink:href="#DejaVuSans-38"/>
       <use xlink:href="#DejaVuSans-30" x="63.623047"/>
      </g>
     </g>
    </g>
    <g id="xtick_6">
     <g id="line2d_11">
      <path d="M 468.242642 202.84 
L 468.242642 7.2 
" clip-path="url(#pa39357f163)" style="fill: none; stroke: #b0b0b0; stroke-opacity: 0.25; stroke-width: 0.8; stroke-linecap: square"/>
     </g>
     <g id="line2d_12">
      <g>
       <use xlink:href="#m86b33cad6c" x="468.242642" y="202.84" style="stroke: #000000; stroke-width: 0.8"/>
      </g>
     </g>
     <g id="text_6">
      <!-- 100 -->
      <g transform="translate(457.744517 218.198281) scale(0.11 -0.11)">
       <defs>
        <path id="DejaVuSans-31" d="M 794 531 
L 1825 531 
L 1825 4091 
L 703 3866 
L 703 4441 
L 1819 4666 
L 2450 4666 
L 2450 531 
L 3481 531 
L 3481 0 
L 794 0 
L 794 531 
z
" transform="scale(0.015625)"/>
       </defs>
       <use xlink:href="#DejaVuSans-31"/>
       <use xlink:href="#DejaVuSans-30" x="63.623047"/>
       <use xlink:href="#DejaVuSans-30" x="127.246094"/>
      </g>
     </g>
    </g>
    <g id="text_7">
     <!-- Epoch -->
     <g transform="translate(249.424062 233.604062) scale(0.12 -0.12)">
      <defs>
       <path id="DejaVuSans-45" d="M 628 4666 
L 3578 4666 
L 3578 4134 
L 1259 4134 
L 1259 2753 
L 3481 2753 
L 3481 2222 
L 1259 2222 
L 1259 531 
L 3634 531 
L 3634 0 
L 628 0 
L 628 4666 
z
" transform="scale(0.015625)"/>
       <path id="DejaVuSans-70" d="M 1159 525 
L 1159 -1331 
L 581 -1331 
L 581 3500 
L 1159 3500 
L 1159 2969 
Q 1341 3281 1617 3432 
Q 1894 3584 2278 3584 
Q 2916 3584 3314 3078 
Q 3713 2572 3713 1747 
Q 3713 922 3314 415 
Q 2916 -91 2278 -91 
Q 1894 -91 1617 61 
Q 1341 213 1159 525 
z
M 3116 1747 
Q 3116 2381 2855 2742 
Q 2594 3103 2138 3103 
Q 1681 3103 1420 2742 
Q 1159 2381 1159 1747 
Q 1159 1113 1420 752 
Q 1681 391 2138 391 
Q 2594 391 2855 752 
Q 3116 1113 3116 1747 
z
" transform="scale(0.015625)"/>
       <path id="DejaVuSans-6f" d="M 1959 3097 
Q 1497 3097 1228 2736 
Q 959 2375 959 1747 
Q 959 1119 1226 758 
Q 1494 397 1959 397 
Q 2419 397 2687 759 
Q 2956 1122 2956 1747 
Q 2956 2369 2687 2733 
Q 2419 3097 1959 3097 
z
M 1959 3584 
Q 2709 3584 3137 3096 
Q 3566 2609 3566 1747 
Q 3566 888 3137 398 
Q 2709 -91 1959 -91 
Q 1206 -91 779 398 
Q 353 888 353 1747 
Q 353 2609 779 3096 
Q 1206 3584 1959 3584 
z
" transform="scale(0.015625)"/>
       <path id="DejaVuSans-63" d="M 3122 3366 
L 3122 2828 
Q 2878 2963 2633 3030 
Q 2388 3097 2138 3097 
Q 1578 3097 1268 2742 
Q 959 2388 959 1747 
Q 959 1106 1268 751 
Q 1578 397 2138 397 
Q 2388 397 2633 464 
Q 2878 531 3122 666 
L 3122 134 
Q 2881 22 2623 -34 
Q 2366 -91 2075 -91 
Q 1284 -91 818 406 
Q 353 903 353 1747 
Q 353 2603 823 3093 
Q 1294 3584 2113 3584 
Q 2378 3584 2631 3529 
Q 2884 3475 3122 3366 
z
" transform="scale(0.015625)"/>
       <path id="DejaVuSans-68" d="M 3513 2113 
L 3513 0 
L 2938 0 
L 2938 2094 
Q 2938 2591 2744 2837 
Q 2550 3084 2163 3084 
Q 1697 3084 1428 2787 
Q 1159 2491 1159 1978 
L 1159 0 
L 581 0 
L 581 4863 
L 1159 4863 
L 1159 2956 
Q 1366 3272 1645 3428 
Q 1925 3584 2291 3584 
Q 2894 3584 3203 3211 
Q 3513 2838 3513 2113 
z
" transform="scale(0.015625)"/>
      </defs>
      <use xlink:href="#DejaVuSans-45"/>
      <use xlink:href="#DejaVuSans-70" x="63.183594"/>
      <use xlink:href="#DejaVuSans-6f" x="126.660156"/>
      <use xlink:href="#DejaVuSans-63" x="187.841797"/>
      <use xlink:href="#DejaVuSans-68" x="242.822266"/>
     </g>
    </g>
   </g>
   <g id="matplotlib.axis_2">
    <g id="ytick_1">
     <g id="line2d_13">
      <path d="M 47.307187 181.660703 
L 488.287187 181.660703 
" clip-path="url(#pa39357f163)" style="fill: none; stroke: #b0b0b0; stroke-opacity: 0.25; stroke-width: 0.8; stroke-linecap: square"/>
     </g>
     <g id="line2d_14">
      <defs>
       <path id="mb19bc6fa3a" d="M 0 0 
L -3.5 0 
" style="stroke: #000000; stroke-width: 0.8"/>
      </defs>
      <g>
       <use xlink:href="#mb19bc6fa3a" x="47.307187" y="181.660703" style="stroke: #000000; stroke-width: 0.8"/>
      </g>
     </g>
     <g id="text_8">
      <!-- 1.5 -->
      <g transform="translate(22.81375 185.839843) scale(0.11 -0.11)">
       <defs>
        <path id="DejaVuSans-2e" d="M 684 794 
L 1344 794 
L 1344 0 
L 684 0 
L 684 794 
z
" transform="scale(0.015625)"/>
        <path id="DejaVuSans-35" d="M 691 4666 
L 3169 4666 
L 3169 4134 
L 1269 4134 
L 1269 2991 
Q 1406 3038 1543 3061 
Q 1681 3084 1819 3084 
Q 2600 3084 3056 2656 
Q 3513 2228 3513 1497 
Q 3513 744 3044 326 
Q 2575 -91 1722 -91 
Q 1428 -91 1123 -41 
Q 819 9 494 109 
L 494 744 
Q 775 591 1075 516 
Q 1375 441 1709 441 
Q 2250 441 2565 725 
Q 2881 1009 2881 1497 
Q 2881 1984 2565 2268 
Q 2250 2553 1709 2553 
Q 1456 2553 1204 2497 
Q 953 2441 691 2322 
L 691 4666 
z
" transform="scale(0.015625)"/>
       </defs>
       <use xlink:href="#DejaVuSans-31"/>
       <use xlink:href="#DejaVuSans-2e" x="63.623047"/>
       <use xlink:href="#DejaVuSans-35" x="95.410156"/>
      </g>
     </g>
    </g>
    <g id="ytick_2">
     <g id="line2d_15">
      <path d="M 47.307187 142.606125 
L 488.287187 142.606125 
" clip-path="url(#pa39357f163)" style="fill: none; stroke: #b0b0b0; stroke-opacity: 0.25; stroke-width: 0.8; stroke-linecap: square"/>
     </g>
     <g id="line2d_16">
      <g>
       <use xlink:href="#mb19bc6fa3a" x="47.307187" y="142.606125" style="stroke: #000000; stroke-width: 0.8"/>
      </g>
     </g>
     <g id="text_9">
      <!-- 2.0 -->
      <g transform="translate(22.81375 146.785266) scale(0.11 -0.11)">
       <use xlink:href="#DejaVuSans-32"/>
       <use xlink:href="#DejaVuSans-2e" x="63.623047"/>
       <use xlink:href="#DejaVuSans-30" x="95.410156"/>
      </g>
     </g>
    </g>
    <g id="ytick_3">
     <g id="line2d_17">
      <path d="M 47.307187 103.551548 
L 488.287187 103.551548 
" clip-path="url(#pa39357f163)" style="fill: none; stroke: #b0b0b0; stroke-opacity: 0.25; stroke-width: 0.8; stroke-linecap: square"/>
     </g>
     <g id="line2d_18">
      <g>
       <use xlink:href="#mb19bc6fa3a" x="47.307187" y="103.551548" style="stroke: #000000; stroke-width: 0.8"/>
      </g>
     </g>
     <g id="text_10">
      <!-- 2.5 -->
      <g transform="translate(22.81375 107.730689) scale(0.11 -0.11)">
       <use xlink:href="#DejaVuSans-32"/>
       <use xlink:href="#DejaVuSans-2e" x="63.623047"/>
       <use xlink:href="#DejaVuSans-35" x="95.410156"/>
      </g>
     </g>
    </g>
    <g id="ytick_4">
     <g id="line2d_19">
      <path d="M 47.307187 64.49697 
L 488.287187 64.49697 
" clip-path="url(#pa39357f163)" style="fill: none; stroke: #b0b0b0; stroke-opacity: 0.25; stroke-width: 0.8; stroke-linecap: square"/>
     </g>
     <g id="line2d_20">
      <g>
       <use xlink:href="#mb19bc6fa3a" x="47.307187" y="64.49697" style="stroke: #000000; stroke-width: 0.8"/>
      </g>
     </g>
     <g id="text_11">
      <!-- 3.0 -->
      <g transform="translate(22.81375 68.676111) scale(0.11 -0.11)">
       <defs>
        <path id="DejaVuSans-33" d="M 2597 2516 
Q 3050 2419 3304 2112 
Q 3559 1806 3559 1356 
Q 3559 666 3084 287 
Q 2609 -91 1734 -91 
Q 1441 -91 1130 -33 
Q 819 25 488 141 
L 488 750 
Q 750 597 1062 519 
Q 1375 441 1716 441 
Q 2309 441 2620 675 
Q 2931 909 2931 1356 
Q 2931 1769 2642 2001 
Q 2353 2234 1838 2234 
L 1294 2234 
L 1294 2753 
L 1863 2753 
Q 2328 2753 2575 2939 
Q 2822 3125 2822 3475 
Q 2822 3834 2567 4026 
Q 2313 4219 1838 4219 
Q 1578 4219 1281 4162 
Q 984 4106 628 3988 
L 628 4550 
Q 988 4650 1302 4700 
Q 1616 4750 1894 4750 
Q 2613 4750 3031 4423 
Q 3450 4097 3450 3541 
Q 3450 3153 3228 2886 
Q 3006 2619 2597 2516 
z
" transform="scale(0.015625)"/>
       </defs>
       <use xlink:href="#DejaVuSans-33"/>
       <use xlink:href="#DejaVuSans-2e" x="63.623047"/>
       <use xlink:href="#DejaVuSans-30" x="95.410156"/>
      </g>
     </g>
    </g>
    <g id="ytick_5">
     <g id="line2d_21">
      <path d="M 47.307187 25.442393 
L 488.287187 25.442393 
" clip-path="url(#pa39357f163)" style="fill: none; stroke: #b0b0b0; stroke-opacity: 0.25; stroke-width: 0.8; stroke-linecap: square"/>
     </g>
     <g id="line2d_22">
      <g>
       <use xlink:href="#mb19bc6fa3a" x="47.307187" y="25.442393" style="stroke: #000000; stroke-width: 0.8"/>
      </g>
     </g>
     <g id="text_12">
      <!-- 3.5 -->
      <g transform="translate(22.81375 29.621534) scale(0.11 -0.11)">
       <use xlink:href="#DejaVuSans-33"/>
       <use xlink:href="#DejaVuSans-2e" x="63.623047"/>
       <use xlink:href="#DejaVuSans-35" x="95.410156"/>
      </g>
     </g>
    </g>
    <g id="text_13">
     <!-- Test Loss -->
     <g transform="translate(16.318125 131.901875) rotate(-90) scale(0.12 -0.12)">
      <defs>
       <path id="DejaVuSans-54" d="M -19 4666 
L 3928 4666 
L 3928 4134 
L 2272 4134 
L 2272 0 
L 1638 0 
L 1638 4134 
L -19 4134 
L -19 4666 
z
" transform="scale(0.015625)"/>
       <path id="DejaVuSans-65" d="M 3597 1894 
L 3597 1613 
L 953 1613 
Q 991 1019 1311 708 
Q 1631 397 2203 397 
Q 2534 397 2845 478 
Q 3156 559 3463 722 
L 3463 178 
Q 3153 47 2828 -22 
Q 2503 -91 2169 -91 
Q 1331 -91 842 396 
Q 353 884 353 1716 
Q 353 2575 817 3079 
Q 1281 3584 2069 3584 
Q 2775 3584 3186 3129 
Q 3597 2675 3597 1894 
z
M 3022 2063 
Q 3016 2534 2758 2815 
Q 2500 3097 2075 3097 
Q 1594 3097 1305 2825 
Q 1016 2553 972 2059 
L 3022 2063 
z
" transform="scale(0.015625)"/>
       <path id="DejaVuSans-73" d="M 2834 3397 
L 2834 2853 
Q 2591 2978 2328 3040 
Q 2066 3103 1784 3103 
Q 1356 3103 1142 2972 
Q 928 2841 928 2578 
Q 928 2378 1081 2264 
Q 1234 2150 1697 2047 
L 1894 2003 
Q 2506 1872 2764 1633 
Q 3022 1394 3022 966 
Q 3022 478 2636 193 
Q 2250 -91 1575 -91 
Q 1294 -91 989 -36 
Q 684 19 347 128 
L 347 722 
Q 666 556 975 473 
Q 1284 391 1588 391 
Q 1994 391 2212 530 
Q 2431 669 2431 922 
Q 2431 1156 2273 1281 
Q 2116 1406 1581 1522 
L 1381 1569 
Q 847 1681 609 1914 
Q 372 2147 372 2553 
Q 372 3047 722 3315 
Q 1072 3584 1716 3584 
Q 2034 3584 2315 3537 
Q 2597 3491 2834 3397 
z
" transform="scale(0.015625)"/>
       <path id="DejaVuSans-74" d="M 1172 4494 
L 1172 3500 
L 2356 3500 
L 2356 3053 
L 1172 3053 
L 1172 1153 
Q 1172 725 1289 603 
Q 1406 481 1766 481 
L 2356 481 
L 2356 0 
L 1766 0 
Q 1100 0 847 248 
Q 594 497 594 1153 
L 594 3053 
L 172 3053 
L 172 3500 
L 594 3500 
L 594 4494 
L 1172 4494 
z
" transform="scale(0.015625)"/>
       <path id="DejaVuSans-20" transform="scale(0.015625)"/>
       <path id="DejaVuSans-4c" d="M 628 4666 
L 1259 4666 
L 1259 531 
L 3531 531 
L 3531 0 
L 628 0 
L 628 4666 
z
" transform="scale(0.015625)"/>
      </defs>
      <use xlink:href="#DejaVuSans-54"/>
      <use xlink:href="#DejaVuSans-65" x="44.083984"/>
      <use xlink:href="#DejaVuSans-73" x="105.607422"/>
      <use xlink:href="#DejaVuSans-74" x="157.707031"/>
      <use xlink:href="#DejaVuSans-20" x="196.916016"/>
      <use xlink:href="#DejaVuSans-4c" x="228.703125"/>
      <use xlink:href="#DejaVuSans-6f" x="282.666016"/>
      <use xlink:href="#DejaVuSans-73" x="343.847656"/>
      <use xlink:href="#DejaVuSans-73" x="395.947266"/>
     </g>
    </g>
   </g>
   <g id="line2d_23">
    <path d="M 67.351733 31.933264 
L 71.401136 68.273548 
L 75.450539 102.598616 
L 79.499942 105.773753 
L 83.549345 136.056673 
L 87.598749 132.940117 
L 91.648152 148.425257 
L 95.697555 153.642949 
L 99.746958 159.091062 
L 103.796361 171.65492 
L 107.845764 169.503013 
L 111.895167 170.112264 
L 115.94457 185.464619 
L 119.993974 187.186925 
L 124.043377 184.995964 
L 128.09278 185.464619 
L 132.142183 186.886205 
L 136.191586 187.460307 
L 140.240989 182.379307 
L 144.290392 179.243224 
L 148.339795 179.836854 
L 152.389199 182.219183 
L 156.438602 180.797597 
L 160.488005 186.577674 
L 164.537408 183.312711 
L 168.586811 178.649595 
L 172.636214 179.071384 
L 176.685617 182.336347 
L 180.73502 179.63377 
L 184.784423 179.817327 
L 188.833827 180.891328 
L 192.88323 183.621242 
L 196.932633 183.964923 
L 200.982036 179.430686 
L 205.031439 177.727907 
L 209.080842 177.165521 
L 213.130245 175.669731 
L 217.179648 173.142899 
L 221.229052 174.34578 
L 225.278455 176.380524 
L 229.327858 177.552161 
L 233.377261 178.196562 
L 237.426664 172.557081 
L 241.476067 173.560783 
L 245.52547 177.634176 
L 249.574873 177.20067 
L 253.624277 172.186062 
L 257.67368 176.884328 
L 261.723083 171.686164 
L 265.772486 174.826152 
L 269.821889 177.50139 
L 273.871292 171.811138 
L 277.920695 177.930991 
L 281.970098 176.357091 
L 286.019502 176.345375 
L 290.068905 179.012802 
L 294.118308 174.310631 
L 298.167711 175.822043 
L 302.217114 169.983384 
L 306.266517 171.026141 
L 310.31592 178.6535 
L 314.365323 175.251847 
L 318.414727 180.321131 
L 322.46413 171.873626 
L 326.513533 179.317428 
L 330.562936 169.526445 
L 334.612339 173.330361 
L 338.661742 167.772895 
L 342.711145 172.643001 
L 346.760548 171.404971 
L 350.809952 170.569203 
L 354.859355 177.884125 
L 358.908758 177.153804 
L 362.958161 176.232116 
L 367.007564 174.962843 
L 371.056967 171.604149 
L 375.10637 177.532634 
L 379.155773 172.697677 
L 383.205176 177.641987 
L 387.25458 174.025533 
L 391.303983 167.901775 
L 395.353386 174.845679 
L 399.402789 174.876923 
L 403.452192 170.123981 
L 407.501595 167.429215 
L 411.550998 173.717002 
L 415.600401 171.131589 
L 419.649805 171.7838 
L 423.699208 174.728515 
L 427.748611 171.479174 
L 431.798014 173.010114 
L 435.847417 174.966748 
L 439.89682 174.732421 
L 443.946223 171.209698 
L 447.995626 175.7908 
L 452.04503 180.348469 
L 456.094433 171.498702 
L 460.143836 173.681853 
L 464.193239 175.41197 
L 468.242642 168.745354 
" clip-path="url(#pa39357f163)" style="fill: none; stroke-dasharray: 7.4,3.2; stroke-dashoffset: 0; stroke: #e41a1c; stroke-width: 2"/>
   </g>
   <g id="line2d_24">
    <path d="M 67.351733 112.151366 
L 71.401136 134.11566 
L 75.450539 154.916128 
L 79.499942 166.257577 
L 83.549345 169.374133 
L 87.598749 172.396957 
L 91.648152 172.287604 
L 95.697555 171.209698 
L 99.746958 183.761839 
L 103.796361 185.370888 
L 107.845764 182.32463 
L 111.895167 183.355671 
L 115.94457 193.947273 
L 119.993974 189.127938 
L 124.043377 182.285576 
L 128.09278 190.471415 
L 132.142183 184.714771 
L 136.191586 184.917854 
L 140.240989 185.22248 
L 144.290392 185.839542 
L 148.339795 187.487646 
L 152.389199 188.284359 
L 156.438602 188.917043 
L 160.488005 184.550741 
L 164.537408 187.35486 
L 168.586811 186.487848 
L 172.636214 186.847151 
L 176.685617 186.854961 
L 180.73502 190.42455 
L 184.784423 185.855164 
L 188.833827 188.112519 
L 192.88323 188.995152 
L 196.932633 187.979733 
L 200.982036 178.114547 
L 205.031439 185.831732 
L 209.080842 183.832137 
L 213.130245 185.73019 
L 217.179648 183.714973 
L 221.229052 178.755042 
L 225.278455 177.427186 
L 229.327858 178.239522 
L 233.377261 178.091114 
L 237.426664 177.888031 
L 241.476067 180.52812 
L 245.52547 177.364699 
L 249.574873 180.348469 
L 253.624277 181.113939 
L 257.67368 175.83376 
L 261.723083 177.622459 
L 265.772486 178.348875 
L 269.821889 177.927085 
L 273.871292 174.224711 
L 277.920695 175.755651 
L 281.970098 174.927694 
L 286.019502 172.982776 
L 290.068905 171.897058 
L 294.118308 171.850193 
L 298.167711 171.811138 
L 302.217114 174.685555 
L 306.266517 172.59223 
L 310.31592 174.46685 
L 314.365323 168.75707 
L 318.414727 171.459647 
L 322.46413 168.913289 
L 326.513533 171.342483 
L 330.562936 175.779083 
L 334.612339 162.664556 
L 338.661742 170.592635 
L 342.711145 162.078738 
L 346.760548 162.359931 
L 350.809952 166.859018 
L 354.859355 171.381538 
L 358.908758 165.335889 
L 362.958161 167.936924 
L 367.007564 168.702394 
L 371.056967 173.998195 
L 375.10637 167.1324 
L 379.155773 167.890059 
L 383.205176 165.304646 
L 387.25458 169.7803 
L 391.303983 170.061493 
L 395.353386 170.452039 
L 399.402789 160.774315 
L 403.452192 169.928708 
L 407.501595 167.593244 
L 411.550998 169.733435 
L 415.600401 169.420998 
L 419.649805 159.102779 
L 423.699208 164.882856 
L 427.748611 161.891276 
L 431.798014 156.876668 
L 435.847417 161.344512 
L 439.89682 164.312659 
L 443.946223 167.179265 
L 447.995626 163.265997 
L 452.04503 159.704219 
L 456.094433 166.234145 
L 460.143836 167.21832 
L 464.193239 167.944735 
L 468.242642 161.235159 
" clip-path="url(#pa39357f163)" style="fill: none; stroke-dasharray: 7.4,3.2; stroke-dashoffset: 0; stroke: #228b22; stroke-width: 2"/>
   </g>
   <g id="patch_3">
    <path d="M 47.307187 202.84 
L 47.307187 7.2 
" style="fill: none; stroke: #000000; stroke-width: 0.8; stroke-linejoin: miter; stroke-linecap: square"/>
   </g>
   <g id="patch_4">
    <path d="M 488.287187 202.84 
L 488.287187 7.2 
" style="fill: none; stroke: #000000; stroke-width: 0.8; stroke-linejoin: miter; stroke-linecap: square"/>
   </g>
   <g id="patch_5">
    <path d="M 47.307187 202.84 
L 488.287188 202.84 
" style="fill: none; stroke: #000000; stroke-width: 0.8; stroke-linejoin: miter; stroke-linecap: square"/>
   </g>
   <g id="patch_6">
    <path d="M 47.307187 7.2 
L 488.287188 7.2 
" style="fill: none; stroke: #000000; stroke-width: 0.8; stroke-linejoin: miter; stroke-linecap: square"/>
   </g>
   <g id="legend_1">
    <g id="patch_7">
     <path d="M 340.66375 197.84 
L 481.287187 197.84 
Q 483.287187 197.84 483.287187 195.84 
L 483.287187 167.48375 
Q 483.287187 165.48375 481.287187 165.48375 
L 340.66375 165.48375 
Q 338.66375 165.48375 338.66375 167.48375 
L 338.66375 195.84 
Q 338.66375 197.84 340.66375 197.84 
z
" style="fill: #ffffff; opacity: 0.8; stroke: #cccccc; stroke-linejoin: miter"/>
    </g>
    <g id="line2d_25">
     <path d="M 342.66375 173.582188 
L 352.66375 173.582188 
L 362.66375 173.582188 
" style="fill: none; stroke-dasharray: 7.4,3.2; stroke-dashoffset: 0; stroke: #e41a1c; stroke-width: 2"/>
    </g>
    <g id="text_14">
     <!-- Loss - Baseline -->
     <g transform="translate(370.66375 177.082188) scale(0.1 -0.1)">
      <defs>
       <path id="DejaVuSans-2d" d="M 313 2009 
L 1997 2009 
L 1997 1497 
L 313 1497 
L 313 2009 
z
" transform="scale(0.015625)"/>
       <path id="DejaVuSans-42" d="M 1259 2228 
L 1259 519 
L 2272 519 
Q 2781 519 3026 730 
Q 3272 941 3272 1375 
Q 3272 1813 3026 2020 
Q 2781 2228 2272 2228 
L 1259 2228 
z
M 1259 4147 
L 1259 2741 
L 2194 2741 
Q 2656 2741 2882 2914 
Q 3109 3088 3109 3444 
Q 3109 3797 2882 3972 
Q 2656 4147 2194 4147 
L 1259 4147 
z
M 628 4666 
L 2241 4666 
Q 2963 4666 3353 4366 
Q 3744 4066 3744 3513 
Q 3744 3084 3544 2831 
Q 3344 2578 2956 2516 
Q 3422 2416 3680 2098 
Q 3938 1781 3938 1306 
Q 3938 681 3513 340 
Q 3088 0 2303 0 
L 628 0 
L 628 4666 
z
" transform="scale(0.015625)"/>
       <path id="DejaVuSans-61" d="M 2194 1759 
Q 1497 1759 1228 1600 
Q 959 1441 959 1056 
Q 959 750 1161 570 
Q 1363 391 1709 391 
Q 2188 391 2477 730 
Q 2766 1069 2766 1631 
L 2766 1759 
L 2194 1759 
z
M 3341 1997 
L 3341 0 
L 2766 0 
L 2766 531 
Q 2569 213 2275 61 
Q 1981 -91 1556 -91 
Q 1019 -91 701 211 
Q 384 513 384 1019 
Q 384 1609 779 1909 
Q 1175 2209 1959 2209 
L 2766 2209 
L 2766 2266 
Q 2766 2663 2505 2880 
Q 2244 3097 1772 3097 
Q 1472 3097 1187 3025 
Q 903 2953 641 2809 
L 641 3341 
Q 956 3463 1253 3523 
Q 1550 3584 1831 3584 
Q 2591 3584 2966 3190 
Q 3341 2797 3341 1997 
z
" transform="scale(0.015625)"/>
       <path id="DejaVuSans-6c" d="M 603 4863 
L 1178 4863 
L 1178 0 
L 603 0 
L 603 4863 
z
" transform="scale(0.015625)"/>
       <path id="DejaVuSans-69" d="M 603 3500 
L 1178 3500 
L 1178 0 
L 603 0 
L 603 3500 
z
M 603 4863 
L 1178 4863 
L 1178 4134 
L 603 4134 
L 603 4863 
z
" transform="scale(0.015625)"/>
       <path id="DejaVuSans-6e" d="M 3513 2113 
L 3513 0 
L 2938 0 
L 2938 2094 
Q 2938 2591 2744 2837 
Q 2550 3084 2163 3084 
Q 1697 3084 1428 2787 
Q 1159 2491 1159 1978 
L 1159 0 
L 581 0 
L 581 3500 
L 1159 3500 
L 1159 2956 
Q 1366 3272 1645 3428 
Q 1925 3584 2291 3584 
Q 2894 3584 3203 3211 
Q 3513 2838 3513 2113 
z
" transform="scale(0.015625)"/>
      </defs>
      <use xlink:href="#DejaVuSans-4c"/>
      <use xlink:href="#DejaVuSans-6f" x="53.962891"/>
      <use xlink:href="#DejaVuSans-73" x="115.144531"/>
      <use xlink:href="#DejaVuSans-73" x="167.244141"/>
      <use xlink:href="#DejaVuSans-20" x="219.34375"/>
      <use xlink:href="#DejaVuSans-2d" x="251.130859"/>
      <use xlink:href="#DejaVuSans-20" x="287.214844"/>
      <use xlink:href="#DejaVuSans-42" x="319.001953"/>
      <use xlink:href="#DejaVuSans-61" x="387.605469"/>
      <use xlink:href="#DejaVuSans-73" x="448.884766"/>
      <use xlink:href="#DejaVuSans-65" x="500.984375"/>
      <use xlink:href="#DejaVuSans-6c" x="562.507812"/>
      <use xlink:href="#DejaVuSans-69" x="590.291016"/>
      <use xlink:href="#DejaVuSans-6e" x="618.074219"/>
      <use xlink:href="#DejaVuSans-65" x="681.453125"/>
     </g>
    </g>
    <g id="line2d_26">
     <path d="M 342.66375 188.260312 
L 352.66375 188.260312 
L 362.66375 188.260312 
" style="fill: none; stroke-dasharray: 7.4,3.2; stroke-dashoffset: 0; stroke: #228b22; stroke-width: 2"/>
    </g>
    <g id="text_15">
     <!-- Loss - SSL Pre-trained -->
     <g transform="translate(370.66375 191.760312) scale(0.1 -0.1)">
      <defs>
       <path id="DejaVuSans-53" d="M 3425 4513 
L 3425 3897 
Q 3066 4069 2747 4153 
Q 2428 4238 2131 4238 
Q 1616 4238 1336 4038 
Q 1056 3838 1056 3469 
Q 1056 3159 1242 3001 
Q 1428 2844 1947 2747 
L 2328 2669 
Q 3034 2534 3370 2195 
Q 3706 1856 3706 1288 
Q 3706 609 3251 259 
Q 2797 -91 1919 -91 
Q 1588 -91 1214 -16 
Q 841 59 441 206 
L 441 856 
Q 825 641 1194 531 
Q 1563 422 1919 422 
Q 2459 422 2753 634 
Q 3047 847 3047 1241 
Q 3047 1584 2836 1778 
Q 2625 1972 2144 2069 
L 1759 2144 
Q 1053 2284 737 2584 
Q 422 2884 422 3419 
Q 422 4038 858 4394 
Q 1294 4750 2059 4750 
Q 2388 4750 2728 4690 
Q 3069 4631 3425 4513 
z
" transform="scale(0.015625)"/>
       <path id="DejaVuSans-50" d="M 1259 4147 
L 1259 2394 
L 2053 2394 
Q 2494 2394 2734 2622 
Q 2975 2850 2975 3272 
Q 2975 3691 2734 3919 
Q 2494 4147 2053 4147 
L 1259 4147 
z
M 628 4666 
L 2053 4666 
Q 2838 4666 3239 4311 
Q 3641 3956 3641 3272 
Q 3641 2581 3239 2228 
Q 2838 1875 2053 1875 
L 1259 1875 
L 1259 0 
L 628 0 
L 628 4666 
z
" transform="scale(0.015625)"/>
       <path id="DejaVuSans-72" d="M 2631 2963 
Q 2534 3019 2420 3045 
Q 2306 3072 2169 3072 
Q 1681 3072 1420 2755 
Q 1159 2438 1159 1844 
L 1159 0 
L 581 0 
L 581 3500 
L 1159 3500 
L 1159 2956 
Q 1341 3275 1631 3429 
Q 1922 3584 2338 3584 
Q 2397 3584 2469 3576 
Q 2541 3569 2628 3553 
L 2631 2963 
z
" transform="scale(0.015625)"/>
       <path id="DejaVuSans-64" d="M 2906 2969 
L 2906 4863 
L 3481 4863 
L 3481 0 
L 2906 0 
L 2906 525 
Q 2725 213 2448 61 
Q 2172 -91 1784 -91 
Q 1150 -91 751 415 
Q 353 922 353 1747 
Q 353 2572 751 3078 
Q 1150 3584 1784 3584 
Q 2172 3584 2448 3432 
Q 2725 3281 2906 2969 
z
M 947 1747 
Q 947 1113 1208 752 
Q 1469 391 1925 391 
Q 2381 391 2643 752 
Q 2906 1113 2906 1747 
Q 2906 2381 2643 2742 
Q 2381 3103 1925 3103 
Q 1469 3103 1208 2742 
Q 947 2381 947 1747 
z
" transform="scale(0.015625)"/>
      </defs>
      <use xlink:href="#DejaVuSans-4c"/>
      <use xlink:href="#DejaVuSans-6f" x="53.962891"/>
      <use xlink:href="#DejaVuSans-73" x="115.144531"/>
      <use xlink:href="#DejaVuSans-73" x="167.244141"/>
      <use xlink:href="#DejaVuSans-20" x="219.34375"/>
      <use xlink:href="#DejaVuSans-2d" x="251.130859"/>
      <use xlink:href="#DejaVuSans-20" x="287.214844"/>
      <use xlink:href="#DejaVuSans-53" x="319.001953"/>
      <use xlink:href="#DejaVuSans-53" x="382.478516"/>
      <use xlink:href="#DejaVuSans-4c" x="445.955078"/>
      <use xlink:href="#DejaVuSans-20" x="501.667969"/>
      <use xlink:href="#DejaVuSans-50" x="533.455078"/>
      <use xlink:href="#DejaVuSans-72" x="592.007812"/>
      <use xlink:href="#DejaVuSans-65" x="630.871094"/>
      <use xlink:href="#DejaVuSans-2d" x="692.394531"/>
      <use xlink:href="#DejaVuSans-74" x="728.478516"/>
      <use xlink:href="#DejaVuSans-72" x="767.6875"/>
      <use xlink:href="#DejaVuSans-61" x="808.800781"/>
      <use xlink:href="#DejaVuSans-69" x="870.080078"/>
      <use xlink:href="#DejaVuSans-6e" x="897.863281"/>
      <use xlink:href="#DejaVuSans-65" x="961.242188"/>
      <use xlink:href="#DejaVuSans-64" x="1022.765625"/>
     </g>
    </g>
   </g>
  </g>
 </g>
 <defs>
  <clipPath id="pa39357f163">
   <rect x="47.307187" y="7.2" width="440.98" height="195.64"/>
  </clipPath>
 </defs>
</svg>
