<?xml version="1.0" encoding="utf-8" standalone="no"?>
<!DOCTYPE svg PUBLIC "-//W3C//DTD SVG 1.1//EN"
  "http://www.w3.org/Graphics/SVG/1.1/DTD/svg11.dtd">
<svg xmlns:xlink="http://www.w3.org/1999/xlink" width="495.487188pt" height="243.299688pt" viewBox="0 0 495.487188 243.299688" xmlns="http://www.w3.org/2000/svg" version="1.1">
 <metadata>
  <rdf:RDF xmlns:dc="http://purl.org/dc/elements/1.1/" xmlns:cc="http://creativecommons.org/ns#" xmlns:rdf="http://www.w3.org/1999/02/22-rdf-syntax-ns#">
   <cc:Work>
    <dc:type rdf:resource="http://purl.org/dc/dcmitype/StillImage"/>
    <dc:date>2025-12-22T20:33:51.877635</dc:date>
    <dc:format>image/svg+xml</dc:format>
    <dc:creator>
     <cc:Agent>
      <dc:title>Matplotlib v3.9.0, https://matplotlib.org/</dc:title>
     </cc:Agent>
    </dc:creator>
   </cc:Work>
  </rdf:RDF>
 </metadata>
 <defs>
  <style type="text/css">*{stroke-linejoin: round; stroke-linecap: butt}</style>
 </defs>
 <g id="figure_1">
  <g id="patch_1">
   <path d="M 0 243.299688 
L 495.487188 243.299688 
L 495.487188 0 
L 0 0 
z
" style="fill: #ffffff"/>
  </g>
  <g id="axes_1">
   <g id="patch_2">
    <path d="M 47.307187 202.84 
L 488.287187 202.84 
L 488.287187 7.2 
L 47.307187 7.2 
z
" style="fill: #ffffff"/>
   </g>
   <g id="PolyCollection_1">
    <defs>
     <path id="ma09cce3440" d="M 67.351733 -133.159923 
L 67.351733 -129.062424 
L 71.401136 -122.385517 
L 75.450539 -117.782066 
L 79.499942 -112.52527 
L 83.549345 -107.111787 
L 87.598749 -103.023457 
L 91.648152 -99.96552 
L 95.697555 -92.944769 
L 99.746958 -92.383105 
L 103.796361 -85.720751 
L 107.845764 -81.828389 
L 111.895167 -80.464877 
L 115.94457 -75.932641 
L 119.993974 -74.996927 
L 124.043377 -73.104524 
L 128.09278 -69.297557 
L 132.142183 -68.108202 
L 136.191586 -67.544407 
L 140.240989 -64.556736 
L 144.290392 -64.59452 
L 148.339795 -62.890163 
L 152.389199 -61.33059 
L 156.438602 -59.962227 
L 160.488005 -57.868332 
L 164.537408 -59.406298 
L 168.586811 -57.185216 
L 172.636214 -58.034169 
L 176.685617 -56.644459 
L 180.73502 -59.003853 
L 184.784423 -54.662788 
L 188.833827 -57.276145 
L 192.88323 -57.617855 
L 196.932633 -58.219323 
L 200.982036 -58.900168 
L 205.031439 -61.421098 
L 209.080842 -63.136921 
L 213.130245 -63.056982 
L 217.179648 -66.038113 
L 221.229052 -70.686013 
L 225.278455 -70.185494 
L 229.327858 -73.552388 
L 233.377261 -76.772354 
L 237.426664 -79.464456 
L 241.476067 -84.66444 
L 245.52547 -86.648687 
L 249.574873 -89.714598 
L 253.624277 -93.901755 
L 257.67368 -97.68337 
L 261.723083 -102.82035 
L 265.772486 -105.532991 
L 269.821889 -111.767687 
L 273.871292 -114.139774 
L 277.920695 -119.69534 
L 281.970098 -123.508398 
L 286.019502 -127.48329 
L 290.068905 -131.877884 
L 294.118308 -138.375118 
L 298.167711 -142.635198 
L 302.217114 -144.020498 
L 306.266517 -147.053152 
L 310.31592 -152.709802 
L 314.365323 -151.346003 
L 318.414727 -158.498238 
L 322.46413 -161.933332 
L 326.513533 -164.024954 
L 330.562936 -166.318269 
L 334.612339 -170.585138 
L 338.661742 -174.370021 
L 342.711145 -173.630144 
L 346.760548 -175.776191 
L 350.809952 -179.873861 
L 354.859355 -182.816059 
L 358.908758 -185.653205 
L 362.958161 -186.664797 
L 367.007564 -187.427976 
L 371.056967 -191.570195 
L 375.10637 -193.204351 
L 379.155773 -197.617384 
L 383.205176 -196.852782 
L 387.25458 -201.253804 
L 391.303983 -196.875442 
L 395.353386 -199.007694 
L 399.402789 -204.813609 
L 403.452192 -204.214163 
L 407.501595 -204.366276 
L 411.550998 -203.647795 
L 415.600401 -207.795961 
L 419.649805 -207.138549 
L 423.699208 -206.096008 
L 427.748611 -208.961423 
L 431.798014 -212.389 
L 435.847417 -214.069468 
L 439.89682 -211.189566 
L 443.946223 -218.096323 
L 447.995626 -213.234607 
L 452.04503 -218.755909 
L 456.094433 -213.937771 
L 460.143836 -217.683896 
L 464.193239 -217.039207 
L 468.242642 -216.549614 
L 468.242642 -226.151006 
L 468.242642 -226.151006 
L 464.193239 -226.323109 
L 460.143836 -227.20696 
L 456.094433 -223.680455 
L 452.04503 -224.600374 
L 447.995626 -219.870405 
L 443.946223 -225.623994 
L 439.89682 -219.499951 
L 435.847417 -218.062106 
L 431.798014 -222.481878 
L 427.748611 -215.809027 
L 423.699208 -220.806352 
L 419.649805 -213.748204 
L 415.600401 -214.58514 
L 411.550998 -216.02216 
L 407.501595 -211.12433 
L 403.452192 -210.972747 
L 399.402789 -211.328638 
L 395.353386 -210.234002 
L 391.303983 -206.803175 
L 387.25458 -205.994757 
L 383.205176 -207.547868 
L 379.155773 -210.843953 
L 375.10637 -201.966737 
L 371.056967 -199.994746 
L 367.007564 -196.946797 
L 362.958161 -193.753875 
L 358.908758 -194.097735 
L 354.859355 -187.188431 
L 350.809952 -186.796001 
L 346.760548 -183.448074 
L 342.711145 -182.052334 
L 338.661742 -180.767412 
L 334.612339 -177.01016 
L 330.562936 -174.16932 
L 326.513533 -170.251939 
L 322.46413 -165.923695 
L 318.414727 -166.028181 
L 314.365323 -162.95127 
L 310.31592 -159.272538 
L 306.266517 -156.144109 
L 302.217114 -153.394459 
L 298.167711 -148.299556 
L 294.118308 -145.431815 
L 290.068905 -139.493576 
L 286.019502 -134.722967 
L 281.970098 -129.649308 
L 277.920695 -128.828479 
L 273.871292 -121.150111 
L 269.821889 -120.473164 
L 265.772486 -116.378151 
L 261.723083 -109.849162 
L 257.67368 -107.170479 
L 253.624277 -102.203217 
L 249.574873 -98.387666 
L 245.52547 -93.915463 
L 241.476067 -91.21353 
L 237.426664 -87.381053 
L 233.377261 -81.19757 
L 229.327858 -79.047535 
L 225.278455 -74.715418 
L 221.229052 -74.041932 
L 217.179648 -71.568045 
L 213.130245 -68.278142 
L 209.080842 -64.937989 
L 205.031439 -65.286172 
L 200.982036 -64.530798 
L 196.932633 -64.453407 
L 192.88323 -60.320425 
L 188.833827 -61.85681 
L 184.784423 -60.373279 
L 180.73502 -61.482664 
L 176.685617 -61.297844 
L 172.636214 -62.202954 
L 168.586811 -60.644457 
L 164.537408 -62.9386 
L 160.488005 -64.070297 
L 156.438602 -64.130436 
L 152.389199 -65.666298 
L 148.339795 -64.480815 
L 144.290392 -67.076481 
L 140.240989 -67.896636 
L 136.191586 -74.277302 
L 132.142183 -72.094462 
L 128.09278 -77.90622 
L 124.043377 -76.868725 
L 119.993974 -79.632333 
L 115.94457 -83.565823 
L 111.895167 -82.834823 
L 107.845764 -88.231075 
L 103.796361 -89.19786 
L 99.746958 -95.451664 
L 95.697555 -97.229067 
L 91.648152 -102.74234 
L 87.598749 -106.524617 
L 83.549345 -111.140916 
L 79.499942 -116.781187 
L 75.450539 -120.128459 
L 71.401136 -125.673706 
L 67.351733 -133.159923 
z
"/>
    </defs>
    <g clip-path="url(#p49daac203a)">
     <use xlink:href="#ma09cce3440" x="0" y="243.299688" style="fill: #e41a1c; fill-opacity: 0.25"/>
    </g>
   </g>
   <g id="PolyCollection_2">
    <defs>
     <path id="m9866a630a8" d="M 67.351733 -111.554919 
L 67.351733 -111.554919 
L 71.401136 -96.777362 
L 75.450539 -85.997137 
L 79.499942 -86.203288 
L 83.549345 -71.993905 
L 87.598749 -67.393203 
L 91.648152 -67.644607 
L 95.697555 -65.024972 
L 99.746958 -60.459466 
L 103.796361 -63.375759 
L 107.845764 -56.944831 
L 111.895167 -59.463904 
L 115.94457 -54.78778 
L 119.993974 -56.054859 
L 124.043377 -54.018483 
L 128.09278 -50.679831 
L 132.142183 -56.276095 
L 136.191586 -54.536376 
L 140.240989 -54.65705 
L 144.290392 -54.239719 
L 148.339795 -50.292668 
L 152.389199 -51.127331 
L 156.438602 -49.352415 
L 160.488005 -52.942471 
L 164.537408 -52.489943 
L 168.586811 -52.308932 
L 172.636214 -49.880364 
L 176.685617 -50.78542 
L 180.73502 -51.765898 
L 184.784423 -52.203342 
L 188.833827 -51.967022 
L 192.88323 -53.746966 
L 196.932633 -53.324606 
L 200.982036 -52.570393 
L 205.031439 -54.943651 
L 209.080842 -54.204522 
L 213.130245 -54.822977 
L 217.179648 -54.968792 
L 221.229052 -54.78778 
L 225.278455 -53.083258 
L 229.327858 -55.712949 
L 233.377261 -58.694606 
L 237.426664 -58.433146 
L 241.476067 -57.880056 
L 245.52547 -58.855505 
L 249.574873 -58.604101 
L 253.624277 -60.258343 
L 257.67368 -61.8975 
L 261.723083 -61.168427 
L 265.772486 -64.577472 
L 269.821889 -62.566236 
L 273.871292 -66.206573 
L 277.920695 -67.176995 
L 281.970098 -65.487556 
L 286.019502 -67.694888 
L 290.068905 -71.526293 
L 294.118308 -68.504411 
L 298.167711 -66.337304 
L 302.217114 -69.334045 
L 306.266517 -72.677726 
L 310.31592 -71.541377 
L 314.365323 -74.704046 
L 318.414727 -75.16663 
L 322.46413 -71.988877 
L 326.513533 -74.608512 
L 330.562936 -76.14208 
L 334.612339 -74.50795 
L 338.661742 -73.633063 
L 342.711145 -76.081743 
L 346.760548 -78.409748 
L 350.809952 -78.087951 
L 354.859355 -81.044468 
L 358.908758 -79.561181 
L 362.958161 -82.236125 
L 367.007564 -80.466237 
L 371.056967 -85.207726 
L 375.10637 -86.062502 
L 379.155773 -86.75135 
L 383.205176 -90.105086 
L 387.25458 -84.895985 
L 391.303983 -86.499946 
L 395.353386 -88.209496 
L 399.402789 -91.155957 
L 403.452192 -90.492249 
L 407.501595 -91.492839 
L 411.550998 -89.029075 
L 415.600401 -90.205648 
L 419.649805 -89.501716 
L 423.699208 -97.928795 
L 427.748611 -93.016351 
L 431.798014 -97.798065 
L 435.847417 -96.767306 
L 439.89682 -99.050059 
L 443.946223 -98.320986 
L 447.995626 -96.390199 
L 452.04503 -100.503177 
L 456.094433 -101.906014 
L 460.143836 -99.512643 
L 464.193239 -100.20652 
L 468.242642 -105.70725 
L 468.242642 -105.70725 
L 468.242642 -105.70725 
L 464.193239 -100.20652 
L 460.143836 -99.512643 
L 456.094433 -101.906014 
L 452.04503 -100.503177 
L 447.995626 -96.390199 
L 443.946223 -98.320986 
L 439.89682 -99.050059 
L 435.847417 -96.767306 
L 431.798014 -97.798065 
L 427.748611 -93.016351 
L 423.699208 -97.928795 
L 419.649805 -89.501716 
L 415.600401 -90.205648 
L 411.550998 -89.029075 
L 407.501595 -91.492839 
L 403.452192 -90.492249 
L 399.402789 -91.155957 
L 395.353386 -88.209496 
L 391.303983 -86.499946 
L 387.25458 -84.895985 
L 383.205176 -90.105086 
L 379.155773 -86.75135 
L 375.10637 -86.062502 
L 371.056967 -85.207726 
L 367.007564 -80.466237 
L 362.958161 -82.236125 
L 358.908758 -79.561181 
L 354.859355 -81.044468 
L 350.809952 -78.087951 
L 346.760548 -78.409748 
L 342.711145 -76.081743 
L 338.661742 -73.633063 
L 334.612339 -74.50795 
L 330.562936 -76.14208 
L 326.513533 -74.608512 
L 322.46413 -71.988877 
L 318.414727 -75.16663 
L 314.365323 -74.704046 
L 310.31592 -71.541377 
L 306.266517 -72.677726 
L 302.217114 -69.334045 
L 298.167711 -66.337304 
L 294.118308 -68.504411 
L 290.068905 -71.526293 
L 286.019502 -67.694888 
L 281.970098 -65.487556 
L 277.920695 -67.176995 
L 273.871292 -66.206573 
L 269.821889 -62.566236 
L 265.772486 -64.577472 
L 261.723083 -61.168427 
L 257.67368 -61.8975 
L 253.624277 -60.258343 
L 249.574873 -58.604101 
L 245.52547 -58.855505 
L 241.476067 -57.880056 
L 237.426664 -58.433146 
L 233.377261 -58.694606 
L 229.327858 -55.712949 
L 225.278455 -53.083258 
L 221.229052 -54.78778 
L 217.179648 -54.968792 
L 213.130245 -54.822977 
L 209.080842 -54.204522 
L 205.031439 -54.943651 
L 200.982036 -52.570393 
L 196.932633 -53.324606 
L 192.88323 -53.746966 
L 188.833827 -51.967022 
L 184.784423 -52.203342 
L 180.73502 -51.765898 
L 176.685617 -50.78542 
L 172.636214 -49.880364 
L 168.586811 -52.308932 
L 164.537408 -52.489943 
L 160.488005 -52.942471 
L 156.438602 -49.352415 
L 152.389199 -51.127331 
L 148.339795 -50.292668 
L 144.290392 -54.239719 
L 140.240989 -54.65705 
L 136.191586 -54.536376 
L 132.142183 -56.276095 
L 128.09278 -50.679831 
L 124.043377 -54.018483 
L 119.993974 -56.054859 
L 115.94457 -54.78778 
L 111.895167 -59.463904 
L 107.845764 -56.944831 
L 103.796361 -63.375759 
L 99.746958 -60.459466 
L 95.697555 -65.024972 
L 91.648152 -67.644607 
L 87.598749 -67.393203 
L 83.549345 -71.993905 
L 79.499942 -86.203288 
L 75.450539 -85.997137 
L 71.401136 -96.777362 
L 67.351733 -111.554919 
z
"/>
    </defs>
    <g clip-path="url(#p49daac203a)">
     <use xlink:href="#m9866a630a8" x="0" y="243.299688" style="fill: #228b22; fill-opacity: 0.25"/>
    </g>
   </g>
   <g id="matplotlib.axis_1">
    <g id="xtick_1">
     <g id="line2d_1">
      <path d="M 63.30233 202.84 
L 63.30233 7.2 
" clip-path="url(#p49daac203a)" style="fill: none; stroke: #b0b0b0; stroke-opacity: 0.25; stroke-width: 0.8; stroke-linecap: square"/>
     </g>
     <g id="line2d_2">
      <defs>
       <path id="m1fb2c85448" d="M 0 0 
L 0 3.5 
" style="stroke: #000000; stroke-width: 0.8"/>
      </defs>
      <g>
       <use xlink:href="#m1fb2c85448" x="63.30233" y="202.84" style="stroke: #000000; stroke-width: 0.8"/>
      </g>
     </g>
     <g id="text_1">
      <!-- 0 -->
      <g transform="translate(59.802955 218.198281) scale(0.11 -0.11)">
       <defs>
        <path id="DejaVuSans-30" d="M 2034 4250 
Q 1547 4250 1301 3770 
Q 1056 3291 1056 2328 
Q 1056 1369 1301 889 
Q 1547 409 2034 409 
Q 2525 409 2770 889 
Q 3016 1369 3016 2328 
Q 3016 3291 2770 3770 
Q 2525 4250 2034 4250 
z
M 2034 4750 
Q 2819 4750 3233 4129 
Q 3647 3509 3647 2328 
Q 3647 1150 3233 529 
Q 2819 -91 2034 -91 
Q 1250 -91 836 529 
Q 422 1150 422 2328 
Q 422 3509 836 4129 
Q 1250 4750 2034 4750 
z
" transform="scale(0.015625)"/>
       </defs>
       <use xlink:href="#DejaVuSans-30"/>
      </g>
     </g>
    </g>
    <g id="xtick_2">
     <g id="line2d_3">
      <path d="M 144.290392 202.84 
L 144.290392 7.2 
" clip-path="url(#p49daac203a)" style="fill: none; stroke: #b0b0b0; stroke-opacity: 0.25; stroke-width: 0.8; stroke-linecap: square"/>
     </g>
     <g id="line2d_4">
      <g>
       <use xlink:href="#m1fb2c85448" x="144.290392" y="202.84" style="stroke: #000000; stroke-width: 0.8"/>
      </g>
     </g>
     <g id="text_2">
      <!-- 20 -->
      <g transform="translate(137.291642 218.198281) scale(0.11 -0.11)">
       <defs>
        <path id="DejaVuSans-32" d="M 1228 531 
L 3431 531 
L 3431 0 
L 469 0 
L 469 531 
Q 828 903 1448 1529 
Q 2069 2156 2228 2338 
Q 2531 2678 2651 2914 
Q 2772 3150 2772 3378 
Q 2772 3750 2511 3984 
Q 2250 4219 1831 4219 
Q 1534 4219 1204 4116 
Q 875 4013 500 3803 
L 500 4441 
Q 881 4594 1212 4672 
Q 1544 4750 1819 4750 
Q 2544 4750 2975 4387 
Q 3406 4025 3406 3419 
Q 3406 3131 3298 2873 
Q 3191 2616 2906 2266 
Q 2828 2175 2409 1742 
Q 1991 1309 1228 531 
z
" transform="scale(0.015625)"/>
       </defs>
       <use xlink:href="#DejaVuSans-32"/>
       <use xlink:href="#DejaVuSans-30" x="63.623047"/>
      </g>
     </g>
    </g>
    <g id="xtick_3">
     <g id="line2d_5">
      <path d="M 225.278455 202.84 
L 225.278455 7.2 
" clip-path="url(#p49daac203a)" style="fill: none; stroke: #b0b0b0; stroke-opacity: 0.25; stroke-width: 0.8; stroke-linecap: square"/>
     </g>
     <g id="line2d_6">
      <g>
       <use xlink:href="#m1fb2c85448" x="225.278455" y="202.84" style="stroke: #000000; stroke-width: 0.8"/>
      </g>
     </g>
     <g id="text_3">
      <!-- 40 -->
      <g transform="translate(218.279705 218.198281) scale(0.11 -0.11)">
       <defs>
        <path id="DejaVuSans-34" d="M 2419 4116 
L 825 1625 
L 2419 1625 
L 2419 4116 
z
M 2253 4666 
L 3047 4666 
L 3047 1625 
L 3713 1625 
L 3713 1100 
L 3047 1100 
L 3047 0 
L 2419 0 
L 2419 1100 
L 313 1100 
L 313 1709 
L 2253 4666 
z
" transform="scale(0.015625)"/>
       </defs>
       <use xlink:href="#DejaVuSans-34"/>
       <use xlink:href="#DejaVuSans-30" x="63.623047"/>
      </g>
     </g>
    </g>
    <g id="xtick_4">
     <g id="line2d_7">
      <path d="M 306.266517 202.84 
L 306.266517 7.2 
" clip-path="url(#p49daac203a)" style="fill: none; stroke: #b0b0b0; stroke-opacity: 0.25; stroke-width: 0.8; stroke-linecap: square"/>
     </g>
     <g id="line2d_8">
      <g>
       <use xlink:href="#m1fb2c85448" x="306.266517" y="202.84" style="stroke: #000000; stroke-width: 0.8"/>
      </g>
     </g>
     <g id="text_4">
      <!-- 60 -->
      <g transform="translate(299.267767 218.198281) scale(0.11 -0.11)">
       <defs>
        <path id="DejaVuSans-36" d="M 2113 2584 
Q 1688 2584 1439 2293 
Q 1191 2003 1191 1497 
Q 1191 994 1439 701 
Q 1688 409 2113 409 
Q 2538 409 2786 701 
Q 3034 994 3034 1497 
Q 3034 2003 2786 2293 
Q 2538 2584 2113 2584 
z
M 3366 4563 
L 3366 3988 
Q 3128 4100 2886 4159 
Q 2644 4219 2406 4219 
Q 1781 4219 1451 3797 
Q 1122 3375 1075 2522 
Q 1259 2794 1537 2939 
Q 1816 3084 2150 3084 
Q 2853 3084 3261 2657 
Q 3669 2231 3669 1497 
Q 3669 778 3244 343 
Q 2819 -91 2113 -91 
Q 1303 -91 875 529 
Q 447 1150 447 2328 
Q 447 3434 972 4092 
Q 1497 4750 2381 4750 
Q 2619 4750 2861 4703 
Q 3103 4656 3366 4563 
z
" transform="scale(0.015625)"/>
       </defs>
       <use xlink:href="#DejaVuSans-36"/>
       <use xlink:href="#DejaVuSans-30" x="63.623047"/>
      </g>
     </g>
    </g>
    <g id="xtick_5">
     <g id="line2d_9">
      <path d="M 387.25458 202.84 
L 387.25458 7.2 
" clip-path="url(#p49daac203a)" style="fill: none; stroke: #b0b0b0; stroke-opacity: 0.25; stroke-width: 0.8; stroke-linecap: square"/>
     </g>
     <g id="line2d_10">
      <g>
       <use xlink:href="#m1fb2c85448" x="387.25458" y="202.84" style="stroke: #000000; stroke-width: 0.8"/>
      </g>
     </g>
     <g id="text_5">
      <!-- 80 -->
      <g transform="translate(380.25583 218.198281) scale(0.11 -0.11)">
       <defs>
        <path id="DejaVuSans-38" d="M 2034 2216 
Q 1584 2216 1326 1975 
Q 1069 1734 1069 1313 
Q 1069 891 1326 650 
Q 1584 409 2034 409 
Q 2484 409 2743 651 
Q 3003 894 3003 1313 
Q 3003 1734 2745 1975 
Q 2488 2216 2034 2216 
z
M 1403 2484 
Q 997 2584 770 2862 
Q 544 3141 544 3541 
Q 544 4100 942 4425 
Q 1341 4750 2034 4750 
Q 2731 4750 3128 4425 
Q 3525 4100 3525 3541 
Q 3525 3141 3298 2862 
Q 3072 2584 2669 2484 
Q 3125 2378 3379 2068 
Q 3634 1759 3634 1313 
Q 3634 634 3220 271 
Q 2806 -91 2034 -91 
Q 1263 -91 848 271 
Q 434 634 434 1313 
Q 434 1759 690 2068 
Q 947 2378 1403 2484 
z
M 1172 3481 
Q 1172 3119 1398 2916 
Q 1625 2713 2034 2713 
Q 2441 2713 2670 2916 
Q 2900 3119 2900 3481 
Q 2900 3844 2670 4047 
Q 2441 4250 2034 4250 
Q 1625 4250 1398 4047 
Q 1172 3844 1172 3481 
z
" transform="scale(0.015625)"/>
       </defs>
       <use xlink:href="#DejaVuSans-38"/>
       <use xlink:href="#DejaVuSans-30" x="63.623047"/>
      </g>
     </g>
    </g>
    <g id="xtick_6">
     <g id="line2d_11">
      <path d="M 468.242642 202.84 
L 468.242642 7.2 
" clip-path="url(#p49daac203a)" style="fill: none; stroke: #b0b0b0; stroke-opacity: 0.25; stroke-width: 0.8; stroke-linecap: square"/>
     </g>
     <g id="line2d_12">
      <g>
       <use xlink:href="#m1fb2c85448" x="468.242642" y="202.84" style="stroke: #000000; stroke-width: 0.8"/>
      </g>
     </g>
     <g id="text_6">
      <!-- 100 -->
      <g transform="translate(457.744517 218.198281) scale(0.11 -0.11)">
       <defs>
        <path id="DejaVuSans-31" d="M 794 531 
L 1825 531 
L 1825 4091 
L 703 3866 
L 703 4441 
L 1819 4666 
L 2450 4666 
L 2450 531 
L 3481 531 
L 3481 0 
L 794 0 
L 794 531 
z
" transform="scale(0.015625)"/>
       </defs>
       <use xlink:href="#DejaVuSans-31"/>
       <use xlink:href="#DejaVuSans-30" x="63.623047"/>
       <use xlink:href="#DejaVuSans-30" x="127.246094"/>
      </g>
     </g>
    </g>
    <g id="text_7">
     <!-- Epoch -->
     <g transform="translate(249.424062 233.604062) scale(0.12 -0.12)">
      <defs>
       <path id="DejaVuSans-45" d="M 628 4666 
L 3578 4666 
L 3578 4134 
L 1259 4134 
L 1259 2753 
L 3481 2753 
L 3481 2222 
L 1259 2222 
L 1259 531 
L 3634 531 
L 3634 0 
L 628 0 
L 628 4666 
z
" transform="scale(0.015625)"/>
       <path id="DejaVuSans-70" d="M 1159 525 
L 1159 -1331 
L 581 -1331 
L 581 3500 
L 1159 3500 
L 1159 2969 
Q 1341 3281 1617 3432 
Q 1894 3584 2278 3584 
Q 2916 3584 3314 3078 
Q 3713 2572 3713 1747 
Q 3713 922 3314 415 
Q 2916 -91 2278 -91 
Q 1894 -91 1617 61 
Q 1341 213 1159 525 
z
M 3116 1747 
Q 3116 2381 2855 2742 
Q 2594 3103 2138 3103 
Q 1681 3103 1420 2742 
Q 1159 2381 1159 1747 
Q 1159 1113 1420 752 
Q 1681 391 2138 391 
Q 2594 391 2855 752 
Q 3116 1113 3116 1747 
z
" transform="scale(0.015625)"/>
       <path id="DejaVuSans-6f" d="M 1959 3097 
Q 1497 3097 1228 2736 
Q 959 2375 959 1747 
Q 959 1119 1226 758 
Q 1494 397 1959 397 
Q 2419 397 2687 759 
Q 2956 1122 2956 1747 
Q 2956 2369 2687 2733 
Q 2419 3097 1959 3097 
z
M 1959 3584 
Q 2709 3584 3137 3096 
Q 3566 2609 3566 1747 
Q 3566 888 3137 398 
Q 2709 -91 1959 -91 
Q 1206 -91 779 398 
Q 353 888 353 1747 
Q 353 2609 779 3096 
Q 1206 3584 1959 3584 
z
" transform="scale(0.015625)"/>
       <path id="DejaVuSans-63" d="M 3122 3366 
L 3122 2828 
Q 2878 2963 2633 3030 
Q 2388 3097 2138 3097 
Q 1578 3097 1268 2742 
Q 959 2388 959 1747 
Q 959 1106 1268 751 
Q 1578 397 2138 397 
Q 2388 397 2633 464 
Q 2878 531 3122 666 
L 3122 134 
Q 2881 22 2623 -34 
Q 2366 -91 2075 -91 
Q 1284 -91 818 406 
Q 353 903 353 1747 
Q 353 2603 823 3093 
Q 1294 3584 2113 3584 
Q 2378 3584 2631 3529 
Q 2884 3475 3122 3366 
z
" transform="scale(0.015625)"/>
       <path id="DejaVuSans-68" d="M 3513 2113 
L 3513 0 
L 2938 0 
L 2938 2094 
Q 2938 2591 2744 2837 
Q 2550 3084 2163 3084 
Q 1697 3084 1428 2787 
Q 1159 2491 1159 1978 
L 1159 0 
L 581 0 
L 581 4863 
L 1159 4863 
L 1159 2956 
Q 1366 3272 1645 3428 
Q 1925 3584 2291 3584 
Q 2894 3584 3203 3211 
Q 3513 2838 3513 2113 
z
" transform="scale(0.015625)"/>
      </defs>
      <use xlink:href="#DejaVuSans-45"/>
      <use xlink:href="#DejaVuSans-70" x="63.183594"/>
      <use xlink:href="#DejaVuSans-6f" x="126.660156"/>
      <use xlink:href="#DejaVuSans-63" x="187.841797"/>
      <use xlink:href="#DejaVuSans-68" x="242.822266"/>
     </g>
    </g>
   </g>
   <g id="matplotlib.axis_2">
    <g id="ytick_1">
     <g id="line2d_13">
      <path d="M 47.307187 194.761823 
L 488.287187 194.761823 
" clip-path="url(#p49daac203a)" style="fill: none; stroke: #b0b0b0; stroke-opacity: 0.25; stroke-width: 0.8; stroke-linecap: square"/>
     </g>
     <g id="line2d_14">
      <defs>
       <path id="m85d0b5ddcd" d="M 0 0 
L -3.5 0 
" style="stroke: #000000; stroke-width: 0.8"/>
      </defs>
      <g>
       <use xlink:href="#m85d0b5ddcd" x="47.307187" y="194.761823" style="stroke: #000000; stroke-width: 0.8"/>
      </g>
     </g>
     <g id="text_8">
      <!-- 2.5 -->
      <g transform="translate(22.81375 198.940964) scale(0.11 -0.11)">
       <defs>
        <path id="DejaVuSans-2e" d="M 684 794 
L 1344 794 
L 1344 0 
L 684 0 
L 684 794 
z
" transform="scale(0.015625)"/>
        <path id="DejaVuSans-35" d="M 691 4666 
L 3169 4666 
L 3169 4134 
L 1269 4134 
L 1269 2991 
Q 1406 3038 1543 3061 
Q 1681 3084 1819 3084 
Q 2600 3084 3056 2656 
Q 3513 2228 3513 1497 
Q 3513 744 3044 326 
Q 2575 -91 1722 -91 
Q 1428 -91 1123 -41 
Q 819 9 494 109 
L 494 744 
Q 775 591 1075 516 
Q 1375 441 1709 441 
Q 2250 441 2565 725 
Q 2881 1009 2881 1497 
Q 2881 1984 2565 2268 
Q 2250 2553 1709 2553 
Q 1456 2553 1204 2497 
Q 953 2441 691 2322 
L 691 4666 
z
" transform="scale(0.015625)"/>
       </defs>
       <use xlink:href="#DejaVuSans-32"/>
       <use xlink:href="#DejaVuSans-2e" x="63.623047"/>
       <use xlink:href="#DejaVuSans-35" x="95.410156"/>
      </g>
     </g>
    </g>
    <g id="ytick_2">
     <g id="line2d_15">
      <path d="M 47.307187 169.621372 
L 488.287187 169.621372 
" clip-path="url(#p49daac203a)" style="fill: none; stroke: #b0b0b0; stroke-opacity: 0.25; stroke-width: 0.8; stroke-linecap: square"/>
     </g>
     <g id="line2d_16">
      <g>
       <use xlink:href="#m85d0b5ddcd" x="47.307187" y="169.621372" style="stroke: #000000; stroke-width: 0.8"/>
      </g>
     </g>
     <g id="text_9">
      <!-- 3.0 -->
      <g transform="translate(22.81375 173.800513) scale(0.11 -0.11)">
       <defs>
        <path id="DejaVuSans-33" d="M 2597 2516 
Q 3050 2419 3304 2112 
Q 3559 1806 3559 1356 
Q 3559 666 3084 287 
Q 2609 -91 1734 -91 
Q 1441 -91 1130 -33 
Q 819 25 488 141 
L 488 750 
Q 750 597 1062 519 
Q 1375 441 1716 441 
Q 2309 441 2620 675 
Q 2931 909 2931 1356 
Q 2931 1769 2642 2001 
Q 2353 2234 1838 2234 
L 1294 2234 
L 1294 2753 
L 1863 2753 
Q 2328 2753 2575 2939 
Q 2822 3125 2822 3475 
Q 2822 3834 2567 4026 
Q 2313 4219 1838 4219 
Q 1578 4219 1281 4162 
Q 984 4106 628 3988 
L 628 4550 
Q 988 4650 1302 4700 
Q 1616 4750 1894 4750 
Q 2613 4750 3031 4423 
Q 3450 4097 3450 3541 
Q 3450 3153 3228 2886 
Q 3006 2619 2597 2516 
z
" transform="scale(0.015625)"/>
       </defs>
       <use xlink:href="#DejaVuSans-33"/>
       <use xlink:href="#DejaVuSans-2e" x="63.623047"/>
       <use xlink:href="#DejaVuSans-30" x="95.410156"/>
      </g>
     </g>
    </g>
    <g id="ytick_3">
     <g id="line2d_17">
      <path d="M 47.307187 144.480921 
L 488.287187 144.480921 
" clip-path="url(#p49daac203a)" style="fill: none; stroke: #b0b0b0; stroke-opacity: 0.25; stroke-width: 0.8; stroke-linecap: square"/>
     </g>
     <g id="line2d_18">
      <g>
       <use xlink:href="#m85d0b5ddcd" x="47.307187" y="144.480921" style="stroke: #000000; stroke-width: 0.8"/>
      </g>
     </g>
     <g id="text_10">
      <!-- 3.5 -->
      <g transform="translate(22.81375 148.660061) scale(0.11 -0.11)">
       <use xlink:href="#DejaVuSans-33"/>
       <use xlink:href="#DejaVuSans-2e" x="63.623047"/>
       <use xlink:href="#DejaVuSans-35" x="95.410156"/>
      </g>
     </g>
    </g>
    <g id="ytick_4">
     <g id="line2d_19">
      <path d="M 47.307187 119.340469 
L 488.287187 119.340469 
" clip-path="url(#p49daac203a)" style="fill: none; stroke: #b0b0b0; stroke-opacity: 0.25; stroke-width: 0.8; stroke-linecap: square"/>
     </g>
     <g id="line2d_20">
      <g>
       <use xlink:href="#m85d0b5ddcd" x="47.307187" y="119.340469" style="stroke: #000000; stroke-width: 0.8"/>
      </g>
     </g>
     <g id="text_11">
      <!-- 4.0 -->
      <g transform="translate(22.81375 123.51961) scale(0.11 -0.11)">
       <use xlink:href="#DejaVuSans-34"/>
       <use xlink:href="#DejaVuSans-2e" x="63.623047"/>
       <use xlink:href="#DejaVuSans-30" x="95.410156"/>
      </g>
     </g>
    </g>
    <g id="ytick_5">
     <g id="line2d_21">
      <path d="M 47.307187 94.200018 
L 488.287187 94.200018 
" clip-path="url(#p49daac203a)" style="fill: none; stroke: #b0b0b0; stroke-opacity: 0.25; stroke-width: 0.8; stroke-linecap: square"/>
     </g>
     <g id="line2d_22">
      <g>
       <use xlink:href="#m85d0b5ddcd" x="47.307187" y="94.200018" style="stroke: #000000; stroke-width: 0.8"/>
      </g>
     </g>
     <g id="text_12">
      <!-- 4.5 -->
      <g transform="translate(22.81375 98.379159) scale(0.11 -0.11)">
       <use xlink:href="#DejaVuSans-34"/>
       <use xlink:href="#DejaVuSans-2e" x="63.623047"/>
       <use xlink:href="#DejaVuSans-35" x="95.410156"/>
      </g>
     </g>
    </g>
    <g id="ytick_6">
     <g id="line2d_23">
      <path d="M 47.307187 69.059567 
L 488.287187 69.059567 
" clip-path="url(#p49daac203a)" style="fill: none; stroke: #b0b0b0; stroke-opacity: 0.25; stroke-width: 0.8; stroke-linecap: square"/>
     </g>
     <g id="line2d_24">
      <g>
       <use xlink:href="#m85d0b5ddcd" x="47.307187" y="69.059567" style="stroke: #000000; stroke-width: 0.8"/>
      </g>
     </g>
     <g id="text_13">
      <!-- 5.0 -->
      <g transform="translate(22.81375 73.238707) scale(0.11 -0.11)">
       <use xlink:href="#DejaVuSans-35"/>
       <use xlink:href="#DejaVuSans-2e" x="63.623047"/>
       <use xlink:href="#DejaVuSans-30" x="95.410156"/>
      </g>
     </g>
    </g>
    <g id="ytick_7">
     <g id="line2d_25">
      <path d="M 47.307187 43.919115 
L 488.287187 43.919115 
" clip-path="url(#p49daac203a)" style="fill: none; stroke: #b0b0b0; stroke-opacity: 0.25; stroke-width: 0.8; stroke-linecap: square"/>
     </g>
     <g id="line2d_26">
      <g>
       <use xlink:href="#m85d0b5ddcd" x="47.307187" y="43.919115" style="stroke: #000000; stroke-width: 0.8"/>
      </g>
     </g>
     <g id="text_14">
      <!-- 5.5 -->
      <g transform="translate(22.81375 48.098256) scale(0.11 -0.11)">
       <use xlink:href="#DejaVuSans-35"/>
       <use xlink:href="#DejaVuSans-2e" x="63.623047"/>
       <use xlink:href="#DejaVuSans-35" x="95.410156"/>
      </g>
     </g>
    </g>
    <g id="ytick_8">
     <g id="line2d_27">
      <path d="M 47.307187 18.778664 
L 488.287187 18.778664 
" clip-path="url(#p49daac203a)" style="fill: none; stroke: #b0b0b0; stroke-opacity: 0.25; stroke-width: 0.8; stroke-linecap: square"/>
     </g>
     <g id="line2d_28">
      <g>
       <use xlink:href="#m85d0b5ddcd" x="47.307187" y="18.778664" style="stroke: #000000; stroke-width: 0.8"/>
      </g>
     </g>
     <g id="text_15">
      <!-- 6.0 -->
      <g transform="translate(22.81375 22.957805) scale(0.11 -0.11)">
       <use xlink:href="#DejaVuSans-36"/>
       <use xlink:href="#DejaVuSans-2e" x="63.623047"/>
       <use xlink:href="#DejaVuSans-30" x="95.410156"/>
      </g>
     </g>
    </g>
    <g id="text_16">
     <!-- Test Loss -->
     <g transform="translate(16.318125 131.901875) rotate(-90) scale(0.12 -0.12)">
      <defs>
       <path id="DejaVuSans-54" d="M -19 4666 
L 3928 4666 
L 3928 4134 
L 2272 4134 
L 2272 0 
L 1638 0 
L 1638 4134 
L -19 4134 
L -19 4666 
z
" transform="scale(0.015625)"/>
       <path id="DejaVuSans-65" d="M 3597 1894 
L 3597 1613 
L 953 1613 
Q 991 1019 1311 708 
Q 1631 397 2203 397 
Q 2534 397 2845 478 
Q 3156 559 3463 722 
L 3463 178 
Q 3153 47 2828 -22 
Q 2503 -91 2169 -91 
Q 1331 -91 842 396 
Q 353 884 353 1716 
Q 353 2575 817 3079 
Q 1281 3584 2069 3584 
Q 2775 3584 3186 3129 
Q 3597 2675 3597 1894 
z
M 3022 2063 
Q 3016 2534 2758 2815 
Q 2500 3097 2075 3097 
Q 1594 3097 1305 2825 
Q 1016 2553 972 2059 
L 3022 2063 
z
" transform="scale(0.015625)"/>
       <path id="DejaVuSans-73" d="M 2834 3397 
L 2834 2853 
Q 2591 2978 2328 3040 
Q 2066 3103 1784 3103 
Q 1356 3103 1142 2972 
Q 928 2841 928 2578 
Q 928 2378 1081 2264 
Q 1234 2150 1697 2047 
L 1894 2003 
Q 2506 1872 2764 1633 
Q 3022 1394 3022 966 
Q 3022 478 2636 193 
Q 2250 -91 1575 -91 
Q 1294 -91 989 -36 
Q 684 19 347 128 
L 347 722 
Q 666 556 975 473 
Q 1284 391 1588 391 
Q 1994 391 2212 530 
Q 2431 669 2431 922 
Q 2431 1156 2273 1281 
Q 2116 1406 1581 1522 
L 1381 1569 
Q 847 1681 609 1914 
Q 372 2147 372 2553 
Q 372 3047 722 3315 
Q 1072 3584 1716 3584 
Q 2034 3584 2315 3537 
Q 2597 3491 2834 3397 
z
" transform="scale(0.015625)"/>
       <path id="DejaVuSans-74" d="M 1172 4494 
L 1172 3500 
L 2356 3500 
L 2356 3053 
L 1172 3053 
L 1172 1153 
Q 1172 725 1289 603 
Q 1406 481 1766 481 
L 2356 481 
L 2356 0 
L 1766 0 
Q 1100 0 847 248 
Q 594 497 594 1153 
L 594 3053 
L 172 3053 
L 172 3500 
L 594 3500 
L 594 4494 
L 1172 4494 
z
" transform="scale(0.015625)"/>
       <path id="DejaVuSans-20" transform="scale(0.015625)"/>
       <path id="DejaVuSans-4c" d="M 628 4666 
L 1259 4666 
L 1259 531 
L 3531 531 
L 3531 0 
L 628 0 
L 628 4666 
z
" transform="scale(0.015625)"/>
      </defs>
      <use xlink:href="#DejaVuSans-54"/>
      <use xlink:href="#DejaVuSans-65" x="44.083984"/>
      <use xlink:href="#DejaVuSans-73" x="105.607422"/>
      <use xlink:href="#DejaVuSans-74" x="157.707031"/>
      <use xlink:href="#DejaVuSans-20" x="196.916016"/>
      <use xlink:href="#DejaVuSans-4c" x="228.703125"/>
      <use xlink:href="#DejaVuSans-6f" x="282.666016"/>
      <use xlink:href="#DejaVuSans-73" x="343.847656"/>
      <use xlink:href="#DejaVuSans-73" x="395.947266"/>
     </g>
    </g>
   </g>
   <g id="line2d_29">
    <path d="M 67.351733 112.188514 
L 71.401136 119.270076 
L 75.450539 124.344425 
L 79.499942 128.646459 
L 83.549345 134.173336 
L 87.598749 138.525651 
L 91.648152 141.945758 
L 95.697555 148.212769 
L 99.746958 149.382303 
L 103.796361 155.840382 
L 107.845764 158.269955 
L 111.895167 161.649838 
L 115.94457 163.550456 
L 119.993974 165.985057 
L 124.043377 168.313063 
L 128.09278 169.697799 
L 132.142183 173.198355 
L 136.191586 172.388833 
L 140.240989 177.073002 
L 144.290392 177.464187 
L 148.339795 179.614199 
L 152.389199 179.801244 
L 156.438602 181.253356 
L 160.488005 182.330373 
L 164.537408 182.127238 
L 168.586811 184.384851 
L 172.636214 183.181126 
L 176.685617 184.328536 
L 180.73502 183.056429 
L 184.784423 185.781654 
L 188.833827 183.73321 
L 192.88323 184.330547 
L 196.932633 181.963322 
L 200.982036 181.584204 
L 205.031439 179.946053 
L 209.080842 179.262232 
L 213.130245 177.632125 
L 217.179648 174.496608 
L 221.229052 170.935715 
L 225.278455 170.849232 
L 229.327858 166.999726 
L 233.377261 164.314726 
L 237.426664 159.876933 
L 241.476067 155.360702 
L 245.52547 153.017612 
L 249.574873 149.248556 
L 253.624277 145.247202 
L 257.67368 140.872763 
L 261.723083 136.964931 
L 265.772486 132.344116 
L 269.821889 127.179262 
L 273.871292 125.654745 
L 277.920695 119.037778 
L 281.970098 116.720834 
L 286.019502 112.196559 
L 290.068905 107.613957 
L 294.118308 101.396221 
L 298.167711 97.83231 
L 302.217114 94.592209 
L 306.266517 91.701057 
L 310.31592 87.308517 
L 314.365323 86.151051 
L 318.414727 81.036478 
L 322.46413 79.371174 
L 326.513533 76.161241 
L 330.562936 73.055893 
L 334.612339 69.502039 
L 338.661742 65.730971 
L 342.711145 65.458448 
L 346.760548 63.687555 
L 350.809952 59.964757 
L 354.859355 58.297442 
L 358.908758 53.424217 
L 362.958161 53.090352 
L 367.007564 51.112301 
L 371.056967 47.517217 
L 375.10637 45.714144 
L 379.155773 39.069019 
L 383.205176 41.099362 
L 387.25458 39.675407 
L 391.303983 41.460379 
L 395.353386 38.67884 
L 399.402789 35.228564 
L 403.452192 35.706233 
L 407.501595 35.554384 
L 411.550998 33.46471 
L 415.600401 32.109137 
L 419.649805 32.856311 
L 423.699208 29.848507 
L 427.748611 30.914463 
L 431.798014 25.864249 
L 435.847417 27.233901 
L 439.89682 27.954929 
L 443.946223 21.439529 
L 447.995626 26.747181 
L 452.04503 21.621546 
L 456.094433 24.490575 
L 460.143836 20.85426 
L 464.193239 21.618529 
L 468.242642 21.949378 
" clip-path="url(#p49daac203a)" style="fill: none; stroke-dasharray: 7.4,3.2; stroke-dashoffset: 0; stroke: #e41a1c; stroke-width: 2"/>
   </g>
   <g id="line2d_30">
    <path d="M 67.351733 131.744768 
L 71.401136 146.522325 
L 75.450539 157.302551 
L 79.499942 157.096399 
L 83.549345 171.305782 
L 87.598749 175.906485 
L 91.648152 175.65508 
L 95.697555 178.274715 
L 99.746958 182.840221 
L 103.796361 179.923929 
L 107.845764 186.354856 
L 111.895167 183.835783 
L 115.94457 188.511907 
L 119.993974 187.244828 
L 124.043377 189.281205 
L 128.09278 192.619857 
L 132.142183 187.023592 
L 136.191586 188.763312 
L 140.240989 188.642637 
L 144.290392 189.059969 
L 148.339795 193.00702 
L 152.389199 192.172357 
L 156.438602 193.947273 
L 160.488005 190.357216 
L 164.537408 190.809744 
L 168.586811 190.990756 
L 172.636214 193.419323 
L 176.685617 192.514267 
L 180.73502 191.533789 
L 184.784423 191.096346 
L 188.833827 191.332666 
L 192.88323 189.552722 
L 196.932633 189.975081 
L 200.982036 190.729295 
L 205.031439 188.356036 
L 209.080842 189.095166 
L 213.130245 188.476711 
L 217.179648 188.330896 
L 221.229052 188.511907 
L 225.278455 190.21643 
L 229.327858 187.586739 
L 233.377261 184.605081 
L 237.426664 184.866542 
L 241.476067 185.419632 
L 245.52547 184.444182 
L 249.574873 184.695587 
L 253.624277 183.041345 
L 257.67368 181.402188 
L 261.723083 182.131261 
L 265.772486 178.722215 
L 269.821889 180.733452 
L 273.871292 177.093114 
L 277.920695 176.122693 
L 281.970098 177.812131 
L 286.019502 175.604799 
L 290.068905 171.773395 
L 294.118308 174.795277 
L 298.167711 176.962384 
L 302.217114 173.965642 
L 306.266517 170.621962 
L 310.31592 171.75831 
L 314.365323 168.595642 
L 318.414727 168.133057 
L 322.46413 171.31081 
L 326.513533 168.691175 
L 330.562936 167.157608 
L 334.612339 168.791737 
L 338.661742 169.666625 
L 342.711145 167.217945 
L 346.760548 164.889939 
L 350.809952 165.211737 
L 354.859355 162.25522 
L 358.908758 163.738506 
L 362.958161 161.063562 
L 367.007564 162.83345 
L 371.056967 158.091961 
L 375.10637 157.237186 
L 379.155773 156.548337 
L 383.205176 153.194601 
L 387.25458 158.403703 
L 391.303983 156.799742 
L 395.353386 155.090191 
L 399.402789 152.14373 
L 403.452192 152.807438 
L 407.501595 151.806848 
L 411.550998 154.270612 
L 415.600401 153.094039 
L 419.649805 153.797972 
L 423.699208 145.370893 
L 427.748611 150.283337 
L 431.798014 145.501623 
L 435.847417 146.532381 
L 439.89682 144.249629 
L 443.946223 144.978702 
L 447.995626 146.909488 
L 452.04503 142.79651 
L 456.094433 141.393673 
L 460.143836 143.787044 
L 464.193239 143.093168 
L 468.242642 137.592437 
" clip-path="url(#p49daac203a)" style="fill: none; stroke-dasharray: 7.4,3.2; stroke-dashoffset: 0; stroke: #228b22; stroke-width: 2"/>
   </g>
   <g id="patch_3">
    <path d="M 47.307187 202.84 
L 47.307187 7.2 
" style="fill: none; stroke: #000000; stroke-width: 0.8; stroke-linejoin: miter; stroke-linecap: square"/>
   </g>
   <g id="patch_4">
    <path d="M 488.287187 202.84 
L 488.287187 7.2 
" style="fill: none; stroke: #000000; stroke-width: 0.8; stroke-linejoin: miter; stroke-linecap: square"/>
   </g>
   <g id="patch_5">
    <path d="M 47.307187 202.84 
L 488.287188 202.84 
" style="fill: none; stroke: #000000; stroke-width: 0.8; stroke-linejoin: miter; stroke-linecap: square"/>
   </g>
   <g id="patch_6">
    <path d="M 47.307187 7.2 
L 488.287188 7.2 
" style="fill: none; stroke: #000000; stroke-width: 0.8; stroke-linejoin: miter; stroke-linecap: square"/>
   </g>
   <g id="legend_1">
    <g id="patch_7">
     <path d="M 340.66375 197.84 
L 481.287187 197.84 
Q 483.287187 197.84 483.287187 195.84 
L 483.287187 167.48375 
Q 483.287187 165.48375 481.287187 165.48375 
L 340.66375 165.48375 
Q 338.66375 165.48375 338.66375 167.48375 
L 338.66375 195.84 
Q 338.66375 197.84 340.66375 197.84 
z
" style="fill: #ffffff; opacity: 0.8; stroke: #cccccc; stroke-linejoin: miter"/>
    </g>
    <g id="line2d_31">
     <path d="M 342.66375 173.582188 
L 352.66375 173.582188 
L 362.66375 173.582188 
" style="fill: none; stroke-dasharray: 7.4,3.2; stroke-dashoffset: 0; stroke: #e41a1c; stroke-width: 2"/>
    </g>
    <g id="text_17">
     <!-- Loss - Baseline -->
     <g transform="translate(370.66375 177.082188) scale(0.1 -0.1)">
      <defs>
       <path id="DejaVuSans-2d" d="M 313 2009 
L 1997 2009 
L 1997 1497 
L 313 1497 
L 313 2009 
z
" transform="scale(0.015625)"/>
       <path id="DejaVuSans-42" d="M 1259 2228 
L 1259 519 
L 2272 519 
Q 2781 519 3026 730 
Q 3272 941 3272 1375 
Q 3272 1813 3026 2020 
Q 2781 2228 2272 2228 
L 1259 2228 
z
M 1259 4147 
L 1259 2741 
L 2194 2741 
Q 2656 2741 2882 2914 
Q 3109 3088 3109 3444 
Q 3109 3797 2882 3972 
Q 2656 4147 2194 4147 
L 1259 4147 
z
M 628 4666 
L 2241 4666 
Q 2963 4666 3353 4366 
Q 3744 4066 3744 3513 
Q 3744 3084 3544 2831 
Q 3344 2578 2956 2516 
Q 3422 2416 3680 2098 
Q 3938 1781 3938 1306 
Q 3938 681 3513 340 
Q 3088 0 2303 0 
L 628 0 
L 628 4666 
z
" transform="scale(0.015625)"/>
       <path id="DejaVuSans-61" d="M 2194 1759 
Q 1497 1759 1228 1600 
Q 959 1441 959 1056 
Q 959 750 1161 570 
Q 1363 391 1709 391 
Q 2188 391 2477 730 
Q 2766 1069 2766 1631 
L 2766 1759 
L 2194 1759 
z
M 3341 1997 
L 3341 0 
L 2766 0 
L 2766 531 
Q 2569 213 2275 61 
Q 1981 -91 1556 -91 
Q 1019 -91 701 211 
Q 384 513 384 1019 
Q 384 1609 779 1909 
Q 1175 2209 1959 2209 
L 2766 2209 
L 2766 2266 
Q 2766 2663 2505 2880 
Q 2244 3097 1772 3097 
Q 1472 3097 1187 3025 
Q 903 2953 641 2809 
L 641 3341 
Q 956 3463 1253 3523 
Q 1550 3584 1831 3584 
Q 2591 3584 2966 3190 
Q 3341 2797 3341 1997 
z
" transform="scale(0.015625)"/>
       <path id="DejaVuSans-6c" d="M 603 4863 
L 1178 4863 
L 1178 0 
L 603 0 
L 603 4863 
z
" transform="scale(0.015625)"/>
       <path id="DejaVuSans-69" d="M 603 3500 
L 1178 3500 
L 1178 0 
L 603 0 
L 603 3500 
z
M 603 4863 
L 1178 4863 
L 1178 4134 
L 603 4134 
L 603 4863 
z
" transform="scale(0.015625)"/>
       <path id="DejaVuSans-6e" d="M 3513 2113 
L 3513 0 
L 2938 0 
L 2938 2094 
Q 2938 2591 2744 2837 
Q 2550 3084 2163 3084 
Q 1697 3084 1428 2787 
Q 1159 2491 1159 1978 
L 1159 0 
L 581 0 
L 581 3500 
L 1159 3500 
L 1159 2956 
Q 1366 3272 1645 3428 
Q 1925 3584 2291 3584 
Q 2894 3584 3203 3211 
Q 3513 2838 3513 2113 
z
" transform="scale(0.015625)"/>
      </defs>
      <use xlink:href="#DejaVuSans-4c"/>
      <use xlink:href="#DejaVuSans-6f" x="53.962891"/>
      <use xlink:href="#DejaVuSans-73" x="115.144531"/>
      <use xlink:href="#DejaVuSans-73" x="167.244141"/>
      <use xlink:href="#DejaVuSans-20" x="219.34375"/>
      <use xlink:href="#DejaVuSans-2d" x="251.130859"/>
      <use xlink:href="#DejaVuSans-20" x="287.214844"/>
      <use xlink:href="#DejaVuSans-42" x="319.001953"/>
      <use xlink:href="#DejaVuSans-61" x="387.605469"/>
      <use xlink:href="#DejaVuSans-73" x="448.884766"/>
      <use xlink:href="#DejaVuSans-65" x="500.984375"/>
      <use xlink:href="#DejaVuSans-6c" x="562.507812"/>
      <use xlink:href="#DejaVuSans-69" x="590.291016"/>
      <use xlink:href="#DejaVuSans-6e" x="618.074219"/>
      <use xlink:href="#DejaVuSans-65" x="681.453125"/>
     </g>
    </g>
    <g id="line2d_32">
     <path d="M 342.66375 188.260312 
L 352.66375 188.260312 
L 362.66375 188.260312 
" style="fill: none; stroke-dasharray: 7.4,3.2; stroke-dashoffset: 0; stroke: #228b22; stroke-width: 2"/>
    </g>
    <g id="text_18">
     <!-- Loss - SSL Pre-trained -->
     <g transform="translate(370.66375 191.760312) scale(0.1 -0.1)">
      <defs>
       <path id="DejaVuSans-53" d="M 3425 4513 
L 3425 3897 
Q 3066 4069 2747 4153 
Q 2428 4238 2131 4238 
Q 1616 4238 1336 4038 
Q 1056 3838 1056 3469 
Q 1056 3159 1242 3001 
Q 1428 2844 1947 2747 
L 2328 2669 
Q 3034 2534 3370 2195 
Q 3706 1856 3706 1288 
Q 3706 609 3251 259 
Q 2797 -91 1919 -91 
Q 1588 -91 1214 -16 
Q 841 59 441 206 
L 441 856 
Q 825 641 1194 531 
Q 1563 422 1919 422 
Q 2459 422 2753 634 
Q 3047 847 3047 1241 
Q 3047 1584 2836 1778 
Q 2625 1972 2144 2069 
L 1759 2144 
Q 1053 2284 737 2584 
Q 422 2884 422 3419 
Q 422 4038 858 4394 
Q 1294 4750 2059 4750 
Q 2388 4750 2728 4690 
Q 3069 4631 3425 4513 
z
" transform="scale(0.015625)"/>
       <path id="DejaVuSans-50" d="M 1259 4147 
L 1259 2394 
L 2053 2394 
Q 2494 2394 2734 2622 
Q 2975 2850 2975 3272 
Q 2975 3691 2734 3919 
Q 2494 4147 2053 4147 
L 1259 4147 
z
M 628 4666 
L 2053 4666 
Q 2838 4666 3239 4311 
Q 3641 3956 3641 3272 
Q 3641 2581 3239 2228 
Q 2838 1875 2053 1875 
L 1259 1875 
L 1259 0 
L 628 0 
L 628 4666 
z
" transform="scale(0.015625)"/>
       <path id="DejaVuSans-72" d="M 2631 2963 
Q 2534 3019 2420 3045 
Q 2306 3072 2169 3072 
Q 1681 3072 1420 2755 
Q 1159 2438 1159 1844 
L 1159 0 
L 581 0 
L 581 3500 
L 1159 3500 
L 1159 2956 
Q 1341 3275 1631 3429 
Q 1922 3584 2338 3584 
Q 2397 3584 2469 3576 
Q 2541 3569 2628 3553 
L 2631 2963 
z
" transform="scale(0.015625)"/>
       <path id="DejaVuSans-64" d="M 2906 2969 
L 2906 4863 
L 3481 4863 
L 3481 0 
L 2906 0 
L 2906 525 
Q 2725 213 2448 61 
Q 2172 -91 1784 -91 
Q 1150 -91 751 415 
Q 353 922 353 1747 
Q 353 2572 751 3078 
Q 1150 3584 1784 3584 
Q 2172 3584 2448 3432 
Q 2725 3281 2906 2969 
z
M 947 1747 
Q 947 1113 1208 752 
Q 1469 391 1925 391 
Q 2381 391 2643 752 
Q 2906 1113 2906 1747 
Q 2906 2381 2643 2742 
Q 2381 3103 1925 3103 
Q 1469 3103 1208 2742 
Q 947 2381 947 1747 
z
" transform="scale(0.015625)"/>
      </defs>
      <use xlink:href="#DejaVuSans-4c"/>
      <use xlink:href="#DejaVuSans-6f" x="53.962891"/>
      <use xlink:href="#DejaVuSans-73" x="115.144531"/>
      <use xlink:href="#DejaVuSans-73" x="167.244141"/>
      <use xlink:href="#DejaVuSans-20" x="219.34375"/>
      <use xlink:href="#DejaVuSans-2d" x="251.130859"/>
      <use xlink:href="#DejaVuSans-20" x="287.214844"/>
      <use xlink:href="#DejaVuSans-53" x="319.001953"/>
      <use xlink:href="#DejaVuSans-53" x="382.478516"/>
      <use xlink:href="#DejaVuSans-4c" x="445.955078"/>
      <use xlink:href="#DejaVuSans-20" x="501.667969"/>
      <use xlink:href="#DejaVuSans-50" x="533.455078"/>
      <use xlink:href="#DejaVuSans-72" x="592.007812"/>
      <use xlink:href="#DejaVuSans-65" x="630.871094"/>
      <use xlink:href="#DejaVuSans-2d" x="692.394531"/>
      <use xlink:href="#DejaVuSans-74" x="728.478516"/>
      <use xlink:href="#DejaVuSans-72" x="767.6875"/>
      <use xlink:href="#DejaVuSans-61" x="808.800781"/>
      <use xlink:href="#DejaVuSans-69" x="870.080078"/>
      <use xlink:href="#DejaVuSans-6e" x="897.863281"/>
      <use xlink:href="#DejaVuSans-65" x="961.242188"/>
      <use xlink:href="#DejaVuSans-64" x="1022.765625"/>
     </g>
    </g>
   </g>
  </g>
 </g>
 <defs>
  <clipPath id="p49daac203a">
   <rect x="47.307187" y="7.2" width="440.98" height="195.64"/>
  </clipPath>
 </defs>
</svg>
