<?xml version="1.0" encoding="utf-8" standalone="no"?>
<!DOCTYPE svg PUBLIC "-//W3C//DTD SVG 1.1//EN"
  "http://www.w3.org/Graphics/SVG/1.1/DTD/svg11.dtd">
<svg xmlns:xlink="http://www.w3.org/1999/xlink" width="494.62348pt" height="243.299688pt" viewBox="0 0 494.62348 243.299688" xmlns="http://www.w3.org/2000/svg" version="1.1">
 <metadata>
  <rdf:RDF xmlns:dc="http://purl.org/dc/elements/1.1/" xmlns:cc="http://creativecommons.org/ns#" xmlns:rdf="http://www.w3.org/1999/02/22-rdf-syntax-ns#">
   <cc:Work>
    <dc:type rdf:resource="http://purl.org/dc/dcmitype/StillImage"/>
    <dc:date>2025-12-09T21:56:07.813666</dc:date>
    <dc:format>image/svg+xml</dc:format>
    <dc:creator>
     <cc:Agent>
      <dc:title>Matplotlib v3.9.0, https://matplotlib.org/</dc:title>
     </cc:Agent>
    </dc:creator>
   </cc:Work>
  </rdf:RDF>
 </metadata>
 <defs>
  <style type="text/css">*{stroke-linejoin: round; stroke-linecap: butt}</style>
 </defs>
 <g id="figure_1">
  <g id="patch_1">
   <path d="M 0 243.299688 
L 494.62348 243.299688 
L 494.62348 0 
L 0 0 
z
" style="fill: #ffffff"/>
  </g>
  <g id="axes_1">
   <g id="patch_2">
    <path d="M 43.81125 202.84 
L 485.417788 202.84 
L 485.417788 7.2 
L 43.81125 7.2 
z
" style="fill: #ffffff"/>
   </g>
   <g id="PolyCollection_1">
    <defs>
     <path id="mbeee6343b7" d="M 56.5499 -55.264209 
L 56.5499 -49.352415 
L 60.796117 -64.572207 
L 65.042334 -75.026854 
L 69.28855 -82.954276 
L 73.534767 -91.65015 
L 77.780984 -100.478412 
L 82.0272 -110.598602 
L 86.273417 -121.204519 
L 90.519634 -123.659506 
L 94.765851 -137.948728 
L 99.012067 -140.453878 
L 103.258284 -150.280822 
L 107.504501 -153.531934 
L 111.750717 -159.424641 
L 115.996934 -167.985152 
L 120.243151 -163.961855 
L 124.489368 -181.467857 
L 128.735584 -173.315744 
L 132.981801 -189.04553 
L 137.228018 -186.737285 
L 141.474234 -196.07864 
L 145.720451 -195.233616 
L 149.966668 -195.496552 
L 154.212885 -200.118484 
L 158.459101 -200.441456 
L 162.705318 -205.289865 
L 166.951535 -200.481518 
L 171.197751 -201.818543 
L 175.443968 -202.040168 
L 179.690185 -205.352768 
L 183.936402 -200.542926 
L 188.182618 -202.830328 
L 192.428835 -195.51684 
L 196.675052 -194.108838 
L 200.921268 -191.264333 
L 205.167485 -193.300387 
L 209.413702 -187.067669 
L 213.659919 -179.893181 
L 217.906135 -177.049387 
L 222.152352 -175.306234 
L 226.398569 -168.440736 
L 230.644786 -167.817859 
L 234.891002 -159.262355 
L 239.137219 -155.599773 
L 243.383436 -154.168121 
L 247.629652 -150.838336 
L 251.875869 -148.162091 
L 256.122086 -142.332005 
L 260.368303 -141.36192 
L 264.614519 -137.974193 
L 268.860736 -134.574777 
L 273.106953 -136.735446 
L 277.353169 -132.019331 
L 281.599386 -130.982365 
L 285.845603 -129.744834 
L 290.09182 -126.758679 
L 294.338036 -123.911051 
L 298.584253 -124.196254 
L 302.83047 -123.671323 
L 307.076686 -121.330406 
L 311.322903 -121.121309 
L 315.56912 -121.878025 
L 319.815337 -119.72252 
L 324.061553 -120.378593 
L 328.30777 -117.655871 
L 332.553987 -118.882156 
L 336.800203 -115.635726 
L 341.04642 -117.226821 
L 345.292637 -117.523105 
L 349.538854 -119.193288 
L 353.78507 -114.294768 
L 358.031287 -115.446029 
L 362.277504 -114.219647 
L 366.52372 -116.769529 
L 370.769937 -113.620516 
L 375.016154 -112.889918 
L 379.262371 -115.171563 
L 383.508587 -109.918666 
L 387.754804 -112.48924 
L 392.001021 -112.908605 
L 396.247237 -112.831846 
L 400.493454 -112.151112 
L 404.739671 -114.097519 
L 408.985888 -109.811379 
L 413.232104 -114.085902 
L 417.478321 -109.998499 
L 421.724538 -112.041765 
L 425.970754 -112.536846 
L 430.216971 -111.206999 
L 434.463188 -110.412504 
L 438.709405 -111.121626 
L 442.955621 -109.623614 
L 447.201838 -110.943238 
L 451.448055 -109.106158 
L 455.694271 -111.448241 
L 459.940488 -108.624116 
L 464.186705 -112.538828 
L 468.432922 -109.91378 
L 472.679138 -111.681219 
L 476.925355 -109.775687 
L 476.925355 -115.756094 
L 476.925355 -115.756094 
L 472.679138 -116.200344 
L 468.432922 -115.653876 
L 464.186705 -115.988478 
L 459.940488 -114.414384 
L 455.694271 -116.774131 
L 451.448055 -113.824718 
L 447.201838 -116.561643 
L 442.955621 -114.867805 
L 438.709405 -112.329432 
L 434.463188 -114.455598 
L 430.216971 -115.347207 
L 425.970754 -118.08912 
L 421.724538 -115.17612 
L 417.478321 -116.770954 
L 413.232104 -117.060246 
L 408.985888 -116.724889 
L 404.739671 -115.506023 
L 400.493454 -120.394143 
L 396.247237 -117.363626 
L 392.001021 -118.040233 
L 387.754804 -117.92148 
L 383.508587 -117.066034 
L 379.262371 -117.104632 
L 375.016154 -118.399728 
L 370.769937 -121.400083 
L 366.52372 -119.937173 
L 362.277504 -118.540855 
L 358.031287 -120.596994 
L 353.78507 -120.080088 
L 349.538854 -121.908046 
L 345.292637 -123.70379 
L 341.04642 -119.372257 
L 336.800203 -121.914028 
L 332.553987 -123.779721 
L 328.30777 -122.387164 
L 324.061553 -123.126335 
L 319.815337 -124.4999 
L 315.56912 -128.120196 
L 311.322903 -123.549542 
L 307.076686 -129.187996 
L 302.83047 -128.35381 
L 298.584253 -129.963415 
L 294.338036 -129.154444 
L 290.09182 -132.853921 
L 285.845603 -135.679442 
L 281.599386 -137.491248 
L 277.353169 -138.283883 
L 273.106953 -142.644028 
L 268.860736 -144.158956 
L 264.614519 -144.006186 
L 260.368303 -147.165564 
L 256.122086 -150.841233 
L 251.875869 -156.670374 
L 247.629652 -158.137639 
L 243.383436 -160.350472 
L 239.137219 -164.264126 
L 234.891002 -168.350447 
L 230.644786 -173.983325 
L 226.398569 -179.279748 
L 222.152352 -182.674371 
L 217.906135 -182.742882 
L 213.659919 -191.253382 
L 209.413702 -195.056505 
L 205.167485 -196.680313 
L 200.921268 -199.146861 
L 196.675052 -204.625251 
L 192.428835 -209.280048 
L 188.182618 -209.428465 
L 183.936402 -209.886265 
L 179.690185 -213.740126 
L 175.443968 -208.891267 
L 171.197751 -214.458199 
L 166.951535 -212.225707 
L 162.705318 -210.610194 
L 158.459101 -205.467542 
L 154.212885 -210.68739 
L 149.966668 -207.990915 
L 145.720451 -202.244864 
L 141.474234 -200.664412 
L 137.228018 -195.960882 
L 132.981801 -191.482227 
L 128.735584 -192.144704 
L 124.489368 -187.831167 
L 120.243151 -181.570283 
L 115.996934 -177.008867 
L 111.750717 -167.972914 
L 107.504501 -167.372327 
L 103.258284 -157.72654 
L 99.012067 -153.544474 
L 94.765851 -146.112375 
L 90.519634 -129.675048 
L 86.273417 -129.547068 
L 82.0272 -119.20225 
L 77.780984 -109.842562 
L 73.534767 -101.881536 
L 69.28855 -89.572863 
L 65.042334 -82.289478 
L 60.796117 -71.739578 
L 56.5499 -55.264209 
z
"/>
    </defs>
    <g clip-path="url(#p8f4a53d58e)">
     <use xlink:href="#mbeee6343b7" x="0" y="243.299688" style="fill: #e41a1c; fill-opacity: 0.25"/>
    </g>
   </g>
   <g id="PolyCollection_2">
    <defs>
     <path id="m3ca104f243" d="M 56.5499 -82.9411 
L 56.5499 -74.279566 
L 60.796117 -93.264172 
L 65.042334 -131.225136 
L 69.28855 -135.272734 
L 73.534767 -152.05256 
L 77.780984 -166.162665 
L 82.0272 -173.645219 
L 86.273417 -183.2121 
L 90.519634 -182.270028 
L 94.765851 -192.126882 
L 99.012067 -189.112457 
L 103.258284 -198.669255 
L 107.504501 -207.423262 
L 111.750717 -206.450829 
L 115.996934 -209.360797 
L 120.243151 -210.217073 
L 124.489368 -217.655959 
L 128.735584 -212.537431 
L 132.981801 -222.34426 
L 137.228018 -221.275428 
L 141.474234 -221.1867 
L 145.720451 -219.175062 
L 149.966668 -222.391761 
L 154.212885 -218.117961 
L 158.459101 -223.209868 
L 162.705318 -217.500359 
L 166.951535 -220.93785 
L 171.197751 -213.713907 
L 175.443968 -213.146848 
L 179.690185 -214.437176 
L 183.936402 -216.107838 
L 188.182618 -211.151326 
L 192.428835 -211.051294 
L 196.675052 -207.211688 
L 200.921268 -204.061755 
L 205.167485 -204.088994 
L 209.413702 -200.831726 
L 213.659919 -198.112257 
L 217.906135 -196.11552 
L 222.152352 -196.409375 
L 226.398569 -194.718899 
L 230.644786 -190.294714 
L 234.891002 -190.330534 
L 239.137219 -183.015014 
L 243.383436 -182.468389 
L 247.629652 -178.259434 
L 251.875869 -178.5936 
L 256.122086 -177.641547 
L 260.368303 -175.73283 
L 264.614519 -170.485599 
L 268.860736 -169.158279 
L 273.106953 -169.467472 
L 277.353169 -164.227927 
L 281.599386 -168.257923 
L 285.845603 -156.300537 
L 290.09182 -157.450767 
L 294.338036 -160.064305 
L 298.584253 -156.839376 
L 302.83047 -154.626922 
L 307.076686 -155.311388 
L 311.322903 -154.428175 
L 315.56912 -150.720631 
L 319.815337 -150.447998 
L 324.061553 -149.858683 
L 328.30777 -152.041348 
L 332.553987 -152.211773 
L 336.800203 -147.700972 
L 341.04642 -145.291013 
L 345.292637 -144.019165 
L 349.538854 -142.46734 
L 353.78507 -142.090265 
L 358.031287 -142.253651 
L 362.277504 -141.470055 
L 366.52372 -142.180662 
L 370.769937 -141.27079 
L 375.016154 -143.645525 
L 379.262371 -139.784206 
L 383.508587 -140.172305 
L 387.754804 -135.060143 
L 392.001021 -135.414828 
L 396.247237 -137.376524 
L 400.493454 -132.276725 
L 404.739671 -135.725309 
L 408.985888 -133.267725 
L 413.232104 -130.654991 
L 417.478321 -135.596541 
L 421.724538 -130.620895 
L 425.970754 -131.379499 
L 430.216971 -132.26543 
L 434.463188 -128.354626 
L 438.709405 -135.308431 
L 442.955621 -130.651134 
L 447.201838 -136.396076 
L 451.448055 -129.034483 
L 455.694271 -131.019786 
L 459.940488 -129.349347 
L 464.186705 -132.290674 
L 468.432922 -126.594501 
L 472.679138 -129.516221 
L 476.925355 -126.645262 
L 476.925355 -130.971816 
L 476.925355 -130.971816 
L 472.679138 -132.024635 
L 468.432922 -133.578638 
L 464.186705 -134.227775 
L 459.940488 -135.375376 
L 455.694271 -133.973996 
L 451.448055 -132.887541 
L 447.201838 -137.902666 
L 442.955621 -136.674493 
L 438.709405 -138.227977 
L 434.463188 -136.683998 
L 430.216971 -137.997426 
L 425.970754 -137.851964 
L 421.724538 -135.628495 
L 417.478321 -139.083368 
L 413.232104 -138.509207 
L 408.985888 -138.788857 
L 404.739671 -139.178816 
L 400.493454 -137.672228 
L 396.247237 -141.182321 
L 392.001021 -141.193338 
L 387.754804 -140.785689 
L 383.508587 -141.660092 
L 379.262371 -144.85089 
L 375.016154 -147.088243 
L 370.769937 -145.359827 
L 366.52372 -146.557584 
L 362.277504 -146.573122 
L 358.031287 -144.489074 
L 353.78507 -146.109863 
L 349.538854 -149.566881 
L 345.292637 -152.835698 
L 341.04642 -155.375521 
L 336.800203 -155.76826 
L 332.553987 -155.674512 
L 328.30777 -154.432377 
L 324.061553 -158.319083 
L 319.815337 -155.666982 
L 315.56912 -158.847274 
L 311.322903 -162.471591 
L 307.076686 -160.310347 
L 302.83047 -160.994812 
L 298.584253 -166.4057 
L 294.338036 -169.279443 
L 290.09182 -168.21584 
L 285.845603 -174.343664 
L 281.599386 -174.875104 
L 277.353169 -170.398349 
L 273.106953 -178.109515 
L 268.860736 -177.41422 
L 264.614519 -182.508444 
L 260.368303 -179.718619 
L 256.122086 -185.666428 
L 251.875869 -183.153832 
L 247.629652 -184.940917 
L 243.383436 -188.696111 
L 239.137219 -186.48132 
L 234.891002 -193.730866 
L 230.644786 -196.63665 
L 226.398569 -199.261812 
L 222.152352 -200.387489 
L 217.906135 -205.058038 
L 213.659919 -201.536633 
L 209.413702 -207.480867 
L 205.167485 -212.115999 
L 200.921268 -212.681356 
L 196.675052 -213.674933 
L 192.428835 -214.212022 
L 188.182618 -217.179264 
L 183.936402 -218.446985 
L 179.690185 -220.135585 
L 175.443968 -220.098554 
L 171.197751 -220.35661 
L 166.951535 -223.608034 
L 162.705318 -227.20696 
L 158.459101 -225.856209 
L 154.212885 -225.513122 
L 149.966668 -227.158623 
L 145.720451 -223.917903 
L 141.474234 -227.161886 
L 137.228018 -226.517103 
L 132.981801 -224.210599 
L 128.735584 -217.909757 
L 124.489368 -223.17691 
L 120.243151 -214.992431 
L 115.996934 -219.220914 
L 111.750717 -215.063597 
L 107.504501 -210.62927 
L 103.258284 -207.652301 
L 99.012067 -204.940004 
L 94.765851 -203.970428 
L 90.519634 -195.42364 
L 86.273417 -190.660929 
L 82.0272 -182.454961 
L 77.780984 -170.445679 
L 73.534767 -168.247814 
L 69.28855 -148.629923 
L 65.042334 -137.565369 
L 60.796117 -113.194309 
L 56.5499 -82.9411 
z
"/>
    </defs>
    <g clip-path="url(#p8f4a53d58e)">
     <use xlink:href="#m3ca104f243" x="0" y="243.299688" style="fill: #228b22; fill-opacity: 0.25"/>
    </g>
   </g>
   <g id="matplotlib.axis_1">
    <g id="xtick_1">
     <g id="line2d_1">
      <path d="M 52.303683 202.84 
L 52.303683 7.2 
" clip-path="url(#p8f4a53d58e)" style="fill: none; stroke: #b0b0b0; stroke-opacity: 0.25; stroke-width: 0.8; stroke-linecap: square"/>
     </g>
     <g id="line2d_2">
      <defs>
       <path id="mc0e42d7633" d="M 0 0 
L 0 3.5 
" style="stroke: #000000; stroke-width: 0.8"/>
      </defs>
      <g>
       <use xlink:href="#mc0e42d7633" x="52.303683" y="202.84" style="stroke: #000000; stroke-width: 0.8"/>
      </g>
     </g>
     <g id="text_1">
      <!-- 0 -->
      <g transform="translate(48.804308 218.198281) scale(0.11 -0.11)">
       <defs>
        <path id="DejaVuSans-30" d="M 2034 4250 
Q 1547 4250 1301 3770 
Q 1056 3291 1056 2328 
Q 1056 1369 1301 889 
Q 1547 409 2034 409 
Q 2525 409 2770 889 
Q 3016 1369 3016 2328 
Q 3016 3291 2770 3770 
Q 2525 4250 2034 4250 
z
M 2034 4750 
Q 2819 4750 3233 4129 
Q 3647 3509 3647 2328 
Q 3647 1150 3233 529 
Q 2819 -91 2034 -91 
Q 1250 -91 836 529 
Q 422 1150 422 2328 
Q 422 3509 836 4129 
Q 1250 4750 2034 4750 
z
" transform="scale(0.015625)"/>
       </defs>
       <use xlink:href="#DejaVuSans-30"/>
      </g>
     </g>
    </g>
    <g id="xtick_2">
     <g id="line2d_3">
      <path d="M 137.228018 202.84 
L 137.228018 7.2 
" clip-path="url(#p8f4a53d58e)" style="fill: none; stroke: #b0b0b0; stroke-opacity: 0.25; stroke-width: 0.8; stroke-linecap: square"/>
     </g>
     <g id="line2d_4">
      <g>
       <use xlink:href="#mc0e42d7633" x="137.228018" y="202.84" style="stroke: #000000; stroke-width: 0.8"/>
      </g>
     </g>
     <g id="text_2">
      <!-- 20 -->
      <g transform="translate(130.229268 218.198281) scale(0.11 -0.11)">
       <defs>
        <path id="DejaVuSans-32" d="M 1228 531 
L 3431 531 
L 3431 0 
L 469 0 
L 469 531 
Q 828 903 1448 1529 
Q 2069 2156 2228 2338 
Q 2531 2678 2651 2914 
Q 2772 3150 2772 3378 
Q 2772 3750 2511 3984 
Q 2250 4219 1831 4219 
Q 1534 4219 1204 4116 
Q 875 4013 500 3803 
L 500 4441 
Q 881 4594 1212 4672 
Q 1544 4750 1819 4750 
Q 2544 4750 2975 4387 
Q 3406 4025 3406 3419 
Q 3406 3131 3298 2873 
Q 3191 2616 2906 2266 
Q 2828 2175 2409 1742 
Q 1991 1309 1228 531 
z
" transform="scale(0.015625)"/>
       </defs>
       <use xlink:href="#DejaVuSans-32"/>
       <use xlink:href="#DejaVuSans-30" x="63.623047"/>
      </g>
     </g>
    </g>
    <g id="xtick_3">
     <g id="line2d_5">
      <path d="M 222.152352 202.84 
L 222.152352 7.2 
" clip-path="url(#p8f4a53d58e)" style="fill: none; stroke: #b0b0b0; stroke-opacity: 0.25; stroke-width: 0.8; stroke-linecap: square"/>
     </g>
     <g id="line2d_6">
      <g>
       <use xlink:href="#mc0e42d7633" x="222.152352" y="202.84" style="stroke: #000000; stroke-width: 0.8"/>
      </g>
     </g>
     <g id="text_3">
      <!-- 40 -->
      <g transform="translate(215.153602 218.198281) scale(0.11 -0.11)">
       <defs>
        <path id="DejaVuSans-34" d="M 2419 4116 
L 825 1625 
L 2419 1625 
L 2419 4116 
z
M 2253 4666 
L 3047 4666 
L 3047 1625 
L 3713 1625 
L 3713 1100 
L 3047 1100 
L 3047 0 
L 2419 0 
L 2419 1100 
L 313 1100 
L 313 1709 
L 2253 4666 
z
" transform="scale(0.015625)"/>
       </defs>
       <use xlink:href="#DejaVuSans-34"/>
       <use xlink:href="#DejaVuSans-30" x="63.623047"/>
      </g>
     </g>
    </g>
    <g id="xtick_4">
     <g id="line2d_7">
      <path d="M 307.076686 202.84 
L 307.076686 7.2 
" clip-path="url(#p8f4a53d58e)" style="fill: none; stroke: #b0b0b0; stroke-opacity: 0.25; stroke-width: 0.8; stroke-linecap: square"/>
     </g>
     <g id="line2d_8">
      <g>
       <use xlink:href="#mc0e42d7633" x="307.076686" y="202.84" style="stroke: #000000; stroke-width: 0.8"/>
      </g>
     </g>
     <g id="text_4">
      <!-- 60 -->
      <g transform="translate(300.077936 218.198281) scale(0.11 -0.11)">
       <defs>
        <path id="DejaVuSans-36" d="M 2113 2584 
Q 1688 2584 1439 2293 
Q 1191 2003 1191 1497 
Q 1191 994 1439 701 
Q 1688 409 2113 409 
Q 2538 409 2786 701 
Q 3034 994 3034 1497 
Q 3034 2003 2786 2293 
Q 2538 2584 2113 2584 
z
M 3366 4563 
L 3366 3988 
Q 3128 4100 2886 4159 
Q 2644 4219 2406 4219 
Q 1781 4219 1451 3797 
Q 1122 3375 1075 2522 
Q 1259 2794 1537 2939 
Q 1816 3084 2150 3084 
Q 2853 3084 3261 2657 
Q 3669 2231 3669 1497 
Q 3669 778 3244 343 
Q 2819 -91 2113 -91 
Q 1303 -91 875 529 
Q 447 1150 447 2328 
Q 447 3434 972 4092 
Q 1497 4750 2381 4750 
Q 2619 4750 2861 4703 
Q 3103 4656 3366 4563 
z
" transform="scale(0.015625)"/>
       </defs>
       <use xlink:href="#DejaVuSans-36"/>
       <use xlink:href="#DejaVuSans-30" x="63.623047"/>
      </g>
     </g>
    </g>
    <g id="xtick_5">
     <g id="line2d_9">
      <path d="M 392.001021 202.84 
L 392.001021 7.2 
" clip-path="url(#p8f4a53d58e)" style="fill: none; stroke: #b0b0b0; stroke-opacity: 0.25; stroke-width: 0.8; stroke-linecap: square"/>
     </g>
     <g id="line2d_10">
      <g>
       <use xlink:href="#mc0e42d7633" x="392.001021" y="202.84" style="stroke: #000000; stroke-width: 0.8"/>
      </g>
     </g>
     <g id="text_5">
      <!-- 80 -->
      <g transform="translate(385.002271 218.198281) scale(0.11 -0.11)">
       <defs>
        <path id="DejaVuSans-38" d="M 2034 2216 
Q 1584 2216 1326 1975 
Q 1069 1734 1069 1313 
Q 1069 891 1326 650 
Q 1584 409 2034 409 
Q 2484 409 2743 651 
Q 3003 894 3003 1313 
Q 3003 1734 2745 1975 
Q 2488 2216 2034 2216 
z
M 1403 2484 
Q 997 2584 770 2862 
Q 544 3141 544 3541 
Q 544 4100 942 4425 
Q 1341 4750 2034 4750 
Q 2731 4750 3128 4425 
Q 3525 4100 3525 3541 
Q 3525 3141 3298 2862 
Q 3072 2584 2669 2484 
Q 3125 2378 3379 2068 
Q 3634 1759 3634 1313 
Q 3634 634 3220 271 
Q 2806 -91 2034 -91 
Q 1263 -91 848 271 
Q 434 634 434 1313 
Q 434 1759 690 2068 
Q 947 2378 1403 2484 
z
M 1172 3481 
Q 1172 3119 1398 2916 
Q 1625 2713 2034 2713 
Q 2441 2713 2670 2916 
Q 2900 3119 2900 3481 
Q 2900 3844 2670 4047 
Q 2441 4250 2034 4250 
Q 1625 4250 1398 4047 
Q 1172 3844 1172 3481 
z
" transform="scale(0.015625)"/>
       </defs>
       <use xlink:href="#DejaVuSans-38"/>
       <use xlink:href="#DejaVuSans-30" x="63.623047"/>
      </g>
     </g>
    </g>
    <g id="xtick_6">
     <g id="line2d_11">
      <path d="M 476.925355 202.84 
L 476.925355 7.2 
" clip-path="url(#p8f4a53d58e)" style="fill: none; stroke: #b0b0b0; stroke-opacity: 0.25; stroke-width: 0.8; stroke-linecap: square"/>
     </g>
     <g id="line2d_12">
      <g>
       <use xlink:href="#mc0e42d7633" x="476.925355" y="202.84" style="stroke: #000000; stroke-width: 0.8"/>
      </g>
     </g>
     <g id="text_6">
      <!-- 100 -->
      <g transform="translate(466.42723 218.198281) scale(0.11 -0.11)">
       <defs>
        <path id="DejaVuSans-31" d="M 794 531 
L 1825 531 
L 1825 4091 
L 703 3866 
L 703 4441 
L 1819 4666 
L 2450 4666 
L 2450 531 
L 3481 531 
L 3481 0 
L 794 0 
L 794 531 
z
" transform="scale(0.015625)"/>
       </defs>
       <use xlink:href="#DejaVuSans-31"/>
       <use xlink:href="#DejaVuSans-30" x="63.623047"/>
       <use xlink:href="#DejaVuSans-30" x="127.246094"/>
      </g>
     </g>
    </g>
    <g id="text_7">
     <!-- Epoch -->
     <g transform="translate(246.241394 233.604062) scale(0.12 -0.12)">
      <defs>
       <path id="DejaVuSans-45" d="M 628 4666 
L 3578 4666 
L 3578 4134 
L 1259 4134 
L 1259 2753 
L 3481 2753 
L 3481 2222 
L 1259 2222 
L 1259 531 
L 3634 531 
L 3634 0 
L 628 0 
L 628 4666 
z
" transform="scale(0.015625)"/>
       <path id="DejaVuSans-70" d="M 1159 525 
L 1159 -1331 
L 581 -1331 
L 581 3500 
L 1159 3500 
L 1159 2969 
Q 1341 3281 1617 3432 
Q 1894 3584 2278 3584 
Q 2916 3584 3314 3078 
Q 3713 2572 3713 1747 
Q 3713 922 3314 415 
Q 2916 -91 2278 -91 
Q 1894 -91 1617 61 
Q 1341 213 1159 525 
z
M 3116 1747 
Q 3116 2381 2855 2742 
Q 2594 3103 2138 3103 
Q 1681 3103 1420 2742 
Q 1159 2381 1159 1747 
Q 1159 1113 1420 752 
Q 1681 391 2138 391 
Q 2594 391 2855 752 
Q 3116 1113 3116 1747 
z
" transform="scale(0.015625)"/>
       <path id="DejaVuSans-6f" d="M 1959 3097 
Q 1497 3097 1228 2736 
Q 959 2375 959 1747 
Q 959 1119 1226 758 
Q 1494 397 1959 397 
Q 2419 397 2687 759 
Q 2956 1122 2956 1747 
Q 2956 2369 2687 2733 
Q 2419 3097 1959 3097 
z
M 1959 3584 
Q 2709 3584 3137 3096 
Q 3566 2609 3566 1747 
Q 3566 888 3137 398 
Q 2709 -91 1959 -91 
Q 1206 -91 779 398 
Q 353 888 353 1747 
Q 353 2609 779 3096 
Q 1206 3584 1959 3584 
z
" transform="scale(0.015625)"/>
       <path id="DejaVuSans-63" d="M 3122 3366 
L 3122 2828 
Q 2878 2963 2633 3030 
Q 2388 3097 2138 3097 
Q 1578 3097 1268 2742 
Q 959 2388 959 1747 
Q 959 1106 1268 751 
Q 1578 397 2138 397 
Q 2388 397 2633 464 
Q 2878 531 3122 666 
L 3122 134 
Q 2881 22 2623 -34 
Q 2366 -91 2075 -91 
Q 1284 -91 818 406 
Q 353 903 353 1747 
Q 353 2603 823 3093 
Q 1294 3584 2113 3584 
Q 2378 3584 2631 3529 
Q 2884 3475 3122 3366 
z
" transform="scale(0.015625)"/>
       <path id="DejaVuSans-68" d="M 3513 2113 
L 3513 0 
L 2938 0 
L 2938 2094 
Q 2938 2591 2744 2837 
Q 2550 3084 2163 3084 
Q 1697 3084 1428 2787 
Q 1159 2491 1159 1978 
L 1159 0 
L 581 0 
L 581 4863 
L 1159 4863 
L 1159 2956 
Q 1366 3272 1645 3428 
Q 1925 3584 2291 3584 
Q 2894 3584 3203 3211 
Q 3513 2838 3513 2113 
z
" transform="scale(0.015625)"/>
      </defs>
      <use xlink:href="#DejaVuSans-45"/>
      <use xlink:href="#DejaVuSans-70" x="63.183594"/>
      <use xlink:href="#DejaVuSans-6f" x="126.660156"/>
      <use xlink:href="#DejaVuSans-63" x="187.841797"/>
      <use xlink:href="#DejaVuSans-68" x="242.822266"/>
     </g>
    </g>
   </g>
   <g id="matplotlib.axis_2">
    <g id="ytick_1">
     <g id="line2d_13">
      <path d="M 43.81125 182.551889 
L 485.417788 182.551889 
" clip-path="url(#p8f4a53d58e)" style="fill: none; stroke: #b0b0b0; stroke-opacity: 0.25; stroke-width: 0.8; stroke-linecap: square"/>
     </g>
     <g id="line2d_14">
      <defs>
       <path id="m3cdf0a72ef" d="M 0 0 
L -3.5 0 
" style="stroke: #000000; stroke-width: 0.8"/>
      </defs>
      <g>
       <use xlink:href="#m3cdf0a72ef" x="43.81125" y="182.551889" style="stroke: #000000; stroke-width: 0.8"/>
      </g>
     </g>
     <g id="text_8">
      <!-- 10 -->
      <g transform="translate(22.81375 186.731029) scale(0.11 -0.11)">
       <use xlink:href="#DejaVuSans-31"/>
       <use xlink:href="#DejaVuSans-30" x="63.623047"/>
      </g>
     </g>
    </g>
    <g id="ytick_2">
     <g id="line2d_15">
      <path d="M 43.81125 137.708706 
L 485.417788 137.708706 
" clip-path="url(#p8f4a53d58e)" style="fill: none; stroke: #b0b0b0; stroke-opacity: 0.25; stroke-width: 0.8; stroke-linecap: square"/>
     </g>
     <g id="line2d_16">
      <g>
       <use xlink:href="#m3cdf0a72ef" x="43.81125" y="137.708706" style="stroke: #000000; stroke-width: 0.8"/>
      </g>
     </g>
     <g id="text_9">
      <!-- 20 -->
      <g transform="translate(22.81375 141.887847) scale(0.11 -0.11)">
       <use xlink:href="#DejaVuSans-32"/>
       <use xlink:href="#DejaVuSans-30" x="63.623047"/>
      </g>
     </g>
    </g>
    <g id="ytick_3">
     <g id="line2d_17">
      <path d="M 43.81125 92.865524 
L 485.417788 92.865524 
" clip-path="url(#p8f4a53d58e)" style="fill: none; stroke: #b0b0b0; stroke-opacity: 0.25; stroke-width: 0.8; stroke-linecap: square"/>
     </g>
     <g id="line2d_18">
      <g>
       <use xlink:href="#m3cdf0a72ef" x="43.81125" y="92.865524" style="stroke: #000000; stroke-width: 0.8"/>
      </g>
     </g>
     <g id="text_10">
      <!-- 30 -->
      <g transform="translate(22.81375 97.044664) scale(0.11 -0.11)">
       <defs>
        <path id="DejaVuSans-33" d="M 2597 2516 
Q 3050 2419 3304 2112 
Q 3559 1806 3559 1356 
Q 3559 666 3084 287 
Q 2609 -91 1734 -91 
Q 1441 -91 1130 -33 
Q 819 25 488 141 
L 488 750 
Q 750 597 1062 519 
Q 1375 441 1716 441 
Q 2309 441 2620 675 
Q 2931 909 2931 1356 
Q 2931 1769 2642 2001 
Q 2353 2234 1838 2234 
L 1294 2234 
L 1294 2753 
L 1863 2753 
Q 2328 2753 2575 2939 
Q 2822 3125 2822 3475 
Q 2822 3834 2567 4026 
Q 2313 4219 1838 4219 
Q 1578 4219 1281 4162 
Q 984 4106 628 3988 
L 628 4550 
Q 988 4650 1302 4700 
Q 1616 4750 1894 4750 
Q 2613 4750 3031 4423 
Q 3450 4097 3450 3541 
Q 3450 3153 3228 2886 
Q 3006 2619 2597 2516 
z
" transform="scale(0.015625)"/>
       </defs>
       <use xlink:href="#DejaVuSans-33"/>
       <use xlink:href="#DejaVuSans-30" x="63.623047"/>
      </g>
     </g>
    </g>
    <g id="ytick_4">
     <g id="line2d_19">
      <path d="M 43.81125 48.022341 
L 485.417788 48.022341 
" clip-path="url(#p8f4a53d58e)" style="fill: none; stroke: #b0b0b0; stroke-opacity: 0.25; stroke-width: 0.8; stroke-linecap: square"/>
     </g>
     <g id="line2d_20">
      <g>
       <use xlink:href="#m3cdf0a72ef" x="43.81125" y="48.022341" style="stroke: #000000; stroke-width: 0.8"/>
      </g>
     </g>
     <g id="text_11">
      <!-- 40 -->
      <g transform="translate(22.81375 52.201482) scale(0.11 -0.11)">
       <use xlink:href="#DejaVuSans-34"/>
       <use xlink:href="#DejaVuSans-30" x="63.623047"/>
      </g>
     </g>
    </g>
    <g id="text_12">
     <!-- Test Accuracy (%) -->
     <g transform="translate(16.318125 158.424687) rotate(-90) scale(0.12 -0.12)">
      <defs>
       <path id="DejaVuSans-54" d="M -19 4666 
L 3928 4666 
L 3928 4134 
L 2272 4134 
L 2272 0 
L 1638 0 
L 1638 4134 
L -19 4134 
L -19 4666 
z
" transform="scale(0.015625)"/>
       <path id="DejaVuSans-65" d="M 3597 1894 
L 3597 1613 
L 953 1613 
Q 991 1019 1311 708 
Q 1631 397 2203 397 
Q 2534 397 2845 478 
Q 3156 559 3463 722 
L 3463 178 
Q 3153 47 2828 -22 
Q 2503 -91 2169 -91 
Q 1331 -91 842 396 
Q 353 884 353 1716 
Q 353 2575 817 3079 
Q 1281 3584 2069 3584 
Q 2775 3584 3186 3129 
Q 3597 2675 3597 1894 
z
M 3022 2063 
Q 3016 2534 2758 2815 
Q 2500 3097 2075 3097 
Q 1594 3097 1305 2825 
Q 1016 2553 972 2059 
L 3022 2063 
z
" transform="scale(0.015625)"/>
       <path id="DejaVuSans-73" d="M 2834 3397 
L 2834 2853 
Q 2591 2978 2328 3040 
Q 2066 3103 1784 3103 
Q 1356 3103 1142 2972 
Q 928 2841 928 2578 
Q 928 2378 1081 2264 
Q 1234 2150 1697 2047 
L 1894 2003 
Q 2506 1872 2764 1633 
Q 3022 1394 3022 966 
Q 3022 478 2636 193 
Q 2250 -91 1575 -91 
Q 1294 -91 989 -36 
Q 684 19 347 128 
L 347 722 
Q 666 556 975 473 
Q 1284 391 1588 391 
Q 1994 391 2212 530 
Q 2431 669 2431 922 
Q 2431 1156 2273 1281 
Q 2116 1406 1581 1522 
L 1381 1569 
Q 847 1681 609 1914 
Q 372 2147 372 2553 
Q 372 3047 722 3315 
Q 1072 3584 1716 3584 
Q 2034 3584 2315 3537 
Q 2597 3491 2834 3397 
z
" transform="scale(0.015625)"/>
       <path id="DejaVuSans-74" d="M 1172 4494 
L 1172 3500 
L 2356 3500 
L 2356 3053 
L 1172 3053 
L 1172 1153 
Q 1172 725 1289 603 
Q 1406 481 1766 481 
L 2356 481 
L 2356 0 
L 1766 0 
Q 1100 0 847 248 
Q 594 497 594 1153 
L 594 3053 
L 172 3053 
L 172 3500 
L 594 3500 
L 594 4494 
L 1172 4494 
z
" transform="scale(0.015625)"/>
       <path id="DejaVuSans-20" transform="scale(0.015625)"/>
       <path id="DejaVuSans-41" d="M 2188 4044 
L 1331 1722 
L 3047 1722 
L 2188 4044 
z
M 1831 4666 
L 2547 4666 
L 4325 0 
L 3669 0 
L 3244 1197 
L 1141 1197 
L 716 0 
L 50 0 
L 1831 4666 
z
" transform="scale(0.015625)"/>
       <path id="DejaVuSans-75" d="M 544 1381 
L 544 3500 
L 1119 3500 
L 1119 1403 
Q 1119 906 1312 657 
Q 1506 409 1894 409 
Q 2359 409 2629 706 
Q 2900 1003 2900 1516 
L 2900 3500 
L 3475 3500 
L 3475 0 
L 2900 0 
L 2900 538 
Q 2691 219 2414 64 
Q 2138 -91 1772 -91 
Q 1169 -91 856 284 
Q 544 659 544 1381 
z
M 1991 3584 
L 1991 3584 
z
" transform="scale(0.015625)"/>
       <path id="DejaVuSans-72" d="M 2631 2963 
Q 2534 3019 2420 3045 
Q 2306 3072 2169 3072 
Q 1681 3072 1420 2755 
Q 1159 2438 1159 1844 
L 1159 0 
L 581 0 
L 581 3500 
L 1159 3500 
L 1159 2956 
Q 1341 3275 1631 3429 
Q 1922 3584 2338 3584 
Q 2397 3584 2469 3576 
Q 2541 3569 2628 3553 
L 2631 2963 
z
" transform="scale(0.015625)"/>
       <path id="DejaVuSans-61" d="M 2194 1759 
Q 1497 1759 1228 1600 
Q 959 1441 959 1056 
Q 959 750 1161 570 
Q 1363 391 1709 391 
Q 2188 391 2477 730 
Q 2766 1069 2766 1631 
L 2766 1759 
L 2194 1759 
z
M 3341 1997 
L 3341 0 
L 2766 0 
L 2766 531 
Q 2569 213 2275 61 
Q 1981 -91 1556 -91 
Q 1019 -91 701 211 
Q 384 513 384 1019 
Q 384 1609 779 1909 
Q 1175 2209 1959 2209 
L 2766 2209 
L 2766 2266 
Q 2766 2663 2505 2880 
Q 2244 3097 1772 3097 
Q 1472 3097 1187 3025 
Q 903 2953 641 2809 
L 641 3341 
Q 956 3463 1253 3523 
Q 1550 3584 1831 3584 
Q 2591 3584 2966 3190 
Q 3341 2797 3341 1997 
z
" transform="scale(0.015625)"/>
       <path id="DejaVuSans-79" d="M 2059 -325 
Q 1816 -950 1584 -1140 
Q 1353 -1331 966 -1331 
L 506 -1331 
L 506 -850 
L 844 -850 
Q 1081 -850 1212 -737 
Q 1344 -625 1503 -206 
L 1606 56 
L 191 3500 
L 800 3500 
L 1894 763 
L 2988 3500 
L 3597 3500 
L 2059 -325 
z
" transform="scale(0.015625)"/>
       <path id="DejaVuSans-28" d="M 1984 4856 
Q 1566 4138 1362 3434 
Q 1159 2731 1159 2009 
Q 1159 1288 1364 580 
Q 1569 -128 1984 -844 
L 1484 -844 
Q 1016 -109 783 600 
Q 550 1309 550 2009 
Q 550 2706 781 3412 
Q 1013 4119 1484 4856 
L 1984 4856 
z
" transform="scale(0.015625)"/>
       <path id="DejaVuSans-25" d="M 4653 2053 
Q 4381 2053 4226 1822 
Q 4072 1591 4072 1178 
Q 4072 772 4226 539 
Q 4381 306 4653 306 
Q 4919 306 5073 539 
Q 5228 772 5228 1178 
Q 5228 1588 5073 1820 
Q 4919 2053 4653 2053 
z
M 4653 2450 
Q 5147 2450 5437 2106 
Q 5728 1763 5728 1178 
Q 5728 594 5436 251 
Q 5144 -91 4653 -91 
Q 4153 -91 3862 251 
Q 3572 594 3572 1178 
Q 3572 1766 3864 2108 
Q 4156 2450 4653 2450 
z
M 1428 4353 
Q 1159 4353 1004 4120 
Q 850 3888 850 3481 
Q 850 3069 1003 2837 
Q 1156 2606 1428 2606 
Q 1700 2606 1854 2837 
Q 2009 3069 2009 3481 
Q 2009 3884 1853 4118 
Q 1697 4353 1428 4353 
z
M 4250 4750 
L 4750 4750 
L 1831 -91 
L 1331 -91 
L 4250 4750 
z
M 1428 4750 
Q 1922 4750 2215 4408 
Q 2509 4066 2509 3481 
Q 2509 2891 2217 2550 
Q 1925 2209 1428 2209 
Q 931 2209 642 2551 
Q 353 2894 353 3481 
Q 353 4063 643 4406 
Q 934 4750 1428 4750 
z
" transform="scale(0.015625)"/>
       <path id="DejaVuSans-29" d="M 513 4856 
L 1013 4856 
Q 1481 4119 1714 3412 
Q 1947 2706 1947 2009 
Q 1947 1309 1714 600 
Q 1481 -109 1013 -844 
L 513 -844 
Q 928 -128 1133 580 
Q 1338 1288 1338 2009 
Q 1338 2731 1133 3434 
Q 928 4138 513 4856 
z
" transform="scale(0.015625)"/>
      </defs>
      <use xlink:href="#DejaVuSans-54"/>
      <use xlink:href="#DejaVuSans-65" x="44.083984"/>
      <use xlink:href="#DejaVuSans-73" x="105.607422"/>
      <use xlink:href="#DejaVuSans-74" x="157.707031"/>
      <use xlink:href="#DejaVuSans-20" x="196.916016"/>
      <use xlink:href="#DejaVuSans-41" x="228.703125"/>
      <use xlink:href="#DejaVuSans-63" x="295.361328"/>
      <use xlink:href="#DejaVuSans-63" x="350.341797"/>
      <use xlink:href="#DejaVuSans-75" x="405.322266"/>
      <use xlink:href="#DejaVuSans-72" x="468.701172"/>
      <use xlink:href="#DejaVuSans-61" x="509.814453"/>
      <use xlink:href="#DejaVuSans-63" x="571.09375"/>
      <use xlink:href="#DejaVuSans-79" x="626.074219"/>
      <use xlink:href="#DejaVuSans-20" x="685.253906"/>
      <use xlink:href="#DejaVuSans-28" x="717.041016"/>
      <use xlink:href="#DejaVuSans-25" x="756.054688"/>
      <use xlink:href="#DejaVuSans-29" x="851.074219"/>
     </g>
    </g>
   </g>
   <g id="line2d_21">
    <path d="M 56.5499 190.991376 
L 60.796117 175.143795 
L 65.042334 164.641522 
L 69.28855 157.036118 
L 73.534767 146.533844 
L 77.780984 138.139201 
L 82.0272 128.399261 
L 86.273417 117.923894 
L 90.519634 116.63241 
L 94.765851 101.269136 
L 99.012067 96.300511 
L 103.258284 89.296006 
L 107.504501 82.847557 
L 111.750717 79.60091 
L 115.996934 70.802678 
L 120.243151 70.533619 
L 124.489368 58.650175 
L 128.735584 60.569464 
L 132.981801 53.035809 
L 137.228018 51.950604 
L 141.474234 44.928162 
L 145.720451 44.560448 
L 149.966668 41.555954 
L 154.212885 37.896751 
L 158.459101 40.345188 
L 162.705318 35.349658 
L 166.951535 36.946075 
L 171.197751 35.161317 
L 175.443968 37.83397 
L 179.690185 33.753241 
L 183.936402 38.085092 
L 188.182618 37.170291 
L 192.428835 40.901244 
L 196.675052 43.932643 
L 200.921268 48.09409 
L 205.167485 48.309338 
L 209.413702 52.2376 
L 213.659919 57.726406 
L 217.906135 63.403553 
L 222.152352 64.309385 
L 226.398569 69.439445 
L 230.644786 72.399095 
L 234.891002 79.493287 
L 239.137219 83.367738 
L 243.383436 86.040391 
L 247.629652 88.8117 
L 251.875869 90.883455 
L 256.122086 96.713069 
L 260.368303 99.035946 
L 264.614519 102.309498 
L 268.860736 103.932821 
L 273.106953 103.60995 
L 277.353169 108.14808 
L 281.599386 109.062881 
L 285.845603 110.587549 
L 290.09182 113.493388 
L 294.338036 116.76694 
L 298.584253 116.219853 
L 302.83047 117.287121 
L 307.076686 118.040486 
L 311.322903 120.964262 
L 315.56912 118.300577 
L 319.815337 121.188478 
L 324.061553 121.547223 
L 328.30777 123.27817 
L 332.553987 121.968749 
L 336.800203 124.524811 
L 341.04642 125.000148 
L 345.292637 122.68624 
L 349.538854 122.749021 
L 353.78507 126.112259 
L 358.031287 125.278176 
L 362.277504 126.919436 
L 366.52372 124.946336 
L 370.769937 125.789388 
L 375.016154 127.654865 
L 379.262371 127.16159 
L 383.508587 129.807337 
L 387.754804 128.094328 
L 392.001021 127.825269 
L 396.247237 128.201951 
L 400.493454 127.02706 
L 404.739671 128.497916 
L 408.985888 130.031553 
L 413.232104 127.726614 
L 417.478321 129.914961 
L 421.724538 129.690745 
L 425.970754 127.986704 
L 430.216971 130.022585 
L 434.463188 130.865637 
L 438.709405 131.574159 
L 442.955621 131.053978 
L 447.201838 129.547247 
L 451.448055 131.834249 
L 455.694271 129.188502 
L 459.940488 131.780437 
L 464.186705 129.036035 
L 468.432922 130.51586 
L 472.679138 129.358906 
L 476.925355 130.533797 
" clip-path="url(#p8f4a53d58e)" style="fill: none; stroke: #e41a1c; stroke-width: 2; stroke-linecap: square"/>
   </g>
   <g id="line2d_22">
    <path d="M 56.5499 164.689354 
L 60.796117 140.070447 
L 65.042334 108.904435 
L 69.28855 101.348359 
L 73.534767 83.149501 
L 77.780984 74.995515 
L 82.0272 65.249597 
L 86.273417 56.363173 
L 90.519634 54.452854 
L 94.765851 45.251033 
L 99.012067 46.273457 
L 103.258284 40.13891 
L 107.504501 34.273421 
L 111.750717 32.542475 
L 115.996934 29.008832 
L 120.243151 30.694936 
L 124.489368 22.883253 
L 128.735584 28.076094 
L 132.981801 20.022258 
L 137.228018 19.403422 
L 141.474234 19.125394 
L 145.720451 21.753205 
L 149.966668 18.524496 
L 154.212885 21.484146 
L 158.459101 18.766649 
L 162.705318 20.946028 
L 166.951535 21.026745 
L 171.197751 26.264429 
L 175.443968 26.676986 
L 179.690185 26.013307 
L 183.936402 26.022276 
L 188.182618 29.134393 
L 192.428835 30.66803 
L 196.675052 32.856377 
L 200.921268 34.928132 
L 205.167485 35.197191 
L 209.413702 39.143391 
L 213.659919 43.475243 
L 217.906135 42.712908 
L 222.152352 44.901256 
L 226.398569 46.309332 
L 230.644786 49.834006 
L 234.891002 51.268988 
L 239.137219 58.55152 
L 243.383436 57.717437 
L 247.629652 61.699512 
L 251.875869 62.425971 
L 256.122086 61.6457 
L 260.368303 65.573963 
L 264.614519 66.802666 
L 268.860736 70.013438 
L 273.106953 69.511194 
L 277.353169 75.98655 
L 281.599386 71.733174 
L 285.845603 77.977587 
L 290.09182 80.466384 
L 294.338036 78.627813 
L 298.584253 81.67715 
L 302.83047 85.48882 
L 307.076686 85.48882 
L 311.322903 84.849805 
L 315.56912 88.515735 
L 319.815337 90.242198 
L 324.061553 89.210804 
L 328.30777 90.062825 
L 332.553987 89.356545 
L 336.800203 91.565071 
L 341.04642 92.966421 
L 345.292637 94.872256 
L 349.538854 97.282577 
L 353.78507 99.199623 
L 358.031287 99.928325 
L 362.277504 99.278099 
L 366.52372 98.930564 
L 370.769937 99.984379 
L 375.016154 97.932803 
L 379.262371 100.98214 
L 383.508587 102.383489 
L 387.754804 105.376772 
L 392.001021 104.995605 
L 396.247237 104.020265 
L 400.493454 108.325211 
L 404.739671 105.847625 
L 408.985888 107.271396 
L 413.232104 108.717589 
L 417.478321 105.959733 
L 421.724538 110.174992 
L 425.970754 108.683956 
L 430.216971 108.16826 
L 434.463188 110.780375 
L 438.709405 106.531484 
L 442.955621 109.636874 
L 447.201838 106.150317 
L 451.448055 112.338676 
L 455.694271 110.802797 
L 459.940488 110.937326 
L 464.186705 110.040463 
L 468.432922 113.213118 
L 472.679138 112.529259 
L 476.925355 114.491148 
" clip-path="url(#p8f4a53d58e)" style="fill: none; stroke: #228b22; stroke-width: 2; stroke-linecap: square"/>
   </g>
   <g id="patch_3">
    <path d="M 43.81125 202.84 
L 43.81125 7.2 
" style="fill: none; stroke: #000000; stroke-width: 0.8; stroke-linejoin: miter; stroke-linecap: square"/>
   </g>
   <g id="patch_4">
    <path d="M 485.417788 202.84 
L 485.417788 7.2 
" style="fill: none; stroke: #000000; stroke-width: 0.8; stroke-linejoin: miter; stroke-linecap: square"/>
   </g>
   <g id="patch_5">
    <path d="M 43.81125 202.84 
L 485.417788 202.84 
" style="fill: none; stroke: #000000; stroke-width: 0.8; stroke-linejoin: miter; stroke-linecap: square"/>
   </g>
   <g id="patch_6">
    <path d="M 43.81125 7.2 
L 485.417788 7.2 
" style="fill: none; stroke: #000000; stroke-width: 0.8; stroke-linejoin: miter; stroke-linecap: square"/>
   </g>
   <g id="legend_1">
    <g id="patch_7">
     <path d="M 314.072476 197.84 
L 478.417788 197.84 
Q 480.417788 197.84 480.417788 195.84 
L 480.417788 167.48375 
Q 480.417788 165.48375 478.417788 165.48375 
L 314.072476 165.48375 
Q 312.072476 165.48375 312.072476 167.48375 
L 312.072476 195.84 
Q 312.072476 197.84 314.072476 197.84 
z
" style="fill: #ffffff; opacity: 0.8; stroke: #cccccc; stroke-linejoin: miter"/>
    </g>
    <g id="line2d_23">
     <path d="M 316.072476 173.582188 
L 326.072476 173.582188 
L 336.072476 173.582188 
" style="fill: none; stroke: #e41a1c; stroke-width: 2; stroke-linecap: square"/>
    </g>
    <g id="text_13">
     <!-- Accuracy - Baseline -->
     <g transform="translate(344.072476 177.082188) scale(0.1 -0.1)">
      <defs>
       <path id="DejaVuSans-2d" d="M 313 2009 
L 1997 2009 
L 1997 1497 
L 313 1497 
L 313 2009 
z
" transform="scale(0.015625)"/>
       <path id="DejaVuSans-42" d="M 1259 2228 
L 1259 519 
L 2272 519 
Q 2781 519 3026 730 
Q 3272 941 3272 1375 
Q 3272 1813 3026 2020 
Q 2781 2228 2272 2228 
L 1259 2228 
z
M 1259 4147 
L 1259 2741 
L 2194 2741 
Q 2656 2741 2882 2914 
Q 3109 3088 3109 3444 
Q 3109 3797 2882 3972 
Q 2656 4147 2194 4147 
L 1259 4147 
z
M 628 4666 
L 2241 4666 
Q 2963 4666 3353 4366 
Q 3744 4066 3744 3513 
Q 3744 3084 3544 2831 
Q 3344 2578 2956 2516 
Q 3422 2416 3680 2098 
Q 3938 1781 3938 1306 
Q 3938 681 3513 340 
Q 3088 0 2303 0 
L 628 0 
L 628 4666 
z
" transform="scale(0.015625)"/>
       <path id="DejaVuSans-6c" d="M 603 4863 
L 1178 4863 
L 1178 0 
L 603 0 
L 603 4863 
z
" transform="scale(0.015625)"/>
       <path id="DejaVuSans-69" d="M 603 3500 
L 1178 3500 
L 1178 0 
L 603 0 
L 603 3500 
z
M 603 4863 
L 1178 4863 
L 1178 4134 
L 603 4134 
L 603 4863 
z
" transform="scale(0.015625)"/>
       <path id="DejaVuSans-6e" d="M 3513 2113 
L 3513 0 
L 2938 0 
L 2938 2094 
Q 2938 2591 2744 2837 
Q 2550 3084 2163 3084 
Q 1697 3084 1428 2787 
Q 1159 2491 1159 1978 
L 1159 0 
L 581 0 
L 581 3500 
L 1159 3500 
L 1159 2956 
Q 1366 3272 1645 3428 
Q 1925 3584 2291 3584 
Q 2894 3584 3203 3211 
Q 3513 2838 3513 2113 
z
" transform="scale(0.015625)"/>
      </defs>
      <use xlink:href="#DejaVuSans-41"/>
      <use xlink:href="#DejaVuSans-63" x="66.658203"/>
      <use xlink:href="#DejaVuSans-63" x="121.638672"/>
      <use xlink:href="#DejaVuSans-75" x="176.619141"/>
      <use xlink:href="#DejaVuSans-72" x="239.998047"/>
      <use xlink:href="#DejaVuSans-61" x="281.111328"/>
      <use xlink:href="#DejaVuSans-63" x="342.390625"/>
      <use xlink:href="#DejaVuSans-79" x="397.371094"/>
      <use xlink:href="#DejaVuSans-20" x="456.550781"/>
      <use xlink:href="#DejaVuSans-2d" x="488.337891"/>
      <use xlink:href="#DejaVuSans-20" x="524.421875"/>
      <use xlink:href="#DejaVuSans-42" x="556.208984"/>
      <use xlink:href="#DejaVuSans-61" x="624.8125"/>
      <use xlink:href="#DejaVuSans-73" x="686.091797"/>
      <use xlink:href="#DejaVuSans-65" x="738.191406"/>
      <use xlink:href="#DejaVuSans-6c" x="799.714844"/>
      <use xlink:href="#DejaVuSans-69" x="827.498047"/>
      <use xlink:href="#DejaVuSans-6e" x="855.28125"/>
      <use xlink:href="#DejaVuSans-65" x="918.660156"/>
     </g>
    </g>
    <g id="line2d_24">
     <path d="M 316.072476 188.260312 
L 326.072476 188.260312 
L 336.072476 188.260312 
" style="fill: none; stroke: #228b22; stroke-width: 2; stroke-linecap: square"/>
    </g>
    <g id="text_14">
     <!-- Accuracy - SSL Pre-trained -->
     <g transform="translate(344.072476 191.760312) scale(0.1 -0.1)">
      <defs>
       <path id="DejaVuSans-53" d="M 3425 4513 
L 3425 3897 
Q 3066 4069 2747 4153 
Q 2428 4238 2131 4238 
Q 1616 4238 1336 4038 
Q 1056 3838 1056 3469 
Q 1056 3159 1242 3001 
Q 1428 2844 1947 2747 
L 2328 2669 
Q 3034 2534 3370 2195 
Q 3706 1856 3706 1288 
Q 3706 609 3251 259 
Q 2797 -91 1919 -91 
Q 1588 -91 1214 -16 
Q 841 59 441 206 
L 441 856 
Q 825 641 1194 531 
Q 1563 422 1919 422 
Q 2459 422 2753 634 
Q 3047 847 3047 1241 
Q 3047 1584 2836 1778 
Q 2625 1972 2144 2069 
L 1759 2144 
Q 1053 2284 737 2584 
Q 422 2884 422 3419 
Q 422 4038 858 4394 
Q 1294 4750 2059 4750 
Q 2388 4750 2728 4690 
Q 3069 4631 3425 4513 
z
" transform="scale(0.015625)"/>
       <path id="DejaVuSans-4c" d="M 628 4666 
L 1259 4666 
L 1259 531 
L 3531 531 
L 3531 0 
L 628 0 
L 628 4666 
z
" transform="scale(0.015625)"/>
       <path id="DejaVuSans-50" d="M 1259 4147 
L 1259 2394 
L 2053 2394 
Q 2494 2394 2734 2622 
Q 2975 2850 2975 3272 
Q 2975 3691 2734 3919 
Q 2494 4147 2053 4147 
L 1259 4147 
z
M 628 4666 
L 2053 4666 
Q 2838 4666 3239 4311 
Q 3641 3956 3641 3272 
Q 3641 2581 3239 2228 
Q 2838 1875 2053 1875 
L 1259 1875 
L 1259 0 
L 628 0 
L 628 4666 
z
" transform="scale(0.015625)"/>
       <path id="DejaVuSans-64" d="M 2906 2969 
L 2906 4863 
L 3481 4863 
L 3481 0 
L 2906 0 
L 2906 525 
Q 2725 213 2448 61 
Q 2172 -91 1784 -91 
Q 1150 -91 751 415 
Q 353 922 353 1747 
Q 353 2572 751 3078 
Q 1150 3584 1784 3584 
Q 2172 3584 2448 3432 
Q 2725 3281 2906 2969 
z
M 947 1747 
Q 947 1113 1208 752 
Q 1469 391 1925 391 
Q 2381 391 2643 752 
Q 2906 1113 2906 1747 
Q 2906 2381 2643 2742 
Q 2381 3103 1925 3103 
Q 1469 3103 1208 2742 
Q 947 2381 947 1747 
z
" transform="scale(0.015625)"/>
      </defs>
      <use xlink:href="#DejaVuSans-41"/>
      <use xlink:href="#DejaVuSans-63" x="66.658203"/>
      <use xlink:href="#DejaVuSans-63" x="121.638672"/>
      <use xlink:href="#DejaVuSans-75" x="176.619141"/>
      <use xlink:href="#DejaVuSans-72" x="239.998047"/>
      <use xlink:href="#DejaVuSans-61" x="281.111328"/>
      <use xlink:href="#DejaVuSans-63" x="342.390625"/>
      <use xlink:href="#DejaVuSans-79" x="397.371094"/>
      <use xlink:href="#DejaVuSans-20" x="456.550781"/>
      <use xlink:href="#DejaVuSans-2d" x="488.337891"/>
      <use xlink:href="#DejaVuSans-20" x="524.421875"/>
      <use xlink:href="#DejaVuSans-53" x="556.208984"/>
      <use xlink:href="#DejaVuSans-53" x="619.685547"/>
      <use xlink:href="#DejaVuSans-4c" x="683.162109"/>
      <use xlink:href="#DejaVuSans-20" x="738.875"/>
      <use xlink:href="#DejaVuSans-50" x="770.662109"/>
      <use xlink:href="#DejaVuSans-72" x="829.214844"/>
      <use xlink:href="#DejaVuSans-65" x="868.078125"/>
      <use xlink:href="#DejaVuSans-2d" x="929.601562"/>
      <use xlink:href="#DejaVuSans-74" x="965.685547"/>
      <use xlink:href="#DejaVuSans-72" x="1004.894531"/>
      <use xlink:href="#DejaVuSans-61" x="1046.007812"/>
      <use xlink:href="#DejaVuSans-69" x="1107.287109"/>
      <use xlink:href="#DejaVuSans-6e" x="1135.070312"/>
      <use xlink:href="#DejaVuSans-65" x="1198.449219"/>
      <use xlink:href="#DejaVuSans-64" x="1259.972656"/>
     </g>
    </g>
   </g>
  </g>
 </g>
 <defs>
  <clipPath id="p8f4a53d58e">
   <rect x="43.81125" y="7.2" width="441.606538" height="195.64"/>
  </clipPath>
 </defs>
</svg>
