<?xml version="1.0" encoding="utf-8" standalone="no"?>
<!DOCTYPE svg PUBLIC "-//W3C//DTD SVG 1.1//EN"
  "http://www.w3.org/Graphics/SVG/1.1/DTD/svg11.dtd">
<svg xmlns:xlink="http://www.w3.org/1999/xlink" width="494.421461pt" height="243.299688pt" viewBox="0 0 494.421461 243.299688" xmlns="http://www.w3.org/2000/svg" version="1.1">
 <metadata>
  <rdf:RDF xmlns:dc="http://purl.org/dc/elements/1.1/" xmlns:cc="http://creativecommons.org/ns#" xmlns:rdf="http://www.w3.org/1999/02/22-rdf-syntax-ns#">
   <cc:Work>
    <dc:type rdf:resource="http://purl.org/dc/dcmitype/StillImage"/>
    <dc:date>2025-12-09T21:56:07.955822</dc:date>
    <dc:format>image/svg+xml</dc:format>
    <dc:creator>
     <cc:Agent>
      <dc:title>Matplotlib v3.9.0, https://matplotlib.org/</dc:title>
     </cc:Agent>
    </dc:creator>
   </cc:Work>
  </rdf:RDF>
 </metadata>
 <defs>
  <style type="text/css">*{stroke-linejoin: round; stroke-linecap: butt}</style>
 </defs>
 <g id="figure_1">
  <g id="patch_1">
   <path d="M 0 243.299688 
L 494.421461 243.299688 
L 494.421461 0 
L 0 0 
z
" style="fill: #ffffff"/>
  </g>
  <g id="axes_1">
   <g id="patch_2">
    <path d="M 36.8125 202.84 
L 485.349038 202.84 
L 485.349038 7.2 
L 36.8125 7.2 
z
" style="fill: #ffffff"/>
   </g>
   <g id="PolyCollection_1">
    <defs>
     <path id="m9ddeefa68a" d="M 49.751054 -147.582013 
L 49.751054 -144.328314 
L 54.063905 -139.026386 
L 58.376757 -135.370926 
L 62.689608 -131.196665 
L 67.002459 -126.897983 
L 71.315311 -123.651565 
L 75.628162 -121.22335 
L 79.941013 -115.648386 
L 84.253865 -115.202386 
L 88.566716 -109.912014 
L 92.879567 -106.821208 
L 97.192419 -105.738485 
L 101.50527 -102.139574 
L 105.818121 -101.396553 
L 110.130973 -99.893853 
L 114.443824 -96.870857 
L 118.756675 -95.926426 
L 123.069527 -95.478734 
L 127.382378 -93.106315 
L 131.695229 -93.136318 
L 136.008081 -91.78294 
L 140.320932 -90.544532 
L 144.633783 -89.457956 
L 148.946635 -87.795258 
L 153.259486 -89.01651 
L 157.572337 -87.252817 
L 161.885189 -87.926944 
L 166.19804 -86.823418 
L 170.510891 -88.69694 
L 174.823743 -85.249833 
L 179.136594 -87.32502 
L 183.449445 -87.596362 
L 187.762297 -88.073969 
L 192.075148 -88.614608 
L 196.387999 -90.616401 
L 200.700851 -91.978884 
L 205.013702 -91.915406 
L 209.326553 -94.282632 
L 213.639405 -97.973388 
L 217.952256 -97.57594 
L 222.265107 -100.249489 
L 226.577959 -102.806365 
L 230.89081 -104.944081 
L 235.203661 -109.07323 
L 239.516513 -110.64886 
L 243.829364 -113.083406 
L 248.142215 -116.408299 
L 252.455067 -119.411165 
L 256.767918 -123.490284 
L 261.080769 -125.64431 
L 265.393621 -130.595091 
L 269.706472 -132.478693 
L 274.019323 -136.890198 
L 278.332175 -139.918032 
L 282.645026 -143.074372 
L 286.957877 -146.563985 
L 291.270729 -151.72324 
L 295.58358 -155.10604 
L 299.896431 -156.206064 
L 304.209283 -158.614202 
L 308.522134 -163.105975 
L 312.834985 -162.023024 
L 317.147837 -167.702396 
L 321.460688 -170.430099 
L 325.773539 -172.090992 
L 330.086391 -173.912044 
L 334.399242 -177.300234 
L 338.712093 -180.305695 
L 343.024945 -179.718181 
L 347.337796 -181.422291 
L 351.650647 -184.676125 
L 355.963499 -187.012436 
L 360.27635 -189.265327 
L 364.589201 -190.0686 
L 368.902053 -190.674618 
L 373.214904 -193.963828 
L 377.527755 -195.261461 
L 381.840607 -198.765716 
L 386.153458 -198.158569 
L 390.466309 -201.653286 
L 394.779161 -198.176562 
L 399.092012 -199.869719 
L 403.404863 -204.480019 
L 407.717714 -204.004017 
L 412.030566 -204.124805 
L 416.343417 -203.554281 
L 420.656268 -206.848214 
L 424.96912 -206.326182 
L 429.281971 -205.498332 
L 433.594822 -207.773671 
L 437.907674 -210.495405 
L 442.220525 -211.829814 
L 446.533376 -209.542972 
L 450.846228 -215.027416 
L 455.159079 -211.166877 
L 459.47193 -215.551173 
L 463.784782 -211.725237 
L 468.097633 -214.699921 
L 472.410484 -214.187993 
L 476.723336 -213.799222 
L 476.723336 -221.423395 
L 476.723336 -221.423395 
L 472.410484 -221.560057 
L 468.097633 -222.261896 
L 463.784782 -219.461605 
L 459.47193 -220.192085 
L 455.159079 -216.436161 
L 450.846228 -221.00491 
L 446.533376 -216.141995 
L 442.220525 -215.000246 
L 437.907674 -218.509852 
L 433.594822 -213.211144 
L 429.281971 -217.179368 
L 424.96912 -211.574708 
L 420.656268 -212.239293 
L 416.343417 -213.380387 
L 412.030566 -209.49117 
L 407.717714 -209.370802 
L 403.404863 -209.653404 
L 399.092012 -208.784187 
L 394.779161 -206.059872 
L 390.466309 -205.417932 
L 386.153458 -206.651211 
L 381.840607 -209.268531 
L 377.527755 -202.219404 
L 373.214904 -200.653507 
L 368.902053 -198.233223 
L 364.589201 -195.697821 
L 360.27635 -195.97087 
L 355.963499 -190.484403 
L 351.650647 -190.172786 
L 347.337796 -187.514299 
L 343.024945 -186.405985 
L 338.712093 -185.385667 
L 334.399242 -182.402148 
L 330.086391 -180.146324 
L 325.773539 -177.035651 
L 321.460688 -173.598724 
L 317.147837 -173.681694 
L 312.834985 -171.238413 
L 308.522134 -168.317244 
L 304.209283 -165.833053 
L 299.896431 -163.649641 
L 295.58358 -159.603934 
L 291.270729 -157.326748 
L 286.957877 -152.611374 
L 282.645026 -148.823179 
L 278.332175 -144.794341 
L 274.019323 -144.142545 
L 269.706472 -138.045388 
L 265.393621 -137.507845 
L 261.080769 -134.25612 
L 256.767918 -129.071649 
L 252.455067 -126.944588 
L 248.142215 -123.000237 
L 243.829364 -119.970424 
L 239.516513 -116.419185 
L 235.203661 -114.273663 
L 230.89081 -111.230409 
L 226.577959 -106.320294 
L 222.265107 -104.613017 
L 217.952256 -101.173015 
L 213.639405 -100.63822 
L 209.326553 -98.673782 
L 205.013702 -96.061371 
L 200.700851 -93.409057 
L 196.387999 -93.685538 
L 192.075148 -93.085719 
L 187.762297 -93.024265 
L 183.449445 -89.74239 
L 179.136594 -90.962387 
L 174.823743 -89.78436 
L 170.510891 -90.665288 
L 166.19804 -90.518529 
L 161.885189 -91.237249 
L 157.572337 -89.999694 
L 153.259486 -91.821403 
L 148.946635 -92.720049 
L 144.633783 -92.767804 
L 140.320932 -93.987384 
L 136.008081 -93.046029 
L 131.695229 -95.107168 
L 127.382378 -95.758428 
L 123.069527 -100.82512 
L 118.756675 -99.091794 
L 114.443824 -103.706733 
L 110.130973 -102.88289 
L 105.818121 -105.077387 
L 101.50527 -108.200851 
L 97.192419 -107.620387 
L 92.879567 -111.905386 
L 88.566716 -112.67308 
L 84.253865 -117.639035 
L 79.941013 -119.050417 
L 75.628162 -123.428338 
L 71.315311 -126.431729 
L 67.002459 -130.097392 
L 62.689608 -134.576159 
L 58.376757 -137.234125 
L 54.063905 -141.637437 
L 49.751054 -147.582013 
z
"/>
    </defs>
    <g clip-path="url(#p808451d0c8)">
     <use xlink:href="#m9ddeefa68a" x="0" y="243.299688" style="fill: #e41a1c; fill-opacity: 0.25"/>
    </g>
   </g>
   <g id="PolyCollection_2">
    <defs>
     <path id="m564771511c" d="M 49.751054 -135.499077 
L 49.751054 -131.449982 
L 54.063905 -120.397209 
L 58.376757 -111.550755 
L 62.689608 -108.115314 
L 67.002459 -103.976324 
L 71.315311 -99.859221 
L 75.628162 -97.012058 
L 79.941013 -94.355152 
L 84.253865 -91.550253 
L 88.566716 -89.882262 
L 92.879567 -89.568761 
L 97.192419 -87.865207 
L 101.50527 -86.376832 
L 105.818121 -84.980768 
L 110.130973 -84.552998 
L 114.443824 -85.327218 
L 118.756675 -83.802187 
L 123.069527 -85.860923 
L 127.382378 -83.824447 
L 131.695229 -80.926171 
L 136.008081 -81.027454 
L 140.320932 -81.219293 
L 144.633783 -81.676036 
L 148.946635 -82.618485 
L 153.259486 -80.726032 
L 157.572337 -80.865749 
L 161.885189 -81.702762 
L 166.19804 -83.263639 
L 170.510891 -83.325522 
L 174.823743 -83.01646 
L 179.136594 -83.565223 
L 183.449445 -83.766424 
L 187.762297 -85.577491 
L 192.075148 -85.782507 
L 196.387999 -85.497849 
L 200.700851 -86.435944 
L 205.013702 -87.521271 
L 209.326553 -90.092796 
L 213.639405 -89.104811 
L 217.952256 -90.850003 
L 222.265107 -91.332564 
L 226.577959 -92.546601 
L 230.89081 -94.20661 
L 235.203661 -97.161184 
L 239.516513 -96.303044 
L 243.829364 -97.722863 
L 248.142215 -99.77918 
L 252.455067 -98.528909 
L 256.767918 -101.487641 
L 261.080769 -101.729803 
L 265.393621 -103.018173 
L 269.706472 -103.604862 
L 274.019323 -107.116686 
L 278.332175 -107.329468 
L 282.645026 -104.991609 
L 286.957877 -109.31135 
L 291.270729 -109.707045 
L 295.58358 -112.728128 
L 299.896431 -114.264306 
L 304.209283 -115.314524 
L 308.522134 -115.78214 
L 312.834985 -116.962686 
L 317.147837 -118.925634 
L 321.460688 -117.46426 
L 325.773539 -121.533132 
L 330.086391 -120.441562 
L 334.399242 -123.074147 
L 338.712093 -124.847007 
L 343.024945 -123.139064 
L 347.337796 -128.616433 
L 351.650647 -129.40862 
L 355.963499 -131.069364 
L 360.27635 -131.14124 
L 364.589201 -133.719008 
L 368.902053 -133.675898 
L 373.214904 -132.659175 
L 377.527755 -134.778715 
L 381.840607 -136.421551 
L 386.153458 -139.971879 
L 390.466309 -138.960848 
L 394.779161 -137.718562 
L 399.092012 -141.080378 
L 403.404863 -142.498666 
L 407.717714 -142.008983 
L 412.030566 -144.021773 
L 416.343417 -144.52635 
L 420.656268 -145.492446 
L 424.96912 -142.778364 
L 429.281971 -146.620772 
L 433.594822 -147.258728 
L 437.907674 -146.374797 
L 442.220525 -150.977333 
L 446.533376 -148.971927 
L 450.846228 -150.894175 
L 455.159079 -154.030805 
L 459.47193 -150.95163 
L 463.784782 -154.370935 
L 468.097633 -156.982737 
L 472.410484 -156.347498 
L 476.723336 -158.171284 
L 476.723336 -163.732652 
L 476.723336 -163.732652 
L 472.410484 -161.475947 
L 468.097633 -161.591326 
L 463.784782 -156.092054 
L 459.47193 -161.918929 
L 455.159079 -156.386268 
L 450.846228 -158.688434 
L 446.533376 -152.880905 
L 442.220525 -154.888116 
L 437.907674 -151.766864 
L 433.594822 -154.386486 
L 429.281971 -149.328923 
L 424.96912 -150.939437 
L 420.656268 -147.935888 
L 416.343417 -147.670251 
L 412.030566 -151.055527 
L 407.717714 -145.903501 
L 403.404863 -146.573684 
L 399.092012 -145.089313 
L 394.779161 -143.04308 
L 390.466309 -143.701297 
L 386.153458 -143.357039 
L 381.840607 -141.12401 
L 377.527755 -138.664395 
L 373.214904 -135.72724 
L 368.902053 -137.423523 
L 364.589201 -135.891154 
L 360.27635 -136.169154 
L 355.963499 -133.611869 
L 351.650647 -132.292097 
L 347.337796 -131.824601 
L 343.024945 -130.574351 
L 338.712093 -130.245869 
L 334.399242 -127.125732 
L 330.086391 -123.17044 
L 325.773539 -124.1271 
L 321.460688 -124.077551 
L 317.147837 -124.003625 
L 312.834985 -120.867954 
L 308.522134 -119.998273 
L 304.209283 -118.473555 
L 299.896431 -118.868978 
L 295.58358 -115.971315 
L 291.270729 -114.572531 
L 286.957877 -113.00384 
L 282.645026 -116.986202 
L 278.332175 -108.02054 
L 274.019323 -111.062116 
L 269.706472 -108.674396 
L 265.393621 -107.017214 
L 261.080769 -106.341198 
L 256.767918 -103.863565 
L 252.455067 -102.545367 
L 248.142215 -101.218438 
L 243.829364 -101.399805 
L 239.516513 -99.246997 
L 235.203661 -98.527802 
L 230.89081 -96.609742 
L 226.577959 -96.029075 
L 222.265107 -93.996285 
L 217.952256 -92.68375 
L 213.639405 -92.201041 
L 209.326553 -92.41245 
L 205.013702 -91.112697 
L 200.700851 -89.660295 
L 196.387999 -88.704275 
L 192.075148 -88.052293 
L 187.762297 -86.863075 
L 183.449445 -85.87609 
L 179.136594 -85.146204 
L 174.823743 -85.038575 
L 170.510891 -84.972267 
L 166.19804 -85.741648 
L 161.885189 -83.563804 
L 157.572337 -85.052419 
L 153.259486 -82.794947 
L 148.946635 -84.65399 
L 144.633783 -82.815955 
L 140.320932 -85.257846 
L 136.008081 -83.467732 
L 131.695229 -83.784618 
L 127.382378 -84.516463 
L 123.069527 -88.296483 
L 118.756675 -85.776444 
L 114.443824 -87.865564 
L 110.130973 -88.847402 
L 105.818121 -88.877988 
L 101.50527 -89.275424 
L 97.192419 -91.627981 
L 92.879567 -94.517575 
L 88.566716 -94.63528 
L 84.253865 -97.632305 
L 79.941013 -98.088606 
L 75.628162 -99.346895 
L 71.315311 -102.796146 
L 67.002459 -106.963798 
L 62.689608 -111.688498 
L 58.376757 -114.721155 
L 54.063905 -126.149393 
L 49.751054 -135.499077 
z
"/>
    </defs>
    <g clip-path="url(#p808451d0c8)">
     <use xlink:href="#m564771511c" x="0" y="243.299688" style="fill: #228b22; fill-opacity: 0.25"/>
    </g>
   </g>
   <g id="matplotlib.axis_1">
    <g id="xtick_1">
     <g id="line2d_1">
      <path d="M 45.438203 202.84 
L 45.438203 7.2 
" clip-path="url(#p808451d0c8)" style="fill: none; stroke: #b0b0b0; stroke-opacity: 0.25; stroke-width: 0.8; stroke-linecap: square"/>
     </g>
     <g id="line2d_2">
      <defs>
       <path id="m1e6205ba11" d="M 0 0 
L 0 3.5 
" style="stroke: #000000; stroke-width: 0.8"/>
      </defs>
      <g>
       <use xlink:href="#m1e6205ba11" x="45.438203" y="202.84" style="stroke: #000000; stroke-width: 0.8"/>
      </g>
     </g>
     <g id="text_1">
      <!-- 0 -->
      <g transform="translate(41.938828 218.198281) scale(0.11 -0.11)">
       <defs>
        <path id="DejaVuSans-30" d="M 2034 4250 
Q 1547 4250 1301 3770 
Q 1056 3291 1056 2328 
Q 1056 1369 1301 889 
Q 1547 409 2034 409 
Q 2525 409 2770 889 
Q 3016 1369 3016 2328 
Q 3016 3291 2770 3770 
Q 2525 4250 2034 4250 
z
M 2034 4750 
Q 2819 4750 3233 4129 
Q 3647 3509 3647 2328 
Q 3647 1150 3233 529 
Q 2819 -91 2034 -91 
Q 1250 -91 836 529 
Q 422 1150 422 2328 
Q 422 3509 836 4129 
Q 1250 4750 2034 4750 
z
" transform="scale(0.015625)"/>
       </defs>
       <use xlink:href="#DejaVuSans-30"/>
      </g>
     </g>
    </g>
    <g id="xtick_2">
     <g id="line2d_3">
      <path d="M 131.695229 202.84 
L 131.695229 7.2 
" clip-path="url(#p808451d0c8)" style="fill: none; stroke: #b0b0b0; stroke-opacity: 0.25; stroke-width: 0.8; stroke-linecap: square"/>
     </g>
     <g id="line2d_4">
      <g>
       <use xlink:href="#m1e6205ba11" x="131.695229" y="202.84" style="stroke: #000000; stroke-width: 0.8"/>
      </g>
     </g>
     <g id="text_2">
      <!-- 20 -->
      <g transform="translate(124.696479 218.198281) scale(0.11 -0.11)">
       <defs>
        <path id="DejaVuSans-32" d="M 1228 531 
L 3431 531 
L 3431 0 
L 469 0 
L 469 531 
Q 828 903 1448 1529 
Q 2069 2156 2228 2338 
Q 2531 2678 2651 2914 
Q 2772 3150 2772 3378 
Q 2772 3750 2511 3984 
Q 2250 4219 1831 4219 
Q 1534 4219 1204 4116 
Q 875 4013 500 3803 
L 500 4441 
Q 881 4594 1212 4672 
Q 1544 4750 1819 4750 
Q 2544 4750 2975 4387 
Q 3406 4025 3406 3419 
Q 3406 3131 3298 2873 
Q 3191 2616 2906 2266 
Q 2828 2175 2409 1742 
Q 1991 1309 1228 531 
z
" transform="scale(0.015625)"/>
       </defs>
       <use xlink:href="#DejaVuSans-32"/>
       <use xlink:href="#DejaVuSans-30" x="63.623047"/>
      </g>
     </g>
    </g>
    <g id="xtick_3">
     <g id="line2d_5">
      <path d="M 217.952256 202.84 
L 217.952256 7.2 
" clip-path="url(#p808451d0c8)" style="fill: none; stroke: #b0b0b0; stroke-opacity: 0.25; stroke-width: 0.8; stroke-linecap: square"/>
     </g>
     <g id="line2d_6">
      <g>
       <use xlink:href="#m1e6205ba11" x="217.952256" y="202.84" style="stroke: #000000; stroke-width: 0.8"/>
      </g>
     </g>
     <g id="text_3">
      <!-- 40 -->
      <g transform="translate(210.953506 218.198281) scale(0.11 -0.11)">
       <defs>
        <path id="DejaVuSans-34" d="M 2419 4116 
L 825 1625 
L 2419 1625 
L 2419 4116 
z
M 2253 4666 
L 3047 4666 
L 3047 1625 
L 3713 1625 
L 3713 1100 
L 3047 1100 
L 3047 0 
L 2419 0 
L 2419 1100 
L 313 1100 
L 313 1709 
L 2253 4666 
z
" transform="scale(0.015625)"/>
       </defs>
       <use xlink:href="#DejaVuSans-34"/>
       <use xlink:href="#DejaVuSans-30" x="63.623047"/>
      </g>
     </g>
    </g>
    <g id="xtick_4">
     <g id="line2d_7">
      <path d="M 304.209283 202.84 
L 304.209283 7.2 
" clip-path="url(#p808451d0c8)" style="fill: none; stroke: #b0b0b0; stroke-opacity: 0.25; stroke-width: 0.8; stroke-linecap: square"/>
     </g>
     <g id="line2d_8">
      <g>
       <use xlink:href="#m1e6205ba11" x="304.209283" y="202.84" style="stroke: #000000; stroke-width: 0.8"/>
      </g>
     </g>
     <g id="text_4">
      <!-- 60 -->
      <g transform="translate(297.210533 218.198281) scale(0.11 -0.11)">
       <defs>
        <path id="DejaVuSans-36" d="M 2113 2584 
Q 1688 2584 1439 2293 
Q 1191 2003 1191 1497 
Q 1191 994 1439 701 
Q 1688 409 2113 409 
Q 2538 409 2786 701 
Q 3034 994 3034 1497 
Q 3034 2003 2786 2293 
Q 2538 2584 2113 2584 
z
M 3366 4563 
L 3366 3988 
Q 3128 4100 2886 4159 
Q 2644 4219 2406 4219 
Q 1781 4219 1451 3797 
Q 1122 3375 1075 2522 
Q 1259 2794 1537 2939 
Q 1816 3084 2150 3084 
Q 2853 3084 3261 2657 
Q 3669 2231 3669 1497 
Q 3669 778 3244 343 
Q 2819 -91 2113 -91 
Q 1303 -91 875 529 
Q 447 1150 447 2328 
Q 447 3434 972 4092 
Q 1497 4750 2381 4750 
Q 2619 4750 2861 4703 
Q 3103 4656 3366 4563 
z
" transform="scale(0.015625)"/>
       </defs>
       <use xlink:href="#DejaVuSans-36"/>
       <use xlink:href="#DejaVuSans-30" x="63.623047"/>
      </g>
     </g>
    </g>
    <g id="xtick_5">
     <g id="line2d_9">
      <path d="M 390.466309 202.84 
L 390.466309 7.2 
" clip-path="url(#p808451d0c8)" style="fill: none; stroke: #b0b0b0; stroke-opacity: 0.25; stroke-width: 0.8; stroke-linecap: square"/>
     </g>
     <g id="line2d_10">
      <g>
       <use xlink:href="#m1e6205ba11" x="390.466309" y="202.84" style="stroke: #000000; stroke-width: 0.8"/>
      </g>
     </g>
     <g id="text_5">
      <!-- 80 -->
      <g transform="translate(383.467559 218.198281) scale(0.11 -0.11)">
       <defs>
        <path id="DejaVuSans-38" d="M 2034 2216 
Q 1584 2216 1326 1975 
Q 1069 1734 1069 1313 
Q 1069 891 1326 650 
Q 1584 409 2034 409 
Q 2484 409 2743 651 
Q 3003 894 3003 1313 
Q 3003 1734 2745 1975 
Q 2488 2216 2034 2216 
z
M 1403 2484 
Q 997 2584 770 2862 
Q 544 3141 544 3541 
Q 544 4100 942 4425 
Q 1341 4750 2034 4750 
Q 2731 4750 3128 4425 
Q 3525 4100 3525 3541 
Q 3525 3141 3298 2862 
Q 3072 2584 2669 2484 
Q 3125 2378 3379 2068 
Q 3634 1759 3634 1313 
Q 3634 634 3220 271 
Q 2806 -91 2034 -91 
Q 1263 -91 848 271 
Q 434 634 434 1313 
Q 434 1759 690 2068 
Q 947 2378 1403 2484 
z
M 1172 3481 
Q 1172 3119 1398 2916 
Q 1625 2713 2034 2713 
Q 2441 2713 2670 2916 
Q 2900 3119 2900 3481 
Q 2900 3844 2670 4047 
Q 2441 4250 2034 4250 
Q 1625 4250 1398 4047 
Q 1172 3844 1172 3481 
z
" transform="scale(0.015625)"/>
       </defs>
       <use xlink:href="#DejaVuSans-38"/>
       <use xlink:href="#DejaVuSans-30" x="63.623047"/>
      </g>
     </g>
    </g>
    <g id="xtick_6">
     <g id="line2d_11">
      <path d="M 476.723336 202.84 
L 476.723336 7.2 
" clip-path="url(#p808451d0c8)" style="fill: none; stroke: #b0b0b0; stroke-opacity: 0.25; stroke-width: 0.8; stroke-linecap: square"/>
     </g>
     <g id="line2d_12">
      <g>
       <use xlink:href="#m1e6205ba11" x="476.723336" y="202.84" style="stroke: #000000; stroke-width: 0.8"/>
      </g>
     </g>
     <g id="text_6">
      <!-- 100 -->
      <g transform="translate(466.225211 218.198281) scale(0.11 -0.11)">
       <defs>
        <path id="DejaVuSans-31" d="M 794 531 
L 1825 531 
L 1825 4091 
L 703 3866 
L 703 4441 
L 1819 4666 
L 2450 4666 
L 2450 531 
L 3481 531 
L 3481 0 
L 794 0 
L 794 531 
z
" transform="scale(0.015625)"/>
       </defs>
       <use xlink:href="#DejaVuSans-31"/>
       <use xlink:href="#DejaVuSans-30" x="63.623047"/>
       <use xlink:href="#DejaVuSans-30" x="127.246094"/>
      </g>
     </g>
    </g>
    <g id="text_7">
     <!-- Epoch -->
     <g transform="translate(242.707644 233.604062) scale(0.12 -0.12)">
      <defs>
       <path id="DejaVuSans-45" d="M 628 4666 
L 3578 4666 
L 3578 4134 
L 1259 4134 
L 1259 2753 
L 3481 2753 
L 3481 2222 
L 1259 2222 
L 1259 531 
L 3634 531 
L 3634 0 
L 628 0 
L 628 4666 
z
" transform="scale(0.015625)"/>
       <path id="DejaVuSans-70" d="M 1159 525 
L 1159 -1331 
L 581 -1331 
L 581 3500 
L 1159 3500 
L 1159 2969 
Q 1341 3281 1617 3432 
Q 1894 3584 2278 3584 
Q 2916 3584 3314 3078 
Q 3713 2572 3713 1747 
Q 3713 922 3314 415 
Q 2916 -91 2278 -91 
Q 1894 -91 1617 61 
Q 1341 213 1159 525 
z
M 3116 1747 
Q 3116 2381 2855 2742 
Q 2594 3103 2138 3103 
Q 1681 3103 1420 2742 
Q 1159 2381 1159 1747 
Q 1159 1113 1420 752 
Q 1681 391 2138 391 
Q 2594 391 2855 752 
Q 3116 1113 3116 1747 
z
" transform="scale(0.015625)"/>
       <path id="DejaVuSans-6f" d="M 1959 3097 
Q 1497 3097 1228 2736 
Q 959 2375 959 1747 
Q 959 1119 1226 758 
Q 1494 397 1959 397 
Q 2419 397 2687 759 
Q 2956 1122 2956 1747 
Q 2956 2369 2687 2733 
Q 2419 3097 1959 3097 
z
M 1959 3584 
Q 2709 3584 3137 3096 
Q 3566 2609 3566 1747 
Q 3566 888 3137 398 
Q 2709 -91 1959 -91 
Q 1206 -91 779 398 
Q 353 888 353 1747 
Q 353 2609 779 3096 
Q 1206 3584 1959 3584 
z
" transform="scale(0.015625)"/>
       <path id="DejaVuSans-63" d="M 3122 3366 
L 3122 2828 
Q 2878 2963 2633 3030 
Q 2388 3097 2138 3097 
Q 1578 3097 1268 2742 
Q 959 2388 959 1747 
Q 959 1106 1268 751 
Q 1578 397 2138 397 
Q 2388 397 2633 464 
Q 2878 531 3122 666 
L 3122 134 
Q 2881 22 2623 -34 
Q 2366 -91 2075 -91 
Q 1284 -91 818 406 
Q 353 903 353 1747 
Q 353 2603 823 3093 
Q 1294 3584 2113 3584 
Q 2378 3584 2631 3529 
Q 2884 3475 3122 3366 
z
" transform="scale(0.015625)"/>
       <path id="DejaVuSans-68" d="M 3513 2113 
L 3513 0 
L 2938 0 
L 2938 2094 
Q 2938 2591 2744 2837 
Q 2550 3084 2163 3084 
Q 1697 3084 1428 2787 
Q 1159 2491 1159 1978 
L 1159 0 
L 581 0 
L 581 4863 
L 1159 4863 
L 1159 2956 
Q 1366 3272 1645 3428 
Q 1925 3584 2291 3584 
Q 2894 3584 3203 3211 
Q 3513 2838 3513 2113 
z
" transform="scale(0.015625)"/>
      </defs>
      <use xlink:href="#DejaVuSans-45"/>
      <use xlink:href="#DejaVuSans-70" x="63.183594"/>
      <use xlink:href="#DejaVuSans-6f" x="126.660156"/>
      <use xlink:href="#DejaVuSans-63" x="187.841797"/>
      <use xlink:href="#DejaVuSans-68" x="242.822266"/>
     </g>
    </g>
   </g>
   <g id="matplotlib.axis_2">
    <g id="ytick_1">
     <g id="line2d_13">
      <path d="M 36.8125 182.876735 
L 485.349038 182.876735 
" clip-path="url(#p808451d0c8)" style="fill: none; stroke: #b0b0b0; stroke-opacity: 0.25; stroke-width: 0.8; stroke-linecap: square"/>
     </g>
     <g id="line2d_14">
      <defs>
       <path id="m2b5fe91209" d="M 0 0 
L -3.5 0 
" style="stroke: #000000; stroke-width: 0.8"/>
      </defs>
      <g>
       <use xlink:href="#m2b5fe91209" x="36.8125" y="182.876735" style="stroke: #000000; stroke-width: 0.8"/>
      </g>
     </g>
     <g id="text_8">
      <!-- 2 -->
      <g transform="translate(22.81375 187.055875) scale(0.11 -0.11)">
       <use xlink:href="#DejaVuSans-32"/>
      </g>
     </g>
    </g>
    <g id="ytick_2">
     <g id="line2d_15">
      <path d="M 36.8125 142.950204 
L 485.349038 142.950204 
" clip-path="url(#p808451d0c8)" style="fill: none; stroke: #b0b0b0; stroke-opacity: 0.25; stroke-width: 0.8; stroke-linecap: square"/>
     </g>
     <g id="line2d_16">
      <g>
       <use xlink:href="#m2b5fe91209" x="36.8125" y="142.950204" style="stroke: #000000; stroke-width: 0.8"/>
      </g>
     </g>
     <g id="text_9">
      <!-- 3 -->
      <g transform="translate(22.81375 147.129345) scale(0.11 -0.11)">
       <defs>
        <path id="DejaVuSans-33" d="M 2597 2516 
Q 3050 2419 3304 2112 
Q 3559 1806 3559 1356 
Q 3559 666 3084 287 
Q 2609 -91 1734 -91 
Q 1441 -91 1130 -33 
Q 819 25 488 141 
L 488 750 
Q 750 597 1062 519 
Q 1375 441 1716 441 
Q 2309 441 2620 675 
Q 2931 909 2931 1356 
Q 2931 1769 2642 2001 
Q 2353 2234 1838 2234 
L 1294 2234 
L 1294 2753 
L 1863 2753 
Q 2328 2753 2575 2939 
Q 2822 3125 2822 3475 
Q 2822 3834 2567 4026 
Q 2313 4219 1838 4219 
Q 1578 4219 1281 4162 
Q 984 4106 628 3988 
L 628 4550 
Q 988 4650 1302 4700 
Q 1616 4750 1894 4750 
Q 2613 4750 3031 4423 
Q 3450 4097 3450 3541 
Q 3450 3153 3228 2886 
Q 3006 2619 2597 2516 
z
" transform="scale(0.015625)"/>
       </defs>
       <use xlink:href="#DejaVuSans-33"/>
      </g>
     </g>
    </g>
    <g id="ytick_3">
     <g id="line2d_17">
      <path d="M 36.8125 103.023673 
L 485.349038 103.023673 
" clip-path="url(#p808451d0c8)" style="fill: none; stroke: #b0b0b0; stroke-opacity: 0.25; stroke-width: 0.8; stroke-linecap: square"/>
     </g>
     <g id="line2d_18">
      <g>
       <use xlink:href="#m2b5fe91209" x="36.8125" y="103.023673" style="stroke: #000000; stroke-width: 0.8"/>
      </g>
     </g>
     <g id="text_10">
      <!-- 4 -->
      <g transform="translate(22.81375 107.202814) scale(0.11 -0.11)">
       <use xlink:href="#DejaVuSans-34"/>
      </g>
     </g>
    </g>
    <g id="ytick_4">
     <g id="line2d_19">
      <path d="M 36.8125 63.097143 
L 485.349038 63.097143 
" clip-path="url(#p808451d0c8)" style="fill: none; stroke: #b0b0b0; stroke-opacity: 0.25; stroke-width: 0.8; stroke-linecap: square"/>
     </g>
     <g id="line2d_20">
      <g>
       <use xlink:href="#m2b5fe91209" x="36.8125" y="63.097143" style="stroke: #000000; stroke-width: 0.8"/>
      </g>
     </g>
     <g id="text_11">
      <!-- 5 -->
      <g transform="translate(22.81375 67.276283) scale(0.11 -0.11)">
       <defs>
        <path id="DejaVuSans-35" d="M 691 4666 
L 3169 4666 
L 3169 4134 
L 1269 4134 
L 1269 2991 
Q 1406 3038 1543 3061 
Q 1681 3084 1819 3084 
Q 2600 3084 3056 2656 
Q 3513 2228 3513 1497 
Q 3513 744 3044 326 
Q 2575 -91 1722 -91 
Q 1428 -91 1123 -41 
Q 819 9 494 109 
L 494 744 
Q 775 591 1075 516 
Q 1375 441 1709 441 
Q 2250 441 2565 725 
Q 2881 1009 2881 1497 
Q 2881 1984 2565 2268 
Q 2250 2553 1709 2553 
Q 1456 2553 1204 2497 
Q 953 2441 691 2322 
L 691 4666 
z
" transform="scale(0.015625)"/>
       </defs>
       <use xlink:href="#DejaVuSans-35"/>
      </g>
     </g>
    </g>
    <g id="ytick_5">
     <g id="line2d_21">
      <path d="M 36.8125 23.170612 
L 485.349038 23.170612 
" clip-path="url(#p808451d0c8)" style="fill: none; stroke: #b0b0b0; stroke-opacity: 0.25; stroke-width: 0.8; stroke-linecap: square"/>
     </g>
     <g id="line2d_22">
      <g>
       <use xlink:href="#m2b5fe91209" x="36.8125" y="23.170612" style="stroke: #000000; stroke-width: 0.8"/>
      </g>
     </g>
     <g id="text_12">
      <!-- 6 -->
      <g transform="translate(22.81375 27.349753) scale(0.11 -0.11)">
       <use xlink:href="#DejaVuSans-36"/>
      </g>
     </g>
    </g>
    <g id="text_13">
     <!-- Test Loss -->
     <g transform="translate(16.318125 131.901875) rotate(-90) scale(0.12 -0.12)">
      <defs>
       <path id="DejaVuSans-54" d="M -19 4666 
L 3928 4666 
L 3928 4134 
L 2272 4134 
L 2272 0 
L 1638 0 
L 1638 4134 
L -19 4134 
L -19 4666 
z
" transform="scale(0.015625)"/>
       <path id="DejaVuSans-65" d="M 3597 1894 
L 3597 1613 
L 953 1613 
Q 991 1019 1311 708 
Q 1631 397 2203 397 
Q 2534 397 2845 478 
Q 3156 559 3463 722 
L 3463 178 
Q 3153 47 2828 -22 
Q 2503 -91 2169 -91 
Q 1331 -91 842 396 
Q 353 884 353 1716 
Q 353 2575 817 3079 
Q 1281 3584 2069 3584 
Q 2775 3584 3186 3129 
Q 3597 2675 3597 1894 
z
M 3022 2063 
Q 3016 2534 2758 2815 
Q 2500 3097 2075 3097 
Q 1594 3097 1305 2825 
Q 1016 2553 972 2059 
L 3022 2063 
z
" transform="scale(0.015625)"/>
       <path id="DejaVuSans-73" d="M 2834 3397 
L 2834 2853 
Q 2591 2978 2328 3040 
Q 2066 3103 1784 3103 
Q 1356 3103 1142 2972 
Q 928 2841 928 2578 
Q 928 2378 1081 2264 
Q 1234 2150 1697 2047 
L 1894 2003 
Q 2506 1872 2764 1633 
Q 3022 1394 3022 966 
Q 3022 478 2636 193 
Q 2250 -91 1575 -91 
Q 1294 -91 989 -36 
Q 684 19 347 128 
L 347 722 
Q 666 556 975 473 
Q 1284 391 1588 391 
Q 1994 391 2212 530 
Q 2431 669 2431 922 
Q 2431 1156 2273 1281 
Q 2116 1406 1581 1522 
L 1381 1569 
Q 847 1681 609 1914 
Q 372 2147 372 2553 
Q 372 3047 722 3315 
Q 1072 3584 1716 3584 
Q 2034 3584 2315 3537 
Q 2597 3491 2834 3397 
z
" transform="scale(0.015625)"/>
       <path id="DejaVuSans-74" d="M 1172 4494 
L 1172 3500 
L 2356 3500 
L 2356 3053 
L 1172 3053 
L 1172 1153 
Q 1172 725 1289 603 
Q 1406 481 1766 481 
L 2356 481 
L 2356 0 
L 1766 0 
Q 1100 0 847 248 
Q 594 497 594 1153 
L 594 3053 
L 172 3053 
L 172 3500 
L 594 3500 
L 594 4494 
L 1172 4494 
z
" transform="scale(0.015625)"/>
       <path id="DejaVuSans-20" transform="scale(0.015625)"/>
       <path id="DejaVuSans-4c" d="M 628 4666 
L 1259 4666 
L 1259 531 
L 3531 531 
L 3531 0 
L 628 0 
L 628 4666 
z
" transform="scale(0.015625)"/>
      </defs>
      <use xlink:href="#DejaVuSans-54"/>
      <use xlink:href="#DejaVuSans-65" x="44.083984"/>
      <use xlink:href="#DejaVuSans-73" x="105.607422"/>
      <use xlink:href="#DejaVuSans-74" x="157.707031"/>
      <use xlink:href="#DejaVuSans-20" x="196.916016"/>
      <use xlink:href="#DejaVuSans-4c" x="228.703125"/>
      <use xlink:href="#DejaVuSans-6f" x="282.666016"/>
      <use xlink:href="#DejaVuSans-73" x="343.847656"/>
      <use xlink:href="#DejaVuSans-73" x="395.947266"/>
     </g>
    </g>
   </g>
   <g id="line2d_23">
    <path d="M 49.751054 97.344524 
L 54.063905 102.967776 
L 58.376757 106.997162 
L 62.689608 110.413276 
L 67.002459 114.802 
L 71.315311 118.25804 
L 75.628162 120.973843 
L 79.941013 125.950286 
L 84.253865 126.878977 
L 88.566716 132.007141 
L 92.879567 133.936391 
L 97.192419 136.620252 
L 101.50527 138.129475 
L 105.818121 140.062717 
L 110.130973 141.911316 
L 114.443824 143.010892 
L 118.756675 145.790577 
L 123.069527 145.14776 
L 127.382378 148.867316 
L 131.695229 149.177944 
L 136.008081 150.885203 
L 140.320932 151.033729 
L 144.633783 152.186808 
L 148.946635 153.042034 
L 153.259486 152.880731 
L 157.572337 154.673432 
L 161.885189 153.717591 
L 166.19804 154.628714 
L 170.510891 153.618573 
L 174.823743 155.782591 
L 179.136594 154.155984 
L 183.449445 154.630311 
L 187.762297 152.75057 
L 192.075148 152.449524 
L 196.387999 151.148718 
L 200.700851 150.605717 
L 205.013702 149.311299 
L 209.326553 146.82148 
L 213.639405 143.993884 
L 217.952256 143.92521 
L 222.265107 140.868435 
L 226.577959 138.736358 
L 230.89081 135.212442 
L 235.203661 131.626241 
L 239.516513 129.765665 
L 243.829364 126.772772 
L 248.142215 123.595419 
L 252.455067 120.121811 
L 256.767918 117.018721 
L 261.080769 113.349473 
L 265.393621 109.24822 
L 269.706472 108.037647 
L 274.019323 102.783316 
L 278.332175 100.943501 
L 282.645026 97.350912 
L 286.957877 93.712008 
L 291.270729 88.774693 
L 295.58358 85.944701 
L 299.896431 83.371835 
L 304.209283 81.07606 
L 308.522134 77.588078 
L 312.834985 76.668969 
L 317.147837 72.607642 
L 321.460688 71.285276 
L 325.773539 68.736366 
L 330.086391 66.270504 
L 334.399242 63.448496 
L 338.712093 60.454007 
L 343.024945 60.237605 
L 347.337796 58.831392 
L 351.650647 55.875232 
L 355.963499 54.551268 
L 360.27635 50.681589 
L 364.589201 50.416477 
L 368.902053 48.845767 
L 373.214904 45.99102 
L 377.527755 44.559255 
L 381.840607 39.282564 
L 386.153458 40.894798 
L 390.466309 39.764078 
L 394.779161 41.18147 
L 399.092012 38.972735 
L 403.404863 36.232976 
L 407.717714 36.612278 
L 412.030566 36.4917 
L 416.343417 34.832353 
L 420.656268 33.755934 
L 424.96912 34.349242 
L 429.281971 31.960837 
L 433.594822 32.80728 
L 437.907674 28.797059 
L 442.220525 29.884658 
L 446.533376 30.457204 
L 450.846228 25.283524 
L 455.159079 29.498169 
L 459.47193 25.428058 
L 463.784782 27.706266 
L 468.097633 24.818779 
L 472.410484 25.425663 
L 476.723336 25.688379 
" clip-path="url(#p808451d0c8)" style="fill: none; stroke-dasharray: 7.4,3.2; stroke-dashoffset: 0; stroke: #e41a1c; stroke-width: 2"/>
   </g>
   <g id="line2d_24">
    <path d="M 49.751054 109.825158 
L 54.063905 120.026387 
L 58.376757 130.163733 
L 62.689608 133.397782 
L 67.002459 137.829627 
L 71.315311 141.972004 
L 75.628162 145.120211 
L 79.941013 147.077809 
L 84.253865 148.708408 
L 88.566716 151.040916 
L 92.879567 151.25652 
L 97.192419 153.553094 
L 101.50527 155.47356 
L 105.818121 156.37031 
L 110.130973 156.599488 
L 114.443824 156.703297 
L 118.756675 158.510372 
L 123.069527 156.220984 
L 127.382378 159.129233 
L 131.695229 160.944293 
L 136.008081 161.052095 
L 140.320932 160.061118 
L 144.633783 161.053692 
L 148.946635 159.66345 
L 153.259486 161.539198 
L 157.572337 160.340604 
L 161.885189 160.666404 
L 166.19804 158.797044 
L 170.510891 159.150793 
L 174.823743 159.27217 
L 179.136594 158.943974 
L 183.449445 158.47843 
L 187.762297 157.079405 
L 192.075148 156.382288 
L 196.387999 156.198625 
L 200.700851 155.251568 
L 205.013702 153.982703 
L 209.326553 152.047065 
L 213.639405 152.646761 
L 217.952256 151.532811 
L 222.265107 150.635263 
L 226.577959 149.01185 
L 230.89081 147.891512 
L 235.203661 145.455195 
L 239.516513 145.524667 
L 243.829364 143.738354 
L 248.142215 142.800879 
L 252.455067 142.762549 
L 256.767918 140.624084 
L 261.080769 139.264187 
L 265.393621 138.281994 
L 269.706472 137.160059 
L 274.019323 134.210287 
L 278.332175 135.624684 
L 282.645026 132.310782 
L 286.957877 132.142092 
L 291.270729 131.1599 
L 295.58358 128.949966 
L 299.896431 126.733046 
L 304.209283 126.405648 
L 308.522134 125.409481 
L 312.834985 124.384367 
L 317.147837 121.835058 
L 321.460688 122.528782 
L 325.773539 120.469571 
L 330.086391 121.493687 
L 334.399242 118.199748 
L 338.712093 115.75325 
L 343.024945 116.44298 
L 347.337796 113.07917 
L 351.650647 112.449329 
L 355.963499 110.959071 
L 360.27635 109.64449 
L 364.589201 108.494606 
L 368.902053 107.749977 
L 373.214904 109.10648 
L 377.527755 106.578133 
L 381.840607 104.526907 
L 386.153458 101.635228 
L 390.466309 101.968615 
L 394.779161 102.918866 
L 399.092012 100.214842 
L 403.404863 98.763513 
L 407.717714 99.343446 
L 412.030566 95.761038 
L 416.343417 97.201387 
L 420.656268 96.58552 
L 424.96912 96.440787 
L 429.281971 95.32484 
L 433.594822 92.47708 
L 437.907674 94.228857 
L 442.220525 90.366963 
L 446.533376 92.373271 
L 450.846228 88.508383 
L 455.159079 88.091151 
L 459.47193 86.864408 
L 463.784782 88.068193 
L 468.097633 84.012656 
L 472.410484 84.387965 
L 476.723336 82.34772 
" clip-path="url(#p808451d0c8)" style="fill: none; stroke-dasharray: 7.4,3.2; stroke-dashoffset: 0; stroke: #228b22; stroke-width: 2"/>
   </g>
   <g id="patch_3">
    <path d="M 36.8125 202.84 
L 36.8125 7.2 
" style="fill: none; stroke: #000000; stroke-width: 0.8; stroke-linejoin: miter; stroke-linecap: square"/>
   </g>
   <g id="patch_4">
    <path d="M 485.349038 202.84 
L 485.349038 7.2 
" style="fill: none; stroke: #000000; stroke-width: 0.8; stroke-linejoin: miter; stroke-linecap: square"/>
   </g>
   <g id="patch_5">
    <path d="M 36.8125 202.84 
L 485.349038 202.84 
" style="fill: none; stroke: #000000; stroke-width: 0.8; stroke-linejoin: miter; stroke-linecap: square"/>
   </g>
   <g id="patch_6">
    <path d="M 36.8125 7.2 
L 485.349038 7.2 
" style="fill: none; stroke: #000000; stroke-width: 0.8; stroke-linejoin: miter; stroke-linecap: square"/>
   </g>
   <g id="legend_1">
    <g id="patch_7">
     <path d="M 337.725601 197.84 
L 478.349038 197.84 
Q 480.349038 197.84 480.349038 195.84 
L 480.349038 167.48375 
Q 480.349038 165.48375 478.349038 165.48375 
L 337.725601 165.48375 
Q 335.725601 165.48375 335.725601 167.48375 
L 335.725601 195.84 
Q 335.725601 197.84 337.725601 197.84 
z
" style="fill: #ffffff; opacity: 0.8; stroke: #cccccc; stroke-linejoin: miter"/>
    </g>
    <g id="line2d_25">
     <path d="M 339.725601 173.582188 
L 349.725601 173.582188 
L 359.725601 173.582188 
" style="fill: none; stroke-dasharray: 7.4,3.2; stroke-dashoffset: 0; stroke: #e41a1c; stroke-width: 2"/>
    </g>
    <g id="text_14">
     <!-- Loss - Baseline -->
     <g transform="translate(367.725601 177.082188) scale(0.1 -0.1)">
      <defs>
       <path id="DejaVuSans-2d" d="M 313 2009 
L 1997 2009 
L 1997 1497 
L 313 1497 
L 313 2009 
z
" transform="scale(0.015625)"/>
       <path id="DejaVuSans-42" d="M 1259 2228 
L 1259 519 
L 2272 519 
Q 2781 519 3026 730 
Q 3272 941 3272 1375 
Q 3272 1813 3026 2020 
Q 2781 2228 2272 2228 
L 1259 2228 
z
M 1259 4147 
L 1259 2741 
L 2194 2741 
Q 2656 2741 2882 2914 
Q 3109 3088 3109 3444 
Q 3109 3797 2882 3972 
Q 2656 4147 2194 4147 
L 1259 4147 
z
M 628 4666 
L 2241 4666 
Q 2963 4666 3353 4366 
Q 3744 4066 3744 3513 
Q 3744 3084 3544 2831 
Q 3344 2578 2956 2516 
Q 3422 2416 3680 2098 
Q 3938 1781 3938 1306 
Q 3938 681 3513 340 
Q 3088 0 2303 0 
L 628 0 
L 628 4666 
z
" transform="scale(0.015625)"/>
       <path id="DejaVuSans-61" d="M 2194 1759 
Q 1497 1759 1228 1600 
Q 959 1441 959 1056 
Q 959 750 1161 570 
Q 1363 391 1709 391 
Q 2188 391 2477 730 
Q 2766 1069 2766 1631 
L 2766 1759 
L 2194 1759 
z
M 3341 1997 
L 3341 0 
L 2766 0 
L 2766 531 
Q 2569 213 2275 61 
Q 1981 -91 1556 -91 
Q 1019 -91 701 211 
Q 384 513 384 1019 
Q 384 1609 779 1909 
Q 1175 2209 1959 2209 
L 2766 2209 
L 2766 2266 
Q 2766 2663 2505 2880 
Q 2244 3097 1772 3097 
Q 1472 3097 1187 3025 
Q 903 2953 641 2809 
L 641 3341 
Q 956 3463 1253 3523 
Q 1550 3584 1831 3584 
Q 2591 3584 2966 3190 
Q 3341 2797 3341 1997 
z
" transform="scale(0.015625)"/>
       <path id="DejaVuSans-6c" d="M 603 4863 
L 1178 4863 
L 1178 0 
L 603 0 
L 603 4863 
z
" transform="scale(0.015625)"/>
       <path id="DejaVuSans-69" d="M 603 3500 
L 1178 3500 
L 1178 0 
L 603 0 
L 603 3500 
z
M 603 4863 
L 1178 4863 
L 1178 4134 
L 603 4134 
L 603 4863 
z
" transform="scale(0.015625)"/>
       <path id="DejaVuSans-6e" d="M 3513 2113 
L 3513 0 
L 2938 0 
L 2938 2094 
Q 2938 2591 2744 2837 
Q 2550 3084 2163 3084 
Q 1697 3084 1428 2787 
Q 1159 2491 1159 1978 
L 1159 0 
L 581 0 
L 581 3500 
L 1159 3500 
L 1159 2956 
Q 1366 3272 1645 3428 
Q 1925 3584 2291 3584 
Q 2894 3584 3203 3211 
Q 3513 2838 3513 2113 
z
" transform="scale(0.015625)"/>
      </defs>
      <use xlink:href="#DejaVuSans-4c"/>
      <use xlink:href="#DejaVuSans-6f" x="53.962891"/>
      <use xlink:href="#DejaVuSans-73" x="115.144531"/>
      <use xlink:href="#DejaVuSans-73" x="167.244141"/>
      <use xlink:href="#DejaVuSans-20" x="219.34375"/>
      <use xlink:href="#DejaVuSans-2d" x="251.130859"/>
      <use xlink:href="#DejaVuSans-20" x="287.214844"/>
      <use xlink:href="#DejaVuSans-42" x="319.001953"/>
      <use xlink:href="#DejaVuSans-61" x="387.605469"/>
      <use xlink:href="#DejaVuSans-73" x="448.884766"/>
      <use xlink:href="#DejaVuSans-65" x="500.984375"/>
      <use xlink:href="#DejaVuSans-6c" x="562.507812"/>
      <use xlink:href="#DejaVuSans-69" x="590.291016"/>
      <use xlink:href="#DejaVuSans-6e" x="618.074219"/>
      <use xlink:href="#DejaVuSans-65" x="681.453125"/>
     </g>
    </g>
    <g id="line2d_26">
     <path d="M 339.725601 188.260312 
L 349.725601 188.260312 
L 359.725601 188.260312 
" style="fill: none; stroke-dasharray: 7.4,3.2; stroke-dashoffset: 0; stroke: #228b22; stroke-width: 2"/>
    </g>
    <g id="text_15">
     <!-- Loss - SSL Pre-trained -->
     <g transform="translate(367.725601 191.760312) scale(0.1 -0.1)">
      <defs>
       <path id="DejaVuSans-53" d="M 3425 4513 
L 3425 3897 
Q 3066 4069 2747 4153 
Q 2428 4238 2131 4238 
Q 1616 4238 1336 4038 
Q 1056 3838 1056 3469 
Q 1056 3159 1242 3001 
Q 1428 2844 1947 2747 
L 2328 2669 
Q 3034 2534 3370 2195 
Q 3706 1856 3706 1288 
Q 3706 609 3251 259 
Q 2797 -91 1919 -91 
Q 1588 -91 1214 -16 
Q 841 59 441 206 
L 441 856 
Q 825 641 1194 531 
Q 1563 422 1919 422 
Q 2459 422 2753 634 
Q 3047 847 3047 1241 
Q 3047 1584 2836 1778 
Q 2625 1972 2144 2069 
L 1759 2144 
Q 1053 2284 737 2584 
Q 422 2884 422 3419 
Q 422 4038 858 4394 
Q 1294 4750 2059 4750 
Q 2388 4750 2728 4690 
Q 3069 4631 3425 4513 
z
" transform="scale(0.015625)"/>
       <path id="DejaVuSans-50" d="M 1259 4147 
L 1259 2394 
L 2053 2394 
Q 2494 2394 2734 2622 
Q 2975 2850 2975 3272 
Q 2975 3691 2734 3919 
Q 2494 4147 2053 4147 
L 1259 4147 
z
M 628 4666 
L 2053 4666 
Q 2838 4666 3239 4311 
Q 3641 3956 3641 3272 
Q 3641 2581 3239 2228 
Q 2838 1875 2053 1875 
L 1259 1875 
L 1259 0 
L 628 0 
L 628 4666 
z
" transform="scale(0.015625)"/>
       <path id="DejaVuSans-72" d="M 2631 2963 
Q 2534 3019 2420 3045 
Q 2306 3072 2169 3072 
Q 1681 3072 1420 2755 
Q 1159 2438 1159 1844 
L 1159 0 
L 581 0 
L 581 3500 
L 1159 3500 
L 1159 2956 
Q 1341 3275 1631 3429 
Q 1922 3584 2338 3584 
Q 2397 3584 2469 3576 
Q 2541 3569 2628 3553 
L 2631 2963 
z
" transform="scale(0.015625)"/>
       <path id="DejaVuSans-64" d="M 2906 2969 
L 2906 4863 
L 3481 4863 
L 3481 0 
L 2906 0 
L 2906 525 
Q 2725 213 2448 61 
Q 2172 -91 1784 -91 
Q 1150 -91 751 415 
Q 353 922 353 1747 
Q 353 2572 751 3078 
Q 1150 3584 1784 3584 
Q 2172 3584 2448 3432 
Q 2725 3281 2906 2969 
z
M 947 1747 
Q 947 1113 1208 752 
Q 1469 391 1925 391 
Q 2381 391 2643 752 
Q 2906 1113 2906 1747 
Q 2906 2381 2643 2742 
Q 2381 3103 1925 3103 
Q 1469 3103 1208 2742 
Q 947 2381 947 1747 
z
" transform="scale(0.015625)"/>
      </defs>
      <use xlink:href="#DejaVuSans-4c"/>
      <use xlink:href="#DejaVuSans-6f" x="53.962891"/>
      <use xlink:href="#DejaVuSans-73" x="115.144531"/>
      <use xlink:href="#DejaVuSans-73" x="167.244141"/>
      <use xlink:href="#DejaVuSans-20" x="219.34375"/>
      <use xlink:href="#DejaVuSans-2d" x="251.130859"/>
      <use xlink:href="#DejaVuSans-20" x="287.214844"/>
      <use xlink:href="#DejaVuSans-53" x="319.001953"/>
      <use xlink:href="#DejaVuSans-53" x="382.478516"/>
      <use xlink:href="#DejaVuSans-4c" x="445.955078"/>
      <use xlink:href="#DejaVuSans-20" x="501.667969"/>
      <use xlink:href="#DejaVuSans-50" x="533.455078"/>
      <use xlink:href="#DejaVuSans-72" x="592.007812"/>
      <use xlink:href="#DejaVuSans-65" x="630.871094"/>
      <use xlink:href="#DejaVuSans-2d" x="692.394531"/>
      <use xlink:href="#DejaVuSans-74" x="728.478516"/>
      <use xlink:href="#DejaVuSans-72" x="767.6875"/>
      <use xlink:href="#DejaVuSans-61" x="808.800781"/>
      <use xlink:href="#DejaVuSans-69" x="870.080078"/>
      <use xlink:href="#DejaVuSans-6e" x="897.863281"/>
      <use xlink:href="#DejaVuSans-65" x="961.242188"/>
      <use xlink:href="#DejaVuSans-64" x="1022.765625"/>
     </g>
    </g>
   </g>
  </g>
 </g>
 <defs>
  <clipPath id="p808451d0c8">
   <rect x="36.8125" y="7.2" width="448.536538" height="195.64"/>
  </clipPath>
 </defs>
</svg>
