<?xml version="1.0" encoding="utf-8" standalone="no"?>
<!DOCTYPE svg PUBLIC "-//W3C//DTD SVG 1.1//EN"
  "http://www.w3.org/Graphics/SVG/1.1/DTD/svg11.dtd">
<svg xmlns:xlink="http://www.w3.org/1999/xlink" width="495.50125pt" height="243.299688pt" viewBox="0 0 495.50125 243.299688" xmlns="http://www.w3.org/2000/svg" version="1.1">
 <metadata>
  <rdf:RDF xmlns:dc="http://purl.org/dc/elements/1.1/" xmlns:cc="http://creativecommons.org/ns#" xmlns:rdf="http://www.w3.org/1999/02/22-rdf-syntax-ns#">
   <cc:Work>
    <dc:type rdf:resource="http://purl.org/dc/dcmitype/StillImage"/>
    <dc:date>2025-12-22T20:27:53.732522</dc:date>
    <dc:format>image/svg+xml</dc:format>
    <dc:creator>
     <cc:Agent>
      <dc:title>Matplotlib v3.9.0, https://matplotlib.org/</dc:title>
     </cc:Agent>
    </dc:creator>
   </cc:Work>
  </rdf:RDF>
 </metadata>
 <defs>
  <style type="text/css">*{stroke-linejoin: round; stroke-linecap: butt}</style>
 </defs>
 <g id="figure_1">
  <g id="patch_1">
   <path d="M 0 243.299688 
L 495.50125 243.299688 
L 495.50125 0 
L 0 0 
z
" style="fill: #ffffff"/>
  </g>
  <g id="axes_1">
   <g id="patch_2">
    <path d="M 43.81125 202.84 
L 488.30125 202.84 
L 488.30125 7.2 
L 43.81125 7.2 
z
" style="fill: #ffffff"/>
   </g>
   <g id="PolyCollection_1">
    <defs>
     <path id="m9234d16deb" d="M 64.015341 -78.696925 
L 64.015341 -49.352415 
L 68.096975 -95.082185 
L 72.17861 -111.318488 
L 76.260244 -97.962018 
L 80.341879 -120.504163 
L 84.423514 -162.658968 
L 88.505148 -135.052288 
L 92.586783 -185.598331 
L 96.668417 -181.377886 
L 100.750052 -165.29054 
L 104.831686 -186.343116 
L 108.913321 -170.106813 
L 112.994955 -185.250765 
L 117.07659 -198.358973 
L 121.158224 -180.980667 
L 125.239859 -195.876358 
L 129.321493 -173.234908 
L 133.403128 -188.527817 
L 137.484762 -198.805844 
L 141.566397 -203.572465 
L 145.648031 -197.912102 
L 149.729666 -191.705564 
L 153.811301 -197.763145 
L 157.892935 -193.939918 
L 161.97457 -203.572465 
L 166.056204 -205.359947 
L 170.137839 -210.623091 
L 174.219473 -215.737278 
L 178.301108 -211.864399 
L 182.382742 -212.31127 
L 186.464377 -215.637974 
L 190.546011 -209.034218 
L 194.627646 -214.297362 
L 198.70928 -209.133522 
L 202.790915 -215.935888 
L 206.872549 -211.864399 
L 210.954184 -216.928934 
L 215.035818 -215.290408 
L 219.117453 -215.886235 
L 223.199087 -216.333106 
L 227.280722 -220.404595 
L 231.362357 -216.382758 
L 235.443991 -208.835609 
L 239.525626 -207.346039 
L 243.60726 -208.785956 
L 247.688895 -212.31127 
L 251.770529 -203.622117 
L 255.852164 -217.971632 
L 259.933798 -210.772048 
L 264.015433 -221.645902 
L 268.097067 -216.084845 
L 272.178702 -218.269546 
L 276.260336 -213.900143 
L 280.341971 -218.120589 
L 284.423605 -215.538669 
L 288.50524 -218.815721 
L 292.586874 -213.60223 
L 296.668509 -220.503899 
L 300.750143 -222.291382 
L 304.831778 -219.560506 
L 308.913413 -218.36885 
L 312.995047 -221.894164 
L 317.076682 -213.60223 
L 321.158316 -218.021284 
L 325.239951 -218.219894 
L 329.321585 -218.468155 
L 333.40322 -215.836583 
L 337.484854 -218.418503 
L 341.566489 -221.546598 
L 345.648123 -218.815721 
L 349.729758 -219.957724 
L 353.811392 -215.637974 
L 357.893027 -219.411549 
L 361.974661 -222.837558 
L 366.056296 -219.312244 
L 370.13793 -219.759115 
L 374.219565 -217.773023 
L 378.301199 -224.674693 
L 382.382834 -220.454247 
L 386.464469 -221.447293 
L 390.546103 -225.121564 
L 394.627738 -212.857445 
L 398.709372 -220.752161 
L 402.791007 -217.127543 
L 406.872641 -224.277474 
L 410.954276 -219.808767 
L 415.03591 -209.034218 
L 419.117545 -224.277474 
L 423.199179 -222.787905 
L 427.280814 -220.702509 
L 431.362448 -224.078865 
L 435.444083 -218.269546 
L 439.525717 -220.156333 
L 443.607352 -223.929908 
L 447.688986 -216.084845 
L 451.770621 -223.979561 
L 455.852256 -224.724345 
L 459.93389 -225.022259 
L 464.015525 -223.383733 
L 468.097159 -219.163287 
L 468.097159 -226.11461 
L 468.097159 -226.11461 
L 464.015525 -226.015305 
L 459.93389 -225.965653 
L 455.852256 -224.922954 
L 451.770621 -224.625041 
L 447.688986 -216.879281 
L 443.607352 -226.710437 
L 439.525717 -221.695555 
L 435.444083 -219.510853 
L 431.362448 -224.17817 
L 427.280814 -221.695555 
L 423.199179 -223.53269 
L 419.117545 -227.20696 
L 415.03591 -221.298336 
L 410.954276 -221.496946 
L 406.872641 -225.667739 
L 402.791007 -221.000422 
L 398.709372 -220.901118 
L 394.627738 -224.327127 
L 390.546103 -226.462176 
L 386.464469 -223.185124 
L 382.382834 -220.652856 
L 378.301199 -225.568434 
L 374.219565 -219.957724 
L 370.13793 -225.46913 
L 366.056296 -221.844512 
L 361.974661 -226.710437 
L 357.893027 -222.341035 
L 353.811392 -219.610158 
L 349.729758 -222.390687 
L 345.648123 -222.142425 
L 341.566489 -226.362871 
L 337.484854 -219.063983 
L 333.40322 -224.476084 
L 329.321585 -221.645902 
L 325.239951 -224.277474 
L 321.158316 -220.553552 
L 317.076682 -221.397641 
L 312.995047 -224.17817 
L 308.913413 -222.291382 
L 304.831778 -219.808767 
L 300.750143 -223.929908 
L 296.668509 -222.539644 
L 292.586874 -220.255638 
L 288.50524 -220.603204 
L 284.423605 -221.149379 
L 280.341971 -220.95077 
L 276.260336 -216.730325 
L 272.178702 -222.688601 
L 268.097067 -221.199032 
L 264.015433 -223.085819 
L 259.933798 -219.709463 
L 255.852164 -221.745207 
L 251.770529 -214.446319 
L 247.688895 -220.503899 
L 243.60726 -217.773023 
L 239.525626 -219.709463 
L 235.443991 -220.603204 
L 231.362357 -221.000422 
L 227.280722 -223.383733 
L 223.199087 -218.269546 
L 219.117453 -220.503899 
L 215.035818 -218.269546 
L 210.954184 -217.375804 
L 206.872549 -215.935888 
L 202.790915 -219.560506 
L 198.70928 -217.177195 
L 194.627646 -216.531715 
L 190.546011 -219.709463 
L 186.464377 -219.461201 
L 182.382742 -215.687626 
L 178.301108 -216.63102 
L 174.219473 -217.028238 
L 170.137839 -218.815721 
L 166.056204 -217.326152 
L 161.97457 -213.105706 
L 157.892935 -209.381784 
L 153.811301 -210.275525 
L 149.729666 -213.353968 
L 145.648031 -213.155359 
L 141.566397 -212.063008 
L 137.484762 -204.019335 
L 133.403128 -202.579418 
L 129.321493 -197.713493 
L 125.239859 -205.21099 
L 121.158224 -202.132548 
L 117.07659 -198.9548 
L 112.994955 -192.748263 
L 108.913321 -185.250765 
L 104.831686 -186.591377 
L 100.750052 -187.683728 
L 96.668417 -186.045202 
L 92.586783 -186.392768 
L 88.505148 -159.729482 
L 84.423514 -169.659942 
L 80.341879 -150.941024 
L 76.260244 -150.643111 
L 72.17861 -136.094986 
L 68.096975 -98.21028 
L 64.015341 -78.696925 
z
"/>
    </defs>
    <g clip-path="url(#p648eed6929)">
     <use xlink:href="#m9234d16deb" x="0" y="243.299688" style="fill: #e41a1c; fill-opacity: 0.25"/>
    </g>
   </g>
   <g id="PolyCollection_2">
    <defs>
     <path id="maabe94b93d" d="M 64.015341 -150.19624 
L 64.015341 -150.19624 
L 68.096975 -163.552709 
L 72.17861 -183.860501 
L 76.260244 -180.136578 
L 80.341879 -197.167318 
L 84.423514 -197.713493 
L 88.505148 -199.004453 
L 92.586783 -206.899169 
L 96.668417 -199.352019 
L 100.750052 -204.168292 
L 104.831686 -196.223924 
L 108.913321 -206.601255 
L 112.994955 -203.771074 
L 117.07659 -208.488042 
L 121.158224 -209.481088 
L 125.239859 -206.998473 
L 129.321493 -208.785956 
L 133.403128 -208.587347 
L 137.484762 -213.800839 
L 141.566397 -209.679698 
L 145.648031 -211.268571 
L 149.729666 -214.198057 
L 153.811301 -217.425457 
L 157.892935 -204.76412 
L 161.97457 -209.927959 
L 166.056204 -214.793885 
L 170.137839 -210.573439 
L 174.219473 -214.347014 
L 178.301108 -216.184149 
L 182.382742 -213.254663 
L 186.464377 -217.375804 
L 190.546011 -215.886235 
L 194.627646 -212.460227 
L 198.70928 -219.759115 
L 202.790915 -211.616137 
L 206.872549 -219.510853 
L 210.954184 -213.254663 
L 215.035818 -216.184149 
L 219.117453 -217.028238 
L 223.199087 -214.69458 
L 227.280722 -215.240755 
L 231.362357 -218.716417 
L 235.443991 -218.219894 
L 239.525626 -215.935888 
L 243.60726 -218.865374 
L 247.688895 -220.404595 
L 251.770529 -218.517807 
L 255.852164 -219.063983 
L 259.933798 -217.077891 
L 264.015433 -212.708488 
L 268.097067 -216.581368 
L 272.178702 -215.98554 
L 276.260336 -217.92198 
L 280.341971 -220.007376 
L 284.423605 -220.95077 
L 288.50524 -216.879281 
L 292.586874 -219.361897 
L 296.668509 -217.077891 
L 300.750143 -212.75814 
L 304.831778 -219.21294 
L 308.913413 -218.418503 
L 312.995047 -215.240755 
L 317.076682 -217.822675 
L 321.158316 -220.95077 
L 325.239951 -219.01433 
L 329.321585 -213.304316 
L 333.40322 -217.226848 
L 337.484854 -218.915026 
L 341.566489 -215.489017 
L 345.648123 -223.085819 
L 349.729758 -218.219894 
L 353.811392 -217.127543 
L 357.893027 -220.454247 
L 361.974661 -218.815721 
L 366.056296 -212.063008 
L 370.13793 -219.21294 
L 374.219565 -218.468155 
L 378.301199 -219.510853 
L 382.382834 -220.205986 
L 386.464469 -220.553552 
L 390.546103 -215.737278 
L 394.627738 -216.680672 
L 398.709372 -221.050075 
L 402.791007 -222.341035 
L 406.872641 -223.681647 
L 410.954276 -215.737278 
L 415.03591 -219.461201 
L 419.117545 -218.865374 
L 423.199179 -216.482063 
L 427.280814 -221.844512 
L 431.362448 -221.59625 
L 435.444083 -221.298336 
L 439.525717 -218.468155 
L 443.607352 -219.262592 
L 447.688986 -223.334081 
L 451.770621 -218.517807 
L 455.852256 -221.298336 
L 459.93389 -222.539644 
L 464.015525 -220.901118 
L 468.097159 -222.043121 
L 468.097159 -222.043121 
L 468.097159 -222.043121 
L 464.015525 -220.901118 
L 459.93389 -222.539644 
L 455.852256 -221.298336 
L 451.770621 -218.517807 
L 447.688986 -223.334081 
L 443.607352 -219.262592 
L 439.525717 -218.468155 
L 435.444083 -221.298336 
L 431.362448 -221.59625 
L 427.280814 -221.844512 
L 423.199179 -216.482063 
L 419.117545 -218.865374 
L 415.03591 -219.461201 
L 410.954276 -215.737278 
L 406.872641 -223.681647 
L 402.791007 -222.341035 
L 398.709372 -221.050075 
L 394.627738 -216.680672 
L 390.546103 -215.737278 
L 386.464469 -220.553552 
L 382.382834 -220.205986 
L 378.301199 -219.510853 
L 374.219565 -218.468155 
L 370.13793 -219.21294 
L 366.056296 -212.063008 
L 361.974661 -218.815721 
L 357.893027 -220.454247 
L 353.811392 -217.127543 
L 349.729758 -218.219894 
L 345.648123 -223.085819 
L 341.566489 -215.489017 
L 337.484854 -218.915026 
L 333.40322 -217.226848 
L 329.321585 -213.304316 
L 325.239951 -219.01433 
L 321.158316 -220.95077 
L 317.076682 -217.822675 
L 312.995047 -215.240755 
L 308.913413 -218.418503 
L 304.831778 -219.21294 
L 300.750143 -212.75814 
L 296.668509 -217.077891 
L 292.586874 -219.361897 
L 288.50524 -216.879281 
L 284.423605 -220.95077 
L 280.341971 -220.007376 
L 276.260336 -217.92198 
L 272.178702 -215.98554 
L 268.097067 -216.581368 
L 264.015433 -212.708488 
L 259.933798 -217.077891 
L 255.852164 -219.063983 
L 251.770529 -218.517807 
L 247.688895 -220.404595 
L 243.60726 -218.865374 
L 239.525626 -215.935888 
L 235.443991 -218.219894 
L 231.362357 -218.716417 
L 227.280722 -215.240755 
L 223.199087 -214.69458 
L 219.117453 -217.028238 
L 215.035818 -216.184149 
L 210.954184 -213.254663 
L 206.872549 -219.510853 
L 202.790915 -211.616137 
L 198.70928 -219.759115 
L 194.627646 -212.460227 
L 190.546011 -215.886235 
L 186.464377 -217.375804 
L 182.382742 -213.254663 
L 178.301108 -216.184149 
L 174.219473 -214.347014 
L 170.137839 -210.573439 
L 166.056204 -214.793885 
L 161.97457 -209.927959 
L 157.892935 -204.76412 
L 153.811301 -217.425457 
L 149.729666 -214.198057 
L 145.648031 -211.268571 
L 141.566397 -209.679698 
L 137.484762 -213.800839 
L 133.403128 -208.587347 
L 129.321493 -208.785956 
L 125.239859 -206.998473 
L 121.158224 -209.481088 
L 117.07659 -208.488042 
L 112.994955 -203.771074 
L 108.913321 -206.601255 
L 104.831686 -196.223924 
L 100.750052 -204.168292 
L 96.668417 -199.352019 
L 92.586783 -206.899169 
L 88.505148 -199.004453 
L 84.423514 -197.713493 
L 80.341879 -197.167318 
L 76.260244 -180.136578 
L 72.17861 -183.860501 
L 68.096975 -163.552709 
L 64.015341 -150.19624 
z
"/>
    </defs>
    <g clip-path="url(#p648eed6929)">
     <use xlink:href="#maabe94b93d" x="0" y="243.299688" style="fill: #228b22; fill-opacity: 0.25"/>
    </g>
   </g>
   <g id="matplotlib.axis_1">
    <g id="xtick_1">
     <g id="line2d_1">
      <path d="M 59.933706 202.84 
L 59.933706 7.2 
" clip-path="url(#p648eed6929)" style="fill: none; stroke: #b0b0b0; stroke-opacity: 0.25; stroke-width: 0.8; stroke-linecap: square"/>
     </g>
     <g id="line2d_2">
      <defs>
       <path id="m9849fa3ec0" d="M 0 0 
L 0 3.5 
" style="stroke: #000000; stroke-width: 0.8"/>
      </defs>
      <g>
       <use xlink:href="#m9849fa3ec0" x="59.933706" y="202.84" style="stroke: #000000; stroke-width: 0.8"/>
      </g>
     </g>
     <g id="text_1">
      <!-- 0 -->
      <g transform="translate(56.434331 218.198281) scale(0.11 -0.11)">
       <defs>
        <path id="DejaVuSans-30" d="M 2034 4250 
Q 1547 4250 1301 3770 
Q 1056 3291 1056 2328 
Q 1056 1369 1301 889 
Q 1547 409 2034 409 
Q 2525 409 2770 889 
Q 3016 1369 3016 2328 
Q 3016 3291 2770 3770 
Q 2525 4250 2034 4250 
z
M 2034 4750 
Q 2819 4750 3233 4129 
Q 3647 3509 3647 2328 
Q 3647 1150 3233 529 
Q 2819 -91 2034 -91 
Q 1250 -91 836 529 
Q 422 1150 422 2328 
Q 422 3509 836 4129 
Q 1250 4750 2034 4750 
z
" transform="scale(0.015625)"/>
       </defs>
       <use xlink:href="#DejaVuSans-30"/>
      </g>
     </g>
    </g>
    <g id="xtick_2">
     <g id="line2d_3">
      <path d="M 141.566397 202.84 
L 141.566397 7.2 
" clip-path="url(#p648eed6929)" style="fill: none; stroke: #b0b0b0; stroke-opacity: 0.25; stroke-width: 0.8; stroke-linecap: square"/>
     </g>
     <g id="line2d_4">
      <g>
       <use xlink:href="#m9849fa3ec0" x="141.566397" y="202.84" style="stroke: #000000; stroke-width: 0.8"/>
      </g>
     </g>
     <g id="text_2">
      <!-- 20 -->
      <g transform="translate(134.567647 218.198281) scale(0.11 -0.11)">
       <defs>
        <path id="DejaVuSans-32" d="M 1228 531 
L 3431 531 
L 3431 0 
L 469 0 
L 469 531 
Q 828 903 1448 1529 
Q 2069 2156 2228 2338 
Q 2531 2678 2651 2914 
Q 2772 3150 2772 3378 
Q 2772 3750 2511 3984 
Q 2250 4219 1831 4219 
Q 1534 4219 1204 4116 
Q 875 4013 500 3803 
L 500 4441 
Q 881 4594 1212 4672 
Q 1544 4750 1819 4750 
Q 2544 4750 2975 4387 
Q 3406 4025 3406 3419 
Q 3406 3131 3298 2873 
Q 3191 2616 2906 2266 
Q 2828 2175 2409 1742 
Q 1991 1309 1228 531 
z
" transform="scale(0.015625)"/>
       </defs>
       <use xlink:href="#DejaVuSans-32"/>
       <use xlink:href="#DejaVuSans-30" x="63.623047"/>
      </g>
     </g>
    </g>
    <g id="xtick_3">
     <g id="line2d_5">
      <path d="M 223.199087 202.84 
L 223.199087 7.2 
" clip-path="url(#p648eed6929)" style="fill: none; stroke: #b0b0b0; stroke-opacity: 0.25; stroke-width: 0.8; stroke-linecap: square"/>
     </g>
     <g id="line2d_6">
      <g>
       <use xlink:href="#m9849fa3ec0" x="223.199087" y="202.84" style="stroke: #000000; stroke-width: 0.8"/>
      </g>
     </g>
     <g id="text_3">
      <!-- 40 -->
      <g transform="translate(216.200337 218.198281) scale(0.11 -0.11)">
       <defs>
        <path id="DejaVuSans-34" d="M 2419 4116 
L 825 1625 
L 2419 1625 
L 2419 4116 
z
M 2253 4666 
L 3047 4666 
L 3047 1625 
L 3713 1625 
L 3713 1100 
L 3047 1100 
L 3047 0 
L 2419 0 
L 2419 1100 
L 313 1100 
L 313 1709 
L 2253 4666 
z
" transform="scale(0.015625)"/>
       </defs>
       <use xlink:href="#DejaVuSans-34"/>
       <use xlink:href="#DejaVuSans-30" x="63.623047"/>
      </g>
     </g>
    </g>
    <g id="xtick_4">
     <g id="line2d_7">
      <path d="M 304.831778 202.84 
L 304.831778 7.2 
" clip-path="url(#p648eed6929)" style="fill: none; stroke: #b0b0b0; stroke-opacity: 0.25; stroke-width: 0.8; stroke-linecap: square"/>
     </g>
     <g id="line2d_8">
      <g>
       <use xlink:href="#m9849fa3ec0" x="304.831778" y="202.84" style="stroke: #000000; stroke-width: 0.8"/>
      </g>
     </g>
     <g id="text_4">
      <!-- 60 -->
      <g transform="translate(297.833028 218.198281) scale(0.11 -0.11)">
       <defs>
        <path id="DejaVuSans-36" d="M 2113 2584 
Q 1688 2584 1439 2293 
Q 1191 2003 1191 1497 
Q 1191 994 1439 701 
Q 1688 409 2113 409 
Q 2538 409 2786 701 
Q 3034 994 3034 1497 
Q 3034 2003 2786 2293 
Q 2538 2584 2113 2584 
z
M 3366 4563 
L 3366 3988 
Q 3128 4100 2886 4159 
Q 2644 4219 2406 4219 
Q 1781 4219 1451 3797 
Q 1122 3375 1075 2522 
Q 1259 2794 1537 2939 
Q 1816 3084 2150 3084 
Q 2853 3084 3261 2657 
Q 3669 2231 3669 1497 
Q 3669 778 3244 343 
Q 2819 -91 2113 -91 
Q 1303 -91 875 529 
Q 447 1150 447 2328 
Q 447 3434 972 4092 
Q 1497 4750 2381 4750 
Q 2619 4750 2861 4703 
Q 3103 4656 3366 4563 
z
" transform="scale(0.015625)"/>
       </defs>
       <use xlink:href="#DejaVuSans-36"/>
       <use xlink:href="#DejaVuSans-30" x="63.623047"/>
      </g>
     </g>
    </g>
    <g id="xtick_5">
     <g id="line2d_9">
      <path d="M 386.464469 202.84 
L 386.464469 7.2 
" clip-path="url(#p648eed6929)" style="fill: none; stroke: #b0b0b0; stroke-opacity: 0.25; stroke-width: 0.8; stroke-linecap: square"/>
     </g>
     <g id="line2d_10">
      <g>
       <use xlink:href="#m9849fa3ec0" x="386.464469" y="202.84" style="stroke: #000000; stroke-width: 0.8"/>
      </g>
     </g>
     <g id="text_5">
      <!-- 80 -->
      <g transform="translate(379.465719 218.198281) scale(0.11 -0.11)">
       <defs>
        <path id="DejaVuSans-38" d="M 2034 2216 
Q 1584 2216 1326 1975 
Q 1069 1734 1069 1313 
Q 1069 891 1326 650 
Q 1584 409 2034 409 
Q 2484 409 2743 651 
Q 3003 894 3003 1313 
Q 3003 1734 2745 1975 
Q 2488 2216 2034 2216 
z
M 1403 2484 
Q 997 2584 770 2862 
Q 544 3141 544 3541 
Q 544 4100 942 4425 
Q 1341 4750 2034 4750 
Q 2731 4750 3128 4425 
Q 3525 4100 3525 3541 
Q 3525 3141 3298 2862 
Q 3072 2584 2669 2484 
Q 3125 2378 3379 2068 
Q 3634 1759 3634 1313 
Q 3634 634 3220 271 
Q 2806 -91 2034 -91 
Q 1263 -91 848 271 
Q 434 634 434 1313 
Q 434 1759 690 2068 
Q 947 2378 1403 2484 
z
M 1172 3481 
Q 1172 3119 1398 2916 
Q 1625 2713 2034 2713 
Q 2441 2713 2670 2916 
Q 2900 3119 2900 3481 
Q 2900 3844 2670 4047 
Q 2441 4250 2034 4250 
Q 1625 4250 1398 4047 
Q 1172 3844 1172 3481 
z
" transform="scale(0.015625)"/>
       </defs>
       <use xlink:href="#DejaVuSans-38"/>
       <use xlink:href="#DejaVuSans-30" x="63.623047"/>
      </g>
     </g>
    </g>
    <g id="xtick_6">
     <g id="line2d_11">
      <path d="M 468.097159 202.84 
L 468.097159 7.2 
" clip-path="url(#p648eed6929)" style="fill: none; stroke: #b0b0b0; stroke-opacity: 0.25; stroke-width: 0.8; stroke-linecap: square"/>
     </g>
     <g id="line2d_12">
      <g>
       <use xlink:href="#m9849fa3ec0" x="468.097159" y="202.84" style="stroke: #000000; stroke-width: 0.8"/>
      </g>
     </g>
     <g id="text_6">
      <!-- 100 -->
      <g transform="translate(457.599034 218.198281) scale(0.11 -0.11)">
       <defs>
        <path id="DejaVuSans-31" d="M 794 531 
L 1825 531 
L 1825 4091 
L 703 3866 
L 703 4441 
L 1819 4666 
L 2450 4666 
L 2450 531 
L 3481 531 
L 3481 0 
L 794 0 
L 794 531 
z
" transform="scale(0.015625)"/>
       </defs>
       <use xlink:href="#DejaVuSans-31"/>
       <use xlink:href="#DejaVuSans-30" x="63.623047"/>
       <use xlink:href="#DejaVuSans-30" x="127.246094"/>
      </g>
     </g>
    </g>
    <g id="text_7">
     <!-- Epoch -->
     <g transform="translate(247.683125 233.604063) scale(0.12 -0.12)">
      <defs>
       <path id="DejaVuSans-45" d="M 628 4666 
L 3578 4666 
L 3578 4134 
L 1259 4134 
L 1259 2753 
L 3481 2753 
L 3481 2222 
L 1259 2222 
L 1259 531 
L 3634 531 
L 3634 0 
L 628 0 
L 628 4666 
z
" transform="scale(0.015625)"/>
       <path id="DejaVuSans-70" d="M 1159 525 
L 1159 -1331 
L 581 -1331 
L 581 3500 
L 1159 3500 
L 1159 2969 
Q 1341 3281 1617 3432 
Q 1894 3584 2278 3584 
Q 2916 3584 3314 3078 
Q 3713 2572 3713 1747 
Q 3713 922 3314 415 
Q 2916 -91 2278 -91 
Q 1894 -91 1617 61 
Q 1341 213 1159 525 
z
M 3116 1747 
Q 3116 2381 2855 2742 
Q 2594 3103 2138 3103 
Q 1681 3103 1420 2742 
Q 1159 2381 1159 1747 
Q 1159 1113 1420 752 
Q 1681 391 2138 391 
Q 2594 391 2855 752 
Q 3116 1113 3116 1747 
z
" transform="scale(0.015625)"/>
       <path id="DejaVuSans-6f" d="M 1959 3097 
Q 1497 3097 1228 2736 
Q 959 2375 959 1747 
Q 959 1119 1226 758 
Q 1494 397 1959 397 
Q 2419 397 2687 759 
Q 2956 1122 2956 1747 
Q 2956 2369 2687 2733 
Q 2419 3097 1959 3097 
z
M 1959 3584 
Q 2709 3584 3137 3096 
Q 3566 2609 3566 1747 
Q 3566 888 3137 398 
Q 2709 -91 1959 -91 
Q 1206 -91 779 398 
Q 353 888 353 1747 
Q 353 2609 779 3096 
Q 1206 3584 1959 3584 
z
" transform="scale(0.015625)"/>
       <path id="DejaVuSans-63" d="M 3122 3366 
L 3122 2828 
Q 2878 2963 2633 3030 
Q 2388 3097 2138 3097 
Q 1578 3097 1268 2742 
Q 959 2388 959 1747 
Q 959 1106 1268 751 
Q 1578 397 2138 397 
Q 2388 397 2633 464 
Q 2878 531 3122 666 
L 3122 134 
Q 2881 22 2623 -34 
Q 2366 -91 2075 -91 
Q 1284 -91 818 406 
Q 353 903 353 1747 
Q 353 2603 823 3093 
Q 1294 3584 2113 3584 
Q 2378 3584 2631 3529 
Q 2884 3475 3122 3366 
z
" transform="scale(0.015625)"/>
       <path id="DejaVuSans-68" d="M 3513 2113 
L 3513 0 
L 2938 0 
L 2938 2094 
Q 2938 2591 2744 2837 
Q 2550 3084 2163 3084 
Q 1697 3084 1428 2787 
Q 1159 2491 1159 1978 
L 1159 0 
L 581 0 
L 581 4863 
L 1159 4863 
L 1159 2956 
Q 1366 3272 1645 3428 
Q 1925 3584 2291 3584 
Q 2894 3584 3203 3211 
Q 3513 2838 3513 2113 
z
" transform="scale(0.015625)"/>
      </defs>
      <use xlink:href="#DejaVuSans-45"/>
      <use xlink:href="#DejaVuSans-70" x="63.183594"/>
      <use xlink:href="#DejaVuSans-6f" x="126.660156"/>
      <use xlink:href="#DejaVuSans-63" x="187.841797"/>
      <use xlink:href="#DejaVuSans-68" x="242.822266"/>
     </g>
    </g>
   </g>
   <g id="matplotlib.axis_2">
    <g id="ytick_1">
     <g id="line2d_13">
      <path d="M 43.81125 198.018761 
L 488.30125 198.018761 
" clip-path="url(#p648eed6929)" style="fill: none; stroke: #b0b0b0; stroke-opacity: 0.25; stroke-width: 0.8; stroke-linecap: square"/>
     </g>
     <g id="line2d_14">
      <defs>
       <path id="m5beea59f14" d="M 0 0 
L -3.5 0 
" style="stroke: #000000; stroke-width: 0.8"/>
      </defs>
      <g>
       <use xlink:href="#m5beea59f14" x="43.81125" y="198.018761" style="stroke: #000000; stroke-width: 0.8"/>
      </g>
     </g>
     <g id="text_8">
      <!-- 55 -->
      <g transform="translate(22.81375 202.197902) scale(0.11 -0.11)">
       <defs>
        <path id="DejaVuSans-35" d="M 691 4666 
L 3169 4666 
L 3169 4134 
L 1269 4134 
L 1269 2991 
Q 1406 3038 1543 3061 
Q 1681 3084 1819 3084 
Q 2600 3084 3056 2656 
Q 3513 2228 3513 1497 
Q 3513 744 3044 326 
Q 2575 -91 1722 -91 
Q 1428 -91 1123 -41 
Q 819 9 494 109 
L 494 744 
Q 775 591 1075 516 
Q 1375 441 1709 441 
Q 2250 441 2565 725 
Q 2881 1009 2881 1497 
Q 2881 1984 2565 2268 
Q 2250 2553 1709 2553 
Q 1456 2553 1204 2497 
Q 953 2441 691 2322 
L 691 4666 
z
" transform="scale(0.015625)"/>
       </defs>
       <use xlink:href="#DejaVuSans-35"/>
       <use xlink:href="#DejaVuSans-35" x="63.623047"/>
      </g>
     </g>
    </g>
    <g id="ytick_2">
     <g id="line2d_15">
      <path d="M 43.81125 173.192611 
L 488.30125 173.192611 
" clip-path="url(#p648eed6929)" style="fill: none; stroke: #b0b0b0; stroke-opacity: 0.25; stroke-width: 0.8; stroke-linecap: square"/>
     </g>
     <g id="line2d_16">
      <g>
       <use xlink:href="#m5beea59f14" x="43.81125" y="173.192611" style="stroke: #000000; stroke-width: 0.8"/>
      </g>
     </g>
     <g id="text_9">
      <!-- 60 -->
      <g transform="translate(22.81375 177.371751) scale(0.11 -0.11)">
       <use xlink:href="#DejaVuSans-36"/>
       <use xlink:href="#DejaVuSans-30" x="63.623047"/>
      </g>
     </g>
    </g>
    <g id="ytick_3">
     <g id="line2d_17">
      <path d="M 43.81125 148.36646 
L 488.30125 148.36646 
" clip-path="url(#p648eed6929)" style="fill: none; stroke: #b0b0b0; stroke-opacity: 0.25; stroke-width: 0.8; stroke-linecap: square"/>
     </g>
     <g id="line2d_18">
      <g>
       <use xlink:href="#m5beea59f14" x="43.81125" y="148.36646" style="stroke: #000000; stroke-width: 0.8"/>
      </g>
     </g>
     <g id="text_10">
      <!-- 65 -->
      <g transform="translate(22.81375 152.5456) scale(0.11 -0.11)">
       <use xlink:href="#DejaVuSans-36"/>
       <use xlink:href="#DejaVuSans-35" x="63.623047"/>
      </g>
     </g>
    </g>
    <g id="ytick_4">
     <g id="line2d_19">
      <path d="M 43.81125 123.540309 
L 488.30125 123.540309 
" clip-path="url(#p648eed6929)" style="fill: none; stroke: #b0b0b0; stroke-opacity: 0.25; stroke-width: 0.8; stroke-linecap: square"/>
     </g>
     <g id="line2d_20">
      <g>
       <use xlink:href="#m5beea59f14" x="43.81125" y="123.540309" style="stroke: #000000; stroke-width: 0.8"/>
      </g>
     </g>
     <g id="text_11">
      <!-- 70 -->
      <g transform="translate(22.81375 127.719449) scale(0.11 -0.11)">
       <defs>
        <path id="DejaVuSans-37" d="M 525 4666 
L 3525 4666 
L 3525 4397 
L 1831 0 
L 1172 0 
L 2766 4134 
L 525 4134 
L 525 4666 
z
" transform="scale(0.015625)"/>
       </defs>
       <use xlink:href="#DejaVuSans-37"/>
       <use xlink:href="#DejaVuSans-30" x="63.623047"/>
      </g>
     </g>
    </g>
    <g id="ytick_5">
     <g id="line2d_21">
      <path d="M 43.81125 98.714158 
L 488.30125 98.714158 
" clip-path="url(#p648eed6929)" style="fill: none; stroke: #b0b0b0; stroke-opacity: 0.25; stroke-width: 0.8; stroke-linecap: square"/>
     </g>
     <g id="line2d_22">
      <g>
       <use xlink:href="#m5beea59f14" x="43.81125" y="98.714158" style="stroke: #000000; stroke-width: 0.8"/>
      </g>
     </g>
     <g id="text_12">
      <!-- 75 -->
      <g transform="translate(22.81375 102.893298) scale(0.11 -0.11)">
       <use xlink:href="#DejaVuSans-37"/>
       <use xlink:href="#DejaVuSans-35" x="63.623047"/>
      </g>
     </g>
    </g>
    <g id="ytick_6">
     <g id="line2d_23">
      <path d="M 43.81125 73.888007 
L 488.30125 73.888007 
" clip-path="url(#p648eed6929)" style="fill: none; stroke: #b0b0b0; stroke-opacity: 0.25; stroke-width: 0.8; stroke-linecap: square"/>
     </g>
     <g id="line2d_24">
      <g>
       <use xlink:href="#m5beea59f14" x="43.81125" y="73.888007" style="stroke: #000000; stroke-width: 0.8"/>
      </g>
     </g>
     <g id="text_13">
      <!-- 80 -->
      <g transform="translate(22.81375 78.067147) scale(0.11 -0.11)">
       <use xlink:href="#DejaVuSans-38"/>
       <use xlink:href="#DejaVuSans-30" x="63.623047"/>
      </g>
     </g>
    </g>
    <g id="ytick_7">
     <g id="line2d_25">
      <path d="M 43.81125 49.061856 
L 488.30125 49.061856 
" clip-path="url(#p648eed6929)" style="fill: none; stroke: #b0b0b0; stroke-opacity: 0.25; stroke-width: 0.8; stroke-linecap: square"/>
     </g>
     <g id="line2d_26">
      <g>
       <use xlink:href="#m5beea59f14" x="43.81125" y="49.061856" style="stroke: #000000; stroke-width: 0.8"/>
      </g>
     </g>
     <g id="text_14">
      <!-- 85 -->
      <g transform="translate(22.81375 53.240996) scale(0.11 -0.11)">
       <use xlink:href="#DejaVuSans-38"/>
       <use xlink:href="#DejaVuSans-35" x="63.623047"/>
      </g>
     </g>
    </g>
    <g id="ytick_8">
     <g id="line2d_27">
      <path d="M 43.81125 24.235705 
L 488.30125 24.235705 
" clip-path="url(#p648eed6929)" style="fill: none; stroke: #b0b0b0; stroke-opacity: 0.25; stroke-width: 0.8; stroke-linecap: square"/>
     </g>
     <g id="line2d_28">
      <g>
       <use xlink:href="#m5beea59f14" x="43.81125" y="24.235705" style="stroke: #000000; stroke-width: 0.8"/>
      </g>
     </g>
     <g id="text_15">
      <!-- 90 -->
      <g transform="translate(22.81375 28.414845) scale(0.11 -0.11)">
       <defs>
        <path id="DejaVuSans-39" d="M 703 97 
L 703 672 
Q 941 559 1184 500 
Q 1428 441 1663 441 
Q 2288 441 2617 861 
Q 2947 1281 2994 2138 
Q 2813 1869 2534 1725 
Q 2256 1581 1919 1581 
Q 1219 1581 811 2004 
Q 403 2428 403 3163 
Q 403 3881 828 4315 
Q 1253 4750 1959 4750 
Q 2769 4750 3195 4129 
Q 3622 3509 3622 2328 
Q 3622 1225 3098 567 
Q 2575 -91 1691 -91 
Q 1453 -91 1209 -44 
Q 966 3 703 97 
z
M 1959 2075 
Q 2384 2075 2632 2365 
Q 2881 2656 2881 3163 
Q 2881 3666 2632 3958 
Q 2384 4250 1959 4250 
Q 1534 4250 1286 3958 
Q 1038 3666 1038 3163 
Q 1038 2656 1286 2365 
Q 1534 2075 1959 2075 
z
" transform="scale(0.015625)"/>
       </defs>
       <use xlink:href="#DejaVuSans-39"/>
       <use xlink:href="#DejaVuSans-30" x="63.623047"/>
      </g>
     </g>
    </g>
    <g id="text_16">
     <!-- Test Accuracy (%) -->
     <g transform="translate(16.318125 158.424688) rotate(-90) scale(0.12 -0.12)">
      <defs>
       <path id="DejaVuSans-54" d="M -19 4666 
L 3928 4666 
L 3928 4134 
L 2272 4134 
L 2272 0 
L 1638 0 
L 1638 4134 
L -19 4134 
L -19 4666 
z
" transform="scale(0.015625)"/>
       <path id="DejaVuSans-65" d="M 3597 1894 
L 3597 1613 
L 953 1613 
Q 991 1019 1311 708 
Q 1631 397 2203 397 
Q 2534 397 2845 478 
Q 3156 559 3463 722 
L 3463 178 
Q 3153 47 2828 -22 
Q 2503 -91 2169 -91 
Q 1331 -91 842 396 
Q 353 884 353 1716 
Q 353 2575 817 3079 
Q 1281 3584 2069 3584 
Q 2775 3584 3186 3129 
Q 3597 2675 3597 1894 
z
M 3022 2063 
Q 3016 2534 2758 2815 
Q 2500 3097 2075 3097 
Q 1594 3097 1305 2825 
Q 1016 2553 972 2059 
L 3022 2063 
z
" transform="scale(0.015625)"/>
       <path id="DejaVuSans-73" d="M 2834 3397 
L 2834 2853 
Q 2591 2978 2328 3040 
Q 2066 3103 1784 3103 
Q 1356 3103 1142 2972 
Q 928 2841 928 2578 
Q 928 2378 1081 2264 
Q 1234 2150 1697 2047 
L 1894 2003 
Q 2506 1872 2764 1633 
Q 3022 1394 3022 966 
Q 3022 478 2636 193 
Q 2250 -91 1575 -91 
Q 1294 -91 989 -36 
Q 684 19 347 128 
L 347 722 
Q 666 556 975 473 
Q 1284 391 1588 391 
Q 1994 391 2212 530 
Q 2431 669 2431 922 
Q 2431 1156 2273 1281 
Q 2116 1406 1581 1522 
L 1381 1569 
Q 847 1681 609 1914 
Q 372 2147 372 2553 
Q 372 3047 722 3315 
Q 1072 3584 1716 3584 
Q 2034 3584 2315 3537 
Q 2597 3491 2834 3397 
z
" transform="scale(0.015625)"/>
       <path id="DejaVuSans-74" d="M 1172 4494 
L 1172 3500 
L 2356 3500 
L 2356 3053 
L 1172 3053 
L 1172 1153 
Q 1172 725 1289 603 
Q 1406 481 1766 481 
L 2356 481 
L 2356 0 
L 1766 0 
Q 1100 0 847 248 
Q 594 497 594 1153 
L 594 3053 
L 172 3053 
L 172 3500 
L 594 3500 
L 594 4494 
L 1172 4494 
z
" transform="scale(0.015625)"/>
       <path id="DejaVuSans-20" transform="scale(0.015625)"/>
       <path id="DejaVuSans-41" d="M 2188 4044 
L 1331 1722 
L 3047 1722 
L 2188 4044 
z
M 1831 4666 
L 2547 4666 
L 4325 0 
L 3669 0 
L 3244 1197 
L 1141 1197 
L 716 0 
L 50 0 
L 1831 4666 
z
" transform="scale(0.015625)"/>
       <path id="DejaVuSans-75" d="M 544 1381 
L 544 3500 
L 1119 3500 
L 1119 1403 
Q 1119 906 1312 657 
Q 1506 409 1894 409 
Q 2359 409 2629 706 
Q 2900 1003 2900 1516 
L 2900 3500 
L 3475 3500 
L 3475 0 
L 2900 0 
L 2900 538 
Q 2691 219 2414 64 
Q 2138 -91 1772 -91 
Q 1169 -91 856 284 
Q 544 659 544 1381 
z
M 1991 3584 
L 1991 3584 
z
" transform="scale(0.015625)"/>
       <path id="DejaVuSans-72" d="M 2631 2963 
Q 2534 3019 2420 3045 
Q 2306 3072 2169 3072 
Q 1681 3072 1420 2755 
Q 1159 2438 1159 1844 
L 1159 0 
L 581 0 
L 581 3500 
L 1159 3500 
L 1159 2956 
Q 1341 3275 1631 3429 
Q 1922 3584 2338 3584 
Q 2397 3584 2469 3576 
Q 2541 3569 2628 3553 
L 2631 2963 
z
" transform="scale(0.015625)"/>
       <path id="DejaVuSans-61" d="M 2194 1759 
Q 1497 1759 1228 1600 
Q 959 1441 959 1056 
Q 959 750 1161 570 
Q 1363 391 1709 391 
Q 2188 391 2477 730 
Q 2766 1069 2766 1631 
L 2766 1759 
L 2194 1759 
z
M 3341 1997 
L 3341 0 
L 2766 0 
L 2766 531 
Q 2569 213 2275 61 
Q 1981 -91 1556 -91 
Q 1019 -91 701 211 
Q 384 513 384 1019 
Q 384 1609 779 1909 
Q 1175 2209 1959 2209 
L 2766 2209 
L 2766 2266 
Q 2766 2663 2505 2880 
Q 2244 3097 1772 3097 
Q 1472 3097 1187 3025 
Q 903 2953 641 2809 
L 641 3341 
Q 956 3463 1253 3523 
Q 1550 3584 1831 3584 
Q 2591 3584 2966 3190 
Q 3341 2797 3341 1997 
z
" transform="scale(0.015625)"/>
       <path id="DejaVuSans-79" d="M 2059 -325 
Q 1816 -950 1584 -1140 
Q 1353 -1331 966 -1331 
L 506 -1331 
L 506 -850 
L 844 -850 
Q 1081 -850 1212 -737 
Q 1344 -625 1503 -206 
L 1606 56 
L 191 3500 
L 800 3500 
L 1894 763 
L 2988 3500 
L 3597 3500 
L 2059 -325 
z
" transform="scale(0.015625)"/>
       <path id="DejaVuSans-28" d="M 1984 4856 
Q 1566 4138 1362 3434 
Q 1159 2731 1159 2009 
Q 1159 1288 1364 580 
Q 1569 -128 1984 -844 
L 1484 -844 
Q 1016 -109 783 600 
Q 550 1309 550 2009 
Q 550 2706 781 3412 
Q 1013 4119 1484 4856 
L 1984 4856 
z
" transform="scale(0.015625)"/>
       <path id="DejaVuSans-25" d="M 4653 2053 
Q 4381 2053 4226 1822 
Q 4072 1591 4072 1178 
Q 4072 772 4226 539 
Q 4381 306 4653 306 
Q 4919 306 5073 539 
Q 5228 772 5228 1178 
Q 5228 1588 5073 1820 
Q 4919 2053 4653 2053 
z
M 4653 2450 
Q 5147 2450 5437 2106 
Q 5728 1763 5728 1178 
Q 5728 594 5436 251 
Q 5144 -91 4653 -91 
Q 4153 -91 3862 251 
Q 3572 594 3572 1178 
Q 3572 1766 3864 2108 
Q 4156 2450 4653 2450 
z
M 1428 4353 
Q 1159 4353 1004 4120 
Q 850 3888 850 3481 
Q 850 3069 1003 2837 
Q 1156 2606 1428 2606 
Q 1700 2606 1854 2837 
Q 2009 3069 2009 3481 
Q 2009 3884 1853 4118 
Q 1697 4353 1428 4353 
z
M 4250 4750 
L 4750 4750 
L 1831 -91 
L 1331 -91 
L 4250 4750 
z
M 1428 4750 
Q 1922 4750 2215 4408 
Q 2509 4066 2509 3481 
Q 2509 2891 2217 2550 
Q 1925 2209 1428 2209 
Q 931 2209 642 2551 
Q 353 2894 353 3481 
Q 353 4063 643 4406 
Q 934 4750 1428 4750 
z
" transform="scale(0.015625)"/>
       <path id="DejaVuSans-29" d="M 513 4856 
L 1013 4856 
Q 1481 4119 1714 3412 
Q 1947 2706 1947 2009 
Q 1947 1309 1714 600 
Q 1481 -109 1013 -844 
L 513 -844 
Q 928 -128 1133 580 
Q 1338 1288 1338 2009 
Q 1338 2731 1133 3434 
Q 928 4138 513 4856 
z
" transform="scale(0.015625)"/>
      </defs>
      <use xlink:href="#DejaVuSans-54"/>
      <use xlink:href="#DejaVuSans-65" x="44.083984"/>
      <use xlink:href="#DejaVuSans-73" x="105.607422"/>
      <use xlink:href="#DejaVuSans-74" x="157.707031"/>
      <use xlink:href="#DejaVuSans-20" x="196.916016"/>
      <use xlink:href="#DejaVuSans-41" x="228.703125"/>
      <use xlink:href="#DejaVuSans-63" x="295.361328"/>
      <use xlink:href="#DejaVuSans-63" x="350.341797"/>
      <use xlink:href="#DejaVuSans-75" x="405.322266"/>
      <use xlink:href="#DejaVuSans-72" x="468.701172"/>
      <use xlink:href="#DejaVuSans-61" x="509.814453"/>
      <use xlink:href="#DejaVuSans-63" x="571.09375"/>
      <use xlink:href="#DejaVuSans-79" x="626.074219"/>
      <use xlink:href="#DejaVuSans-20" x="685.253906"/>
      <use xlink:href="#DejaVuSans-28" x="717.041016"/>
      <use xlink:href="#DejaVuSans-25" x="756.054688"/>
      <use xlink:href="#DejaVuSans-29" x="851.074219"/>
     </g>
    </g>
   </g>
   <g id="line2d_29">
    <path d="M 64.015341 179.275018 
L 68.096975 146.653455 
L 72.17861 119.592951 
L 76.260244 118.997123 
L 80.341879 107.577094 
L 84.423514 77.140232 
L 88.505148 95.908803 
L 92.586783 57.304138 
L 96.668417 59.588144 
L 100.750052 66.812554 
L 104.831686 56.832441 
L 108.913321 65.620898 
L 112.994955 54.300174 
L 117.07659 44.642801 
L 121.158224 51.74308 
L 125.239859 42.756013 
L 129.321493 57.825487 
L 133.403128 47.74607 
L 137.484762 41.887098 
L 141.566397 35.481951 
L 145.648031 37.765957 
L 149.729666 40.769921 
L 153.811301 39.280352 
L 157.892935 41.638837 
L 161.97457 34.960602 
L 166.056204 31.956638 
L 170.137839 28.580281 
L 174.219473 26.916929 
L 178.301108 29.051978 
L 182.382742 29.30024 
L 186.464377 25.7501 
L 190.546011 28.927847 
L 194.627646 27.885149 
L 198.70928 30.144329 
L 202.790915 25.551491 
L 206.872549 29.399544 
L 210.954184 26.147318 
L 215.035818 26.519711 
L 219.117453 25.10462 
L 223.199087 25.998362 
L 227.280722 21.405524 
L 231.362357 24.608097 
L 235.443991 28.580281 
L 239.525626 29.771936 
L 243.60726 30.020198 
L 247.688895 26.892103 
L 251.770529 34.26547 
L 255.852164 23.441268 
L 259.933798 28.058932 
L 264.015433 20.933827 
L 268.097067 24.657749 
L 272.178702 22.820614 
L 276.260336 27.984454 
L 280.341971 23.764008 
L 284.423605 24.955663 
L 288.50524 23.590225 
L 292.586874 26.370754 
L 296.668509 21.777916 
L 300.750143 20.189042 
L 304.831778 23.615051 
L 308.913413 22.969571 
L 312.995047 20.263521 
L 317.076682 25.799752 
L 321.158316 24.012269 
L 325.239951 22.051004 
L 329.321585 23.242659 
L 333.40322 23.143354 
L 337.484854 24.558445 
L 341.566489 19.344953 
L 345.648123 22.820614 
L 349.729758 22.125482 
L 353.811392 25.675622 
L 357.893027 22.423396 
L 361.974661 18.52569 
L 366.056296 22.72131 
L 370.13793 20.685565 
L 374.219565 24.434314 
L 378.301199 18.178124 
L 382.382834 22.746136 
L 386.464469 20.983479 
L 390.546103 17.507818 
L 394.627738 24.707402 
L 398.709372 22.473048 
L 402.791007 24.235705 
L 406.872641 18.327081 
L 410.954276 22.646831 
L 415.03591 28.13341 
L 419.117545 17.55747 
L 423.199179 20.13939 
L 427.280814 22.100656 
L 431.362448 19.17117 
L 435.444083 24.409488 
L 439.525717 22.373743 
L 443.607352 17.979515 
L 447.688986 26.817624 
L 451.770621 18.997387 
L 455.852256 18.476038 
L 459.93389 17.805732 
L 464.015525 18.600169 
L 468.097159 20.660739 
" clip-path="url(#p648eed6929)" style="fill: none; stroke: #e41a1c; stroke-width: 2; stroke-linecap: square"/>
   </g>
   <g id="line2d_30">
    <path d="M 64.015341 93.103448 
L 68.096975 79.746978 
L 72.17861 59.439187 
L 76.260244 63.163109 
L 80.341879 46.13237 
L 84.423514 45.586195 
L 88.505148 44.295235 
L 92.586783 36.400519 
L 96.668417 43.947669 
L 100.750052 39.131395 
L 104.831686 47.075764 
L 108.913321 36.698433 
L 112.994955 39.528614 
L 117.07659 34.811645 
L 121.158224 33.818599 
L 125.239859 36.301214 
L 129.321493 34.513731 
L 133.403128 34.71234 
L 137.484762 29.498849 
L 141.566397 33.61999 
L 145.648031 32.031116 
L 149.729666 29.10163 
L 153.811301 25.874231 
L 157.892935 38.535568 
L 161.97457 33.371728 
L 166.056204 28.505803 
L 170.137839 32.726248 
L 174.219473 28.952673 
L 178.301108 27.115538 
L 182.382742 30.045024 
L 186.464377 25.923883 
L 190.546011 27.413452 
L 194.627646 30.839461 
L 198.70928 23.540573 
L 202.790915 31.68355 
L 206.872549 23.788834 
L 210.954184 30.045024 
L 215.035818 27.115538 
L 219.117453 26.271449 
L 223.199087 28.605107 
L 227.280722 28.058932 
L 231.362357 24.583271 
L 235.443991 25.079794 
L 239.525626 27.3638 
L 243.60726 24.434314 
L 247.688895 22.895093 
L 251.770529 24.78188 
L 255.852164 24.235705 
L 259.933798 26.221797 
L 264.015433 30.591199 
L 268.097067 26.71832 
L 272.178702 27.314148 
L 276.260336 25.377708 
L 280.341971 23.292311 
L 284.423605 22.348917 
L 288.50524 26.420406 
L 292.586874 23.937791 
L 296.668509 26.221797 
L 300.750143 30.541547 
L 304.831778 24.086748 
L 308.913413 24.881185 
L 312.995047 28.058932 
L 317.076682 25.477012 
L 321.158316 22.348917 
L 325.239951 24.285357 
L 329.321585 29.995372 
L 333.40322 26.07284 
L 337.484854 24.384662 
L 341.566489 27.810671 
L 345.648123 20.213868 
L 349.729758 25.079794 
L 353.811392 26.172145 
L 357.893027 22.84544 
L 361.974661 24.483966 
L 366.056296 31.236679 
L 370.13793 24.086748 
L 374.219565 24.831532 
L 378.301199 23.788834 
L 382.382834 23.093702 
L 386.464469 22.746136 
L 390.546103 27.562409 
L 394.627738 26.619015 
L 398.709372 22.249613 
L 402.791007 20.958653 
L 406.872641 19.618041 
L 410.954276 27.562409 
L 415.03591 23.838486 
L 419.117545 24.434314 
L 423.199179 26.817624 
L 427.280814 21.455176 
L 431.362448 21.703437 
L 435.444083 22.001351 
L 439.525717 24.831532 
L 443.607352 24.037096 
L 447.688986 19.965607 
L 451.770621 24.78188 
L 455.852256 22.001351 
L 459.93389 20.760044 
L 464.015525 22.39857 
L 468.097159 21.256567 
" clip-path="url(#p648eed6929)" style="fill: none; stroke: #228b22; stroke-width: 2; stroke-linecap: square"/>
   </g>
   <g id="patch_3">
    <path d="M 43.81125 202.84 
L 43.81125 7.2 
" style="fill: none; stroke: #000000; stroke-width: 0.8; stroke-linejoin: miter; stroke-linecap: square"/>
   </g>
   <g id="patch_4">
    <path d="M 488.30125 202.84 
L 488.30125 7.2 
" style="fill: none; stroke: #000000; stroke-width: 0.8; stroke-linejoin: miter; stroke-linecap: square"/>
   </g>
   <g id="patch_5">
    <path d="M 43.81125 202.84 
L 488.30125 202.84 
" style="fill: none; stroke: #000000; stroke-width: 0.8; stroke-linejoin: miter; stroke-linecap: square"/>
   </g>
   <g id="patch_6">
    <path d="M 43.81125 7.2 
L 488.30125 7.2 
" style="fill: none; stroke: #000000; stroke-width: 0.8; stroke-linejoin: miter; stroke-linecap: square"/>
   </g>
   <g id="legend_1">
    <g id="patch_7">
     <path d="M 316.955937 197.84 
L 481.30125 197.84 
Q 483.30125 197.84 483.30125 195.84 
L 483.30125 167.48375 
Q 483.30125 165.48375 481.30125 165.48375 
L 316.955937 165.48375 
Q 314.955937 165.48375 314.955937 167.48375 
L 314.955937 195.84 
Q 314.955937 197.84 316.955937 197.84 
z
" style="fill: #ffffff; opacity: 0.8; stroke: #cccccc; stroke-linejoin: miter"/>
    </g>
    <g id="line2d_31">
     <path d="M 318.955937 173.582188 
L 328.955937 173.582188 
L 338.955937 173.582188 
" style="fill: none; stroke: #e41a1c; stroke-width: 2; stroke-linecap: square"/>
    </g>
    <g id="text_17">
     <!-- Accuracy - Baseline -->
     <g transform="translate(346.955937 177.082188) scale(0.1 -0.1)">
      <defs>
       <path id="DejaVuSans-2d" d="M 313 2009 
L 1997 2009 
L 1997 1497 
L 313 1497 
L 313 2009 
z
" transform="scale(0.015625)"/>
       <path id="DejaVuSans-42" d="M 1259 2228 
L 1259 519 
L 2272 519 
Q 2781 519 3026 730 
Q 3272 941 3272 1375 
Q 3272 1813 3026 2020 
Q 2781 2228 2272 2228 
L 1259 2228 
z
M 1259 4147 
L 1259 2741 
L 2194 2741 
Q 2656 2741 2882 2914 
Q 3109 3088 3109 3444 
Q 3109 3797 2882 3972 
Q 2656 4147 2194 4147 
L 1259 4147 
z
M 628 4666 
L 2241 4666 
Q 2963 4666 3353 4366 
Q 3744 4066 3744 3513 
Q 3744 3084 3544 2831 
Q 3344 2578 2956 2516 
Q 3422 2416 3680 2098 
Q 3938 1781 3938 1306 
Q 3938 681 3513 340 
Q 3088 0 2303 0 
L 628 0 
L 628 4666 
z
" transform="scale(0.015625)"/>
       <path id="DejaVuSans-6c" d="M 603 4863 
L 1178 4863 
L 1178 0 
L 603 0 
L 603 4863 
z
" transform="scale(0.015625)"/>
       <path id="DejaVuSans-69" d="M 603 3500 
L 1178 3500 
L 1178 0 
L 603 0 
L 603 3500 
z
M 603 4863 
L 1178 4863 
L 1178 4134 
L 603 4134 
L 603 4863 
z
" transform="scale(0.015625)"/>
       <path id="DejaVuSans-6e" d="M 3513 2113 
L 3513 0 
L 2938 0 
L 2938 2094 
Q 2938 2591 2744 2837 
Q 2550 3084 2163 3084 
Q 1697 3084 1428 2787 
Q 1159 2491 1159 1978 
L 1159 0 
L 581 0 
L 581 3500 
L 1159 3500 
L 1159 2956 
Q 1366 3272 1645 3428 
Q 1925 3584 2291 3584 
Q 2894 3584 3203 3211 
Q 3513 2838 3513 2113 
z
" transform="scale(0.015625)"/>
      </defs>
      <use xlink:href="#DejaVuSans-41"/>
      <use xlink:href="#DejaVuSans-63" x="66.658203"/>
      <use xlink:href="#DejaVuSans-63" x="121.638672"/>
      <use xlink:href="#DejaVuSans-75" x="176.619141"/>
      <use xlink:href="#DejaVuSans-72" x="239.998047"/>
      <use xlink:href="#DejaVuSans-61" x="281.111328"/>
      <use xlink:href="#DejaVuSans-63" x="342.390625"/>
      <use xlink:href="#DejaVuSans-79" x="397.371094"/>
      <use xlink:href="#DejaVuSans-20" x="456.550781"/>
      <use xlink:href="#DejaVuSans-2d" x="488.337891"/>
      <use xlink:href="#DejaVuSans-20" x="524.421875"/>
      <use xlink:href="#DejaVuSans-42" x="556.208984"/>
      <use xlink:href="#DejaVuSans-61" x="624.8125"/>
      <use xlink:href="#DejaVuSans-73" x="686.091797"/>
      <use xlink:href="#DejaVuSans-65" x="738.191406"/>
      <use xlink:href="#DejaVuSans-6c" x="799.714844"/>
      <use xlink:href="#DejaVuSans-69" x="827.498047"/>
      <use xlink:href="#DejaVuSans-6e" x="855.28125"/>
      <use xlink:href="#DejaVuSans-65" x="918.660156"/>
     </g>
    </g>
    <g id="line2d_32">
     <path d="M 318.955937 188.260313 
L 328.955937 188.260313 
L 338.955937 188.260313 
" style="fill: none; stroke: #228b22; stroke-width: 2; stroke-linecap: square"/>
    </g>
    <g id="text_18">
     <!-- Accuracy - SSL Pre-trained -->
     <g transform="translate(346.955937 191.760313) scale(0.1 -0.1)">
      <defs>
       <path id="DejaVuSans-53" d="M 3425 4513 
L 3425 3897 
Q 3066 4069 2747 4153 
Q 2428 4238 2131 4238 
Q 1616 4238 1336 4038 
Q 1056 3838 1056 3469 
Q 1056 3159 1242 3001 
Q 1428 2844 1947 2747 
L 2328 2669 
Q 3034 2534 3370 2195 
Q 3706 1856 3706 1288 
Q 3706 609 3251 259 
Q 2797 -91 1919 -91 
Q 1588 -91 1214 -16 
Q 841 59 441 206 
L 441 856 
Q 825 641 1194 531 
Q 1563 422 1919 422 
Q 2459 422 2753 634 
Q 3047 847 3047 1241 
Q 3047 1584 2836 1778 
Q 2625 1972 2144 2069 
L 1759 2144 
Q 1053 2284 737 2584 
Q 422 2884 422 3419 
Q 422 4038 858 4394 
Q 1294 4750 2059 4750 
Q 2388 4750 2728 4690 
Q 3069 4631 3425 4513 
z
" transform="scale(0.015625)"/>
       <path id="DejaVuSans-4c" d="M 628 4666 
L 1259 4666 
L 1259 531 
L 3531 531 
L 3531 0 
L 628 0 
L 628 4666 
z
" transform="scale(0.015625)"/>
       <path id="DejaVuSans-50" d="M 1259 4147 
L 1259 2394 
L 2053 2394 
Q 2494 2394 2734 2622 
Q 2975 2850 2975 3272 
Q 2975 3691 2734 3919 
Q 2494 4147 2053 4147 
L 1259 4147 
z
M 628 4666 
L 2053 4666 
Q 2838 4666 3239 4311 
Q 3641 3956 3641 3272 
Q 3641 2581 3239 2228 
Q 2838 1875 2053 1875 
L 1259 1875 
L 1259 0 
L 628 0 
L 628 4666 
z
" transform="scale(0.015625)"/>
       <path id="DejaVuSans-64" d="M 2906 2969 
L 2906 4863 
L 3481 4863 
L 3481 0 
L 2906 0 
L 2906 525 
Q 2725 213 2448 61 
Q 2172 -91 1784 -91 
Q 1150 -91 751 415 
Q 353 922 353 1747 
Q 353 2572 751 3078 
Q 1150 3584 1784 3584 
Q 2172 3584 2448 3432 
Q 2725 3281 2906 2969 
z
M 947 1747 
Q 947 1113 1208 752 
Q 1469 391 1925 391 
Q 2381 391 2643 752 
Q 2906 1113 2906 1747 
Q 2906 2381 2643 2742 
Q 2381 3103 1925 3103 
Q 1469 3103 1208 2742 
Q 947 2381 947 1747 
z
" transform="scale(0.015625)"/>
      </defs>
      <use xlink:href="#DejaVuSans-41"/>
      <use xlink:href="#DejaVuSans-63" x="66.658203"/>
      <use xlink:href="#DejaVuSans-63" x="121.638672"/>
      <use xlink:href="#DejaVuSans-75" x="176.619141"/>
      <use xlink:href="#DejaVuSans-72" x="239.998047"/>
      <use xlink:href="#DejaVuSans-61" x="281.111328"/>
      <use xlink:href="#DejaVuSans-63" x="342.390625"/>
      <use xlink:href="#DejaVuSans-79" x="397.371094"/>
      <use xlink:href="#DejaVuSans-20" x="456.550781"/>
      <use xlink:href="#DejaVuSans-2d" x="488.337891"/>
      <use xlink:href="#DejaVuSans-20" x="524.421875"/>
      <use xlink:href="#DejaVuSans-53" x="556.208984"/>
      <use xlink:href="#DejaVuSans-53" x="619.685547"/>
      <use xlink:href="#DejaVuSans-4c" x="683.162109"/>
      <use xlink:href="#DejaVuSans-20" x="738.875"/>
      <use xlink:href="#DejaVuSans-50" x="770.662109"/>
      <use xlink:href="#DejaVuSans-72" x="829.214844"/>
      <use xlink:href="#DejaVuSans-65" x="868.078125"/>
      <use xlink:href="#DejaVuSans-2d" x="929.601562"/>
      <use xlink:href="#DejaVuSans-74" x="965.685547"/>
      <use xlink:href="#DejaVuSans-72" x="1004.894531"/>
      <use xlink:href="#DejaVuSans-61" x="1046.007812"/>
      <use xlink:href="#DejaVuSans-69" x="1107.287109"/>
      <use xlink:href="#DejaVuSans-6e" x="1135.070312"/>
      <use xlink:href="#DejaVuSans-65" x="1198.449219"/>
      <use xlink:href="#DejaVuSans-64" x="1259.972656"/>
     </g>
    </g>
   </g>
  </g>
 </g>
 <defs>
  <clipPath id="p648eed6929">
   <rect x="43.81125" y="7.2" width="444.49" height="195.64"/>
  </clipPath>
 </defs>
</svg>
