<?xml version="1.0" encoding="utf-8" standalone="no"?>
<!DOCTYPE svg PUBLIC "-//W3C//DTD SVG 1.1//EN"
  "http://www.w3.org/Graphics/SVG/1.1/DTD/svg11.dtd">
<svg xmlns:xlink="http://www.w3.org/1999/xlink" width="495.487188pt" height="243.299688pt" viewBox="0 0 495.487188 243.299688" xmlns="http://www.w3.org/2000/svg" version="1.1">
 <metadata>
  <rdf:RDF xmlns:dc="http://purl.org/dc/elements/1.1/" xmlns:cc="http://creativecommons.org/ns#" xmlns:rdf="http://www.w3.org/1999/02/22-rdf-syntax-ns#">
   <cc:Work>
    <dc:type rdf:resource="http://purl.org/dc/dcmitype/StillImage"/>
    <dc:date>2025-12-22T20:27:01.304649</dc:date>
    <dc:format>image/svg+xml</dc:format>
    <dc:creator>
     <cc:Agent>
      <dc:title>Matplotlib v3.9.0, https://matplotlib.org/</dc:title>
     </cc:Agent>
    </dc:creator>
   </cc:Work>
  </rdf:RDF>
 </metadata>
 <defs>
  <style type="text/css">*{stroke-linejoin: round; stroke-linecap: butt}</style>
 </defs>
 <g id="figure_1">
  <g id="patch_1">
   <path d="M 0 243.299688 
L 495.487188 243.299688 
L 495.487188 0 
L 0 0 
z
" style="fill: #ffffff"/>
  </g>
  <g id="axes_1">
   <g id="patch_2">
    <path d="M 47.307187 202.84 
L 488.287187 202.84 
L 488.287187 7.2 
L 47.307187 7.2 
z
" style="fill: #ffffff"/>
   </g>
   <g id="PolyCollection_1">
    <defs>
     <path id="m4b9e62c48b" d="M 67.351733 -214.921039 
L 67.351733 -214.921039 
L 71.401136 -201.748504 
L 75.450539 -180.013823 
L 79.499942 -179.481855 
L 83.549345 -170.514399 
L 87.598749 -149.919648 
L 91.648152 -145.055943 
L 95.697555 -129.172907 
L 99.746958 -153.694086 
L 103.796361 -123.777234 
L 107.845764 -134.01128 
L 111.895167 -121.345381 
L 115.94457 -109.464769 
L 119.993974 -119.77481 
L 124.043377 -136.291141 
L 128.09278 -111.136667 
L 132.142183 -115.088428 
L 136.191586 -99.306718 
L 140.240989 -106.019644 
L 144.290392 -95.760267 
L 148.339795 -94.949649 
L 152.389199 -90.009949 
L 156.438602 -84.38629 
L 160.488005 -99.382713 
L 164.537408 -90.111276 
L 168.586811 -80.003889 
L 172.636214 -90.440589 
L 176.685617 -77.014737 
L 180.73502 -61.96765 
L 184.784423 -89.173999 
L 188.833827 -75.241511 
L 192.88323 -81.57446 
L 196.932633 -79.294599 
L 200.982036 -67.641972 
L 205.031439 -72.100368 
L 209.080842 -62.524949 
L 213.130245 -68.072613 
L 217.179648 -64.728815 
L 221.229052 -59.003829 
L 225.278455 -55.178728 
L 229.327858 -65.108792 
L 233.377261 -67.084673 
L 237.426664 -61.461014 
L 241.476067 -61.385018 
L 245.52547 -57.711908 
L 249.574873 -64.272843 
L 253.624277 -62.372958 
L 257.67368 -59.130488 
L 261.723083 -67.312659 
L 265.772486 -52.620217 
L 269.821889 -55.862687 
L 273.871292 -61.207696 
L 277.920695 -54.950742 
L 281.970098 -66.755359 
L 286.019502 -60.751723 
L 290.068905 -62.094309 
L 294.118308 -67.034009 
L 298.167711 -60.42241 
L 302.217114 -58.927834 
L 306.266517 -79.59858 
L 310.31592 -79.370594 
L 314.365323 -74.65888 
L 318.414727 -49.352415 
L 322.46413 -70.85911 
L 326.513533 -64.044857 
L 330.562936 -61.385018 
L 334.612339 -61.461014 
L 338.661742 -69.997829 
L 342.711145 -69.009889 
L 346.760548 -86.235511 
L 350.809952 -89.731299 
L 354.859355 -63.462226 
L 358.908758 -71.289751 
L 362.958161 -85.703543 
L 367.007564 -78.002677 
L 371.056967 -88.870018 
L 375.10637 -87.704755 
L 379.155773 -80.510525 
L 383.205176 -77.0654 
L 387.25458 -96.292234 
L 391.303983 -106.880925 
L 395.353386 -94.189695 
L 399.402789 -100.421317 
L 403.452192 -101.58658 
L 407.501595 -91.985829 
L 411.550998 -99.838686 
L 415.600401 -116.355017 
L 419.649805 -95.076308 
L 423.699208 -102.143879 
L 427.748611 -93.683059 
L 431.798014 -92.619124 
L 435.847417 -109.870077 
L 439.89682 -119.090851 
L 443.946223 -118.22957 
L 447.995626 -125.9811 
L 452.04503 -129.400893 
L 456.094433 -138.292353 
L 460.143836 -129.198238 
L 464.193239 -117.545612 
L 468.242642 -133.403317 
L 468.242642 -133.403317 
L 468.242642 -133.403317 
L 464.193239 -117.545612 
L 460.143836 -129.198238 
L 456.094433 -138.292353 
L 452.04503 -129.400893 
L 447.995626 -125.9811 
L 443.946223 -118.22957 
L 439.89682 -119.090851 
L 435.847417 -109.870077 
L 431.798014 -92.619124 
L 427.748611 -93.683059 
L 423.699208 -102.143879 
L 419.649805 -95.076308 
L 415.600401 -116.355017 
L 411.550998 -99.838686 
L 407.501595 -91.985829 
L 403.452192 -101.58658 
L 399.402789 -100.421317 
L 395.353386 -94.189695 
L 391.303983 -106.880925 
L 387.25458 -96.292234 
L 383.205176 -77.0654 
L 379.155773 -80.510525 
L 375.10637 -87.704755 
L 371.056967 -88.870018 
L 367.007564 -78.002677 
L 362.958161 -85.703543 
L 358.908758 -71.289751 
L 354.859355 -63.462226 
L 350.809952 -89.731299 
L 346.760548 -86.235511 
L 342.711145 -69.009889 
L 338.661742 -69.997829 
L 334.612339 -61.461014 
L 330.562936 -61.385018 
L 326.513533 -64.044857 
L 322.46413 -70.85911 
L 318.414727 -49.352415 
L 314.365323 -74.65888 
L 310.31592 -79.370594 
L 306.266517 -79.59858 
L 302.217114 -58.927834 
L 298.167711 -60.42241 
L 294.118308 -67.034009 
L 290.068905 -62.094309 
L 286.019502 -60.751723 
L 281.970098 -66.755359 
L 277.920695 -54.950742 
L 273.871292 -61.207696 
L 269.821889 -55.862687 
L 265.772486 -52.620217 
L 261.723083 -67.312659 
L 257.67368 -59.130488 
L 253.624277 -62.372958 
L 249.574873 -64.272843 
L 245.52547 -57.711908 
L 241.476067 -61.385018 
L 237.426664 -61.461014 
L 233.377261 -67.084673 
L 229.327858 -65.108792 
L 225.278455 -55.178728 
L 221.229052 -59.003829 
L 217.179648 -64.728815 
L 213.130245 -68.072613 
L 209.080842 -62.524949 
L 205.031439 -72.100368 
L 200.982036 -67.641972 
L 196.932633 -79.294599 
L 192.88323 -81.57446 
L 188.833827 -75.241511 
L 184.784423 -89.173999 
L 180.73502 -61.96765 
L 176.685617 -77.014737 
L 172.636214 -90.440589 
L 168.586811 -80.003889 
L 164.537408 -90.111276 
L 160.488005 -99.382713 
L 156.438602 -84.38629 
L 152.389199 -90.009949 
L 148.339795 -94.949649 
L 144.290392 -95.760267 
L 140.240989 -106.019644 
L 136.191586 -99.306718 
L 132.142183 -115.088428 
L 128.09278 -111.136667 
L 124.043377 -136.291141 
L 119.993974 -119.77481 
L 115.94457 -109.464769 
L 111.895167 -121.345381 
L 107.845764 -134.01128 
L 103.796361 -123.777234 
L 99.746958 -153.694086 
L 95.697555 -129.172907 
L 91.648152 -145.055943 
L 87.598749 -149.919648 
L 83.549345 -170.514399 
L 79.499942 -179.481855 
L 75.450539 -180.013823 
L 71.401136 -201.748504 
L 67.351733 -214.921039 
z
"/>
    </defs>
    <g clip-path="url(#p05d205091c)">
     <use xlink:href="#m4b9e62c48b" x="0" y="243.299688" style="fill: #e41a1c; fill-opacity: 0.25"/>
    </g>
   </g>
   <g id="PolyCollection_2">
    <defs>
     <path id="m41bc8f22e4" d="M 67.351733 -133.099335 
L 67.351733 -133.099335 
L 71.401136 -107.843534 
L 75.450539 -125.170483 
L 79.499942 -95.152303 
L 83.549345 -110.630031 
L 87.598749 -78.281327 
L 91.648152 -77.546705 
L 95.697555 -105.386349 
L 99.746958 -82.461073 
L 103.796361 -81.270479 
L 107.845764 -57.002617 
L 111.895167 -75.545493 
L 115.94457 -55.685364 
L 119.993974 -71.112428 
L 124.043377 -70.909774 
L 128.09278 -67.717967 
L 132.142183 -74.886866 
L 136.191586 -65.438106 
L 140.240989 -59.459802 
L 144.290392 -89.705967 
L 148.339795 -63.10758 
L 152.389199 -64.348838 
L 156.438602 -57.357263 
L 160.488005 -86.184847 
L 164.537408 -74.405562 
L 168.586811 -57.559917 
L 172.636214 -61.106368 
L 176.685617 -64.323507 
L 180.73502 -53.000194 
L 184.784423 -58.091885 
L 188.833827 -59.231816 
L 192.88323 -75.92547 
L 196.932633 -62.575613 
L 200.982036 -63.538221 
L 205.031439 -58.72518 
L 209.080842 -54.317447 
L 213.130245 -64.298175 
L 217.179648 -66.856686 
L 221.229052 -70.124488 
L 225.278455 -62.11964 
L 229.327858 -76.685424 
L 233.377261 -67.641972 
L 237.426664 -74.785539 
L 241.476067 -76.609428 
L 245.52547 -74.481557 
L 249.574873 -96.494889 
L 253.624277 -83.094368 
L 257.67368 -71.872382 
L 261.723083 -83.803658 
L 265.772486 -80.282539 
L 269.821889 -88.186059 
L 273.871292 -82.055764 
L 277.920695 -87.274115 
L 281.970098 -97.609488 
L 286.019502 -89.579308 
L 290.068905 -101.409257 
L 294.118308 -118.330898 
L 298.167711 -106.24763 
L 302.217114 -99.002737 
L 306.266517 -116.760326 
L 310.31592 -116.583004 
L 314.365323 -105.031704 
L 318.414727 -103.182483 
L 322.46413 -128.868925 
L 326.513533 -101.763902 
L 330.562936 -127.830321 
L 334.612339 -127.450344 
L 338.661742 -123.01728 
L 342.711145 -119.850805 
L 346.760548 -154.986008 
L 350.809952 -130.059519 
L 354.859355 -118.102911 
L 358.908758 -140.014916 
L 362.958161 -138.824321 
L 367.007564 -144.042671 
L 371.056967 -144.929284 
L 375.10637 -151.92086 
L 379.155773 -148.095759 
L 383.205176 -137.076427 
L 387.25458 -165.828017 
L 391.303983 -174.719477 
L 395.353386 -182.521671 
L 399.402789 -164.738749 
L 403.452192 -174.516823 
L 407.501595 -160.964312 
L 411.550998 -174.770141 
L 415.600401 -189.538578 
L 419.649805 -190.602514 
L 423.699208 -175.631422 
L 427.748611 -187.132058 
L 431.798014 -190.070546 
L 435.847417 -174.212841 
L 439.89682 -179.101878 
L 443.946223 -195.364892 
L 447.995626 -206.232232 
L 452.04503 -203.268412 
L 456.094433 -202.837772 
L 460.143836 -207.878799 
L 464.193239 -223.913827 
L 468.242642 -227.20696 
L 468.242642 -227.20696 
L 468.242642 -227.20696 
L 464.193239 -223.913827 
L 460.143836 -207.878799 
L 456.094433 -202.837772 
L 452.04503 -203.268412 
L 447.995626 -206.232232 
L 443.946223 -195.364892 
L 439.89682 -179.101878 
L 435.847417 -174.212841 
L 431.798014 -190.070546 
L 427.748611 -187.132058 
L 423.699208 -175.631422 
L 419.649805 -190.602514 
L 415.600401 -189.538578 
L 411.550998 -174.770141 
L 407.501595 -160.964312 
L 403.452192 -174.516823 
L 399.402789 -164.738749 
L 395.353386 -182.521671 
L 391.303983 -174.719477 
L 387.25458 -165.828017 
L 383.205176 -137.076427 
L 379.155773 -148.095759 
L 375.10637 -151.92086 
L 371.056967 -144.929284 
L 367.007564 -144.042671 
L 362.958161 -138.824321 
L 358.908758 -140.014916 
L 354.859355 -118.102911 
L 350.809952 -130.059519 
L 346.760548 -154.986008 
L 342.711145 -119.850805 
L 338.661742 -123.01728 
L 334.612339 -127.450344 
L 330.562936 -127.830321 
L 326.513533 -101.763902 
L 322.46413 -128.868925 
L 318.414727 -103.182483 
L 314.365323 -105.031704 
L 310.31592 -116.583004 
L 306.266517 -116.760326 
L 302.217114 -99.002737 
L 298.167711 -106.24763 
L 294.118308 -118.330898 
L 290.068905 -101.409257 
L 286.019502 -89.579308 
L 281.970098 -97.609488 
L 277.920695 -87.274115 
L 273.871292 -82.055764 
L 269.821889 -88.186059 
L 265.772486 -80.282539 
L 261.723083 -83.803658 
L 257.67368 -71.872382 
L 253.624277 -83.094368 
L 249.574873 -96.494889 
L 245.52547 -74.481557 
L 241.476067 -76.609428 
L 237.426664 -74.785539 
L 233.377261 -67.641972 
L 229.327858 -76.685424 
L 225.278455 -62.11964 
L 221.229052 -70.124488 
L 217.179648 -66.856686 
L 213.130245 -64.298175 
L 209.080842 -54.317447 
L 205.031439 -58.72518 
L 200.982036 -63.538221 
L 196.932633 -62.575613 
L 192.88323 -75.92547 
L 188.833827 -59.231816 
L 184.784423 -58.091885 
L 180.73502 -53.000194 
L 176.685617 -64.323507 
L 172.636214 -61.106368 
L 168.586811 -57.559917 
L 164.537408 -74.405562 
L 160.488005 -86.184847 
L 156.438602 -57.357263 
L 152.389199 -64.348838 
L 148.339795 -63.10758 
L 144.290392 -89.705967 
L 140.240989 -59.459802 
L 136.191586 -65.438106 
L 132.142183 -74.886866 
L 128.09278 -67.717967 
L 124.043377 -70.909774 
L 119.993974 -71.112428 
L 115.94457 -55.685364 
L 111.895167 -75.545493 
L 107.845764 -57.002617 
L 103.796361 -81.270479 
L 99.746958 -82.461073 
L 95.697555 -105.386349 
L 91.648152 -77.546705 
L 87.598749 -78.281327 
L 83.549345 -110.630031 
L 79.499942 -95.152303 
L 75.450539 -125.170483 
L 71.401136 -107.843534 
L 67.351733 -133.099335 
z
"/>
    </defs>
    <g clip-path="url(#p05d205091c)">
     <use xlink:href="#m41bc8f22e4" x="0" y="243.299688" style="fill: #228b22; fill-opacity: 0.25"/>
    </g>
   </g>
   <g id="matplotlib.axis_1">
    <g id="xtick_1">
     <g id="line2d_1">
      <path d="M 63.30233 202.84 
L 63.30233 7.2 
" clip-path="url(#p05d205091c)" style="fill: none; stroke: #b0b0b0; stroke-opacity: 0.25; stroke-width: 0.8; stroke-linecap: square"/>
     </g>
     <g id="line2d_2">
      <defs>
       <path id="m10fb391b77" d="M 0 0 
L 0 3.5 
" style="stroke: #000000; stroke-width: 0.8"/>
      </defs>
      <g>
       <use xlink:href="#m10fb391b77" x="63.30233" y="202.84" style="stroke: #000000; stroke-width: 0.8"/>
      </g>
     </g>
     <g id="text_1">
      <!-- 0 -->
      <g transform="translate(59.802955 218.198281) scale(0.11 -0.11)">
       <defs>
        <path id="DejaVuSans-30" d="M 2034 4250 
Q 1547 4250 1301 3770 
Q 1056 3291 1056 2328 
Q 1056 1369 1301 889 
Q 1547 409 2034 409 
Q 2525 409 2770 889 
Q 3016 1369 3016 2328 
Q 3016 3291 2770 3770 
Q 2525 4250 2034 4250 
z
M 2034 4750 
Q 2819 4750 3233 4129 
Q 3647 3509 3647 2328 
Q 3647 1150 3233 529 
Q 2819 -91 2034 -91 
Q 1250 -91 836 529 
Q 422 1150 422 2328 
Q 422 3509 836 4129 
Q 1250 4750 2034 4750 
z
" transform="scale(0.015625)"/>
       </defs>
       <use xlink:href="#DejaVuSans-30"/>
      </g>
     </g>
    </g>
    <g id="xtick_2">
     <g id="line2d_3">
      <path d="M 144.290392 202.84 
L 144.290392 7.2 
" clip-path="url(#p05d205091c)" style="fill: none; stroke: #b0b0b0; stroke-opacity: 0.25; stroke-width: 0.8; stroke-linecap: square"/>
     </g>
     <g id="line2d_4">
      <g>
       <use xlink:href="#m10fb391b77" x="144.290392" y="202.84" style="stroke: #000000; stroke-width: 0.8"/>
      </g>
     </g>
     <g id="text_2">
      <!-- 20 -->
      <g transform="translate(137.291642 218.198281) scale(0.11 -0.11)">
       <defs>
        <path id="DejaVuSans-32" d="M 1228 531 
L 3431 531 
L 3431 0 
L 469 0 
L 469 531 
Q 828 903 1448 1529 
Q 2069 2156 2228 2338 
Q 2531 2678 2651 2914 
Q 2772 3150 2772 3378 
Q 2772 3750 2511 3984 
Q 2250 4219 1831 4219 
Q 1534 4219 1204 4116 
Q 875 4013 500 3803 
L 500 4441 
Q 881 4594 1212 4672 
Q 1544 4750 1819 4750 
Q 2544 4750 2975 4387 
Q 3406 4025 3406 3419 
Q 3406 3131 3298 2873 
Q 3191 2616 2906 2266 
Q 2828 2175 2409 1742 
Q 1991 1309 1228 531 
z
" transform="scale(0.015625)"/>
       </defs>
       <use xlink:href="#DejaVuSans-32"/>
       <use xlink:href="#DejaVuSans-30" x="63.623047"/>
      </g>
     </g>
    </g>
    <g id="xtick_3">
     <g id="line2d_5">
      <path d="M 225.278455 202.84 
L 225.278455 7.2 
" clip-path="url(#p05d205091c)" style="fill: none; stroke: #b0b0b0; stroke-opacity: 0.25; stroke-width: 0.8; stroke-linecap: square"/>
     </g>
     <g id="line2d_6">
      <g>
       <use xlink:href="#m10fb391b77" x="225.278455" y="202.84" style="stroke: #000000; stroke-width: 0.8"/>
      </g>
     </g>
     <g id="text_3">
      <!-- 40 -->
      <g transform="translate(218.279705 218.198281) scale(0.11 -0.11)">
       <defs>
        <path id="DejaVuSans-34" d="M 2419 4116 
L 825 1625 
L 2419 1625 
L 2419 4116 
z
M 2253 4666 
L 3047 4666 
L 3047 1625 
L 3713 1625 
L 3713 1100 
L 3047 1100 
L 3047 0 
L 2419 0 
L 2419 1100 
L 313 1100 
L 313 1709 
L 2253 4666 
z
" transform="scale(0.015625)"/>
       </defs>
       <use xlink:href="#DejaVuSans-34"/>
       <use xlink:href="#DejaVuSans-30" x="63.623047"/>
      </g>
     </g>
    </g>
    <g id="xtick_4">
     <g id="line2d_7">
      <path d="M 306.266517 202.84 
L 306.266517 7.2 
" clip-path="url(#p05d205091c)" style="fill: none; stroke: #b0b0b0; stroke-opacity: 0.25; stroke-width: 0.8; stroke-linecap: square"/>
     </g>
     <g id="line2d_8">
      <g>
       <use xlink:href="#m10fb391b77" x="306.266517" y="202.84" style="stroke: #000000; stroke-width: 0.8"/>
      </g>
     </g>
     <g id="text_4">
      <!-- 60 -->
      <g transform="translate(299.267767 218.198281) scale(0.11 -0.11)">
       <defs>
        <path id="DejaVuSans-36" d="M 2113 2584 
Q 1688 2584 1439 2293 
Q 1191 2003 1191 1497 
Q 1191 994 1439 701 
Q 1688 409 2113 409 
Q 2538 409 2786 701 
Q 3034 994 3034 1497 
Q 3034 2003 2786 2293 
Q 2538 2584 2113 2584 
z
M 3366 4563 
L 3366 3988 
Q 3128 4100 2886 4159 
Q 2644 4219 2406 4219 
Q 1781 4219 1451 3797 
Q 1122 3375 1075 2522 
Q 1259 2794 1537 2939 
Q 1816 3084 2150 3084 
Q 2853 3084 3261 2657 
Q 3669 2231 3669 1497 
Q 3669 778 3244 343 
Q 2819 -91 2113 -91 
Q 1303 -91 875 529 
Q 447 1150 447 2328 
Q 447 3434 972 4092 
Q 1497 4750 2381 4750 
Q 2619 4750 2861 4703 
Q 3103 4656 3366 4563 
z
" transform="scale(0.015625)"/>
       </defs>
       <use xlink:href="#DejaVuSans-36"/>
       <use xlink:href="#DejaVuSans-30" x="63.623047"/>
      </g>
     </g>
    </g>
    <g id="xtick_5">
     <g id="line2d_9">
      <path d="M 387.25458 202.84 
L 387.25458 7.2 
" clip-path="url(#p05d205091c)" style="fill: none; stroke: #b0b0b0; stroke-opacity: 0.25; stroke-width: 0.8; stroke-linecap: square"/>
     </g>
     <g id="line2d_10">
      <g>
       <use xlink:href="#m10fb391b77" x="387.25458" y="202.84" style="stroke: #000000; stroke-width: 0.8"/>
      </g>
     </g>
     <g id="text_5">
      <!-- 80 -->
      <g transform="translate(380.25583 218.198281) scale(0.11 -0.11)">
       <defs>
        <path id="DejaVuSans-38" d="M 2034 2216 
Q 1584 2216 1326 1975 
Q 1069 1734 1069 1313 
Q 1069 891 1326 650 
Q 1584 409 2034 409 
Q 2484 409 2743 651 
Q 3003 894 3003 1313 
Q 3003 1734 2745 1975 
Q 2488 2216 2034 2216 
z
M 1403 2484 
Q 997 2584 770 2862 
Q 544 3141 544 3541 
Q 544 4100 942 4425 
Q 1341 4750 2034 4750 
Q 2731 4750 3128 4425 
Q 3525 4100 3525 3541 
Q 3525 3141 3298 2862 
Q 3072 2584 2669 2484 
Q 3125 2378 3379 2068 
Q 3634 1759 3634 1313 
Q 3634 634 3220 271 
Q 2806 -91 2034 -91 
Q 1263 -91 848 271 
Q 434 634 434 1313 
Q 434 1759 690 2068 
Q 947 2378 1403 2484 
z
M 1172 3481 
Q 1172 3119 1398 2916 
Q 1625 2713 2034 2713 
Q 2441 2713 2670 2916 
Q 2900 3119 2900 3481 
Q 2900 3844 2670 4047 
Q 2441 4250 2034 4250 
Q 1625 4250 1398 4047 
Q 1172 3844 1172 3481 
z
" transform="scale(0.015625)"/>
       </defs>
       <use xlink:href="#DejaVuSans-38"/>
       <use xlink:href="#DejaVuSans-30" x="63.623047"/>
      </g>
     </g>
    </g>
    <g id="xtick_6">
     <g id="line2d_11">
      <path d="M 468.242642 202.84 
L 468.242642 7.2 
" clip-path="url(#p05d205091c)" style="fill: none; stroke: #b0b0b0; stroke-opacity: 0.25; stroke-width: 0.8; stroke-linecap: square"/>
     </g>
     <g id="line2d_12">
      <g>
       <use xlink:href="#m10fb391b77" x="468.242642" y="202.84" style="stroke: #000000; stroke-width: 0.8"/>
      </g>
     </g>
     <g id="text_6">
      <!-- 100 -->
      <g transform="translate(457.744517 218.198281) scale(0.11 -0.11)">
       <defs>
        <path id="DejaVuSans-31" d="M 794 531 
L 1825 531 
L 1825 4091 
L 703 3866 
L 703 4441 
L 1819 4666 
L 2450 4666 
L 2450 531 
L 3481 531 
L 3481 0 
L 794 0 
L 794 531 
z
" transform="scale(0.015625)"/>
       </defs>
       <use xlink:href="#DejaVuSans-31"/>
       <use xlink:href="#DejaVuSans-30" x="63.623047"/>
       <use xlink:href="#DejaVuSans-30" x="127.246094"/>
      </g>
     </g>
    </g>
    <g id="text_7">
     <!-- Epoch -->
     <g transform="translate(249.424062 233.604062) scale(0.12 -0.12)">
      <defs>
       <path id="DejaVuSans-45" d="M 628 4666 
L 3578 4666 
L 3578 4134 
L 1259 4134 
L 1259 2753 
L 3481 2753 
L 3481 2222 
L 1259 2222 
L 1259 531 
L 3634 531 
L 3634 0 
L 628 0 
L 628 4666 
z
" transform="scale(0.015625)"/>
       <path id="DejaVuSans-70" d="M 1159 525 
L 1159 -1331 
L 581 -1331 
L 581 3500 
L 1159 3500 
L 1159 2969 
Q 1341 3281 1617 3432 
Q 1894 3584 2278 3584 
Q 2916 3584 3314 3078 
Q 3713 2572 3713 1747 
Q 3713 922 3314 415 
Q 2916 -91 2278 -91 
Q 1894 -91 1617 61 
Q 1341 213 1159 525 
z
M 3116 1747 
Q 3116 2381 2855 2742 
Q 2594 3103 2138 3103 
Q 1681 3103 1420 2742 
Q 1159 2381 1159 1747 
Q 1159 1113 1420 752 
Q 1681 391 2138 391 
Q 2594 391 2855 752 
Q 3116 1113 3116 1747 
z
" transform="scale(0.015625)"/>
       <path id="DejaVuSans-6f" d="M 1959 3097 
Q 1497 3097 1228 2736 
Q 959 2375 959 1747 
Q 959 1119 1226 758 
Q 1494 397 1959 397 
Q 2419 397 2687 759 
Q 2956 1122 2956 1747 
Q 2956 2369 2687 2733 
Q 2419 3097 1959 3097 
z
M 1959 3584 
Q 2709 3584 3137 3096 
Q 3566 2609 3566 1747 
Q 3566 888 3137 398 
Q 2709 -91 1959 -91 
Q 1206 -91 779 398 
Q 353 888 353 1747 
Q 353 2609 779 3096 
Q 1206 3584 1959 3584 
z
" transform="scale(0.015625)"/>
       <path id="DejaVuSans-63" d="M 3122 3366 
L 3122 2828 
Q 2878 2963 2633 3030 
Q 2388 3097 2138 3097 
Q 1578 3097 1268 2742 
Q 959 2388 959 1747 
Q 959 1106 1268 751 
Q 1578 397 2138 397 
Q 2388 397 2633 464 
Q 2878 531 3122 666 
L 3122 134 
Q 2881 22 2623 -34 
Q 2366 -91 2075 -91 
Q 1284 -91 818 406 
Q 353 903 353 1747 
Q 353 2603 823 3093 
Q 1294 3584 2113 3584 
Q 2378 3584 2631 3529 
Q 2884 3475 3122 3366 
z
" transform="scale(0.015625)"/>
       <path id="DejaVuSans-68" d="M 3513 2113 
L 3513 0 
L 2938 0 
L 2938 2094 
Q 2938 2591 2744 2837 
Q 2550 3084 2163 3084 
Q 1697 3084 1428 2787 
Q 1159 2491 1159 1978 
L 1159 0 
L 581 0 
L 581 4863 
L 1159 4863 
L 1159 2956 
Q 1366 3272 1645 3428 
Q 1925 3584 2291 3584 
Q 2894 3584 3203 3211 
Q 3513 2838 3513 2113 
z
" transform="scale(0.015625)"/>
      </defs>
      <use xlink:href="#DejaVuSans-45"/>
      <use xlink:href="#DejaVuSans-70" x="63.183594"/>
      <use xlink:href="#DejaVuSans-6f" x="126.660156"/>
      <use xlink:href="#DejaVuSans-63" x="187.841797"/>
      <use xlink:href="#DejaVuSans-68" x="242.822266"/>
     </g>
    </g>
   </g>
   <g id="matplotlib.axis_2">
    <g id="ytick_1">
     <g id="line2d_13">
      <path d="M 47.307187 180.977393 
L 488.287187 180.977393 
" clip-path="url(#p05d205091c)" style="fill: none; stroke: #b0b0b0; stroke-opacity: 0.25; stroke-width: 0.8; stroke-linecap: square"/>
     </g>
     <g id="line2d_14">
      <defs>
       <path id="m01888a08c2" d="M 0 0 
L -3.5 0 
" style="stroke: #000000; stroke-width: 0.8"/>
      </defs>
      <g>
       <use xlink:href="#m01888a08c2" x="47.307187" y="180.977393" style="stroke: #000000; stroke-width: 0.8"/>
      </g>
     </g>
     <g id="text_8">
      <!-- 1.3 -->
      <g transform="translate(22.81375 185.156533) scale(0.11 -0.11)">
       <defs>
        <path id="DejaVuSans-2e" d="M 684 794 
L 1344 794 
L 1344 0 
L 684 0 
L 684 794 
z
" transform="scale(0.015625)"/>
        <path id="DejaVuSans-33" d="M 2597 2516 
Q 3050 2419 3304 2112 
Q 3559 1806 3559 1356 
Q 3559 666 3084 287 
Q 2609 -91 1734 -91 
Q 1441 -91 1130 -33 
Q 819 25 488 141 
L 488 750 
Q 750 597 1062 519 
Q 1375 441 1716 441 
Q 2309 441 2620 675 
Q 2931 909 2931 1356 
Q 2931 1769 2642 2001 
Q 2353 2234 1838 2234 
L 1294 2234 
L 1294 2753 
L 1863 2753 
Q 2328 2753 2575 2939 
Q 2822 3125 2822 3475 
Q 2822 3834 2567 4026 
Q 2313 4219 1838 4219 
Q 1578 4219 1281 4162 
Q 984 4106 628 3988 
L 628 4550 
Q 988 4650 1302 4700 
Q 1616 4750 1894 4750 
Q 2613 4750 3031 4423 
Q 3450 4097 3450 3541 
Q 3450 3153 3228 2886 
Q 3006 2619 2597 2516 
z
" transform="scale(0.015625)"/>
       </defs>
       <use xlink:href="#DejaVuSans-31"/>
       <use xlink:href="#DejaVuSans-2e" x="63.623047"/>
       <use xlink:href="#DejaVuSans-33" x="95.410156"/>
      </g>
     </g>
    </g>
    <g id="ytick_2">
     <g id="line2d_15">
      <path d="M 47.307187 155.645596 
L 488.287187 155.645596 
" clip-path="url(#p05d205091c)" style="fill: none; stroke: #b0b0b0; stroke-opacity: 0.25; stroke-width: 0.8; stroke-linecap: square"/>
     </g>
     <g id="line2d_16">
      <g>
       <use xlink:href="#m01888a08c2" x="47.307187" y="155.645596" style="stroke: #000000; stroke-width: 0.8"/>
      </g>
     </g>
     <g id="text_9">
      <!-- 1.4 -->
      <g transform="translate(22.81375 159.824737) scale(0.11 -0.11)">
       <use xlink:href="#DejaVuSans-31"/>
       <use xlink:href="#DejaVuSans-2e" x="63.623047"/>
       <use xlink:href="#DejaVuSans-34" x="95.410156"/>
      </g>
     </g>
    </g>
    <g id="ytick_3">
     <g id="line2d_17">
      <path d="M 47.307187 130.313799 
L 488.287187 130.313799 
" clip-path="url(#p05d205091c)" style="fill: none; stroke: #b0b0b0; stroke-opacity: 0.25; stroke-width: 0.8; stroke-linecap: square"/>
     </g>
     <g id="line2d_18">
      <g>
       <use xlink:href="#m01888a08c2" x="47.307187" y="130.313799" style="stroke: #000000; stroke-width: 0.8"/>
      </g>
     </g>
     <g id="text_10">
      <!-- 1.5 -->
      <g transform="translate(22.81375 134.49294) scale(0.11 -0.11)">
       <defs>
        <path id="DejaVuSans-35" d="M 691 4666 
L 3169 4666 
L 3169 4134 
L 1269 4134 
L 1269 2991 
Q 1406 3038 1543 3061 
Q 1681 3084 1819 3084 
Q 2600 3084 3056 2656 
Q 3513 2228 3513 1497 
Q 3513 744 3044 326 
Q 2575 -91 1722 -91 
Q 1428 -91 1123 -41 
Q 819 9 494 109 
L 494 744 
Q 775 591 1075 516 
Q 1375 441 1709 441 
Q 2250 441 2565 725 
Q 2881 1009 2881 1497 
Q 2881 1984 2565 2268 
Q 2250 2553 1709 2553 
Q 1456 2553 1204 2497 
Q 953 2441 691 2322 
L 691 4666 
z
" transform="scale(0.015625)"/>
       </defs>
       <use xlink:href="#DejaVuSans-31"/>
       <use xlink:href="#DejaVuSans-2e" x="63.623047"/>
       <use xlink:href="#DejaVuSans-35" x="95.410156"/>
      </g>
     </g>
    </g>
    <g id="ytick_4">
     <g id="line2d_19">
      <path d="M 47.307187 104.982002 
L 488.287187 104.982002 
" clip-path="url(#p05d205091c)" style="fill: none; stroke: #b0b0b0; stroke-opacity: 0.25; stroke-width: 0.8; stroke-linecap: square"/>
     </g>
     <g id="line2d_20">
      <g>
       <use xlink:href="#m01888a08c2" x="47.307187" y="104.982002" style="stroke: #000000; stroke-width: 0.8"/>
      </g>
     </g>
     <g id="text_11">
      <!-- 1.6 -->
      <g transform="translate(22.81375 109.161143) scale(0.11 -0.11)">
       <use xlink:href="#DejaVuSans-31"/>
       <use xlink:href="#DejaVuSans-2e" x="63.623047"/>
       <use xlink:href="#DejaVuSans-36" x="95.410156"/>
      </g>
     </g>
    </g>
    <g id="ytick_5">
     <g id="line2d_21">
      <path d="M 47.307187 79.650205 
L 488.287187 79.650205 
" clip-path="url(#p05d205091c)" style="fill: none; stroke: #b0b0b0; stroke-opacity: 0.25; stroke-width: 0.8; stroke-linecap: square"/>
     </g>
     <g id="line2d_22">
      <g>
       <use xlink:href="#m01888a08c2" x="47.307187" y="79.650205" style="stroke: #000000; stroke-width: 0.8"/>
      </g>
     </g>
     <g id="text_12">
      <!-- 1.7 -->
      <g transform="translate(22.81375 83.829346) scale(0.11 -0.11)">
       <defs>
        <path id="DejaVuSans-37" d="M 525 4666 
L 3525 4666 
L 3525 4397 
L 1831 0 
L 1172 0 
L 2766 4134 
L 525 4134 
L 525 4666 
z
" transform="scale(0.015625)"/>
       </defs>
       <use xlink:href="#DejaVuSans-31"/>
       <use xlink:href="#DejaVuSans-2e" x="63.623047"/>
       <use xlink:href="#DejaVuSans-37" x="95.410156"/>
      </g>
     </g>
    </g>
    <g id="ytick_6">
     <g id="line2d_23">
      <path d="M 47.307187 54.318409 
L 488.287187 54.318409 
" clip-path="url(#p05d205091c)" style="fill: none; stroke: #b0b0b0; stroke-opacity: 0.25; stroke-width: 0.8; stroke-linecap: square"/>
     </g>
     <g id="line2d_24">
      <g>
       <use xlink:href="#m01888a08c2" x="47.307187" y="54.318409" style="stroke: #000000; stroke-width: 0.8"/>
      </g>
     </g>
     <g id="text_13">
      <!-- 1.8 -->
      <g transform="translate(22.81375 58.497549) scale(0.11 -0.11)">
       <use xlink:href="#DejaVuSans-31"/>
       <use xlink:href="#DejaVuSans-2e" x="63.623047"/>
       <use xlink:href="#DejaVuSans-38" x="95.410156"/>
      </g>
     </g>
    </g>
    <g id="ytick_7">
     <g id="line2d_25">
      <path d="M 47.307187 28.986612 
L 488.287187 28.986612 
" clip-path="url(#p05d205091c)" style="fill: none; stroke: #b0b0b0; stroke-opacity: 0.25; stroke-width: 0.8; stroke-linecap: square"/>
     </g>
     <g id="line2d_26">
      <g>
       <use xlink:href="#m01888a08c2" x="47.307187" y="28.986612" style="stroke: #000000; stroke-width: 0.8"/>
      </g>
     </g>
     <g id="text_14">
      <!-- 1.9 -->
      <g transform="translate(22.81375 33.165752) scale(0.11 -0.11)">
       <defs>
        <path id="DejaVuSans-39" d="M 703 97 
L 703 672 
Q 941 559 1184 500 
Q 1428 441 1663 441 
Q 2288 441 2617 861 
Q 2947 1281 2994 2138 
Q 2813 1869 2534 1725 
Q 2256 1581 1919 1581 
Q 1219 1581 811 2004 
Q 403 2428 403 3163 
Q 403 3881 828 4315 
Q 1253 4750 1959 4750 
Q 2769 4750 3195 4129 
Q 3622 3509 3622 2328 
Q 3622 1225 3098 567 
Q 2575 -91 1691 -91 
Q 1453 -91 1209 -44 
Q 966 3 703 97 
z
M 1959 2075 
Q 2384 2075 2632 2365 
Q 2881 2656 2881 3163 
Q 2881 3666 2632 3958 
Q 2384 4250 1959 4250 
Q 1534 4250 1286 3958 
Q 1038 3666 1038 3163 
Q 1038 2656 1286 2365 
Q 1534 2075 1959 2075 
z
" transform="scale(0.015625)"/>
       </defs>
       <use xlink:href="#DejaVuSans-31"/>
       <use xlink:href="#DejaVuSans-2e" x="63.623047"/>
       <use xlink:href="#DejaVuSans-39" x="95.410156"/>
      </g>
     </g>
    </g>
    <g id="text_15">
     <!-- Test Loss -->
     <g transform="translate(16.318125 131.901875) rotate(-90) scale(0.12 -0.12)">
      <defs>
       <path id="DejaVuSans-54" d="M -19 4666 
L 3928 4666 
L 3928 4134 
L 2272 4134 
L 2272 0 
L 1638 0 
L 1638 4134 
L -19 4134 
L -19 4666 
z
" transform="scale(0.015625)"/>
       <path id="DejaVuSans-65" d="M 3597 1894 
L 3597 1613 
L 953 1613 
Q 991 1019 1311 708 
Q 1631 397 2203 397 
Q 2534 397 2845 478 
Q 3156 559 3463 722 
L 3463 178 
Q 3153 47 2828 -22 
Q 2503 -91 2169 -91 
Q 1331 -91 842 396 
Q 353 884 353 1716 
Q 353 2575 817 3079 
Q 1281 3584 2069 3584 
Q 2775 3584 3186 3129 
Q 3597 2675 3597 1894 
z
M 3022 2063 
Q 3016 2534 2758 2815 
Q 2500 3097 2075 3097 
Q 1594 3097 1305 2825 
Q 1016 2553 972 2059 
L 3022 2063 
z
" transform="scale(0.015625)"/>
       <path id="DejaVuSans-73" d="M 2834 3397 
L 2834 2853 
Q 2591 2978 2328 3040 
Q 2066 3103 1784 3103 
Q 1356 3103 1142 2972 
Q 928 2841 928 2578 
Q 928 2378 1081 2264 
Q 1234 2150 1697 2047 
L 1894 2003 
Q 2506 1872 2764 1633 
Q 3022 1394 3022 966 
Q 3022 478 2636 193 
Q 2250 -91 1575 -91 
Q 1294 -91 989 -36 
Q 684 19 347 128 
L 347 722 
Q 666 556 975 473 
Q 1284 391 1588 391 
Q 1994 391 2212 530 
Q 2431 669 2431 922 
Q 2431 1156 2273 1281 
Q 2116 1406 1581 1522 
L 1381 1569 
Q 847 1681 609 1914 
Q 372 2147 372 2553 
Q 372 3047 722 3315 
Q 1072 3584 1716 3584 
Q 2034 3584 2315 3537 
Q 2597 3491 2834 3397 
z
" transform="scale(0.015625)"/>
       <path id="DejaVuSans-74" d="M 1172 4494 
L 1172 3500 
L 2356 3500 
L 2356 3053 
L 1172 3053 
L 1172 1153 
Q 1172 725 1289 603 
Q 1406 481 1766 481 
L 2356 481 
L 2356 0 
L 1766 0 
Q 1100 0 847 248 
Q 594 497 594 1153 
L 594 3053 
L 172 3053 
L 172 3500 
L 594 3500 
L 594 4494 
L 1172 4494 
z
" transform="scale(0.015625)"/>
       <path id="DejaVuSans-20" transform="scale(0.015625)"/>
       <path id="DejaVuSans-4c" d="M 628 4666 
L 1259 4666 
L 1259 531 
L 3531 531 
L 3531 0 
L 628 0 
L 628 4666 
z
" transform="scale(0.015625)"/>
      </defs>
      <use xlink:href="#DejaVuSans-54"/>
      <use xlink:href="#DejaVuSans-65" x="44.083984"/>
      <use xlink:href="#DejaVuSans-73" x="105.607422"/>
      <use xlink:href="#DejaVuSans-74" x="157.707031"/>
      <use xlink:href="#DejaVuSans-20" x="196.916016"/>
      <use xlink:href="#DejaVuSans-4c" x="228.703125"/>
      <use xlink:href="#DejaVuSans-6f" x="282.666016"/>
      <use xlink:href="#DejaVuSans-73" x="343.847656"/>
      <use xlink:href="#DejaVuSans-73" x="395.947266"/>
     </g>
    </g>
   </g>
   <g id="line2d_27">
    <path d="M 67.351733 28.378649 
L 71.401136 41.551183 
L 75.450539 63.285865 
L 79.499942 63.817832 
L 83.549345 72.785289 
L 87.598749 93.380039 
L 91.648152 98.243744 
L 95.697555 114.126781 
L 99.746958 89.605602 
L 103.796361 119.522454 
L 107.845764 109.288408 
L 111.895167 121.954306 
L 115.94457 133.834919 
L 119.993974 123.524878 
L 124.043377 107.008546 
L 128.09278 132.16302 
L 132.142183 128.21126 
L 136.191586 143.992969 
L 140.240989 137.280043 
L 144.290392 147.539421 
L 148.339795 148.350038 
L 152.389199 153.289739 
L 156.438602 158.913398 
L 160.488005 143.916974 
L 164.537408 153.188412 
L 168.586811 163.295799 
L 172.636214 152.859098 
L 176.685617 166.284951 
L 180.73502 181.332038 
L 184.784423 154.125688 
L 188.833827 168.058176 
L 192.88323 161.725227 
L 196.932633 164.005089 
L 200.982036 175.657715 
L 205.031439 171.199319 
L 209.080842 180.774738 
L 213.130245 175.227075 
L 217.179648 178.570872 
L 221.229052 184.295858 
L 225.278455 188.120959 
L 229.327858 178.190895 
L 233.377261 176.215015 
L 237.426664 181.838674 
L 241.476067 181.914669 
L 245.52547 185.58778 
L 249.574873 179.026844 
L 253.624277 180.926729 
L 257.67368 184.169199 
L 261.723083 175.987029 
L 265.772486 190.679471 
L 269.821889 187.437001 
L 273.871292 182.091992 
L 277.920695 188.348946 
L 281.970098 176.544328 
L 286.019502 182.547964 
L 290.068905 181.205379 
L 294.118308 176.265679 
L 298.167711 182.877278 
L 302.217114 184.371854 
L 306.266517 163.701107 
L 310.31592 163.929093 
L 314.365323 168.640808 
L 318.414727 193.947273 
L 322.46413 172.440577 
L 326.513533 179.254831 
L 330.562936 181.914669 
L 334.612339 181.838674 
L 338.661742 173.301858 
L 342.711145 174.289798 
L 346.760548 157.064177 
L 350.809952 153.568389 
L 354.859355 179.837462 
L 358.908758 172.009937 
L 362.958161 157.596144 
L 367.007564 165.297011 
L 371.056967 154.42967 
L 375.10637 155.594932 
L 379.155773 162.789163 
L 383.205176 166.234287 
L 387.25458 147.007453 
L 391.303983 136.418762 
L 395.353386 149.109992 
L 399.402789 142.87837 
L 403.452192 141.713108 
L 407.501595 151.313859 
L 411.550998 143.461002 
L 415.600401 126.94467 
L 419.649805 148.223379 
L 423.699208 141.155808 
L 427.748611 149.616628 
L 431.798014 150.680564 
L 435.847417 133.42961 
L 439.89682 124.208836 
L 443.946223 125.070117 
L 447.995626 117.318587 
L 452.04503 113.898795 
L 456.094433 105.007334 
L 460.143836 114.101449 
L 464.193239 125.754076 
L 468.242642 109.896371 
" clip-path="url(#p05d205091c)" style="fill: none; stroke-dasharray: 7.4,3.2; stroke-dashoffset: 0; stroke: #e41a1c; stroke-width: 2"/>
   </g>
   <g id="line2d_28">
    <path d="M 67.351733 110.200352 
L 71.401136 135.456154 
L 75.450539 118.129205 
L 79.499942 148.147384 
L 83.549345 132.669656 
L 87.598749 165.018361 
L 91.648152 165.752983 
L 95.697555 137.913338 
L 99.746958 160.838614 
L 103.796361 162.029209 
L 107.845764 186.29707 
L 111.895167 167.754195 
L 115.94457 187.614324 
L 119.993974 172.187259 
L 124.043377 172.389914 
L 128.09278 175.58172 
L 132.142183 168.412822 
L 136.191586 177.861582 
L 140.240989 183.839886 
L 144.290392 153.59372 
L 148.339795 180.192107 
L 152.389199 178.950849 
L 156.438602 185.942425 
L 160.488005 157.11484 
L 164.537408 168.894126 
L 168.586811 185.739771 
L 172.636214 182.193319 
L 176.685617 178.976181 
L 180.73502 190.299494 
L 184.784423 185.207803 
L 188.833827 184.067872 
L 192.88323 167.374218 
L 196.932633 180.724075 
L 200.982036 179.761467 
L 205.031439 184.574508 
L 209.080842 188.982241 
L 213.130245 179.001513 
L 217.179648 176.443001 
L 221.229052 173.175199 
L 225.278455 181.180047 
L 229.327858 166.614264 
L 233.377261 175.657715 
L 237.426664 168.514149 
L 241.476067 166.690259 
L 245.52547 168.81813 
L 249.574873 146.804799 
L 253.624277 160.205319 
L 257.67368 171.427305 
L 261.723083 159.496029 
L 265.772486 163.017149 
L 269.821889 155.113628 
L 273.871292 161.243923 
L 277.920695 156.025573 
L 281.970098 145.6902 
L 286.019502 153.720379 
L 290.068905 141.89043 
L 294.118308 124.96879 
L 298.167711 137.052057 
L 302.217114 144.296951 
L 306.266517 126.539361 
L 310.31592 126.716684 
L 314.365323 138.267983 
L 318.414727 140.117204 
L 322.46413 114.430763 
L 326.513533 141.535785 
L 330.562936 115.469366 
L 334.612339 115.849343 
L 338.661742 120.282408 
L 342.711145 123.448882 
L 346.760548 88.31368 
L 350.809952 113.240168 
L 354.859355 125.196776 
L 358.908758 103.284772 
L 362.958161 104.475366 
L 367.007564 99.257016 
L 371.056967 98.370403 
L 375.10637 91.378827 
L 379.155773 95.203929 
L 383.205176 106.22326 
L 387.25458 77.471671 
L 391.303983 68.58021 
L 395.353386 60.778017 
L 399.402789 78.560938 
L 403.452192 68.782865 
L 407.501595 82.335376 
L 411.550998 68.529547 
L 415.600401 53.761109 
L 419.649805 52.697174 
L 423.699208 67.668266 
L 427.748611 56.16763 
L 431.798014 53.229141 
L 435.847417 69.086846 
L 439.89682 64.197809 
L 443.946223 47.934796 
L 447.995626 37.067455 
L 452.04503 40.031275 
L 456.094433 40.461916 
L 460.143836 35.420888 
L 464.193239 19.385861 
L 468.242642 16.092727 
" clip-path="url(#p05d205091c)" style="fill: none; stroke-dasharray: 7.4,3.2; stroke-dashoffset: 0; stroke: #228b22; stroke-width: 2"/>
   </g>
   <g id="patch_3">
    <path d="M 47.307187 202.84 
L 47.307187 7.2 
" style="fill: none; stroke: #000000; stroke-width: 0.8; stroke-linejoin: miter; stroke-linecap: square"/>
   </g>
   <g id="patch_4">
    <path d="M 488.287187 202.84 
L 488.287187 7.2 
" style="fill: none; stroke: #000000; stroke-width: 0.8; stroke-linejoin: miter; stroke-linecap: square"/>
   </g>
   <g id="patch_5">
    <path d="M 47.307187 202.84 
L 488.287188 202.84 
" style="fill: none; stroke: #000000; stroke-width: 0.8; stroke-linejoin: miter; stroke-linecap: square"/>
   </g>
   <g id="patch_6">
    <path d="M 47.307187 7.2 
L 488.287188 7.2 
" style="fill: none; stroke: #000000; stroke-width: 0.8; stroke-linejoin: miter; stroke-linecap: square"/>
   </g>
   <g id="legend_1">
    <g id="patch_7">
     <path d="M 340.66375 197.84 
L 481.287187 197.84 
Q 483.287187 197.84 483.287187 195.84 
L 483.287187 167.48375 
Q 483.287187 165.48375 481.287187 165.48375 
L 340.66375 165.48375 
Q 338.66375 165.48375 338.66375 167.48375 
L 338.66375 195.84 
Q 338.66375 197.84 340.66375 197.84 
z
" style="fill: #ffffff; opacity: 0.8; stroke: #cccccc; stroke-linejoin: miter"/>
    </g>
    <g id="line2d_29">
     <path d="M 342.66375 173.582188 
L 352.66375 173.582188 
L 362.66375 173.582188 
" style="fill: none; stroke-dasharray: 7.4,3.2; stroke-dashoffset: 0; stroke: #e41a1c; stroke-width: 2"/>
    </g>
    <g id="text_16">
     <!-- Loss - Baseline -->
     <g transform="translate(370.66375 177.082188) scale(0.1 -0.1)">
      <defs>
       <path id="DejaVuSans-2d" d="M 313 2009 
L 1997 2009 
L 1997 1497 
L 313 1497 
L 313 2009 
z
" transform="scale(0.015625)"/>
       <path id="DejaVuSans-42" d="M 1259 2228 
L 1259 519 
L 2272 519 
Q 2781 519 3026 730 
Q 3272 941 3272 1375 
Q 3272 1813 3026 2020 
Q 2781 2228 2272 2228 
L 1259 2228 
z
M 1259 4147 
L 1259 2741 
L 2194 2741 
Q 2656 2741 2882 2914 
Q 3109 3088 3109 3444 
Q 3109 3797 2882 3972 
Q 2656 4147 2194 4147 
L 1259 4147 
z
M 628 4666 
L 2241 4666 
Q 2963 4666 3353 4366 
Q 3744 4066 3744 3513 
Q 3744 3084 3544 2831 
Q 3344 2578 2956 2516 
Q 3422 2416 3680 2098 
Q 3938 1781 3938 1306 
Q 3938 681 3513 340 
Q 3088 0 2303 0 
L 628 0 
L 628 4666 
z
" transform="scale(0.015625)"/>
       <path id="DejaVuSans-61" d="M 2194 1759 
Q 1497 1759 1228 1600 
Q 959 1441 959 1056 
Q 959 750 1161 570 
Q 1363 391 1709 391 
Q 2188 391 2477 730 
Q 2766 1069 2766 1631 
L 2766 1759 
L 2194 1759 
z
M 3341 1997 
L 3341 0 
L 2766 0 
L 2766 531 
Q 2569 213 2275 61 
Q 1981 -91 1556 -91 
Q 1019 -91 701 211 
Q 384 513 384 1019 
Q 384 1609 779 1909 
Q 1175 2209 1959 2209 
L 2766 2209 
L 2766 2266 
Q 2766 2663 2505 2880 
Q 2244 3097 1772 3097 
Q 1472 3097 1187 3025 
Q 903 2953 641 2809 
L 641 3341 
Q 956 3463 1253 3523 
Q 1550 3584 1831 3584 
Q 2591 3584 2966 3190 
Q 3341 2797 3341 1997 
z
" transform="scale(0.015625)"/>
       <path id="DejaVuSans-6c" d="M 603 4863 
L 1178 4863 
L 1178 0 
L 603 0 
L 603 4863 
z
" transform="scale(0.015625)"/>
       <path id="DejaVuSans-69" d="M 603 3500 
L 1178 3500 
L 1178 0 
L 603 0 
L 603 3500 
z
M 603 4863 
L 1178 4863 
L 1178 4134 
L 603 4134 
L 603 4863 
z
" transform="scale(0.015625)"/>
       <path id="DejaVuSans-6e" d="M 3513 2113 
L 3513 0 
L 2938 0 
L 2938 2094 
Q 2938 2591 2744 2837 
Q 2550 3084 2163 3084 
Q 1697 3084 1428 2787 
Q 1159 2491 1159 1978 
L 1159 0 
L 581 0 
L 581 3500 
L 1159 3500 
L 1159 2956 
Q 1366 3272 1645 3428 
Q 1925 3584 2291 3584 
Q 2894 3584 3203 3211 
Q 3513 2838 3513 2113 
z
" transform="scale(0.015625)"/>
      </defs>
      <use xlink:href="#DejaVuSans-4c"/>
      <use xlink:href="#DejaVuSans-6f" x="53.962891"/>
      <use xlink:href="#DejaVuSans-73" x="115.144531"/>
      <use xlink:href="#DejaVuSans-73" x="167.244141"/>
      <use xlink:href="#DejaVuSans-20" x="219.34375"/>
      <use xlink:href="#DejaVuSans-2d" x="251.130859"/>
      <use xlink:href="#DejaVuSans-20" x="287.214844"/>
      <use xlink:href="#DejaVuSans-42" x="319.001953"/>
      <use xlink:href="#DejaVuSans-61" x="387.605469"/>
      <use xlink:href="#DejaVuSans-73" x="448.884766"/>
      <use xlink:href="#DejaVuSans-65" x="500.984375"/>
      <use xlink:href="#DejaVuSans-6c" x="562.507812"/>
      <use xlink:href="#DejaVuSans-69" x="590.291016"/>
      <use xlink:href="#DejaVuSans-6e" x="618.074219"/>
      <use xlink:href="#DejaVuSans-65" x="681.453125"/>
     </g>
    </g>
    <g id="line2d_30">
     <path d="M 342.66375 188.260312 
L 352.66375 188.260312 
L 362.66375 188.260312 
" style="fill: none; stroke-dasharray: 7.4,3.2; stroke-dashoffset: 0; stroke: #228b22; stroke-width: 2"/>
    </g>
    <g id="text_17">
     <!-- Loss - SSL Pre-trained -->
     <g transform="translate(370.66375 191.760312) scale(0.1 -0.1)">
      <defs>
       <path id="DejaVuSans-53" d="M 3425 4513 
L 3425 3897 
Q 3066 4069 2747 4153 
Q 2428 4238 2131 4238 
Q 1616 4238 1336 4038 
Q 1056 3838 1056 3469 
Q 1056 3159 1242 3001 
Q 1428 2844 1947 2747 
L 2328 2669 
Q 3034 2534 3370 2195 
Q 3706 1856 3706 1288 
Q 3706 609 3251 259 
Q 2797 -91 1919 -91 
Q 1588 -91 1214 -16 
Q 841 59 441 206 
L 441 856 
Q 825 641 1194 531 
Q 1563 422 1919 422 
Q 2459 422 2753 634 
Q 3047 847 3047 1241 
Q 3047 1584 2836 1778 
Q 2625 1972 2144 2069 
L 1759 2144 
Q 1053 2284 737 2584 
Q 422 2884 422 3419 
Q 422 4038 858 4394 
Q 1294 4750 2059 4750 
Q 2388 4750 2728 4690 
Q 3069 4631 3425 4513 
z
" transform="scale(0.015625)"/>
       <path id="DejaVuSans-50" d="M 1259 4147 
L 1259 2394 
L 2053 2394 
Q 2494 2394 2734 2622 
Q 2975 2850 2975 3272 
Q 2975 3691 2734 3919 
Q 2494 4147 2053 4147 
L 1259 4147 
z
M 628 4666 
L 2053 4666 
Q 2838 4666 3239 4311 
Q 3641 3956 3641 3272 
Q 3641 2581 3239 2228 
Q 2838 1875 2053 1875 
L 1259 1875 
L 1259 0 
L 628 0 
L 628 4666 
z
" transform="scale(0.015625)"/>
       <path id="DejaVuSans-72" d="M 2631 2963 
Q 2534 3019 2420 3045 
Q 2306 3072 2169 3072 
Q 1681 3072 1420 2755 
Q 1159 2438 1159 1844 
L 1159 0 
L 581 0 
L 581 3500 
L 1159 3500 
L 1159 2956 
Q 1341 3275 1631 3429 
Q 1922 3584 2338 3584 
Q 2397 3584 2469 3576 
Q 2541 3569 2628 3553 
L 2631 2963 
z
" transform="scale(0.015625)"/>
       <path id="DejaVuSans-64" d="M 2906 2969 
L 2906 4863 
L 3481 4863 
L 3481 0 
L 2906 0 
L 2906 525 
Q 2725 213 2448 61 
Q 2172 -91 1784 -91 
Q 1150 -91 751 415 
Q 353 922 353 1747 
Q 353 2572 751 3078 
Q 1150 3584 1784 3584 
Q 2172 3584 2448 3432 
Q 2725 3281 2906 2969 
z
M 947 1747 
Q 947 1113 1208 752 
Q 1469 391 1925 391 
Q 2381 391 2643 752 
Q 2906 1113 2906 1747 
Q 2906 2381 2643 2742 
Q 2381 3103 1925 3103 
Q 1469 3103 1208 2742 
Q 947 2381 947 1747 
z
" transform="scale(0.015625)"/>
      </defs>
      <use xlink:href="#DejaVuSans-4c"/>
      <use xlink:href="#DejaVuSans-6f" x="53.962891"/>
      <use xlink:href="#DejaVuSans-73" x="115.144531"/>
      <use xlink:href="#DejaVuSans-73" x="167.244141"/>
      <use xlink:href="#DejaVuSans-20" x="219.34375"/>
      <use xlink:href="#DejaVuSans-2d" x="251.130859"/>
      <use xlink:href="#DejaVuSans-20" x="287.214844"/>
      <use xlink:href="#DejaVuSans-53" x="319.001953"/>
      <use xlink:href="#DejaVuSans-53" x="382.478516"/>
      <use xlink:href="#DejaVuSans-4c" x="445.955078"/>
      <use xlink:href="#DejaVuSans-20" x="501.667969"/>
      <use xlink:href="#DejaVuSans-50" x="533.455078"/>
      <use xlink:href="#DejaVuSans-72" x="592.007812"/>
      <use xlink:href="#DejaVuSans-65" x="630.871094"/>
      <use xlink:href="#DejaVuSans-2d" x="692.394531"/>
      <use xlink:href="#DejaVuSans-74" x="728.478516"/>
      <use xlink:href="#DejaVuSans-72" x="767.6875"/>
      <use xlink:href="#DejaVuSans-61" x="808.800781"/>
      <use xlink:href="#DejaVuSans-69" x="870.080078"/>
      <use xlink:href="#DejaVuSans-6e" x="897.863281"/>
      <use xlink:href="#DejaVuSans-65" x="961.242188"/>
      <use xlink:href="#DejaVuSans-64" x="1022.765625"/>
     </g>
    </g>
   </g>
  </g>
 </g>
 <defs>
  <clipPath id="p05d205091c">
   <rect x="47.307187" y="7.2" width="440.98" height="195.64"/>
  </clipPath>
 </defs>
</svg>
