<?xml version="1.0" encoding="utf-8" standalone="no"?>
<!DOCTYPE svg PUBLIC "-//W3C//DTD SVG 1.1//EN"
  "http://www.w3.org/Graphics/SVG/1.1/DTD/svg11.dtd">
<svg xmlns:xlink="http://www.w3.org/1999/xlink" width="495.487188pt" height="243.299688pt" viewBox="0 0 495.487188 243.299688" xmlns="http://www.w3.org/2000/svg" version="1.1">
 <metadata>
  <rdf:RDF xmlns:dc="http://purl.org/dc/elements/1.1/" xmlns:cc="http://creativecommons.org/ns#" xmlns:rdf="http://www.w3.org/1999/02/22-rdf-syntax-ns#">
   <cc:Work>
    <dc:type rdf:resource="http://purl.org/dc/dcmitype/StillImage"/>
    <dc:date>2025-12-22T20:27:53.991978</dc:date>
    <dc:format>image/svg+xml</dc:format>
    <dc:creator>
     <cc:Agent>
      <dc:title>Matplotlib v3.9.0, https://matplotlib.org/</dc:title>
     </cc:Agent>
    </dc:creator>
   </cc:Work>
  </rdf:RDF>
 </metadata>
 <defs>
  <style type="text/css">*{stroke-linejoin: round; stroke-linecap: butt}</style>
 </defs>
 <g id="figure_1">
  <g id="patch_1">
   <path d="M 0 243.299688 
L 495.487188 243.299688 
L 495.487188 0 
L 0 0 
z
" style="fill: #ffffff"/>
  </g>
  <g id="axes_1">
   <g id="patch_2">
    <path d="M 47.307187 202.84 
L 488.287187 202.84 
L 488.287187 7.2 
L 47.307187 7.2 
z
" style="fill: #ffffff"/>
   </g>
   <g id="PolyCollection_1">
    <defs>
     <path id="me7f39145db" d="M 67.351733 -227.20696 
L 67.351733 -190.968602 
L 71.401136 -177.299086 
L 75.450539 -136.573355 
L 79.499942 -122.65873 
L 83.549345 -124.167091 
L 87.598749 -102.239301 
L 91.648152 -115.814545 
L 95.697555 -85.043993 
L 99.746958 -88.060713 
L 103.796361 -83.309378 
L 107.845764 -81.706745 
L 111.895167 -88.418949 
L 115.94457 -83.535632 
L 119.993974 -73.316491 
L 124.043377 -68.282338 
L 128.09278 -67.509303 
L 132.142183 -76.616029 
L 136.191586 -70.582587 
L 140.240989 -70.073516 
L 144.290392 -58.006633 
L 148.339795 -61.249607 
L 152.389199 -55.593256 
L 156.438602 -61.023353 
L 160.488005 -62.739113 
L 164.537408 -59.892083 
L 168.586811 -54.235732 
L 172.636214 -56.045764 
L 176.685617 -53.330715 
L 180.73502 -55.423565 
L 184.784423 -58.760813 
L 188.833827 -55.480129 
L 192.88323 -50.841921 
L 196.932633 -60.778245 
L 200.982036 -55.668674 
L 205.031439 -54.499695 
L 209.080842 -61.570134 
L 213.130245 -58.138614 
L 217.179648 -55.103039 
L 221.229052 -52.953625 
L 225.278455 -54.820221 
L 229.327858 -49.503251 
L 233.377261 -53.556969 
L 237.426664 -53.236443 
L 241.476067 -52.897062 
L 245.52547 -58.251741 
L 249.574873 -56.875362 
L 253.624277 -68.678282 
L 257.67368 -57.233598 
L 261.723083 -59.496138 
L 265.772486 -52.97248 
L 269.821889 -61.34388 
L 273.871292 -52.048609 
L 277.920695 -64.907381 
L 281.970098 -54.254586 
L 286.019502 -63.210476 
L 290.068905 -56.083473 
L 294.118308 -61.13648 
L 298.167711 -53.462697 
L 302.217114 -52.59539 
L 306.266517 -61.966079 
L 310.31592 -56.931926 
L 314.365323 -55.649819 
L 318.414727 -55.517838 
L 322.46413 -57.271307 
L 326.513533 -55.649819 
L 330.562936 -58.741958 
L 334.612339 -54.047187 
L 338.661742 -61.570134 
L 342.711145 -49.484396 
L 346.760548 -59.401866 
L 350.809952 -61.683261 
L 354.859355 -61.193044 
L 358.908758 -58.87394 
L 362.958161 -52.142882 
L 367.007564 -57.931215 
L 371.056967 -53.274152 
L 375.10637 -63.851529 
L 379.155773 -53.745514 
L 383.205176 -62.776822 
L 387.25458 -57.139325 
L 391.303983 -49.352415 
L 395.353386 -53.858641 
L 399.402789 -61.230753 
L 403.452192 -61.287316 
L 407.501595 -54.235732 
L 411.550998 -63.531003 
L 415.600401 -61.890661 
L 419.649805 -53.029043 
L 423.699208 -58.515704 
L 427.748611 -64.360601 
L 431.798014 -54.405422 
L 435.847417 -63.267039 
L 439.89682 -56.630254 
L 443.946223 -56.667963 
L 447.995626 -72.128657 
L 452.04503 -55.272729 
L 456.094433 -58.100905 
L 460.143836 -54.839076 
L 464.193239 -55.706383 
L 468.242642 -54.31115 
L 468.242642 -64.813109 
L 468.242642 -64.813109 
L 464.193239 -59.873229 
L 460.143836 -56.1966 
L 456.094433 -61.438152 
L 452.04503 -60.514282 
L 447.995626 -80.518912 
L 443.946223 -57.252452 
L 439.89682 -66.679705 
L 435.847417 -69.13079 
L 431.798014 -56.102328 
L 427.748611 -65.699271 
L 423.699208 -59.269884 
L 419.649805 -61.890661 
L 415.600401 -90.436381 
L 411.550998 -67.226485 
L 407.501595 -55.630965 
L 403.452192 -70.658005 
L 399.402789 -62.739113 
L 395.353386 -75.088814 
L 391.303983 -52.689662 
L 387.25458 -60.231464 
L 383.205176 -67.113358 
L 379.155773 -58.157469 
L 375.10637 -65.718125 
L 371.056967 -58.440286 
L 367.007564 -59.83552 
L 362.958161 -60.231464 
L 358.908758 -64.982799 
L 354.859355 -65.887816 
L 350.809952 -61.852952 
L 346.760548 -62.267751 
L 342.711145 -59.288739 
L 338.661742 -67.226485 
L 334.612339 -72.56231 
L 330.562936 -69.036518 
L 326.513533 -62.984222 
L 322.46413 -61.211898 
L 318.414727 -85.15712 
L 314.365323 -56.686817 
L 310.31592 -58.477995 
L 306.266517 -62.343169 
L 302.217114 -55.121893 
L 298.167711 -60.288028 
L 294.118308 -72.241784 
L 290.068905 -64.850818 
L 286.019502 -69.470172 
L 281.970098 -66.755123 
L 277.920695 -70.639151 
L 273.871292 -60.193755 
L 269.821889 -66.434596 
L 265.772486 -56.290873 
L 261.723083 -71.129368 
L 257.67368 -60.363446 
L 253.624277 -92.755485 
L 249.574873 -68.395465 
L 245.52547 -73.693581 
L 241.476067 -85.043993 
L 237.426664 -78.972842 
L 233.377261 -60.853663 
L 229.327858 -54.744803 
L 225.278455 -60.250319 
L 221.229052 -58.28945 
L 217.179648 -57.15818 
L 213.130245 -58.930503 
L 209.080842 -67.151067 
L 205.031439 -60.476573 
L 200.982036 -71.072805 
L 196.932633 -68.847973 
L 192.88323 -73.542745 
L 188.833827 -55.536692 
L 184.784423 -63.738402 
L 180.73502 -67.283049 
L 176.685617 -54.330004 
L 172.636214 -65.963234 
L 168.586811 -74.183798 
L 164.537408 -71.826985 
L 160.488005 -83.309378 
L 156.438602 -72.072093 
L 152.389199 -80.858293 
L 148.339795 -74.994542 
L 144.290392 -73.090237 
L 140.240989 -70.601442 
L 136.191586 -91.397961 
L 132.142183 -115.437455 
L 128.09278 -77.200519 
L 124.043377 -97.619948 
L 119.993974 -78.87857 
L 115.94457 -89.361674 
L 111.895167 -118.435321 
L 107.845764 -89.13542 
L 103.796361 -112.910951 
L 99.746958 -91.397961 
L 95.697555 -85.270247 
L 91.648152 -159.217615 
L 87.598749 -111.515718 
L 83.549345 -190.402967 
L 79.499942 -213.820262 
L 75.450539 -176.752305 
L 71.401136 -195.192011 
L 67.351733 -227.20696 
z
"/>
    </defs>
    <g clip-path="url(#p90d56a31b8)">
     <use xlink:href="#me7f39145db" x="0" y="243.299688" style="fill: #e41a1c; fill-opacity: 0.25"/>
    </g>
   </g>
   <g id="PolyCollection_2">
    <defs>
     <path id="meb4a45e76d" d="M 67.351733 -123.24322 
L 67.351733 -123.24322 
L 71.401136 -108.800669 
L 75.450539 -86.420372 
L 79.499942 -90.417527 
L 83.549345 -70.394042 
L 87.598749 -72.204075 
L 91.648152 -66.453451 
L 95.697555 -57.497561 
L 99.746958 -70.186643 
L 103.796361 -65.15249 
L 107.845764 -82.47978 
L 111.895167 -65.699271 
L 115.94457 -67.019086 
L 119.993974 -65.303326 
L 124.043377 -61.890661 
L 128.09278 -68.225774 
L 132.142183 -65.680416 
L 136.191586 -64.002365 
L 140.240989 -58.063196 
L 144.290392 -64.322892 
L 148.339795 -64.134347 
L 152.389199 -59.910938 
L 156.438602 -57.516415 
L 160.488005 -74.164943 
L 164.537408 -68.433174 
L 168.586811 -64.379455 
L 172.636214 -65.623853 
L 176.685617 -60.665118 
L 180.73502 -61.475861 
L 184.784423 -69.564444 
L 188.833827 -59.892083 
L 192.88323 -60.797099 
L 196.932633 -70.526024 
L 200.982036 -54.31115 
L 205.031439 -73.165655 
L 209.080842 -58.063196 
L 213.130245 -69.809553 
L 217.179648 -61.381589 
L 221.229052 -65.454162 
L 225.278455 -66.962522 
L 229.327858 -70.507169 
L 233.377261 -61.438152 
L 237.426664 -66.510014 
L 241.476067 -64.888527 
L 245.52547 -61.400443 
L 249.574873 -65.473017 
L 253.624277 -63.549857 
L 257.67368 -59.552702 
L 261.723083 -67.565867 
L 265.772486 -76.653738 
L 269.821889 -68.357756 
L 273.871292 -70.054661 
L 277.920695 -66.849395 
L 281.970098 -60.608554 
L 286.019502 -59.439575 
L 290.068905 -67.509303 
L 294.118308 -62.512859 
L 298.167711 -70.582587 
L 302.217114 -75.107669 
L 306.266517 -64.530291 
L 310.31592 -64.19091 
L 314.365323 -69.979243 
L 318.414727 -65.190199 
L 322.46413 -57.120471 
L 326.513533 -63.681839 
L 330.562936 -74.692869 
L 334.612339 -70.978532 
L 338.661742 -67.151067 
L 342.711145 -69.658717 
L 346.760548 -56.856508 
L 350.809952 -67.565867 
L 354.859355 -66.170633 
L 358.908758 -65.209053 
L 362.958161 -64.643418 
L 367.007564 -81.970708 
L 371.056967 -65.982088 
L 375.10637 -66.943668 
L 379.155773 -64.304037 
L 383.205176 -64.699982 
L 387.25458 -62.588277 
L 391.303983 -73.976398 
L 395.353386 -70.035807 
L 399.402789 -64.341746 
L 403.452192 -61.532425 
L 407.501595 -57.686106 
L 411.550998 -74.089525 
L 415.600401 -68.9611 
L 419.649805 -70.658005 
L 423.699208 -72.072093 
L 427.748611 -63.116203 
L 431.798014 -62.607132 
L 435.847417 -62.984222 
L 439.89682 -69.941534 
L 443.946223 -64.285183 
L 447.995626 -60.5897 
L 452.04503 -64.19091 
L 456.094433 -66.924813 
L 460.143836 -61.702116 
L 464.193239 -65.52958 
L 468.242642 -62.625986 
L 468.242642 -62.625986 
L 468.242642 -62.625986 
L 464.193239 -65.52958 
L 460.143836 -61.702116 
L 456.094433 -66.924813 
L 452.04503 -64.19091 
L 447.995626 -60.5897 
L 443.946223 -64.285183 
L 439.89682 -69.941534 
L 435.847417 -62.984222 
L 431.798014 -62.607132 
L 427.748611 -63.116203 
L 423.699208 -72.072093 
L 419.649805 -70.658005 
L 415.600401 -68.9611 
L 411.550998 -74.089525 
L 407.501595 -57.686106 
L 403.452192 -61.532425 
L 399.402789 -64.341746 
L 395.353386 -70.035807 
L 391.303983 -73.976398 
L 387.25458 -62.588277 
L 383.205176 -64.699982 
L 379.155773 -64.304037 
L 375.10637 -66.943668 
L 371.056967 -65.982088 
L 367.007564 -81.970708 
L 362.958161 -64.643418 
L 358.908758 -65.209053 
L 354.859355 -66.170633 
L 350.809952 -67.565867 
L 346.760548 -56.856508 
L 342.711145 -69.658717 
L 338.661742 -67.151067 
L 334.612339 -70.978532 
L 330.562936 -74.692869 
L 326.513533 -63.681839 
L 322.46413 -57.120471 
L 318.414727 -65.190199 
L 314.365323 -69.979243 
L 310.31592 -64.19091 
L 306.266517 -64.530291 
L 302.217114 -75.107669 
L 298.167711 -70.582587 
L 294.118308 -62.512859 
L 290.068905 -67.509303 
L 286.019502 -59.439575 
L 281.970098 -60.608554 
L 277.920695 -66.849395 
L 273.871292 -70.054661 
L 269.821889 -68.357756 
L 265.772486 -76.653738 
L 261.723083 -67.565867 
L 257.67368 -59.552702 
L 253.624277 -63.549857 
L 249.574873 -65.473017 
L 245.52547 -61.400443 
L 241.476067 -64.888527 
L 237.426664 -66.510014 
L 233.377261 -61.438152 
L 229.327858 -70.507169 
L 225.278455 -66.962522 
L 221.229052 -65.454162 
L 217.179648 -61.381589 
L 213.130245 -69.809553 
L 209.080842 -58.063196 
L 205.031439 -73.165655 
L 200.982036 -54.31115 
L 196.932633 -70.526024 
L 192.88323 -60.797099 
L 188.833827 -59.892083 
L 184.784423 -69.564444 
L 180.73502 -61.475861 
L 176.685617 -60.665118 
L 172.636214 -65.623853 
L 168.586811 -64.379455 
L 164.537408 -68.433174 
L 160.488005 -74.164943 
L 156.438602 -57.516415 
L 152.389199 -59.910938 
L 148.339795 -64.134347 
L 144.290392 -64.322892 
L 140.240989 -58.063196 
L 136.191586 -64.002365 
L 132.142183 -65.680416 
L 128.09278 -68.225774 
L 124.043377 -61.890661 
L 119.993974 -65.303326 
L 115.94457 -67.019086 
L 111.895167 -65.699271 
L 107.845764 -82.47978 
L 103.796361 -65.15249 
L 99.746958 -70.186643 
L 95.697555 -57.497561 
L 91.648152 -66.453451 
L 87.598749 -72.204075 
L 83.549345 -70.394042 
L 79.499942 -90.417527 
L 75.450539 -86.420372 
L 71.401136 -108.800669 
L 67.351733 -123.24322 
z
"/>
    </defs>
    <g clip-path="url(#p90d56a31b8)">
     <use xlink:href="#meb4a45e76d" x="0" y="243.299688" style="fill: #228b22; fill-opacity: 0.25"/>
    </g>
   </g>
   <g id="matplotlib.axis_1">
    <g id="xtick_1">
     <g id="line2d_1">
      <path d="M 63.30233 202.84 
L 63.30233 7.2 
" clip-path="url(#p90d56a31b8)" style="fill: none; stroke: #b0b0b0; stroke-opacity: 0.25; stroke-width: 0.8; stroke-linecap: square"/>
     </g>
     <g id="line2d_2">
      <defs>
       <path id="mb951316b64" d="M 0 0 
L 0 3.5 
" style="stroke: #000000; stroke-width: 0.8"/>
      </defs>
      <g>
       <use xlink:href="#mb951316b64" x="63.30233" y="202.84" style="stroke: #000000; stroke-width: 0.8"/>
      </g>
     </g>
     <g id="text_1">
      <!-- 0 -->
      <g transform="translate(59.802955 218.198281) scale(0.11 -0.11)">
       <defs>
        <path id="DejaVuSans-30" d="M 2034 4250 
Q 1547 4250 1301 3770 
Q 1056 3291 1056 2328 
Q 1056 1369 1301 889 
Q 1547 409 2034 409 
Q 2525 409 2770 889 
Q 3016 1369 3016 2328 
Q 3016 3291 2770 3770 
Q 2525 4250 2034 4250 
z
M 2034 4750 
Q 2819 4750 3233 4129 
Q 3647 3509 3647 2328 
Q 3647 1150 3233 529 
Q 2819 -91 2034 -91 
Q 1250 -91 836 529 
Q 422 1150 422 2328 
Q 422 3509 836 4129 
Q 1250 4750 2034 4750 
z
" transform="scale(0.015625)"/>
       </defs>
       <use xlink:href="#DejaVuSans-30"/>
      </g>
     </g>
    </g>
    <g id="xtick_2">
     <g id="line2d_3">
      <path d="M 144.290392 202.84 
L 144.290392 7.2 
" clip-path="url(#p90d56a31b8)" style="fill: none; stroke: #b0b0b0; stroke-opacity: 0.25; stroke-width: 0.8; stroke-linecap: square"/>
     </g>
     <g id="line2d_4">
      <g>
       <use xlink:href="#mb951316b64" x="144.290392" y="202.84" style="stroke: #000000; stroke-width: 0.8"/>
      </g>
     </g>
     <g id="text_2">
      <!-- 20 -->
      <g transform="translate(137.291642 218.198281) scale(0.11 -0.11)">
       <defs>
        <path id="DejaVuSans-32" d="M 1228 531 
L 3431 531 
L 3431 0 
L 469 0 
L 469 531 
Q 828 903 1448 1529 
Q 2069 2156 2228 2338 
Q 2531 2678 2651 2914 
Q 2772 3150 2772 3378 
Q 2772 3750 2511 3984 
Q 2250 4219 1831 4219 
Q 1534 4219 1204 4116 
Q 875 4013 500 3803 
L 500 4441 
Q 881 4594 1212 4672 
Q 1544 4750 1819 4750 
Q 2544 4750 2975 4387 
Q 3406 4025 3406 3419 
Q 3406 3131 3298 2873 
Q 3191 2616 2906 2266 
Q 2828 2175 2409 1742 
Q 1991 1309 1228 531 
z
" transform="scale(0.015625)"/>
       </defs>
       <use xlink:href="#DejaVuSans-32"/>
       <use xlink:href="#DejaVuSans-30" x="63.623047"/>
      </g>
     </g>
    </g>
    <g id="xtick_3">
     <g id="line2d_5">
      <path d="M 225.278455 202.84 
L 225.278455 7.2 
" clip-path="url(#p90d56a31b8)" style="fill: none; stroke: #b0b0b0; stroke-opacity: 0.25; stroke-width: 0.8; stroke-linecap: square"/>
     </g>
     <g id="line2d_6">
      <g>
       <use xlink:href="#mb951316b64" x="225.278455" y="202.84" style="stroke: #000000; stroke-width: 0.8"/>
      </g>
     </g>
     <g id="text_3">
      <!-- 40 -->
      <g transform="translate(218.279705 218.198281) scale(0.11 -0.11)">
       <defs>
        <path id="DejaVuSans-34" d="M 2419 4116 
L 825 1625 
L 2419 1625 
L 2419 4116 
z
M 2253 4666 
L 3047 4666 
L 3047 1625 
L 3713 1625 
L 3713 1100 
L 3047 1100 
L 3047 0 
L 2419 0 
L 2419 1100 
L 313 1100 
L 313 1709 
L 2253 4666 
z
" transform="scale(0.015625)"/>
       </defs>
       <use xlink:href="#DejaVuSans-34"/>
       <use xlink:href="#DejaVuSans-30" x="63.623047"/>
      </g>
     </g>
    </g>
    <g id="xtick_4">
     <g id="line2d_7">
      <path d="M 306.266517 202.84 
L 306.266517 7.2 
" clip-path="url(#p90d56a31b8)" style="fill: none; stroke: #b0b0b0; stroke-opacity: 0.25; stroke-width: 0.8; stroke-linecap: square"/>
     </g>
     <g id="line2d_8">
      <g>
       <use xlink:href="#mb951316b64" x="306.266517" y="202.84" style="stroke: #000000; stroke-width: 0.8"/>
      </g>
     </g>
     <g id="text_4">
      <!-- 60 -->
      <g transform="translate(299.267767 218.198281) scale(0.11 -0.11)">
       <defs>
        <path id="DejaVuSans-36" d="M 2113 2584 
Q 1688 2584 1439 2293 
Q 1191 2003 1191 1497 
Q 1191 994 1439 701 
Q 1688 409 2113 409 
Q 2538 409 2786 701 
Q 3034 994 3034 1497 
Q 3034 2003 2786 2293 
Q 2538 2584 2113 2584 
z
M 3366 4563 
L 3366 3988 
Q 3128 4100 2886 4159 
Q 2644 4219 2406 4219 
Q 1781 4219 1451 3797 
Q 1122 3375 1075 2522 
Q 1259 2794 1537 2939 
Q 1816 3084 2150 3084 
Q 2853 3084 3261 2657 
Q 3669 2231 3669 1497 
Q 3669 778 3244 343 
Q 2819 -91 2113 -91 
Q 1303 -91 875 529 
Q 447 1150 447 2328 
Q 447 3434 972 4092 
Q 1497 4750 2381 4750 
Q 2619 4750 2861 4703 
Q 3103 4656 3366 4563 
z
" transform="scale(0.015625)"/>
       </defs>
       <use xlink:href="#DejaVuSans-36"/>
       <use xlink:href="#DejaVuSans-30" x="63.623047"/>
      </g>
     </g>
    </g>
    <g id="xtick_5">
     <g id="line2d_9">
      <path d="M 387.25458 202.84 
L 387.25458 7.2 
" clip-path="url(#p90d56a31b8)" style="fill: none; stroke: #b0b0b0; stroke-opacity: 0.25; stroke-width: 0.8; stroke-linecap: square"/>
     </g>
     <g id="line2d_10">
      <g>
       <use xlink:href="#mb951316b64" x="387.25458" y="202.84" style="stroke: #000000; stroke-width: 0.8"/>
      </g>
     </g>
     <g id="text_5">
      <!-- 80 -->
      <g transform="translate(380.25583 218.198281) scale(0.11 -0.11)">
       <defs>
        <path id="DejaVuSans-38" d="M 2034 2216 
Q 1584 2216 1326 1975 
Q 1069 1734 1069 1313 
Q 1069 891 1326 650 
Q 1584 409 2034 409 
Q 2484 409 2743 651 
Q 3003 894 3003 1313 
Q 3003 1734 2745 1975 
Q 2488 2216 2034 2216 
z
M 1403 2484 
Q 997 2584 770 2862 
Q 544 3141 544 3541 
Q 544 4100 942 4425 
Q 1341 4750 2034 4750 
Q 2731 4750 3128 4425 
Q 3525 4100 3525 3541 
Q 3525 3141 3298 2862 
Q 3072 2584 2669 2484 
Q 3125 2378 3379 2068 
Q 3634 1759 3634 1313 
Q 3634 634 3220 271 
Q 2806 -91 2034 -91 
Q 1263 -91 848 271 
Q 434 634 434 1313 
Q 434 1759 690 2068 
Q 947 2378 1403 2484 
z
M 1172 3481 
Q 1172 3119 1398 2916 
Q 1625 2713 2034 2713 
Q 2441 2713 2670 2916 
Q 2900 3119 2900 3481 
Q 2900 3844 2670 4047 
Q 2441 4250 2034 4250 
Q 1625 4250 1398 4047 
Q 1172 3844 1172 3481 
z
" transform="scale(0.015625)"/>
       </defs>
       <use xlink:href="#DejaVuSans-38"/>
       <use xlink:href="#DejaVuSans-30" x="63.623047"/>
      </g>
     </g>
    </g>
    <g id="xtick_6">
     <g id="line2d_11">
      <path d="M 468.242642 202.84 
L 468.242642 7.2 
" clip-path="url(#p90d56a31b8)" style="fill: none; stroke: #b0b0b0; stroke-opacity: 0.25; stroke-width: 0.8; stroke-linecap: square"/>
     </g>
     <g id="line2d_12">
      <g>
       <use xlink:href="#mb951316b64" x="468.242642" y="202.84" style="stroke: #000000; stroke-width: 0.8"/>
      </g>
     </g>
     <g id="text_6">
      <!-- 100 -->
      <g transform="translate(457.744517 218.198281) scale(0.11 -0.11)">
       <defs>
        <path id="DejaVuSans-31" d="M 794 531 
L 1825 531 
L 1825 4091 
L 703 3866 
L 703 4441 
L 1819 4666 
L 2450 4666 
L 2450 531 
L 3481 531 
L 3481 0 
L 794 0 
L 794 531 
z
" transform="scale(0.015625)"/>
       </defs>
       <use xlink:href="#DejaVuSans-31"/>
       <use xlink:href="#DejaVuSans-30" x="63.623047"/>
       <use xlink:href="#DejaVuSans-30" x="127.246094"/>
      </g>
     </g>
    </g>
    <g id="text_7">
     <!-- Epoch -->
     <g transform="translate(249.424062 233.604062) scale(0.12 -0.12)">
      <defs>
       <path id="DejaVuSans-45" d="M 628 4666 
L 3578 4666 
L 3578 4134 
L 1259 4134 
L 1259 2753 
L 3481 2753 
L 3481 2222 
L 1259 2222 
L 1259 531 
L 3634 531 
L 3634 0 
L 628 0 
L 628 4666 
z
" transform="scale(0.015625)"/>
       <path id="DejaVuSans-70" d="M 1159 525 
L 1159 -1331 
L 581 -1331 
L 581 3500 
L 1159 3500 
L 1159 2969 
Q 1341 3281 1617 3432 
Q 1894 3584 2278 3584 
Q 2916 3584 3314 3078 
Q 3713 2572 3713 1747 
Q 3713 922 3314 415 
Q 2916 -91 2278 -91 
Q 1894 -91 1617 61 
Q 1341 213 1159 525 
z
M 3116 1747 
Q 3116 2381 2855 2742 
Q 2594 3103 2138 3103 
Q 1681 3103 1420 2742 
Q 1159 2381 1159 1747 
Q 1159 1113 1420 752 
Q 1681 391 2138 391 
Q 2594 391 2855 752 
Q 3116 1113 3116 1747 
z
" transform="scale(0.015625)"/>
       <path id="DejaVuSans-6f" d="M 1959 3097 
Q 1497 3097 1228 2736 
Q 959 2375 959 1747 
Q 959 1119 1226 758 
Q 1494 397 1959 397 
Q 2419 397 2687 759 
Q 2956 1122 2956 1747 
Q 2956 2369 2687 2733 
Q 2419 3097 1959 3097 
z
M 1959 3584 
Q 2709 3584 3137 3096 
Q 3566 2609 3566 1747 
Q 3566 888 3137 398 
Q 2709 -91 1959 -91 
Q 1206 -91 779 398 
Q 353 888 353 1747 
Q 353 2609 779 3096 
Q 1206 3584 1959 3584 
z
" transform="scale(0.015625)"/>
       <path id="DejaVuSans-63" d="M 3122 3366 
L 3122 2828 
Q 2878 2963 2633 3030 
Q 2388 3097 2138 3097 
Q 1578 3097 1268 2742 
Q 959 2388 959 1747 
Q 959 1106 1268 751 
Q 1578 397 2138 397 
Q 2388 397 2633 464 
Q 2878 531 3122 666 
L 3122 134 
Q 2881 22 2623 -34 
Q 2366 -91 2075 -91 
Q 1284 -91 818 406 
Q 353 903 353 1747 
Q 353 2603 823 3093 
Q 1294 3584 2113 3584 
Q 2378 3584 2631 3529 
Q 2884 3475 3122 3366 
z
" transform="scale(0.015625)"/>
       <path id="DejaVuSans-68" d="M 3513 2113 
L 3513 0 
L 2938 0 
L 2938 2094 
Q 2938 2591 2744 2837 
Q 2550 3084 2163 3084 
Q 1697 3084 1428 2787 
Q 1159 2491 1159 1978 
L 1159 0 
L 581 0 
L 581 4863 
L 1159 4863 
L 1159 2956 
Q 1366 3272 1645 3428 
Q 1925 3584 2291 3584 
Q 2894 3584 3203 3211 
Q 3513 2838 3513 2113 
z
" transform="scale(0.015625)"/>
      </defs>
      <use xlink:href="#DejaVuSans-45"/>
      <use xlink:href="#DejaVuSans-70" x="63.183594"/>
      <use xlink:href="#DejaVuSans-6f" x="126.660156"/>
      <use xlink:href="#DejaVuSans-63" x="187.841797"/>
      <use xlink:href="#DejaVuSans-68" x="242.822266"/>
     </g>
    </g>
   </g>
   <g id="matplotlib.axis_2">
    <g id="ytick_1">
     <g id="line2d_13">
      <path d="M 47.307187 178.712833 
L 488.287187 178.712833 
" clip-path="url(#p90d56a31b8)" style="fill: none; stroke: #b0b0b0; stroke-opacity: 0.25; stroke-width: 0.8; stroke-linecap: square"/>
     </g>
     <g id="line2d_14">
      <defs>
       <path id="m7b716a936c" d="M 0 0 
L -3.5 0 
" style="stroke: #000000; stroke-width: 0.8"/>
      </defs>
      <g>
       <use xlink:href="#m7b716a936c" x="47.307187" y="178.712833" style="stroke: #000000; stroke-width: 0.8"/>
      </g>
     </g>
     <g id="text_8">
      <!-- 0.4 -->
      <g transform="translate(22.81375 182.891973) scale(0.11 -0.11)">
       <defs>
        <path id="DejaVuSans-2e" d="M 684 794 
L 1344 794 
L 1344 0 
L 684 0 
L 684 794 
z
" transform="scale(0.015625)"/>
       </defs>
       <use xlink:href="#DejaVuSans-30"/>
       <use xlink:href="#DejaVuSans-2e" x="63.623047"/>
       <use xlink:href="#DejaVuSans-34" x="95.410156"/>
      </g>
     </g>
    </g>
    <g id="ytick_2">
     <g id="line2d_15">
      <path d="M 47.307187 141.003823 
L 488.287187 141.003823 
" clip-path="url(#p90d56a31b8)" style="fill: none; stroke: #b0b0b0; stroke-opacity: 0.25; stroke-width: 0.8; stroke-linecap: square"/>
     </g>
     <g id="line2d_16">
      <g>
       <use xlink:href="#m7b716a936c" x="47.307187" y="141.003823" style="stroke: #000000; stroke-width: 0.8"/>
      </g>
     </g>
     <g id="text_9">
      <!-- 0.6 -->
      <g transform="translate(22.81375 145.182963) scale(0.11 -0.11)">
       <use xlink:href="#DejaVuSans-30"/>
       <use xlink:href="#DejaVuSans-2e" x="63.623047"/>
       <use xlink:href="#DejaVuSans-36" x="95.410156"/>
      </g>
     </g>
    </g>
    <g id="ytick_3">
     <g id="line2d_17">
      <path d="M 47.307187 103.294813 
L 488.287187 103.294813 
" clip-path="url(#p90d56a31b8)" style="fill: none; stroke: #b0b0b0; stroke-opacity: 0.25; stroke-width: 0.8; stroke-linecap: square"/>
     </g>
     <g id="line2d_18">
      <g>
       <use xlink:href="#m7b716a936c" x="47.307187" y="103.294813" style="stroke: #000000; stroke-width: 0.8"/>
      </g>
     </g>
     <g id="text_10">
      <!-- 0.8 -->
      <g transform="translate(22.81375 107.473953) scale(0.11 -0.11)">
       <use xlink:href="#DejaVuSans-30"/>
       <use xlink:href="#DejaVuSans-2e" x="63.623047"/>
       <use xlink:href="#DejaVuSans-38" x="95.410156"/>
      </g>
     </g>
    </g>
    <g id="ytick_4">
     <g id="line2d_19">
      <path d="M 47.307187 65.585803 
L 488.287187 65.585803 
" clip-path="url(#p90d56a31b8)" style="fill: none; stroke: #b0b0b0; stroke-opacity: 0.25; stroke-width: 0.8; stroke-linecap: square"/>
     </g>
     <g id="line2d_20">
      <g>
       <use xlink:href="#m7b716a936c" x="47.307187" y="65.585803" style="stroke: #000000; stroke-width: 0.8"/>
      </g>
     </g>
     <g id="text_11">
      <!-- 1.0 -->
      <g transform="translate(22.81375 69.764943) scale(0.11 -0.11)">
       <use xlink:href="#DejaVuSans-31"/>
       <use xlink:href="#DejaVuSans-2e" x="63.623047"/>
       <use xlink:href="#DejaVuSans-30" x="95.410156"/>
      </g>
     </g>
    </g>
    <g id="ytick_5">
     <g id="line2d_21">
      <path d="M 47.307187 27.876793 
L 488.287187 27.876793 
" clip-path="url(#p90d56a31b8)" style="fill: none; stroke: #b0b0b0; stroke-opacity: 0.25; stroke-width: 0.8; stroke-linecap: square"/>
     </g>
     <g id="line2d_22">
      <g>
       <use xlink:href="#m7b716a936c" x="47.307187" y="27.876793" style="stroke: #000000; stroke-width: 0.8"/>
      </g>
     </g>
     <g id="text_12">
      <!-- 1.2 -->
      <g transform="translate(22.81375 32.055934) scale(0.11 -0.11)">
       <use xlink:href="#DejaVuSans-31"/>
       <use xlink:href="#DejaVuSans-2e" x="63.623047"/>
       <use xlink:href="#DejaVuSans-32" x="95.410156"/>
      </g>
     </g>
    </g>
    <g id="text_13">
     <!-- Test Loss -->
     <g transform="translate(16.318125 131.901875) rotate(-90) scale(0.12 -0.12)">
      <defs>
       <path id="DejaVuSans-54" d="M -19 4666 
L 3928 4666 
L 3928 4134 
L 2272 4134 
L 2272 0 
L 1638 0 
L 1638 4134 
L -19 4134 
L -19 4666 
z
" transform="scale(0.015625)"/>
       <path id="DejaVuSans-65" d="M 3597 1894 
L 3597 1613 
L 953 1613 
Q 991 1019 1311 708 
Q 1631 397 2203 397 
Q 2534 397 2845 478 
Q 3156 559 3463 722 
L 3463 178 
Q 3153 47 2828 -22 
Q 2503 -91 2169 -91 
Q 1331 -91 842 396 
Q 353 884 353 1716 
Q 353 2575 817 3079 
Q 1281 3584 2069 3584 
Q 2775 3584 3186 3129 
Q 3597 2675 3597 1894 
z
M 3022 2063 
Q 3016 2534 2758 2815 
Q 2500 3097 2075 3097 
Q 1594 3097 1305 2825 
Q 1016 2553 972 2059 
L 3022 2063 
z
" transform="scale(0.015625)"/>
       <path id="DejaVuSans-73" d="M 2834 3397 
L 2834 2853 
Q 2591 2978 2328 3040 
Q 2066 3103 1784 3103 
Q 1356 3103 1142 2972 
Q 928 2841 928 2578 
Q 928 2378 1081 2264 
Q 1234 2150 1697 2047 
L 1894 2003 
Q 2506 1872 2764 1633 
Q 3022 1394 3022 966 
Q 3022 478 2636 193 
Q 2250 -91 1575 -91 
Q 1294 -91 989 -36 
Q 684 19 347 128 
L 347 722 
Q 666 556 975 473 
Q 1284 391 1588 391 
Q 1994 391 2212 530 
Q 2431 669 2431 922 
Q 2431 1156 2273 1281 
Q 2116 1406 1581 1522 
L 1381 1569 
Q 847 1681 609 1914 
Q 372 2147 372 2553 
Q 372 3047 722 3315 
Q 1072 3584 1716 3584 
Q 2034 3584 2315 3537 
Q 2597 3491 2834 3397 
z
" transform="scale(0.015625)"/>
       <path id="DejaVuSans-74" d="M 1172 4494 
L 1172 3500 
L 2356 3500 
L 2356 3053 
L 1172 3053 
L 1172 1153 
Q 1172 725 1289 603 
Q 1406 481 1766 481 
L 2356 481 
L 2356 0 
L 1766 0 
Q 1100 0 847 248 
Q 594 497 594 1153 
L 594 3053 
L 172 3053 
L 172 3500 
L 594 3500 
L 594 4494 
L 1172 4494 
z
" transform="scale(0.015625)"/>
       <path id="DejaVuSans-20" transform="scale(0.015625)"/>
       <path id="DejaVuSans-4c" d="M 628 4666 
L 1259 4666 
L 1259 531 
L 3531 531 
L 3531 0 
L 628 0 
L 628 4666 
z
" transform="scale(0.015625)"/>
      </defs>
      <use xlink:href="#DejaVuSans-54"/>
      <use xlink:href="#DejaVuSans-65" x="44.083984"/>
      <use xlink:href="#DejaVuSans-73" x="105.607422"/>
      <use xlink:href="#DejaVuSans-74" x="157.707031"/>
      <use xlink:href="#DejaVuSans-20" x="196.916016"/>
      <use xlink:href="#DejaVuSans-4c" x="228.703125"/>
      <use xlink:href="#DejaVuSans-6f" x="282.666016"/>
      <use xlink:href="#DejaVuSans-73" x="343.847656"/>
      <use xlink:href="#DejaVuSans-73" x="395.947266"/>
     </g>
    </g>
   </g>
   <g id="line2d_23">
    <path d="M 67.351733 34.211907 
L 71.401136 57.054139 
L 75.450539 86.636858 
L 79.499942 75.060192 
L 83.549345 86.014659 
L 87.598749 136.422178 
L 91.648152 105.783607 
L 95.697555 158.142568 
L 99.746958 153.57035 
L 103.796361 145.189523 
L 107.845764 157.878605 
L 111.895167 139.872552 
L 115.94457 156.851034 
L 119.993974 167.202157 
L 124.043377 160.348545 
L 128.09278 170.944777 
L 132.142183 147.272946 
L 136.191586 162.309413 
L 140.240989 172.962209 
L 144.290392 177.751253 
L 148.339795 175.177613 
L 152.389199 175.073913 
L 156.438602 176.751964 
L 160.488005 170.275442 
L 164.537408 177.440154 
L 168.586811 179.089923 
L 172.636214 182.295189 
L 176.685617 189.469328 
L 180.73502 181.94638 
L 184.784423 182.05008 
L 188.833827 187.791277 
L 192.88323 181.107355 
L 196.932633 178.486579 
L 200.982036 179.928948 
L 205.031439 185.811554 
L 209.080842 178.939087 
L 213.130245 184.765129 
L 217.179648 187.169078 
L 221.229052 187.67815 
L 225.278455 185.764418 
L 229.327858 191.17566 
L 233.377261 186.094371 
L 237.426664 177.195045 
L 241.476067 174.32916 
L 245.52547 177.327027 
L 249.574873 180.664274 
L 253.624277 162.582804 
L 257.67368 184.501166 
L 261.723083 177.986934 
L 265.772486 188.668011 
L 269.821889 179.410449 
L 273.871292 187.178505 
L 277.920695 175.526421 
L 281.970098 182.794833 
L 286.019502 176.959364 
L 290.068905 182.832542 
L 294.118308 176.610555 
L 298.167711 186.424325 
L 302.217114 189.441046 
L 306.266517 181.145064 
L 310.31592 185.594727 
L 314.365323 187.131369 
L 318.414727 172.962209 
L 322.46413 184.058085 
L 326.513533 183.982667 
L 330.562936 179.410449 
L 334.612339 179.994939 
L 338.661742 178.901378 
L 342.711145 188.91312 
L 346.760548 182.464879 
L 350.809952 181.531581 
L 354.859355 179.759258 
L 358.908758 181.371318 
L 362.958161 187.112515 
L 367.007564 184.41632 
L 371.056967 187.442469 
L 375.10637 178.51486 
L 379.155773 187.348196 
L 383.205176 178.354597 
L 387.25458 184.614293 
L 391.303983 192.278649 
L 395.353386 178.82596 
L 399.402789 181.314754 
L 403.452192 177.327027 
L 407.501595 188.366339 
L 411.550998 177.920943 
L 415.600401 167.136167 
L 419.649805 185.839836 
L 423.699208 184.406893 
L 427.748611 178.269752 
L 431.798014 188.045813 
L 435.847417 177.100773 
L 439.89682 181.644708 
L 443.946223 186.33948 
L 447.995626 166.975903 
L 452.04503 185.406182 
L 456.094433 183.530159 
L 460.143836 187.78185 
L 464.193239 185.509882 
L 468.242642 183.737558 
" clip-path="url(#p90d56a31b8)" style="fill: none; stroke-dasharray: 7.4,3.2; stroke-dashoffset: 0; stroke: #e41a1c; stroke-width: 2"/>
   </g>
   <g id="line2d_24">
    <path d="M 67.351733 120.056468 
L 71.401136 134.499019 
L 75.450539 156.879316 
L 79.499942 152.882161 
L 83.549345 172.905645 
L 87.598749 171.095613 
L 91.648152 176.846237 
L 95.697555 185.802127 
L 99.746958 173.113045 
L 103.796361 178.147198 
L 107.845764 160.819907 
L 111.895167 177.600417 
L 115.94457 176.280602 
L 119.993974 177.996362 
L 124.043377 181.409027 
L 128.09278 175.073913 
L 132.142183 177.619271 
L 136.191586 179.297322 
L 140.240989 185.236491 
L 144.290392 178.976796 
L 148.339795 179.165341 
L 152.389199 183.38875 
L 156.438602 185.783272 
L 160.488005 169.134744 
L 164.537408 174.866514 
L 168.586811 178.920232 
L 172.636214 177.675835 
L 176.685617 182.63457 
L 180.73502 181.823826 
L 184.784423 173.735243 
L 188.833827 183.407604 
L 192.88323 182.502588 
L 196.932633 172.773664 
L 200.982036 188.988538 
L 205.031439 170.134033 
L 209.080842 185.236491 
L 213.130245 173.490135 
L 217.179648 181.918099 
L 221.229052 177.845525 
L 225.278455 176.337165 
L 229.327858 172.792518 
L 233.377261 181.861535 
L 237.426664 176.789673 
L 241.476067 178.411161 
L 245.52547 181.899244 
L 249.574873 177.826671 
L 253.624277 179.74983 
L 257.67368 183.746986 
L 261.723083 175.733821 
L 265.772486 166.64595 
L 269.821889 174.941932 
L 273.871292 173.245026 
L 277.920695 176.450292 
L 281.970098 182.691133 
L 286.019502 183.860113 
L 290.068905 175.790384 
L 294.118308 180.786828 
L 298.167711 172.7171 
L 302.217114 168.192019 
L 306.266517 178.769396 
L 310.31592 179.108777 
L 314.365323 173.320444 
L 318.414727 178.109489 
L 322.46413 186.179217 
L 326.513533 179.617849 
L 330.562936 168.606818 
L 334.612339 172.321156 
L 338.661742 176.14862 
L 342.711145 173.640971 
L 346.760548 186.44318 
L 350.809952 175.733821 
L 354.859355 177.129054 
L 358.908758 178.090634 
L 362.958161 178.656269 
L 367.007564 161.328979 
L 371.056967 177.317599 
L 375.10637 176.35602 
L 379.155773 178.99565 
L 383.205176 178.599706 
L 387.25458 180.71141 
L 391.303983 169.323289 
L 395.353386 173.263881 
L 399.402789 178.957941 
L 403.452192 181.767263 
L 407.501595 185.613582 
L 411.550998 169.210162 
L 415.600401 174.338588 
L 419.649805 172.641682 
L 423.699208 171.227594 
L 427.748611 180.183484 
L 431.798014 180.692556 
L 435.847417 180.315466 
L 439.89682 173.358153 
L 443.946223 179.014505 
L 447.995626 182.709988 
L 452.04503 179.108777 
L 456.094433 176.374874 
L 460.143836 181.597572 
L 464.193239 177.770107 
L 468.242642 180.673701 
" clip-path="url(#p90d56a31b8)" style="fill: none; stroke-dasharray: 7.4,3.2; stroke-dashoffset: 0; stroke: #228b22; stroke-width: 2"/>
   </g>
   <g id="patch_3">
    <path d="M 47.307187 202.84 
L 47.307187 7.2 
" style="fill: none; stroke: #000000; stroke-width: 0.8; stroke-linejoin: miter; stroke-linecap: square"/>
   </g>
   <g id="patch_4">
    <path d="M 488.287187 202.84 
L 488.287187 7.2 
" style="fill: none; stroke: #000000; stroke-width: 0.8; stroke-linejoin: miter; stroke-linecap: square"/>
   </g>
   <g id="patch_5">
    <path d="M 47.307187 202.84 
L 488.287188 202.84 
" style="fill: none; stroke: #000000; stroke-width: 0.8; stroke-linejoin: miter; stroke-linecap: square"/>
   </g>
   <g id="patch_6">
    <path d="M 47.307187 7.2 
L 488.287188 7.2 
" style="fill: none; stroke: #000000; stroke-width: 0.8; stroke-linejoin: miter; stroke-linecap: square"/>
   </g>
   <g id="legend_1">
    <g id="patch_7">
     <path d="M 340.66375 197.84 
L 481.287187 197.84 
Q 483.287187 197.84 483.287187 195.84 
L 483.287187 167.48375 
Q 483.287187 165.48375 481.287187 165.48375 
L 340.66375 165.48375 
Q 338.66375 165.48375 338.66375 167.48375 
L 338.66375 195.84 
Q 338.66375 197.84 340.66375 197.84 
z
" style="fill: #ffffff; opacity: 0.8; stroke: #cccccc; stroke-linejoin: miter"/>
    </g>
    <g id="line2d_25">
     <path d="M 342.66375 173.582188 
L 352.66375 173.582188 
L 362.66375 173.582188 
" style="fill: none; stroke-dasharray: 7.4,3.2; stroke-dashoffset: 0; stroke: #e41a1c; stroke-width: 2"/>
    </g>
    <g id="text_14">
     <!-- Loss - Baseline -->
     <g transform="translate(370.66375 177.082188) scale(0.1 -0.1)">
      <defs>
       <path id="DejaVuSans-2d" d="M 313 2009 
L 1997 2009 
L 1997 1497 
L 313 1497 
L 313 2009 
z
" transform="scale(0.015625)"/>
       <path id="DejaVuSans-42" d="M 1259 2228 
L 1259 519 
L 2272 519 
Q 2781 519 3026 730 
Q 3272 941 3272 1375 
Q 3272 1813 3026 2020 
Q 2781 2228 2272 2228 
L 1259 2228 
z
M 1259 4147 
L 1259 2741 
L 2194 2741 
Q 2656 2741 2882 2914 
Q 3109 3088 3109 3444 
Q 3109 3797 2882 3972 
Q 2656 4147 2194 4147 
L 1259 4147 
z
M 628 4666 
L 2241 4666 
Q 2963 4666 3353 4366 
Q 3744 4066 3744 3513 
Q 3744 3084 3544 2831 
Q 3344 2578 2956 2516 
Q 3422 2416 3680 2098 
Q 3938 1781 3938 1306 
Q 3938 681 3513 340 
Q 3088 0 2303 0 
L 628 0 
L 628 4666 
z
" transform="scale(0.015625)"/>
       <path id="DejaVuSans-61" d="M 2194 1759 
Q 1497 1759 1228 1600 
Q 959 1441 959 1056 
Q 959 750 1161 570 
Q 1363 391 1709 391 
Q 2188 391 2477 730 
Q 2766 1069 2766 1631 
L 2766 1759 
L 2194 1759 
z
M 3341 1997 
L 3341 0 
L 2766 0 
L 2766 531 
Q 2569 213 2275 61 
Q 1981 -91 1556 -91 
Q 1019 -91 701 211 
Q 384 513 384 1019 
Q 384 1609 779 1909 
Q 1175 2209 1959 2209 
L 2766 2209 
L 2766 2266 
Q 2766 2663 2505 2880 
Q 2244 3097 1772 3097 
Q 1472 3097 1187 3025 
Q 903 2953 641 2809 
L 641 3341 
Q 956 3463 1253 3523 
Q 1550 3584 1831 3584 
Q 2591 3584 2966 3190 
Q 3341 2797 3341 1997 
z
" transform="scale(0.015625)"/>
       <path id="DejaVuSans-6c" d="M 603 4863 
L 1178 4863 
L 1178 0 
L 603 0 
L 603 4863 
z
" transform="scale(0.015625)"/>
       <path id="DejaVuSans-69" d="M 603 3500 
L 1178 3500 
L 1178 0 
L 603 0 
L 603 3500 
z
M 603 4863 
L 1178 4863 
L 1178 4134 
L 603 4134 
L 603 4863 
z
" transform="scale(0.015625)"/>
       <path id="DejaVuSans-6e" d="M 3513 2113 
L 3513 0 
L 2938 0 
L 2938 2094 
Q 2938 2591 2744 2837 
Q 2550 3084 2163 3084 
Q 1697 3084 1428 2787 
Q 1159 2491 1159 1978 
L 1159 0 
L 581 0 
L 581 3500 
L 1159 3500 
L 1159 2956 
Q 1366 3272 1645 3428 
Q 1925 3584 2291 3584 
Q 2894 3584 3203 3211 
Q 3513 2838 3513 2113 
z
" transform="scale(0.015625)"/>
      </defs>
      <use xlink:href="#DejaVuSans-4c"/>
      <use xlink:href="#DejaVuSans-6f" x="53.962891"/>
      <use xlink:href="#DejaVuSans-73" x="115.144531"/>
      <use xlink:href="#DejaVuSans-73" x="167.244141"/>
      <use xlink:href="#DejaVuSans-20" x="219.34375"/>
      <use xlink:href="#DejaVuSans-2d" x="251.130859"/>
      <use xlink:href="#DejaVuSans-20" x="287.214844"/>
      <use xlink:href="#DejaVuSans-42" x="319.001953"/>
      <use xlink:href="#DejaVuSans-61" x="387.605469"/>
      <use xlink:href="#DejaVuSans-73" x="448.884766"/>
      <use xlink:href="#DejaVuSans-65" x="500.984375"/>
      <use xlink:href="#DejaVuSans-6c" x="562.507812"/>
      <use xlink:href="#DejaVuSans-69" x="590.291016"/>
      <use xlink:href="#DejaVuSans-6e" x="618.074219"/>
      <use xlink:href="#DejaVuSans-65" x="681.453125"/>
     </g>
    </g>
    <g id="line2d_26">
     <path d="M 342.66375 188.260312 
L 352.66375 188.260312 
L 362.66375 188.260312 
" style="fill: none; stroke-dasharray: 7.4,3.2; stroke-dashoffset: 0; stroke: #228b22; stroke-width: 2"/>
    </g>
    <g id="text_15">
     <!-- Loss - SSL Pre-trained -->
     <g transform="translate(370.66375 191.760312) scale(0.1 -0.1)">
      <defs>
       <path id="DejaVuSans-53" d="M 3425 4513 
L 3425 3897 
Q 3066 4069 2747 4153 
Q 2428 4238 2131 4238 
Q 1616 4238 1336 4038 
Q 1056 3838 1056 3469 
Q 1056 3159 1242 3001 
Q 1428 2844 1947 2747 
L 2328 2669 
Q 3034 2534 3370 2195 
Q 3706 1856 3706 1288 
Q 3706 609 3251 259 
Q 2797 -91 1919 -91 
Q 1588 -91 1214 -16 
Q 841 59 441 206 
L 441 856 
Q 825 641 1194 531 
Q 1563 422 1919 422 
Q 2459 422 2753 634 
Q 3047 847 3047 1241 
Q 3047 1584 2836 1778 
Q 2625 1972 2144 2069 
L 1759 2144 
Q 1053 2284 737 2584 
Q 422 2884 422 3419 
Q 422 4038 858 4394 
Q 1294 4750 2059 4750 
Q 2388 4750 2728 4690 
Q 3069 4631 3425 4513 
z
" transform="scale(0.015625)"/>
       <path id="DejaVuSans-50" d="M 1259 4147 
L 1259 2394 
L 2053 2394 
Q 2494 2394 2734 2622 
Q 2975 2850 2975 3272 
Q 2975 3691 2734 3919 
Q 2494 4147 2053 4147 
L 1259 4147 
z
M 628 4666 
L 2053 4666 
Q 2838 4666 3239 4311 
Q 3641 3956 3641 3272 
Q 3641 2581 3239 2228 
Q 2838 1875 2053 1875 
L 1259 1875 
L 1259 0 
L 628 0 
L 628 4666 
z
" transform="scale(0.015625)"/>
       <path id="DejaVuSans-72" d="M 2631 2963 
Q 2534 3019 2420 3045 
Q 2306 3072 2169 3072 
Q 1681 3072 1420 2755 
Q 1159 2438 1159 1844 
L 1159 0 
L 581 0 
L 581 3500 
L 1159 3500 
L 1159 2956 
Q 1341 3275 1631 3429 
Q 1922 3584 2338 3584 
Q 2397 3584 2469 3576 
Q 2541 3569 2628 3553 
L 2631 2963 
z
" transform="scale(0.015625)"/>
       <path id="DejaVuSans-64" d="M 2906 2969 
L 2906 4863 
L 3481 4863 
L 3481 0 
L 2906 0 
L 2906 525 
Q 2725 213 2448 61 
Q 2172 -91 1784 -91 
Q 1150 -91 751 415 
Q 353 922 353 1747 
Q 353 2572 751 3078 
Q 1150 3584 1784 3584 
Q 2172 3584 2448 3432 
Q 2725 3281 2906 2969 
z
M 947 1747 
Q 947 1113 1208 752 
Q 1469 391 1925 391 
Q 2381 391 2643 752 
Q 2906 1113 2906 1747 
Q 2906 2381 2643 2742 
Q 2381 3103 1925 3103 
Q 1469 3103 1208 2742 
Q 947 2381 947 1747 
z
" transform="scale(0.015625)"/>
      </defs>
      <use xlink:href="#DejaVuSans-4c"/>
      <use xlink:href="#DejaVuSans-6f" x="53.962891"/>
      <use xlink:href="#DejaVuSans-73" x="115.144531"/>
      <use xlink:href="#DejaVuSans-73" x="167.244141"/>
      <use xlink:href="#DejaVuSans-20" x="219.34375"/>
      <use xlink:href="#DejaVuSans-2d" x="251.130859"/>
      <use xlink:href="#DejaVuSans-20" x="287.214844"/>
      <use xlink:href="#DejaVuSans-53" x="319.001953"/>
      <use xlink:href="#DejaVuSans-53" x="382.478516"/>
      <use xlink:href="#DejaVuSans-4c" x="445.955078"/>
      <use xlink:href="#DejaVuSans-20" x="501.667969"/>
      <use xlink:href="#DejaVuSans-50" x="533.455078"/>
      <use xlink:href="#DejaVuSans-72" x="592.007812"/>
      <use xlink:href="#DejaVuSans-65" x="630.871094"/>
      <use xlink:href="#DejaVuSans-2d" x="692.394531"/>
      <use xlink:href="#DejaVuSans-74" x="728.478516"/>
      <use xlink:href="#DejaVuSans-72" x="767.6875"/>
      <use xlink:href="#DejaVuSans-61" x="808.800781"/>
      <use xlink:href="#DejaVuSans-69" x="870.080078"/>
      <use xlink:href="#DejaVuSans-6e" x="897.863281"/>
      <use xlink:href="#DejaVuSans-65" x="961.242188"/>
      <use xlink:href="#DejaVuSans-64" x="1022.765625"/>
     </g>
    </g>
   </g>
  </g>
 </g>
 <defs>
  <clipPath id="p90d56a31b8">
   <rect x="47.307187" y="7.2" width="440.98" height="195.64"/>
  </clipPath>
 </defs>
</svg>
