<?xml version="1.0" encoding="utf-8" standalone="no"?>
<!DOCTYPE svg PUBLIC "-//W3C//DTD SVG 1.1//EN"
  "http://www.w3.org/Graphics/SVG/1.1/DTD/svg11.dtd">
<svg xmlns:xlink="http://www.w3.org/1999/xlink" width="495.50125pt" height="243.299688pt" viewBox="0 0 495.50125 243.299688" xmlns="http://www.w3.org/2000/svg" version="1.1">
 <metadata>
  <rdf:RDF xmlns:dc="http://purl.org/dc/elements/1.1/" xmlns:cc="http://creativecommons.org/ns#" xmlns:rdf="http://www.w3.org/1999/02/22-rdf-syntax-ns#">
   <cc:Work>
    <dc:type rdf:resource="http://purl.org/dc/dcmitype/StillImage"/>
    <dc:date>2025-12-22T20:27:01.154415</dc:date>
    <dc:format>image/svg+xml</dc:format>
    <dc:creator>
     <cc:Agent>
      <dc:title>Matplotlib v3.9.0, https://matplotlib.org/</dc:title>
     </cc:Agent>
    </dc:creator>
   </cc:Work>
  </rdf:RDF>
 </metadata>
 <defs>
  <style type="text/css">*{stroke-linejoin: round; stroke-linecap: butt}</style>
 </defs>
 <g id="figure_1">
  <g id="patch_1">
   <path d="M 0 243.299688 
L 495.50125 243.299688 
L 495.50125 0 
L 0 0 
z
" style="fill: #ffffff"/>
  </g>
  <g id="axes_1">
   <g id="patch_2">
    <path d="M 43.81125 202.84 
L 488.30125 202.84 
L 488.30125 7.2 
L 43.81125 7.2 
z
" style="fill: #ffffff"/>
   </g>
   <g id="PolyCollection_1">
    <defs>
     <path id="m7ed455c11d" d="M 64.015341 -49.352415 
L 64.015341 -49.352415 
L 68.096975 -87.552632 
L 72.17861 -105.214146 
L 76.260244 -88.614979 
L 80.341879 -105.789584 
L 84.423514 -125.752849 
L 88.505148 -141.156877 
L 92.586783 -156.339582 
L 96.668417 -138.323952 
L 100.750052 -154.524739 
L 104.831686 -130.754732 
L 108.913321 -165.812173 
L 112.994955 -157.756044 
L 117.07659 -168.158189 
L 121.158224 -171.478022 
L 125.239859 -156.605168 
L 129.321493 -164.395711 
L 133.403128 -183.296629 
L 137.484762 -179.357094 
L 141.566397 -196.221848 
L 145.648031 -187.944396 
L 149.729666 -192.06099 
L 153.811301 -207.642075 
L 157.892935 -204.587828 
L 161.97457 -194.141419 
L 166.056204 -200.692557 
L 170.137839 -192.149519 
L 174.219473 -215.167031 
L 178.301108 -225.879027 
L 182.382742 -198.346541 
L 186.464377 -212.157048 
L 190.546011 -213.484982 
L 194.627646 -215.786733 
L 198.70928 -212.289842 
L 202.790915 -214.85718 
L 206.872549 -215.167031 
L 210.954184 -221.275524 
L 215.035818 -214.148949 
L 219.117453 -216.627758 
L 223.199087 -227.20696 
L 227.280722 -219.372153 
L 231.362357 -207.509282 
L 235.443991 -219.903327 
L 239.525626 -214.414535 
L 243.60726 -211.581611 
L 247.688895 -218.398335 
L 251.770529 -215.432617 
L 255.852164 -212.953809 
L 259.933798 -213.883362 
L 264.015433 -215.521146 
L 268.097067 -211.138966 
L 272.178702 -209.545446 
L 276.260336 -217.955691 
L 280.341971 -213.352189 
L 284.423605 -212.422635 
L 288.50524 -212.334106 
L 292.586874 -209.412653 
L 296.668509 -204.499299 
L 300.750143 -205.871497 
L 304.831778 -194.672592 
L 308.913413 -197.771103 
L 312.995047 -193.300394 
L 317.076682 -204.676357 
L 321.158316 -193.698774 
L 325.239951 -195.24803 
L 329.321585 -196.930079 
L 333.40322 -198.966243 
L 337.484854 -190.113354 
L 341.566489 -187.324694 
L 345.648123 -190.157619 
L 349.729758 -175.904467 
L 353.811392 -192.724957 
L 357.893027 -188.785421 
L 361.974661 -184.845885 
L 366.056296 -186.306612 
L 370.13793 -178.073425 
L 374.219565 -177.055343 
L 378.301199 -178.693127 
L 382.382834 -180.330912 
L 386.464469 -163.908802 
L 390.546103 -165.059678 
L 394.627738 -167.317164 
L 398.709372 -166.830255 
L 402.791007 -163.997331 
L 406.872641 -165.812173 
L 410.954276 -164.041595 
L 415.03591 -159.747944 
L 419.117545 -168.379511 
L 423.199179 -161.385728 
L 427.280814 -165.103942 
L 431.362448 -168.335247 
L 435.444083 -160.854555 
L 439.525717 -149.434328 
L 443.607352 -150.895055 
L 447.688986 -146.158759 
L 451.770621 -141.024083 
L 455.852256 -137.30587 
L 459.93389 -145.184941 
L 464.015525 -152.798426 
L 468.097159 -143.901272 
L 468.097159 -143.901272 
L 468.097159 -143.901272 
L 464.015525 -152.798426 
L 459.93389 -145.184941 
L 455.852256 -137.30587 
L 451.770621 -141.024083 
L 447.688986 -146.158759 
L 443.607352 -150.895055 
L 439.525717 -149.434328 
L 435.444083 -160.854555 
L 431.362448 -168.335247 
L 427.280814 -165.103942 
L 423.199179 -161.385728 
L 419.117545 -168.379511 
L 415.03591 -159.747944 
L 410.954276 -164.041595 
L 406.872641 -165.812173 
L 402.791007 -163.997331 
L 398.709372 -166.830255 
L 394.627738 -167.317164 
L 390.546103 -165.059678 
L 386.464469 -163.908802 
L 382.382834 -180.330912 
L 378.301199 -178.693127 
L 374.219565 -177.055343 
L 370.13793 -178.073425 
L 366.056296 -186.306612 
L 361.974661 -184.845885 
L 357.893027 -188.785421 
L 353.811392 -192.724957 
L 349.729758 -175.904467 
L 345.648123 -190.157619 
L 341.566489 -187.324694 
L 337.484854 -190.113354 
L 333.40322 -198.966243 
L 329.321585 -196.930079 
L 325.239951 -195.24803 
L 321.158316 -193.698774 
L 317.076682 -204.676357 
L 312.995047 -193.300394 
L 308.913413 -197.771103 
L 304.831778 -194.672592 
L 300.750143 -205.871497 
L 296.668509 -204.499299 
L 292.586874 -209.412653 
L 288.50524 -212.334106 
L 284.423605 -212.422635 
L 280.341971 -213.352189 
L 276.260336 -217.955691 
L 272.178702 -209.545446 
L 268.097067 -211.138966 
L 264.015433 -215.521146 
L 259.933798 -213.883362 
L 255.852164 -212.953809 
L 251.770529 -215.432617 
L 247.688895 -218.398335 
L 243.60726 -211.581611 
L 239.525626 -214.414535 
L 235.443991 -219.903327 
L 231.362357 -207.509282 
L 227.280722 -219.372153 
L 223.199087 -227.20696 
L 219.117453 -216.627758 
L 215.035818 -214.148949 
L 210.954184 -221.275524 
L 206.872549 -215.167031 
L 202.790915 -214.85718 
L 198.70928 -212.289842 
L 194.627646 -215.786733 
L 190.546011 -213.484982 
L 186.464377 -212.157048 
L 182.382742 -198.346541 
L 178.301108 -225.879027 
L 174.219473 -215.167031 
L 170.137839 -192.149519 
L 166.056204 -200.692557 
L 161.97457 -194.141419 
L 157.892935 -204.587828 
L 153.811301 -207.642075 
L 149.729666 -192.06099 
L 145.648031 -187.944396 
L 141.566397 -196.221848 
L 137.484762 -179.357094 
L 133.403128 -183.296629 
L 129.321493 -164.395711 
L 125.239859 -156.605168 
L 121.158224 -171.478022 
L 117.07659 -168.158189 
L 112.994955 -157.756044 
L 108.913321 -165.812173 
L 104.831686 -130.754732 
L 100.750052 -154.524739 
L 96.668417 -138.323952 
L 92.586783 -156.339582 
L 88.505148 -141.156877 
L 84.423514 -125.752849 
L 80.341879 -105.789584 
L 76.260244 -88.614979 
L 72.17861 -105.214146 
L 68.096975 -87.552632 
L 64.015341 -49.352415 
z
"/>
    </defs>
    <g clip-path="url(#p47309932cc)">
     <use xlink:href="#m7ed455c11d" x="0" y="243.299688" style="fill: #e41a1c; fill-opacity: 0.25"/>
    </g>
   </g>
   <g id="PolyCollection_2">
    <defs>
     <path id="m0782f54bd1" d="M 64.015341 -161.031613 
L 64.015341 -161.031613 
L 68.096975 -191.574081 
L 72.17861 -173.160071 
L 76.260244 -204.764886 
L 80.341879 -171.876402 
L 84.423514 -211.27176 
L 88.505148 -217.601575 
L 92.586783 -186.837785 
L 96.668417 -222.02802 
L 100.750052 -207.287959 
L 104.831686 -226.631522 
L 108.913321 -211.448817 
L 112.994955 -224.01992 
L 117.07659 -219.106567 
L 121.158224 -217.24746 
L 125.239859 -209.899562 
L 129.321493 -216.716286 
L 133.403128 -223.665805 
L 137.484762 -219.991855 
L 141.566397 -195.823468 
L 145.648031 -219.682004 
L 149.729666 -218.4426 
L 153.811301 -221.186996 
L 157.892935 -209.678239 
L 161.97457 -208.837215 
L 166.056204 -220.478764 
L 170.137839 -220.257442 
L 174.219473 -215.122766 
L 178.301108 -221.054202 
L 182.382742 -220.567293 
L 186.464377 -219.63774 
L 190.546011 -209.412653 
L 194.627646 -215.565411 
L 198.70928 -209.147066 
L 202.790915 -208.261777 
L 206.872549 -211.493082 
L 210.954184 -211.138966 
L 215.035818 -201.135201 
L 219.117453 -205.251795 
L 223.199087 -208.306042 
L 227.280722 -192.990543 
L 231.362357 -201.090937 
L 235.443991 -197.062872 
L 239.525626 -190.113354 
L 243.60726 -191.883932 
L 247.688895 -183.562216 
L 251.770529 -181.924432 
L 255.852164 -188.652627 
L 259.933798 -186.793521 
L 264.015433 -180.286647 
L 268.097067 -180.994878 
L 272.178702 -178.693127 
L 276.260336 -181.791638 
L 280.341971 -169.618916 
L 284.423605 -172.673162 
L 288.50524 -167.538487 
L 292.586874 -156.693697 
L 296.668509 -168.556569 
L 300.750143 -171.300964 
L 304.831778 -153.772244 
L 308.913413 -153.816508 
L 312.995047 -161.474257 
L 317.076682 -162.315282 
L 321.158316 -144.255388 
L 325.239951 -160.057795 
L 329.321585 -151.426228 
L 333.40322 -144.07833 
L 337.484854 -144.698032 
L 341.566489 -150.319617 
L 345.648123 -121.724785 
L 349.729758 -141.333934 
L 353.811392 -146.291552 
L 357.893027 -134.51721 
L 361.974661 -134.959854 
L 366.056296 -133.941772 
L 370.13793 -130.312087 
L 374.219565 -130.666203 
L 378.301199 -129.426798 
L 382.382834 -138.943654 
L 386.464469 -118.49348 
L 390.546103 -110.481615 
L 394.627738 -110.879995 
L 398.709372 -122.610073 
L 402.791007 -115.527762 
L 406.872641 -124.0708 
L 410.954276 -112.163664 
L 415.03591 -108.976624 
L 419.117545 -106.719137 
L 423.199179 -113.093218 
L 427.280814 -109.596326 
L 431.362448 -104.550179 
L 435.444083 -117.209811 
L 439.525717 -113.491598 
L 443.607352 -102.823866 
L 447.688986 -97.158017 
L 451.770621 -97.68919 
L 455.852256 -106.187964 
L 459.93389 -92.687308 
L 464.015525 -92.288928 
L 468.097159 -98.840066 
L 468.097159 -98.840066 
L 468.097159 -98.840066 
L 464.015525 -92.288928 
L 459.93389 -92.687308 
L 455.852256 -106.187964 
L 451.770621 -97.68919 
L 447.688986 -97.158017 
L 443.607352 -102.823866 
L 439.525717 -113.491598 
L 435.444083 -117.209811 
L 431.362448 -104.550179 
L 427.280814 -109.596326 
L 423.199179 -113.093218 
L 419.117545 -106.719137 
L 415.03591 -108.976624 
L 410.954276 -112.163664 
L 406.872641 -124.0708 
L 402.791007 -115.527762 
L 398.709372 -122.610073 
L 394.627738 -110.879995 
L 390.546103 -110.481615 
L 386.464469 -118.49348 
L 382.382834 -138.943654 
L 378.301199 -129.426798 
L 374.219565 -130.666203 
L 370.13793 -130.312087 
L 366.056296 -133.941772 
L 361.974661 -134.959854 
L 357.893027 -134.51721 
L 353.811392 -146.291552 
L 349.729758 -141.333934 
L 345.648123 -121.724785 
L 341.566489 -150.319617 
L 337.484854 -144.698032 
L 333.40322 -144.07833 
L 329.321585 -151.426228 
L 325.239951 -160.057795 
L 321.158316 -144.255388 
L 317.076682 -162.315282 
L 312.995047 -161.474257 
L 308.913413 -153.816508 
L 304.831778 -153.772244 
L 300.750143 -171.300964 
L 296.668509 -168.556569 
L 292.586874 -156.693697 
L 288.50524 -167.538487 
L 284.423605 -172.673162 
L 280.341971 -169.618916 
L 276.260336 -181.791638 
L 272.178702 -178.693127 
L 268.097067 -180.994878 
L 264.015433 -180.286647 
L 259.933798 -186.793521 
L 255.852164 -188.652627 
L 251.770529 -181.924432 
L 247.688895 -183.562216 
L 243.60726 -191.883932 
L 239.525626 -190.113354 
L 235.443991 -197.062872 
L 231.362357 -201.090937 
L 227.280722 -192.990543 
L 223.199087 -208.306042 
L 219.117453 -205.251795 
L 215.035818 -201.135201 
L 210.954184 -211.138966 
L 206.872549 -211.493082 
L 202.790915 -208.261777 
L 198.70928 -209.147066 
L 194.627646 -215.565411 
L 190.546011 -209.412653 
L 186.464377 -219.63774 
L 182.382742 -220.567293 
L 178.301108 -221.054202 
L 174.219473 -215.122766 
L 170.137839 -220.257442 
L 166.056204 -220.478764 
L 161.97457 -208.837215 
L 157.892935 -209.678239 
L 153.811301 -221.186996 
L 149.729666 -218.4426 
L 145.648031 -219.682004 
L 141.566397 -195.823468 
L 137.484762 -219.991855 
L 133.403128 -223.665805 
L 129.321493 -216.716286 
L 125.239859 -209.899562 
L 121.158224 -217.24746 
L 117.07659 -219.106567 
L 112.994955 -224.01992 
L 108.913321 -211.448817 
L 104.831686 -226.631522 
L 100.750052 -207.287959 
L 96.668417 -222.02802 
L 92.586783 -186.837785 
L 88.505148 -217.601575 
L 84.423514 -211.27176 
L 80.341879 -171.876402 
L 76.260244 -204.764886 
L 72.17861 -173.160071 
L 68.096975 -191.574081 
L 64.015341 -161.031613 
z
"/>
    </defs>
    <g clip-path="url(#p47309932cc)">
     <use xlink:href="#m0782f54bd1" x="0" y="243.299688" style="fill: #228b22; fill-opacity: 0.25"/>
    </g>
   </g>
   <g id="matplotlib.axis_1">
    <g id="xtick_1">
     <g id="line2d_1">
      <path d="M 59.933706 202.84 
L 59.933706 7.2 
" clip-path="url(#p47309932cc)" style="fill: none; stroke: #b0b0b0; stroke-opacity: 0.25; stroke-width: 0.8; stroke-linecap: square"/>
     </g>
     <g id="line2d_2">
      <defs>
       <path id="m8bd69dfbf9" d="M 0 0 
L 0 3.5 
" style="stroke: #000000; stroke-width: 0.8"/>
      </defs>
      <g>
       <use xlink:href="#m8bd69dfbf9" x="59.933706" y="202.84" style="stroke: #000000; stroke-width: 0.8"/>
      </g>
     </g>
     <g id="text_1">
      <!-- 0 -->
      <g transform="translate(56.434331 218.198281) scale(0.11 -0.11)">
       <defs>
        <path id="DejaVuSans-30" d="M 2034 4250 
Q 1547 4250 1301 3770 
Q 1056 3291 1056 2328 
Q 1056 1369 1301 889 
Q 1547 409 2034 409 
Q 2525 409 2770 889 
Q 3016 1369 3016 2328 
Q 3016 3291 2770 3770 
Q 2525 4250 2034 4250 
z
M 2034 4750 
Q 2819 4750 3233 4129 
Q 3647 3509 3647 2328 
Q 3647 1150 3233 529 
Q 2819 -91 2034 -91 
Q 1250 -91 836 529 
Q 422 1150 422 2328 
Q 422 3509 836 4129 
Q 1250 4750 2034 4750 
z
" transform="scale(0.015625)"/>
       </defs>
       <use xlink:href="#DejaVuSans-30"/>
      </g>
     </g>
    </g>
    <g id="xtick_2">
     <g id="line2d_3">
      <path d="M 141.566397 202.84 
L 141.566397 7.2 
" clip-path="url(#p47309932cc)" style="fill: none; stroke: #b0b0b0; stroke-opacity: 0.25; stroke-width: 0.8; stroke-linecap: square"/>
     </g>
     <g id="line2d_4">
      <g>
       <use xlink:href="#m8bd69dfbf9" x="141.566397" y="202.84" style="stroke: #000000; stroke-width: 0.8"/>
      </g>
     </g>
     <g id="text_2">
      <!-- 20 -->
      <g transform="translate(134.567647 218.198281) scale(0.11 -0.11)">
       <defs>
        <path id="DejaVuSans-32" d="M 1228 531 
L 3431 531 
L 3431 0 
L 469 0 
L 469 531 
Q 828 903 1448 1529 
Q 2069 2156 2228 2338 
Q 2531 2678 2651 2914 
Q 2772 3150 2772 3378 
Q 2772 3750 2511 3984 
Q 2250 4219 1831 4219 
Q 1534 4219 1204 4116 
Q 875 4013 500 3803 
L 500 4441 
Q 881 4594 1212 4672 
Q 1544 4750 1819 4750 
Q 2544 4750 2975 4387 
Q 3406 4025 3406 3419 
Q 3406 3131 3298 2873 
Q 3191 2616 2906 2266 
Q 2828 2175 2409 1742 
Q 1991 1309 1228 531 
z
" transform="scale(0.015625)"/>
       </defs>
       <use xlink:href="#DejaVuSans-32"/>
       <use xlink:href="#DejaVuSans-30" x="63.623047"/>
      </g>
     </g>
    </g>
    <g id="xtick_3">
     <g id="line2d_5">
      <path d="M 223.199087 202.84 
L 223.199087 7.2 
" clip-path="url(#p47309932cc)" style="fill: none; stroke: #b0b0b0; stroke-opacity: 0.25; stroke-width: 0.8; stroke-linecap: square"/>
     </g>
     <g id="line2d_6">
      <g>
       <use xlink:href="#m8bd69dfbf9" x="223.199087" y="202.84" style="stroke: #000000; stroke-width: 0.8"/>
      </g>
     </g>
     <g id="text_3">
      <!-- 40 -->
      <g transform="translate(216.200337 218.198281) scale(0.11 -0.11)">
       <defs>
        <path id="DejaVuSans-34" d="M 2419 4116 
L 825 1625 
L 2419 1625 
L 2419 4116 
z
M 2253 4666 
L 3047 4666 
L 3047 1625 
L 3713 1625 
L 3713 1100 
L 3047 1100 
L 3047 0 
L 2419 0 
L 2419 1100 
L 313 1100 
L 313 1709 
L 2253 4666 
z
" transform="scale(0.015625)"/>
       </defs>
       <use xlink:href="#DejaVuSans-34"/>
       <use xlink:href="#DejaVuSans-30" x="63.623047"/>
      </g>
     </g>
    </g>
    <g id="xtick_4">
     <g id="line2d_7">
      <path d="M 304.831778 202.84 
L 304.831778 7.2 
" clip-path="url(#p47309932cc)" style="fill: none; stroke: #b0b0b0; stroke-opacity: 0.25; stroke-width: 0.8; stroke-linecap: square"/>
     </g>
     <g id="line2d_8">
      <g>
       <use xlink:href="#m8bd69dfbf9" x="304.831778" y="202.84" style="stroke: #000000; stroke-width: 0.8"/>
      </g>
     </g>
     <g id="text_4">
      <!-- 60 -->
      <g transform="translate(297.833028 218.198281) scale(0.11 -0.11)">
       <defs>
        <path id="DejaVuSans-36" d="M 2113 2584 
Q 1688 2584 1439 2293 
Q 1191 2003 1191 1497 
Q 1191 994 1439 701 
Q 1688 409 2113 409 
Q 2538 409 2786 701 
Q 3034 994 3034 1497 
Q 3034 2003 2786 2293 
Q 2538 2584 2113 2584 
z
M 3366 4563 
L 3366 3988 
Q 3128 4100 2886 4159 
Q 2644 4219 2406 4219 
Q 1781 4219 1451 3797 
Q 1122 3375 1075 2522 
Q 1259 2794 1537 2939 
Q 1816 3084 2150 3084 
Q 2853 3084 3261 2657 
Q 3669 2231 3669 1497 
Q 3669 778 3244 343 
Q 2819 -91 2113 -91 
Q 1303 -91 875 529 
Q 447 1150 447 2328 
Q 447 3434 972 4092 
Q 1497 4750 2381 4750 
Q 2619 4750 2861 4703 
Q 3103 4656 3366 4563 
z
" transform="scale(0.015625)"/>
       </defs>
       <use xlink:href="#DejaVuSans-36"/>
       <use xlink:href="#DejaVuSans-30" x="63.623047"/>
      </g>
     </g>
    </g>
    <g id="xtick_5">
     <g id="line2d_9">
      <path d="M 386.464469 202.84 
L 386.464469 7.2 
" clip-path="url(#p47309932cc)" style="fill: none; stroke: #b0b0b0; stroke-opacity: 0.25; stroke-width: 0.8; stroke-linecap: square"/>
     </g>
     <g id="line2d_10">
      <g>
       <use xlink:href="#m8bd69dfbf9" x="386.464469" y="202.84" style="stroke: #000000; stroke-width: 0.8"/>
      </g>
     </g>
     <g id="text_5">
      <!-- 80 -->
      <g transform="translate(379.465719 218.198281) scale(0.11 -0.11)">
       <defs>
        <path id="DejaVuSans-38" d="M 2034 2216 
Q 1584 2216 1326 1975 
Q 1069 1734 1069 1313 
Q 1069 891 1326 650 
Q 1584 409 2034 409 
Q 2484 409 2743 651 
Q 3003 894 3003 1313 
Q 3003 1734 2745 1975 
Q 2488 2216 2034 2216 
z
M 1403 2484 
Q 997 2584 770 2862 
Q 544 3141 544 3541 
Q 544 4100 942 4425 
Q 1341 4750 2034 4750 
Q 2731 4750 3128 4425 
Q 3525 4100 3525 3541 
Q 3525 3141 3298 2862 
Q 3072 2584 2669 2484 
Q 3125 2378 3379 2068 
Q 3634 1759 3634 1313 
Q 3634 634 3220 271 
Q 2806 -91 2034 -91 
Q 1263 -91 848 271 
Q 434 634 434 1313 
Q 434 1759 690 2068 
Q 947 2378 1403 2484 
z
M 1172 3481 
Q 1172 3119 1398 2916 
Q 1625 2713 2034 2713 
Q 2441 2713 2670 2916 
Q 2900 3119 2900 3481 
Q 2900 3844 2670 4047 
Q 2441 4250 2034 4250 
Q 1625 4250 1398 4047 
Q 1172 3844 1172 3481 
z
" transform="scale(0.015625)"/>
       </defs>
       <use xlink:href="#DejaVuSans-38"/>
       <use xlink:href="#DejaVuSans-30" x="63.623047"/>
      </g>
     </g>
    </g>
    <g id="xtick_6">
     <g id="line2d_11">
      <path d="M 468.097159 202.84 
L 468.097159 7.2 
" clip-path="url(#p47309932cc)" style="fill: none; stroke: #b0b0b0; stroke-opacity: 0.25; stroke-width: 0.8; stroke-linecap: square"/>
     </g>
     <g id="line2d_12">
      <g>
       <use xlink:href="#m8bd69dfbf9" x="468.097159" y="202.84" style="stroke: #000000; stroke-width: 0.8"/>
      </g>
     </g>
     <g id="text_6">
      <!-- 100 -->
      <g transform="translate(457.599034 218.198281) scale(0.11 -0.11)">
       <defs>
        <path id="DejaVuSans-31" d="M 794 531 
L 1825 531 
L 1825 4091 
L 703 3866 
L 703 4441 
L 1819 4666 
L 2450 4666 
L 2450 531 
L 3481 531 
L 3481 0 
L 794 0 
L 794 531 
z
" transform="scale(0.015625)"/>
       </defs>
       <use xlink:href="#DejaVuSans-31"/>
       <use xlink:href="#DejaVuSans-30" x="63.623047"/>
       <use xlink:href="#DejaVuSans-30" x="127.246094"/>
      </g>
     </g>
    </g>
    <g id="text_7">
     <!-- Epoch -->
     <g transform="translate(247.683125 233.604062) scale(0.12 -0.12)">
      <defs>
       <path id="DejaVuSans-45" d="M 628 4666 
L 3578 4666 
L 3578 4134 
L 1259 4134 
L 1259 2753 
L 3481 2753 
L 3481 2222 
L 1259 2222 
L 1259 531 
L 3634 531 
L 3634 0 
L 628 0 
L 628 4666 
z
" transform="scale(0.015625)"/>
       <path id="DejaVuSans-70" d="M 1159 525 
L 1159 -1331 
L 581 -1331 
L 581 3500 
L 1159 3500 
L 1159 2969 
Q 1341 3281 1617 3432 
Q 1894 3584 2278 3584 
Q 2916 3584 3314 3078 
Q 3713 2572 3713 1747 
Q 3713 922 3314 415 
Q 2916 -91 2278 -91 
Q 1894 -91 1617 61 
Q 1341 213 1159 525 
z
M 3116 1747 
Q 3116 2381 2855 2742 
Q 2594 3103 2138 3103 
Q 1681 3103 1420 2742 
Q 1159 2381 1159 1747 
Q 1159 1113 1420 752 
Q 1681 391 2138 391 
Q 2594 391 2855 752 
Q 3116 1113 3116 1747 
z
" transform="scale(0.015625)"/>
       <path id="DejaVuSans-6f" d="M 1959 3097 
Q 1497 3097 1228 2736 
Q 959 2375 959 1747 
Q 959 1119 1226 758 
Q 1494 397 1959 397 
Q 2419 397 2687 759 
Q 2956 1122 2956 1747 
Q 2956 2369 2687 2733 
Q 2419 3097 1959 3097 
z
M 1959 3584 
Q 2709 3584 3137 3096 
Q 3566 2609 3566 1747 
Q 3566 888 3137 398 
Q 2709 -91 1959 -91 
Q 1206 -91 779 398 
Q 353 888 353 1747 
Q 353 2609 779 3096 
Q 1206 3584 1959 3584 
z
" transform="scale(0.015625)"/>
       <path id="DejaVuSans-63" d="M 3122 3366 
L 3122 2828 
Q 2878 2963 2633 3030 
Q 2388 3097 2138 3097 
Q 1578 3097 1268 2742 
Q 959 2388 959 1747 
Q 959 1106 1268 751 
Q 1578 397 2138 397 
Q 2388 397 2633 464 
Q 2878 531 3122 666 
L 3122 134 
Q 2881 22 2623 -34 
Q 2366 -91 2075 -91 
Q 1284 -91 818 406 
Q 353 903 353 1747 
Q 353 2603 823 3093 
Q 1294 3584 2113 3584 
Q 2378 3584 2631 3529 
Q 2884 3475 3122 3366 
z
" transform="scale(0.015625)"/>
       <path id="DejaVuSans-68" d="M 3513 2113 
L 3513 0 
L 2938 0 
L 2938 2094 
Q 2938 2591 2744 2837 
Q 2550 3084 2163 3084 
Q 1697 3084 1428 2787 
Q 1159 2491 1159 1978 
L 1159 0 
L 581 0 
L 581 4863 
L 1159 4863 
L 1159 2956 
Q 1366 3272 1645 3428 
Q 1925 3584 2291 3584 
Q 2894 3584 3203 3211 
Q 3513 2838 3513 2113 
z
" transform="scale(0.015625)"/>
      </defs>
      <use xlink:href="#DejaVuSans-45"/>
      <use xlink:href="#DejaVuSans-70" x="63.183594"/>
      <use xlink:href="#DejaVuSans-6f" x="126.660156"/>
      <use xlink:href="#DejaVuSans-63" x="187.841797"/>
      <use xlink:href="#DejaVuSans-68" x="242.822266"/>
     </g>
    </g>
   </g>
   <g id="matplotlib.axis_2">
    <g id="ytick_1">
     <g id="line2d_13">
      <path d="M 43.81125 176.99399 
L 488.30125 176.99399 
" clip-path="url(#p47309932cc)" style="fill: none; stroke: #b0b0b0; stroke-opacity: 0.25; stroke-width: 0.8; stroke-linecap: square"/>
     </g>
     <g id="line2d_14">
      <defs>
       <path id="me7c7e7ed22" d="M 0 0 
L -3.5 0 
" style="stroke: #000000; stroke-width: 0.8"/>
      </defs>
      <g>
       <use xlink:href="#me7c7e7ed22" x="43.81125" y="176.99399" style="stroke: #000000; stroke-width: 0.8"/>
      </g>
     </g>
     <g id="text_8">
      <!-- 40 -->
      <g transform="translate(22.81375 181.17313) scale(0.11 -0.11)">
       <use xlink:href="#DejaVuSans-34"/>
       <use xlink:href="#DejaVuSans-30" x="63.623047"/>
      </g>
     </g>
    </g>
    <g id="ytick_2">
     <g id="line2d_15">
      <path d="M 43.81125 132.729543 
L 488.30125 132.729543 
" clip-path="url(#p47309932cc)" style="fill: none; stroke: #b0b0b0; stroke-opacity: 0.25; stroke-width: 0.8; stroke-linecap: square"/>
     </g>
     <g id="line2d_16">
      <g>
       <use xlink:href="#me7c7e7ed22" x="43.81125" y="132.729543" style="stroke: #000000; stroke-width: 0.8"/>
      </g>
     </g>
     <g id="text_9">
      <!-- 50 -->
      <g transform="translate(22.81375 136.908684) scale(0.11 -0.11)">
       <defs>
        <path id="DejaVuSans-35" d="M 691 4666 
L 3169 4666 
L 3169 4134 
L 1269 4134 
L 1269 2991 
Q 1406 3038 1543 3061 
Q 1681 3084 1819 3084 
Q 2600 3084 3056 2656 
Q 3513 2228 3513 1497 
Q 3513 744 3044 326 
Q 2575 -91 1722 -91 
Q 1428 -91 1123 -41 
Q 819 9 494 109 
L 494 744 
Q 775 591 1075 516 
Q 1375 441 1709 441 
Q 2250 441 2565 725 
Q 2881 1009 2881 1497 
Q 2881 1984 2565 2268 
Q 2250 2553 1709 2553 
Q 1456 2553 1204 2497 
Q 953 2441 691 2322 
L 691 4666 
z
" transform="scale(0.015625)"/>
       </defs>
       <use xlink:href="#DejaVuSans-35"/>
       <use xlink:href="#DejaVuSans-30" x="63.623047"/>
      </g>
     </g>
    </g>
    <g id="ytick_3">
     <g id="line2d_17">
      <path d="M 43.81125 88.465097 
L 488.30125 88.465097 
" clip-path="url(#p47309932cc)" style="fill: none; stroke: #b0b0b0; stroke-opacity: 0.25; stroke-width: 0.8; stroke-linecap: square"/>
     </g>
     <g id="line2d_18">
      <g>
       <use xlink:href="#me7c7e7ed22" x="43.81125" y="88.465097" style="stroke: #000000; stroke-width: 0.8"/>
      </g>
     </g>
     <g id="text_10">
      <!-- 60 -->
      <g transform="translate(22.81375 92.644238) scale(0.11 -0.11)">
       <use xlink:href="#DejaVuSans-36"/>
       <use xlink:href="#DejaVuSans-30" x="63.623047"/>
      </g>
     </g>
    </g>
    <g id="ytick_4">
     <g id="line2d_19">
      <path d="M 43.81125 44.200651 
L 488.30125 44.200651 
" clip-path="url(#p47309932cc)" style="fill: none; stroke: #b0b0b0; stroke-opacity: 0.25; stroke-width: 0.8; stroke-linecap: square"/>
     </g>
     <g id="line2d_20">
      <g>
       <use xlink:href="#me7c7e7ed22" x="43.81125" y="44.200651" style="stroke: #000000; stroke-width: 0.8"/>
      </g>
     </g>
     <g id="text_11">
      <!-- 70 -->
      <g transform="translate(22.81375 48.379791) scale(0.11 -0.11)">
       <defs>
        <path id="DejaVuSans-37" d="M 525 4666 
L 3525 4666 
L 3525 4397 
L 1831 0 
L 1172 0 
L 2766 4134 
L 525 4134 
L 525 4666 
z
" transform="scale(0.015625)"/>
       </defs>
       <use xlink:href="#DejaVuSans-37"/>
       <use xlink:href="#DejaVuSans-30" x="63.623047"/>
      </g>
     </g>
    </g>
    <g id="text_12">
     <!-- Test Accuracy (%) -->
     <g transform="translate(16.318125 158.424687) rotate(-90) scale(0.12 -0.12)">
      <defs>
       <path id="DejaVuSans-54" d="M -19 4666 
L 3928 4666 
L 3928 4134 
L 2272 4134 
L 2272 0 
L 1638 0 
L 1638 4134 
L -19 4134 
L -19 4666 
z
" transform="scale(0.015625)"/>
       <path id="DejaVuSans-65" d="M 3597 1894 
L 3597 1613 
L 953 1613 
Q 991 1019 1311 708 
Q 1631 397 2203 397 
Q 2534 397 2845 478 
Q 3156 559 3463 722 
L 3463 178 
Q 3153 47 2828 -22 
Q 2503 -91 2169 -91 
Q 1331 -91 842 396 
Q 353 884 353 1716 
Q 353 2575 817 3079 
Q 1281 3584 2069 3584 
Q 2775 3584 3186 3129 
Q 3597 2675 3597 1894 
z
M 3022 2063 
Q 3016 2534 2758 2815 
Q 2500 3097 2075 3097 
Q 1594 3097 1305 2825 
Q 1016 2553 972 2059 
L 3022 2063 
z
" transform="scale(0.015625)"/>
       <path id="DejaVuSans-73" d="M 2834 3397 
L 2834 2853 
Q 2591 2978 2328 3040 
Q 2066 3103 1784 3103 
Q 1356 3103 1142 2972 
Q 928 2841 928 2578 
Q 928 2378 1081 2264 
Q 1234 2150 1697 2047 
L 1894 2003 
Q 2506 1872 2764 1633 
Q 3022 1394 3022 966 
Q 3022 478 2636 193 
Q 2250 -91 1575 -91 
Q 1294 -91 989 -36 
Q 684 19 347 128 
L 347 722 
Q 666 556 975 473 
Q 1284 391 1588 391 
Q 1994 391 2212 530 
Q 2431 669 2431 922 
Q 2431 1156 2273 1281 
Q 2116 1406 1581 1522 
L 1381 1569 
Q 847 1681 609 1914 
Q 372 2147 372 2553 
Q 372 3047 722 3315 
Q 1072 3584 1716 3584 
Q 2034 3584 2315 3537 
Q 2597 3491 2834 3397 
z
" transform="scale(0.015625)"/>
       <path id="DejaVuSans-74" d="M 1172 4494 
L 1172 3500 
L 2356 3500 
L 2356 3053 
L 1172 3053 
L 1172 1153 
Q 1172 725 1289 603 
Q 1406 481 1766 481 
L 2356 481 
L 2356 0 
L 1766 0 
Q 1100 0 847 248 
Q 594 497 594 1153 
L 594 3053 
L 172 3053 
L 172 3500 
L 594 3500 
L 594 4494 
L 1172 4494 
z
" transform="scale(0.015625)"/>
       <path id="DejaVuSans-20" transform="scale(0.015625)"/>
       <path id="DejaVuSans-41" d="M 2188 4044 
L 1331 1722 
L 3047 1722 
L 2188 4044 
z
M 1831 4666 
L 2547 4666 
L 4325 0 
L 3669 0 
L 3244 1197 
L 1141 1197 
L 716 0 
L 50 0 
L 1831 4666 
z
" transform="scale(0.015625)"/>
       <path id="DejaVuSans-75" d="M 544 1381 
L 544 3500 
L 1119 3500 
L 1119 1403 
Q 1119 906 1312 657 
Q 1506 409 1894 409 
Q 2359 409 2629 706 
Q 2900 1003 2900 1516 
L 2900 3500 
L 3475 3500 
L 3475 0 
L 2900 0 
L 2900 538 
Q 2691 219 2414 64 
Q 2138 -91 1772 -91 
Q 1169 -91 856 284 
Q 544 659 544 1381 
z
M 1991 3584 
L 1991 3584 
z
" transform="scale(0.015625)"/>
       <path id="DejaVuSans-72" d="M 2631 2963 
Q 2534 3019 2420 3045 
Q 2306 3072 2169 3072 
Q 1681 3072 1420 2755 
Q 1159 2438 1159 1844 
L 1159 0 
L 581 0 
L 581 3500 
L 1159 3500 
L 1159 2956 
Q 1341 3275 1631 3429 
Q 1922 3584 2338 3584 
Q 2397 3584 2469 3576 
Q 2541 3569 2628 3553 
L 2631 2963 
z
" transform="scale(0.015625)"/>
       <path id="DejaVuSans-61" d="M 2194 1759 
Q 1497 1759 1228 1600 
Q 959 1441 959 1056 
Q 959 750 1161 570 
Q 1363 391 1709 391 
Q 2188 391 2477 730 
Q 2766 1069 2766 1631 
L 2766 1759 
L 2194 1759 
z
M 3341 1997 
L 3341 0 
L 2766 0 
L 2766 531 
Q 2569 213 2275 61 
Q 1981 -91 1556 -91 
Q 1019 -91 701 211 
Q 384 513 384 1019 
Q 384 1609 779 1909 
Q 1175 2209 1959 2209 
L 2766 2209 
L 2766 2266 
Q 2766 2663 2505 2880 
Q 2244 3097 1772 3097 
Q 1472 3097 1187 3025 
Q 903 2953 641 2809 
L 641 3341 
Q 956 3463 1253 3523 
Q 1550 3584 1831 3584 
Q 2591 3584 2966 3190 
Q 3341 2797 3341 1997 
z
" transform="scale(0.015625)"/>
       <path id="DejaVuSans-79" d="M 2059 -325 
Q 1816 -950 1584 -1140 
Q 1353 -1331 966 -1331 
L 506 -1331 
L 506 -850 
L 844 -850 
Q 1081 -850 1212 -737 
Q 1344 -625 1503 -206 
L 1606 56 
L 191 3500 
L 800 3500 
L 1894 763 
L 2988 3500 
L 3597 3500 
L 2059 -325 
z
" transform="scale(0.015625)"/>
       <path id="DejaVuSans-28" d="M 1984 4856 
Q 1566 4138 1362 3434 
Q 1159 2731 1159 2009 
Q 1159 1288 1364 580 
Q 1569 -128 1984 -844 
L 1484 -844 
Q 1016 -109 783 600 
Q 550 1309 550 2009 
Q 550 2706 781 3412 
Q 1013 4119 1484 4856 
L 1984 4856 
z
" transform="scale(0.015625)"/>
       <path id="DejaVuSans-25" d="M 4653 2053 
Q 4381 2053 4226 1822 
Q 4072 1591 4072 1178 
Q 4072 772 4226 539 
Q 4381 306 4653 306 
Q 4919 306 5073 539 
Q 5228 772 5228 1178 
Q 5228 1588 5073 1820 
Q 4919 2053 4653 2053 
z
M 4653 2450 
Q 5147 2450 5437 2106 
Q 5728 1763 5728 1178 
Q 5728 594 5436 251 
Q 5144 -91 4653 -91 
Q 4153 -91 3862 251 
Q 3572 594 3572 1178 
Q 3572 1766 3864 2108 
Q 4156 2450 4653 2450 
z
M 1428 4353 
Q 1159 4353 1004 4120 
Q 850 3888 850 3481 
Q 850 3069 1003 2837 
Q 1156 2606 1428 2606 
Q 1700 2606 1854 2837 
Q 2009 3069 2009 3481 
Q 2009 3884 1853 4118 
Q 1697 4353 1428 4353 
z
M 4250 4750 
L 4750 4750 
L 1831 -91 
L 1331 -91 
L 4250 4750 
z
M 1428 4750 
Q 1922 4750 2215 4408 
Q 2509 4066 2509 3481 
Q 2509 2891 2217 2550 
Q 1925 2209 1428 2209 
Q 931 2209 642 2551 
Q 353 2894 353 3481 
Q 353 4063 643 4406 
Q 934 4750 1428 4750 
z
" transform="scale(0.015625)"/>
       <path id="DejaVuSans-29" d="M 513 4856 
L 1013 4856 
Q 1481 4119 1714 3412 
Q 1947 2706 1947 2009 
Q 1947 1309 1714 600 
Q 1481 -109 1013 -844 
L 513 -844 
Q 928 -128 1133 580 
Q 1338 1288 1338 2009 
Q 1338 2731 1133 3434 
Q 928 4138 513 4856 
z
" transform="scale(0.015625)"/>
      </defs>
      <use xlink:href="#DejaVuSans-54"/>
      <use xlink:href="#DejaVuSans-65" x="44.083984"/>
      <use xlink:href="#DejaVuSans-73" x="105.607422"/>
      <use xlink:href="#DejaVuSans-74" x="157.707031"/>
      <use xlink:href="#DejaVuSans-20" x="196.916016"/>
      <use xlink:href="#DejaVuSans-41" x="228.703125"/>
      <use xlink:href="#DejaVuSans-63" x="295.361328"/>
      <use xlink:href="#DejaVuSans-63" x="350.341797"/>
      <use xlink:href="#DejaVuSans-75" x="405.322266"/>
      <use xlink:href="#DejaVuSans-72" x="468.701172"/>
      <use xlink:href="#DejaVuSans-61" x="509.814453"/>
      <use xlink:href="#DejaVuSans-63" x="571.09375"/>
      <use xlink:href="#DejaVuSans-79" x="626.074219"/>
      <use xlink:href="#DejaVuSans-20" x="685.253906"/>
      <use xlink:href="#DejaVuSans-28" x="717.041016"/>
      <use xlink:href="#DejaVuSans-25" x="756.054688"/>
      <use xlink:href="#DejaVuSans-29" x="851.074219"/>
     </g>
    </g>
   </g>
   <g id="line2d_21">
    <path d="M 64.015341 193.947273 
L 68.096975 155.747056 
L 72.17861 138.085541 
L 76.260244 154.684709 
L 80.341879 137.510104 
L 84.423514 117.546838 
L 88.505148 102.142811 
L 92.586783 86.960106 
L 96.668417 104.975736 
L 100.750052 88.774948 
L 104.831686 112.544956 
L 108.913321 77.487514 
L 112.994955 85.543644 
L 117.07659 75.141499 
L 121.158224 71.821665 
L 125.239859 86.694519 
L 129.321493 78.903977 
L 133.403128 60.003058 
L 137.484762 63.942594 
L 141.566397 47.07784 
L 145.648031 55.355291 
L 149.729666 51.238698 
L 153.811301 35.657613 
L 157.892935 38.711859 
L 161.97457 49.158269 
L 166.056204 42.607131 
L 170.137839 51.150169 
L 174.219473 28.132657 
L 178.301108 17.420661 
L 182.382742 44.953146 
L 186.464377 31.142639 
L 190.546011 29.814706 
L 194.627646 27.512954 
L 198.70928 31.009846 
L 202.790915 28.442508 
L 206.872549 28.132657 
L 210.954184 22.024163 
L 215.035818 29.150739 
L 219.117453 26.67193 
L 223.199087 16.092727 
L 227.280722 23.927534 
L 231.362357 35.790406 
L 235.443991 23.396361 
L 239.525626 28.885152 
L 243.60726 31.718077 
L 247.688895 24.901352 
L 251.770529 27.86707 
L 255.852164 30.345879 
L 259.933798 29.416326 
L 264.015433 27.778541 
L 268.097067 32.160721 
L 272.178702 33.754241 
L 276.260336 25.343997 
L 280.341971 29.947499 
L 284.423605 30.877052 
L 288.50524 30.965581 
L 292.586874 33.887035 
L 296.668509 38.800388 
L 300.750143 37.42819 
L 304.831778 48.627095 
L 308.913413 45.528584 
L 312.995047 49.999293 
L 317.076682 38.62333 
L 321.158316 49.600913 
L 325.239951 48.051658 
L 329.321585 46.369609 
L 333.40322 44.333444 
L 337.484854 53.186333 
L 341.566489 55.974993 
L 345.648123 53.142069 
L 349.729758 67.395221 
L 353.811392 50.574731 
L 357.893027 54.514267 
L 361.974661 58.453802 
L 366.056296 56.993076 
L 370.13793 65.226263 
L 374.219565 66.244345 
L 378.301199 64.60656 
L 382.382834 62.968776 
L 386.464469 79.390886 
L 390.546103 78.24001 
L 394.627738 75.982523 
L 398.709372 76.469432 
L 402.791007 79.302357 
L 406.872641 77.487514 
L 410.954276 79.258092 
L 415.03591 83.551744 
L 419.117545 74.920176 
L 423.199179 81.913959 
L 427.280814 78.195746 
L 431.362448 74.964441 
L 435.444083 82.445132 
L 439.525717 93.86536 
L 443.607352 92.404633 
L 447.688986 97.140929 
L 451.770621 102.275604 
L 455.852256 105.993818 
L 459.93389 98.114746 
L 464.015525 90.501262 
L 468.097159 99.398415 
" clip-path="url(#p47309932cc)" style="fill: none; stroke: #e41a1c; stroke-width: 2; stroke-linecap: square"/>
   </g>
   <g id="line2d_22">
    <path d="M 64.015341 82.268075 
L 68.096975 51.725607 
L 72.17861 70.139616 
L 76.260244 38.534802 
L 80.341879 71.423285 
L 84.423514 32.027928 
L 88.505148 25.698112 
L 92.586783 56.461902 
L 96.668417 21.271667 
L 100.750052 36.011728 
L 104.831686 16.668165 
L 108.913321 31.85087 
L 112.994955 19.279767 
L 117.07659 24.193121 
L 121.158224 26.052228 
L 125.239859 33.400126 
L 129.321493 26.583401 
L 133.403128 19.633883 
L 137.484762 23.307832 
L 141.566397 47.47622 
L 145.648031 23.617683 
L 149.729666 24.857088 
L 153.811301 22.112692 
L 157.892935 33.621448 
L 161.97457 34.462473 
L 166.056204 22.820923 
L 170.137839 23.042245 
L 174.219473 28.176921 
L 178.301108 22.245485 
L 182.382742 22.732394 
L 186.464377 23.661948 
L 190.546011 33.887035 
L 194.627646 27.734277 
L 198.70928 34.152621 
L 202.790915 35.03791 
L 206.872549 31.806606 
L 210.954184 32.160721 
L 215.035818 42.164486 
L 219.117453 38.047893 
L 223.199087 34.993646 
L 227.280722 50.309144 
L 231.362357 42.208751 
L 235.443991 46.236815 
L 239.525626 53.186333 
L 243.60726 51.415755 
L 247.688895 59.737471 
L 251.770529 61.375256 
L 255.852164 54.64706 
L 259.933798 56.506167 
L 264.015433 63.01304 
L 268.097067 62.304809 
L 272.178702 64.60656 
L 276.260336 61.508049 
L 280.341971 73.680772 
L 284.423605 70.626525 
L 288.50524 75.761201 
L 292.586874 86.60599 
L 296.668509 74.743119 
L 300.750143 71.998723 
L 304.831778 89.527444 
L 308.913413 89.483179 
L 312.995047 81.82543 
L 317.076682 80.984406 
L 321.158316 99.0443 
L 325.239951 83.241892 
L 329.321585 91.873459 
L 333.40322 99.221358 
L 337.484854 98.601655 
L 341.566489 92.980071 
L 345.648123 121.574903 
L 349.729758 101.965753 
L 353.811392 97.008135 
L 357.893027 108.782478 
L 361.974661 108.339833 
L 366.056296 109.357916 
L 370.13793 112.9876 
L 374.219565 112.633485 
L 378.301199 113.872889 
L 382.382834 104.356033 
L 386.464469 124.806208 
L 390.546103 132.818072 
L 394.627738 132.419692 
L 398.709372 120.689614 
L 402.791007 127.771925 
L 406.872641 119.228887 
L 410.954276 131.136023 
L 415.03591 134.323063 
L 419.117545 136.58055 
L 423.199179 130.20647 
L 427.280814 133.703361 
L 431.362448 138.749508 
L 435.444083 126.089876 
L 439.525717 129.80809 
L 443.607352 140.475822 
L 447.688986 146.141671 
L 451.770621 145.610497 
L 455.852256 137.111724 
L 459.93389 150.61238 
L 464.015525 151.01076 
L 468.097159 144.459622 
" clip-path="url(#p47309932cc)" style="fill: none; stroke: #228b22; stroke-width: 2; stroke-linecap: square"/>
   </g>
   <g id="patch_3">
    <path d="M 43.81125 202.84 
L 43.81125 7.2 
" style="fill: none; stroke: #000000; stroke-width: 0.8; stroke-linejoin: miter; stroke-linecap: square"/>
   </g>
   <g id="patch_4">
    <path d="M 488.30125 202.84 
L 488.30125 7.2 
" style="fill: none; stroke: #000000; stroke-width: 0.8; stroke-linejoin: miter; stroke-linecap: square"/>
   </g>
   <g id="patch_5">
    <path d="M 43.81125 202.84 
L 488.30125 202.84 
" style="fill: none; stroke: #000000; stroke-width: 0.8; stroke-linejoin: miter; stroke-linecap: square"/>
   </g>
   <g id="patch_6">
    <path d="M 43.81125 7.2 
L 488.30125 7.2 
" style="fill: none; stroke: #000000; stroke-width: 0.8; stroke-linejoin: miter; stroke-linecap: square"/>
   </g>
   <g id="legend_1">
    <g id="patch_7">
     <path d="M 316.955937 197.84 
L 481.30125 197.84 
Q 483.30125 197.84 483.30125 195.84 
L 483.30125 167.48375 
Q 483.30125 165.48375 481.30125 165.48375 
L 316.955937 165.48375 
Q 314.955937 165.48375 314.955937 167.48375 
L 314.955937 195.84 
Q 314.955937 197.84 316.955937 197.84 
z
" style="fill: #ffffff; opacity: 0.8; stroke: #cccccc; stroke-linejoin: miter"/>
    </g>
    <g id="line2d_23">
     <path d="M 318.955937 173.582188 
L 328.955937 173.582188 
L 338.955937 173.582188 
" style="fill: none; stroke: #e41a1c; stroke-width: 2; stroke-linecap: square"/>
    </g>
    <g id="text_13">
     <!-- Accuracy - Baseline -->
     <g transform="translate(346.955937 177.082188) scale(0.1 -0.1)">
      <defs>
       <path id="DejaVuSans-2d" d="M 313 2009 
L 1997 2009 
L 1997 1497 
L 313 1497 
L 313 2009 
z
" transform="scale(0.015625)"/>
       <path id="DejaVuSans-42" d="M 1259 2228 
L 1259 519 
L 2272 519 
Q 2781 519 3026 730 
Q 3272 941 3272 1375 
Q 3272 1813 3026 2020 
Q 2781 2228 2272 2228 
L 1259 2228 
z
M 1259 4147 
L 1259 2741 
L 2194 2741 
Q 2656 2741 2882 2914 
Q 3109 3088 3109 3444 
Q 3109 3797 2882 3972 
Q 2656 4147 2194 4147 
L 1259 4147 
z
M 628 4666 
L 2241 4666 
Q 2963 4666 3353 4366 
Q 3744 4066 3744 3513 
Q 3744 3084 3544 2831 
Q 3344 2578 2956 2516 
Q 3422 2416 3680 2098 
Q 3938 1781 3938 1306 
Q 3938 681 3513 340 
Q 3088 0 2303 0 
L 628 0 
L 628 4666 
z
" transform="scale(0.015625)"/>
       <path id="DejaVuSans-6c" d="M 603 4863 
L 1178 4863 
L 1178 0 
L 603 0 
L 603 4863 
z
" transform="scale(0.015625)"/>
       <path id="DejaVuSans-69" d="M 603 3500 
L 1178 3500 
L 1178 0 
L 603 0 
L 603 3500 
z
M 603 4863 
L 1178 4863 
L 1178 4134 
L 603 4134 
L 603 4863 
z
" transform="scale(0.015625)"/>
       <path id="DejaVuSans-6e" d="M 3513 2113 
L 3513 0 
L 2938 0 
L 2938 2094 
Q 2938 2591 2744 2837 
Q 2550 3084 2163 3084 
Q 1697 3084 1428 2787 
Q 1159 2491 1159 1978 
L 1159 0 
L 581 0 
L 581 3500 
L 1159 3500 
L 1159 2956 
Q 1366 3272 1645 3428 
Q 1925 3584 2291 3584 
Q 2894 3584 3203 3211 
Q 3513 2838 3513 2113 
z
" transform="scale(0.015625)"/>
      </defs>
      <use xlink:href="#DejaVuSans-41"/>
      <use xlink:href="#DejaVuSans-63" x="66.658203"/>
      <use xlink:href="#DejaVuSans-63" x="121.638672"/>
      <use xlink:href="#DejaVuSans-75" x="176.619141"/>
      <use xlink:href="#DejaVuSans-72" x="239.998047"/>
      <use xlink:href="#DejaVuSans-61" x="281.111328"/>
      <use xlink:href="#DejaVuSans-63" x="342.390625"/>
      <use xlink:href="#DejaVuSans-79" x="397.371094"/>
      <use xlink:href="#DejaVuSans-20" x="456.550781"/>
      <use xlink:href="#DejaVuSans-2d" x="488.337891"/>
      <use xlink:href="#DejaVuSans-20" x="524.421875"/>
      <use xlink:href="#DejaVuSans-42" x="556.208984"/>
      <use xlink:href="#DejaVuSans-61" x="624.8125"/>
      <use xlink:href="#DejaVuSans-73" x="686.091797"/>
      <use xlink:href="#DejaVuSans-65" x="738.191406"/>
      <use xlink:href="#DejaVuSans-6c" x="799.714844"/>
      <use xlink:href="#DejaVuSans-69" x="827.498047"/>
      <use xlink:href="#DejaVuSans-6e" x="855.28125"/>
      <use xlink:href="#DejaVuSans-65" x="918.660156"/>
     </g>
    </g>
    <g id="line2d_24">
     <path d="M 318.955937 188.260312 
L 328.955937 188.260312 
L 338.955937 188.260312 
" style="fill: none; stroke: #228b22; stroke-width: 2; stroke-linecap: square"/>
    </g>
    <g id="text_14">
     <!-- Accuracy - SSL Pre-trained -->
     <g transform="translate(346.955937 191.760312) scale(0.1 -0.1)">
      <defs>
       <path id="DejaVuSans-53" d="M 3425 4513 
L 3425 3897 
Q 3066 4069 2747 4153 
Q 2428 4238 2131 4238 
Q 1616 4238 1336 4038 
Q 1056 3838 1056 3469 
Q 1056 3159 1242 3001 
Q 1428 2844 1947 2747 
L 2328 2669 
Q 3034 2534 3370 2195 
Q 3706 1856 3706 1288 
Q 3706 609 3251 259 
Q 2797 -91 1919 -91 
Q 1588 -91 1214 -16 
Q 841 59 441 206 
L 441 856 
Q 825 641 1194 531 
Q 1563 422 1919 422 
Q 2459 422 2753 634 
Q 3047 847 3047 1241 
Q 3047 1584 2836 1778 
Q 2625 1972 2144 2069 
L 1759 2144 
Q 1053 2284 737 2584 
Q 422 2884 422 3419 
Q 422 4038 858 4394 
Q 1294 4750 2059 4750 
Q 2388 4750 2728 4690 
Q 3069 4631 3425 4513 
z
" transform="scale(0.015625)"/>
       <path id="DejaVuSans-4c" d="M 628 4666 
L 1259 4666 
L 1259 531 
L 3531 531 
L 3531 0 
L 628 0 
L 628 4666 
z
" transform="scale(0.015625)"/>
       <path id="DejaVuSans-50" d="M 1259 4147 
L 1259 2394 
L 2053 2394 
Q 2494 2394 2734 2622 
Q 2975 2850 2975 3272 
Q 2975 3691 2734 3919 
Q 2494 4147 2053 4147 
L 1259 4147 
z
M 628 4666 
L 2053 4666 
Q 2838 4666 3239 4311 
Q 3641 3956 3641 3272 
Q 3641 2581 3239 2228 
Q 2838 1875 2053 1875 
L 1259 1875 
L 1259 0 
L 628 0 
L 628 4666 
z
" transform="scale(0.015625)"/>
       <path id="DejaVuSans-64" d="M 2906 2969 
L 2906 4863 
L 3481 4863 
L 3481 0 
L 2906 0 
L 2906 525 
Q 2725 213 2448 61 
Q 2172 -91 1784 -91 
Q 1150 -91 751 415 
Q 353 922 353 1747 
Q 353 2572 751 3078 
Q 1150 3584 1784 3584 
Q 2172 3584 2448 3432 
Q 2725 3281 2906 2969 
z
M 947 1747 
Q 947 1113 1208 752 
Q 1469 391 1925 391 
Q 2381 391 2643 752 
Q 2906 1113 2906 1747 
Q 2906 2381 2643 2742 
Q 2381 3103 1925 3103 
Q 1469 3103 1208 2742 
Q 947 2381 947 1747 
z
" transform="scale(0.015625)"/>
      </defs>
      <use xlink:href="#DejaVuSans-41"/>
      <use xlink:href="#DejaVuSans-63" x="66.658203"/>
      <use xlink:href="#DejaVuSans-63" x="121.638672"/>
      <use xlink:href="#DejaVuSans-75" x="176.619141"/>
      <use xlink:href="#DejaVuSans-72" x="239.998047"/>
      <use xlink:href="#DejaVuSans-61" x="281.111328"/>
      <use xlink:href="#DejaVuSans-63" x="342.390625"/>
      <use xlink:href="#DejaVuSans-79" x="397.371094"/>
      <use xlink:href="#DejaVuSans-20" x="456.550781"/>
      <use xlink:href="#DejaVuSans-2d" x="488.337891"/>
      <use xlink:href="#DejaVuSans-20" x="524.421875"/>
      <use xlink:href="#DejaVuSans-53" x="556.208984"/>
      <use xlink:href="#DejaVuSans-53" x="619.685547"/>
      <use xlink:href="#DejaVuSans-4c" x="683.162109"/>
      <use xlink:href="#DejaVuSans-20" x="738.875"/>
      <use xlink:href="#DejaVuSans-50" x="770.662109"/>
      <use xlink:href="#DejaVuSans-72" x="829.214844"/>
      <use xlink:href="#DejaVuSans-65" x="868.078125"/>
      <use xlink:href="#DejaVuSans-2d" x="929.601562"/>
      <use xlink:href="#DejaVuSans-74" x="965.685547"/>
      <use xlink:href="#DejaVuSans-72" x="1004.894531"/>
      <use xlink:href="#DejaVuSans-61" x="1046.007812"/>
      <use xlink:href="#DejaVuSans-69" x="1107.287109"/>
      <use xlink:href="#DejaVuSans-6e" x="1135.070312"/>
      <use xlink:href="#DejaVuSans-65" x="1198.449219"/>
      <use xlink:href="#DejaVuSans-64" x="1259.972656"/>
     </g>
    </g>
   </g>
  </g>
 </g>
 <defs>
  <clipPath id="p47309932cc">
   <rect x="43.81125" y="7.2" width="444.49" height="195.64"/>
  </clipPath>
 </defs>
</svg>
